<?xml version="1.0" encoding="utf-8"?>
<!-- Generator: Adobe Illustrator 18.0.0, SVG Export Plug-In . SVG Version: 6.00 Build 0)  -->
<!DOCTYPE svg PUBLIC "-//W3C//DTD SVG 1.1//EN" "http://www.w3.org/Graphics/SVG/1.1/DTD/svg11.dtd">
<svg version="1.1" id="Layer_1" xmlns="http://www.w3.org/2000/svg" xmlns:xlink="http://www.w3.org/1999/xlink" x="0px" y="0px"
	 viewBox="0 0 480 360" enable-background="new 0 0 480 360" xml:space="preserve">
<path fill="#090A0C" d="M260.7,166.7c1.4,4.8-0.5,10.3-4.4,12.7c-0.9,0.5-1.4,0.2-1.9-0.4c-1.2-1.4-2.5-2.9-3.7-4.2
	c-1.6,0.7-1.2,2.4-2.1,3.5c-0.8,1-1.5,2-3.1,2.4c1.4,0.9,2.6,1.6,3.8,2.4c5,3.3,9.1,7.2,9.1,13.9c0,2.4,1.5,4.4,2.9,6.2
	c1.1,1.4,3,1.6,4.5,0.6c1.1-0.7,2.1-0.9,2.8,0.2c0.7,1.2,0,2.5-1.1,2.9c-2,0.8-3.8,1.6-5.5,3c-1.5,1.2-3.7,0-4.4-2.1
	c-0.4-1.2-0.6-2.3-2.3-1.6c-1,0.4-1.3-0.5-1.5-1.2c-0.9-3.7-2.6-7.2-2.6-11.1c0-1.1-0.3-1.8-1.4-2.3c-3.1-1.4-6.6-1.8-9.3-4.1
	c-0.8-0.6-1.1,0.4-1.6,0.7c-3,2.1-5.5,4.8-9.1,6c-1.7,0-3.3,0-5,0c-2.8-0.6-5.6-1.2-8.5-1.8c-0.9-0.2-1.9-0.5-2,1
	c-0.1,0.9,0.3,2.1-0.9,2.2c-1.4,0.1-1.8-1.2-2.1-2.3c0-1.2,0-2.3,0-3.5c0.2-1.6,1.2-3,0.9-4.7c-0.2-1.2,0.8-1.7,2-1.2
	c2.1,0.7,4.4,1,6.2,2.3c2.1,1.5,4.6,1.6,7,2.1c-0.8,0.6-1.8,0.2-2.1,0.2c0.3-0.1,1.3,0.4,2.1-0.2c1.6,0.5,2.8,0.6,2.9-1.7
	c0-1.1,0.9-2,1.7-2.7c1.3-1.2,2-2.5,2.2-4.2c0.4,0.2,0.2,0.6,0.4,1c-0.1-0.4,0.1-0.9-0.3-1.3c0.1-0.3,0.2-0.7,0.4-0.8
	c2.8-1.6,4.3-4.1,4.5-7.3c0.5,0.5,0.2,1.2,0.4,2c-0.1-0.8,0.1-1.5-0.4-2c0.2-0.9,0.6-1.7,0.7-2.6c0.1-1,0.5-2.5-0.9-2.6
	c-1.3-0.1-3-0.5-3.9,1.3c-0.4,0.9-0.4,2-1.3,2.6c-0.6,0.8-0.4,1.6-0.1,2.5c1.3,1.6,2.3,3.3,0.3,5.1c-1.2,1.1-3.3,0.9-3.5-0.5
	c-0.4-4-2.1-8-0.8-12.2c0.5,0.7,0.2,1.4,0.2,1.7c-0.1-0.3,0.3-1-0.2-1.7c-0.2-1.8,1.2-2.1,2.4-2.5c1-0.3,2-0.7,3-1
	c0.5,0.5,1.1,0.3,1.6,0.4c-0.6-0.1-1.2,0.1-1.6-0.3c3.5-0.4,6.9-1.9,10.5-2c1.7,0,3.3-0.9,3.2-3.1c0-0.6-0.1-1.3,0.4-1.9
	c0.5,0.8,0.3,1.7,0.2,2.1c-0.1-0.4,0.3-1.2-0.2-2.1c1-2.3,2.8-3.4,5-2.9c2.1,0.5,3.9,2.7,3.6,4.9c-0.1,1,0.2,2.2-0.5,3.1
	c-0.5-0.7-0.3-1.4-0.3-1.8c0.1,0.3-0.3,1.1,0.3,1.8c-0.3,0.2-0.7,0.3-0.7,0.5c-0.6,2.6-2.4,2.3-4.2,1.6c-0.5,2.2,1.6,3.1,1.9,4.7
	c-0.1,0.9,0.1,1.7,0.3,2.5c0.3,0.9,0.7,1.8,1.8,2.2c0.2-1.4-1.9-2.2-0.7-3.7C258.6,164.4,259.1,164.4,260.7,166.7
	c-0.5,1.1-0.1,2.3-0.3,3.5C260.6,169,260.2,167.8,260.7,166.7z"/>
</svg>
