<?xml version="1.0" encoding="utf-8"?>
<!-- Generator: Adobe Illustrator 18.0.0, SVG Export Plug-In . SVG Version: 6.00 Build 0)  -->
<!DOCTYPE svg PUBLIC "-//W3C//DTD SVG 1.1//EN" "http://www.w3.org/Graphics/SVG/1.1/DTD/svg11.dtd">
<svg version="1.1" id="Layer_1" xmlns="http://www.w3.org/2000/svg" xmlns:xlink="http://www.w3.org/1999/xlink" x="0px" y="0px"
	 viewBox="0 0 480 360" enable-background="new 0 0 480 360" xml:space="preserve">
<path d="M189.8,90.1c-2.2,4.6-3.1,9.7-4.8,14.5c-0.3,0.9-0.2,1.7,0.3,2.5c0.6,1.1,0.5,2.3,0.5,3.5c0,0.2-0.1,0.4-0.3,0.4
	c-0.3,0-0.4-0.2-0.4-0.4c-0.1-0.4-0.1-0.8-0.2-1.3c-0.8,0.6-0.9,1.6-0.2,2.2c0.4,0.4,0.1,1.1-0.1,1.1c-0.7-0.2-0.6,0.6-0.9,0.8
	c-1.1-2.1-1.1-4.3-0.9-6.5c0.2-2.6,0.3-5.3,0.5-7.9c0.2-1.8,0.3-3.6,0.9-5.4c0.9-2.8,1.1-5.7,1.8-8.5c0.6-2.5,1.9-4.2,4.3-4.9
	c0.3-0.1,0.6-0.3,1-0.4c2.1-0.8,2.6-2.2,1.3-4.2c-0.8-1.2-0.9-2.5-0.6-3.9c0.4-1.7,1.6-2.8,3.4-3c1.1-0.1,2.3,0,3.4,0.2
	c0.6,0.1,0.8,0.5,0.6,1c-0.2,0.6,0.1,1,0.3,1.5c0.5,0.9,1.1,1.7,0.8,2.8c-0.1,0.3,0,0.5,0.2,0.7c0.3,0.4,0.7,0.8-0.1,1
	c-0.3,0.1-0.6,2.7-0.4,2.8c0.4,0.3,1,0.1,1.4,0.1c2.8-0.5,5.5,0.3,8.3,0.4c0.8,0,1.5,0.1,2.2-0.2c2.6-1,5.4-0.9,8.1-1.2
	c1.1-0.2,2.1-0.2,3.2-0.4c1.3-0.2,2.4-0.9,3.3-1.8c0.4-0.5,0.9-0.4,1.4-0.4c1.7,0.2,3.3,0.6,5,0.4c0.4,0,0.7,0.2,0.6,0.4
	c-0.1,0.4-0.3,0.8-0.7,1c-0.2,0.1-0.5,0.1-0.7,0.1c-0.9-0.1-1.8-0.3-2.3,0.8c-0.1,0.1-0.3,0.2-0.5,0.2c-0.8-0.1-1.1,0.5-1.5,1
	c-0.6,1-1.4,1.2-2.5,0.7c-0.7-0.3-1.5-0.3-2.3,0c-4.2,1.6-8.5,3-13,3.2c-0.9,0.1-2.1,0.1-2.6,0.7c-0.8,0.9-1.7,1.1-2.7,1.4
	c-0.5,0.2-0.5,0.8-0.7,1.3c-0.8,3.3-0.8,6.7-0.6,10.1c0.1,2,0.5,4,0.9,6c0.6,2.5,0.4,5.1,0,7.6c-0.1,0.4-0.2,0.7,0,1.1
	c0.6,1.6,0.4,3.3,0.6,4.9c0.1,0.9-0.6,1.2-1.1,1.5c-0.7,0.4-0.7,0.9-0.4,1.5c0.3,0.5,0.5,0.9,0.2,1.5c-0.2,0.3-0.1,0.7,0.1,1
	c0.2,0.3,0.3,0.6,0.2,0.9c-0.7,2.3-0.1,4.7-0.6,7.1c0,0.1,0,0.2,0,0.2c1.1,0.6,0.4,1.7,0.7,2.5c0.1,0.3,0.1,0.6,0.5,0.8
	c0.6,0.4,1.2,0.8,1.9,1.2c0.9,0.5,1.3,1.6,1,2.2c-0.5,0.8-1.9,1.2-2.7,0.7c-1.4-1.1-2.7-2.3-4.4-3c-0.1,0-0.2-0.2-0.2-0.3
	c0.1-1.1-0.6-2.1-0.5-3.1c0.2-2.4-0.3-4.8-0.4-7.2c-0.2-3.9-0.8-7.8-1.4-11.7c0-0.2-0.1-0.3-0.2-0.8c-0.6,1.7-1.2,3.1-1.7,4.6
	c-1.4,4.1-2.4,8.3-2.1,12.7c0.1,1.1-0.1,2.2-0.6,3.2c-0.1,0.1-0.2,0.3-0.1,0.4c0.4,2.2-1.2,3.9-1.2,6.1c0,1.5-0.7,1.8-2.6,1.5
	c-1.1-0.2-1.6-0.8-1.4-2.1c0.1-0.8,0.4-1.6,1-2.1c0.7-0.6,0.8-1.2,0.4-1.9c-0.5-1-0.5-2.2-0.3-3c0.7-2.5-0.1-5,0.3-7.5
	c0.1-1,0.5-2,0.3-3c-0.1-0.3-0.1-0.7-0.2-1c-0.3-0.5-0.5-1.2-0.4-1.7c0.4-1.6-0.1-3.3,0.8-4.9c0.5-1,0.1-2.2,0-3.4
	c-0.1-0.8-0.1-1.7-0.5-2.5c-0.4-1,0-1.9,0.4-2.8c0.6-1.4,1.4-2.7,1.2-4.4c-0.1-0.7,0-1.4,0.2-2c0.6-1.8-0.1-3.4-0.6-5
	C190.3,91.1,190,90.6,189.8,90.1z"/>
<path fill="#D5D5D5" d="M265.6,96.3c0.1,0.1,0.3,0.1,0.3,0.3c0,0.2-0.1,0.2-0.2,0.2c-0.2,0-0.3-0.1-0.3-0.3
	C265.5,96.4,265.5,96.3,265.6,96.3z"/>
<path fill="#050505" d="M245.9,126.7c0,0.4,0,0.6-0.4,0.6C245.7,127.1,245.8,126.9,245.9,126.7z"/>
</svg>
