<?xml version="1.0" encoding="utf-8"?>
<!-- Generator: Adobe Illustrator 18.0.0, SVG Export Plug-In . SVG Version: 6.00 Build 0)  -->
<!DOCTYPE svg PUBLIC "-//W3C//DTD SVG 1.1//EN" "http://www.w3.org/Graphics/SVG/1.1/DTD/svg11.dtd">
<svg version="1.1" id="Layer_1" xmlns="http://www.w3.org/2000/svg" xmlns:xlink="http://www.w3.org/1999/xlink" x="0px" y="0px"
	 viewBox="0 0 612 792" enable-background="new 0 0 612 792" xml:space="preserve">
<path fill="#665849" d="M326,346c0.3,0.4,0.6,0.9,1,1.3c1.1,1.9,1.4,4.1,0,5.5c-1.7,1.7-3.4-0.2-4.8-1.2c-2.3-1.7-4.4-0.3-6.6-0.1
	c-0.8-0.2-1.2-0.7-1.3-1.5c0.5-2.3,1.8-3.4,4.3-3.2c1.4,0.1,3.2,0.8,4.4-0.9C324,346,325,346,326,346z"/>
<path fill="#DBCD9B" d="M298.9,390.1c0.7,0.3,1.4,0.5,2.1,0.8c4.7,0.4,5,4.8,6.7,7.8c1,2.6,2.4,5.1,3.1,7.8c0.5,1.5,1.8,2.7,1.6,4.5
	c-0.4,1.6-0.8,3.2-2.2,4.3c-0.4,0.2-0.9,0.2-1.4,0.3c-1,0-2.1,0.2-2.2,1.4c-0.2,5.3-0.9,10.7,0.4,16c0.1,0.3,0.5,0.4,0.8,0.5
	c1.9,0.5,3.8,1,4.9,2.9c0.5,0.9,1,1.8,0.6,2.9c-3.1,4-7.4,5.1-12.2,5.1c-3-1.8-7.4-2.5-6.9-7.5c0.9-2.5,1-5.1,0.9-7.8
	c-0.1-4.4,1-8.7,0.9-12.6c-0.3,1-0.8,2.5-2.3,3.4c-3.6,1.2-7.3,0.5-11,0.6c-2.8-0.1-5.5-0.8-7.8-3.5c1.3,5.3-0.4,10.3,1.2,15.1
	c1.1,1.4,2.5,2.6,3.6,4.1c2.8,3.9,2.7,4.4-1.7,6.9c-3.2,1.6-6.6,1-10,1c-2.8-2-6.1-3.7-4.8-8.2c1.6-4.2,0.6-8.6,0.9-12.9
	c0-1.9,0-3.8,0-5.7c0.8-3.9,1.4-7.8,0-11.6c-0.5-2.5-0.2-5-0.8-7.4c0.3-1,0.5-2,0.8-3.1c2.2-2.5,4.5-5.1,7.6-6.6
	c3.8-1.5,7.5,0.5,11.2,0.6c2.1,0.7,4.2,1.4,6.3,2C292.7,393.2,295.7,391,298.9,390.1z"/>
<path fill="#D9CC97" d="M322.9,398c-0.6,0-1.2,0-1.7,0c-3.4-2.5-6.8-5.1-9.7-8.3c-5.4-5.9-6.8-12.9-4.5-20.6c-1-3.5,3-5.1,3.2-8.1
	c1-0.7,2.3-0.7,3.4-1.2c1.9-0.7,3.8-1.1,5.8-1.5c1.5-0.1,2.8,0.4,4.1,1c4.6,3.3,9.4,2.7,14.3,0.9c1.7,0.3,3.1,1.4,4.6,2
	c0.9,0.6,1.4,1.4,1.3,2.5c-0.2,1.1-0.8,1.7-1.8,2.2c-0.8,0.4-1.7,0.7-2.5,1.1c-3,1.8-3.3,4.2-1.6,7.1c0.8,1.5,1,3.3,2.6,4.3
	c0.9,0.7,1.7,1.5,2.4,2.4c1.1,1.6,1,3.2-0.4,4.6c-2.8,2.3-5.8,1.9-8.8,0.5c0,0,0,0.1,0,0c2.1,1.5,4.6,1.9,6.7,3.1
	c1.1,4.5,5.6,4.8,8.7,6.9c-0.8,2.8-3.2,4.1-5.3,5.7C336.2,403.7,329.5,401.3,322.9,398z"/>
<path fill="#83694B" d="M319,359.1c-2,0.6-4,1.2-6,1.8c-2.5-3.9,0.2-6.8,2.1-9.8c4.7-2.7,4.7-2.7,11.2,1.7c0.7-1.8-0.4-3.8,0.8-5.4
	c4,1.4,5.8,5.5,9,7.9c0.3,5.6-1.8,7.7-7.1,6.7c-1.6-0.3-3.1-1-4.5-1.8c-2-1.2-3.5-3-5.2-4.7C317.9,356.5,320.2,358,319,359.1z"/>
<path fill="#DED8C6" d="M349,397c-6.5-0.4-8.5-2-9-6.9c-0.4-2.5,2.6-2.1,3.2-3.7c1.4-1.6,2.8-3.1,4.8-3.9c0.7-0.2,1.4-0.2,2.1,0
	c2.5,2.6,5.5,3.2,8.9,2.5c3.4,1.9,1.7,4,0.1,6c-1.9,2.1-4,4.1-6.2,6C351.7,397,350.3,397,349,397z"/>
<path fill="#3C3B32" d="M306.9,369.2c-1,10.1,1.6,18.6,10.9,24.2c1.6,1,3.2,2.4,3.3,4.7c0.7,2.3-2,3-2.2,4.9
	c-2.6,2.1-6.7,1.2-8.9,4.1c-1.2-2.6-2.8-5-3.1-7.9c-0.4-2,1.1-1.6,2.2-1.5c1.4,0.1,2.7,1.1,4.8,0.8c-3.3-3.9-6.8-7.1-8.9-11.4
	c1.5-3.9-0.6-7.7,0-11.5C305.2,373.3,303.4,370.3,306.9,369.2z"/>
<path fill="#C6C2A6" d="M257.9,372.9c3.2-1.4,6.3,0.8,9.6,0.3c1-0.1,1.3,0.8,1.4,1.7c0.1,1.1-0.2,1.8-1.4,2.2
	c-2.6,0.9-6.2,1-6.2,4.6c0,3.5,2.9,5.7,5.8,7.4c0.4,3.6-1.8,3.3-4.1,2.9c-6.6-1.2-7.6-2.7-8.9-13.1
	C256.5,377.6,257.2,375.2,257.9,372.9z"/>
<path fill="#B1A98C" d="M277.9,441.8c1.8-1,4.1-1.7,1.3-4.3c-1.5-1.4-2.4-3.4-4.3-4.4c-0.2-3.2-0.6-6.4-0.5-9.7
	c0.1-3.1,1.4-4.5,4.6-3.9c4.8,1.3,9.8-0.4,14.6,1c0.6,0.4,0.7,0.9,0.4,1.5c-2,0-3.9,0-5.9,0.1c-2.1,0.1-5.9-0.6-6,0.5
	c-0.1,2.6-0.6,5.1-1,7.6c-0.3,2.1,2.1,1.6,3,2.7c-0.4,0.5-0.9,0.9-1.7,1c4.2,0,6.2,2,5.6,6.2c-2,1.5-4.3,2.3-6.9,2
	C280,442.7,278.9,442.9,277.9,441.8z"/>
<path fill="#816851" d="M347,350.9c5.3,1.5,9.1,4.6,10.7,10.2c0.7,2.5,0.1,4.8-1.3,6.5c-1.6,1.9-3.6,0.3-5.4-0.4
	c-0.6-0.2-1.3-0.2-2-0.3c-0.6-0.4-0.9-1.1-1.1-1.7c-0.3-0.9-0.6-1.8-1.1-2.6C342.9,356.8,342.9,355.1,347,350.9z"/>
<path fill="#AEB2A2" d="M349,365c0,0.6,0,1.3,0,1.9c0,3.4,0.1,6.7,0.1,10.1c-2.3,1.7-0.2,4.1-1.1,6c-1.3,1.3-2.7,2.6-4,3.9
	c-0.9,0-1.6-0.3-2-1.1c0.9-1.2,1.1-2.3,0-3.5c0.9-2.4-0.2-4.4-1.2-6.4c-0.9-1.8-1-3.7-1.1-5.7c-0.1-1.6,0.4-3,1.2-4.3
	c0.9-0.1,1.8-0.3,2.2-1.3C345.2,363.3,347.1,363.6,349,365z"/>
<path fill="#4C4E59" d="M304.9,387c4.3,2.3,5.6,7.5,9.8,10c0.5,0.3,1.1,1.9,0.3,2.6c-0.5,0.4-1.5,0.3-2.3,0.4
	c-2,0.3-3.4-3.1-5.8-0.9c-2.4-2.4-2.6-6.4-5.9-8.1C301.1,388.5,302.5,387.1,304.9,387z"/>
<path fill="#6A5946" d="M347,350.9c-3.2,4.3-1.6,8.2,1,12c-2,0.8-4-2.1-6-0.1c-2.2,0.9-2.9-0.9-4.1-2.1c-0.3-1.9-0.7-3.7-1-5.6
	c2-0.1,3.3-1,4.5-2.6C342.8,350.8,344.7,349.8,347,350.9z"/>
<path fill="#AFAF9A" d="M312.9,438.9c-0.3-0.6-0.6-1.2-0.9-1.9c1.1-2.9-1-5.3-1.2-8c0.2-2.2-1-4.9,2.1-6.1c-1.9,6.9,3.9,7.3,7.9,9.2
	c-1.3,2.8-2,6-4.8,7.9l-0.4,0.1h-0.4C314.2,440,313.4,439.8,312.9,438.9z"/>
<path fill="#CFC48E" d="M310,407c0.7-6.3,5.8-3.1,8.9-4.1c1,4.9-3.6,5.8-6,8.2c-0.4,0.2-0.7,0.2-0.9-0.2
	C311.4,409.6,309.8,408.7,310,407z"/>
<path fill="#493519" d="M337,355.2c2.5,1.5,2.5,3.4,1,5.6c-5.2,3.2-10.2,3.2-15-0.6c-0.3-1,0.1-1.4,1.2-1.2c0.6,0.3,1.2,0.6,1.8,0.8
	c6.8,2.4,7.7,2,10.2-4.6C336.3,355,336.7,355,337,355.2z"/>
<path fill="#736D55" d="M322.9,398c6.9,1.6,13.9,3.1,20.8,4.7C335.9,405.3,328.9,404,322.9,398z"/>
<path fill="#908867" d="M294,422c0-0.3,0-0.6,0-0.9c-0.6-0.7-0.6-1.4,0-2.1c0.7-1.8,0.4-3.9,2.5-5.5c1.5,5.5-0.3,10.6-0.6,15.6
	c-1.3,1.4,1,4.1-1.8,4.9C294.1,430,294,426,294,422z"/>
<path fill="#66614C" d="M312.9,438.9c0.9,0.1,1.9,0.1,2.2,1.2c-4.2,6.4-10,6-16.3,4c0.7-0.7,1.3-0.6,2-0.1
	C305.5,443.7,309.1,440.9,312.9,438.9z"/>
<path fill="#28221A" d="M359,385c-4,4.1-6.7,1.5-9.2-1.9c0-0.9,0.4-1.5,1.1-1.9C354.5,380.7,357.9,380.5,359,385z"/>
<path fill="#544C2F" d="M312,410.9c0.3,0.1,0.6,0.2,0.9,0.2c0,3.9,0,7.9,0,11.8c-1.3,2.1-0.7,4.4-1.1,6.7c-3.5-1.2-2.8-4.4-2.7-6.8
	c0-2.6,0.2-5.2,1-7.7C310.3,413.4,310.8,412,312,410.9z"/>
<path fill="#635F4B" d="M277.9,441.8c1.1,0.1,2.1,0.1,3.2,0.2c-4.5,4.7-6.7,5.1-13.2,2C271,442,274.8,443.5,277.9,441.8z"/>
<path fill="#736F62" d="M288,440c-1.3-2.2-1.3-5.7-5.3-5.3c-0.5,0.1-1.4-0.7-0.8-1.3c0.5-0.5,1.5-0.4,2.3-0.6
	c1.5,0.1,2.9,0.2,4.2,1.1C291.8,436.3,291.8,437.7,288,440z"/>
<path fill="#5D5248" d="M315,351c0,3.4-2.8,6.2-2.1,9.8c-0.9,0.6-1.8,1.2-2.9,0.2c0.2-4.1,0.9-8,4.2-11
	C314.5,350.4,314.8,350.7,315,351z"/>
<path fill="#615B40" d="M263,392c1.4-1,3.7-0.5,4.1-2.9c1.3-0.3,2.6-0.6,3.9-0.9c0.6,0.3,0.6,0.7,0.1,1.1c-2.4,1.9-3.3,5.6-7.1,5.8
	C263.7,394.1,263.3,393,263,392z"/>
<path fill="#6E6F64" d="M316,440c1.3-2.8,1.9-6.1,4.8-7.9c1.1,2.9-0.1,5.2-1.7,7.6C318,441.5,317.1,440.7,316,440z"/>
<path fill="#655E45" d="M264.8,405.2c1.7,4,1.6,7.9,0,11.9c-0.3,0.7-0.8,1.2-1.7,0.9c-0.9-3.1,0.9-5.9,0.8-9
	C263.6,407.6,262.5,406,264.8,405.2z"/>
<path fill="#827C6A" d="M264.8,405.2c-1.4,1.1-0.6,2.6-0.8,3.9c-1.5-3.5-3.9-7-0.8-10.9C266,400,264.8,402.7,264.8,405.2z"/>
<path fill="#241B09" d="M264.8,423c-0.3,4.3,1.6,8.9-1.7,12.8c0-3.9,0-7.9,0-11.8C263.5,423.3,263.9,422.7,264.8,423z"/>
<path fill="#5D543D" d="M271.1,389.3c0-0.4-0.1-0.7-0.1-1.1c4.2-2.6,8-1.1,11.8,1C278.9,391,275,387.9,271.1,389.3z"/>
<path fill="#48442D" d="M300.9,444c-0.7,0-1.4,0.1-2,0.1c-3.6-1-6.6-2.4-5.7-7c0.6-0.6,1.2-0.6,1.7,0
	C294.5,441.4,299.5,441.2,300.9,444z"/>
<path fill="#888065" d="M298.9,390.1c-3,2.5-6.1,5.1-9.8,1C292.5,391.7,295.5,388.7,298.9,390.1z"/>
<path fill="#6B6A5F" d="M353,397c0.9-3.2,3.1-5,6.2-6C358.6,394.6,356.5,396.5,353,397z"/>
<path fill="#0A0E08" d="M351,381.2c0,0.9-0.3,1.6-1.1,1.9c-0.6,0-1.2,0-1.8,0c-0.9-2.2-3.2-4.7,1.1-6
	C348.8,378.8,349.2,380.3,351,381.2z"/>
<path fill="#605B4A" d="M257.9,372.9c0.7,3.4-0.3,5-3.8,6C254.9,376.5,255.3,374,257.9,372.9z"/>
<path fill="#3B3523" d="M264.8,423c-0.6,0.3-1.1,0.6-1.7,1c0-2,0-4,0-6c0.6-0.3,1.1-0.6,1.7-0.9C264.8,419.1,264.8,421.1,264.8,423z
	"/>
<path fill="#686149" d="M294.9,437c-0.6,0-1.2,0-1.7,0c-0.5-1.3,0.5-2.1,1-3c1.7-1.2,0.1-3.6,1.8-4.9
	C296.3,431.9,296,434.5,294.9,437z"/>
<path fill="#A49C7C" d="M310,415c2.5,4-1.3,8.4,0.9,12.4c0.4,0.7,0.6,1.4,0.9,2.2c0.2,2.5,4.4,4.8,0.2,7.4c-1.2-1.8-3.1-2.2-5.1-2.1
	c-1.7-5.3-1.6-10.7-0.7-16.1c0.3-1.7,1.2-3.1,2.9-3.8C309.3,415,309.7,415,310,415z"/>
<path fill="#544927" d="M309,415c-4.3,6.3-2.1,13.2-2.1,19.9c-1.2,0.2-1.9-0.1-1.9-1.5c0-5.8-0.1-11.5,0.1-17.3
	C305.2,412.9,306.8,412.5,309,415z"/>
<path fill="#5D5129" d="M278.8,420.1c-3.3,0.1-3.8,2.1-3.9,5c-0.1,2.7,1.9,5.4,0,8c-2.5-5.5-0.1-11.3-1.4-17.3
	c3.3,0.9,5.4,3.2,8.3,3.3C281.5,421.5,280,420.2,278.8,420.1z"/>
<path fill="#635E4D" d="M278.8,420.1c1.1-0.3,2.3,0.1,3.1-1c4-0.1,8.1-0.1,12.1-0.2c0,0.7,0,1.4,0,2.1
	C289,420.5,283.8,422.1,278.8,420.1z"/>
<path fill="#766948" d="M342,385.9c0.8,0.1,1.6,0.3,2,1.1c-0.7,1.9-3.1,1.5-4,3.1c-4.8,2.1-5.9-3.3-9.4-4.2
	C334.5,385.5,338.2,388.9,342,385.9z"/>
<path fill="#E1DECE" d="M341,366c0,1.7,0,3.3,0,5c-1.9,2.8,1.8,6.3-1.1,9c-2.7,0-2-2.6-2.9-4c-1.4-3.4-0.5-6.3,1.7-8.9
	C339.5,366.7,340.2,366.4,341,366z"/>
<path fill="#5A4224" d="M324.1,358.9c-0.4,0.4-0.8,0.8-1.2,1.2c-1.3-0.4-2.6-0.7-3.9-1.1c-1-2-3.5-3.8-0.8-6.6
	C320.2,354.7,322.2,356.8,324.1,358.9z"/>
<path fill="#181814" d="M339.9,380c1-2.9-1.5-6.3,1.1-9c0.2,2.4,0.1,5,2.1,6.7c2.7,2.4,1.1,3.5-1.1,4.7
	C340.9,381.9,340.2,381.2,339.9,380z"/>
<path fill="#4C4127" d="M342,362.9c2.1-5.9,4-0.1,6,0.1c0.8,0.5,1,1.3,1,2.1c-2-0.1-3.9-0.2-5.9-0.3C343,364,342.9,363.2,342,362.9z
	"/>
<path fill="#837B59" d="M338.7,367.1c-1.3,2.8-1.7,5.8-1.7,8.9C334.2,372.4,334.9,369.4,338.7,367.1z"/>
</svg>
