<?xml version="1.0" encoding="utf-8"?>
<!-- Generator: Adobe Illustrator 18.0.0, SVG Export Plug-In . SVG Version: 6.00 Build 0)  -->
<!DOCTYPE svg PUBLIC "-//W3C//DTD SVG 1.1//EN" "http://www.w3.org/Graphics/SVG/1.1/DTD/svg11.dtd">
<svg version="1.1" id="Layer_1" xmlns="http://www.w3.org/2000/svg" xmlns:xlink="http://www.w3.org/1999/xlink" x="0px" y="0px"
	 viewBox="0 0 612 792" enable-background="new 0 0 612 792" xml:space="preserve">
<path fill="#C5C2A6" d="M444.8,250c-0.9,0.6-0.9,1.6-1,2.6c-0.4,4.9-2.4,8.3-7.9,8.4c-2.7,0.9-4.6,0.6-4.2-2.9
	c1.7-0.1,2.6-1.6,3.5-2.6c3.9-4.2,3-7.3-2.4-9.3c-1.3-0.5-3.3-0.1-2.9-2.4c0.3-2.1,2.1-1.8,3.5-1.8c2.2,0,4.3,0,6.5,0.1
	c1.6,1,1.7,3.6,4.1,3.8c0.3-0.1,0.6,0,0.8,0.1C444.8,247.3,444.8,248.7,444.8,250z"/>
<path fill="#68664D" d="M399.9,313.1c-1.6,2.1-4.6-0.4-6.1,1.9c-1,0-2,0-3,0c-3-1.2-5-3.6-7.1-5.9c-0.3-1.5,0.8-1.7,1.8-2
	c4.6,0.4,7.7,4.7,12.5,4.8C398.8,312.1,399.4,312.4,399.9,313.1z"/>
<path fill="#625E4E" d="M422.8,315c-1.8-1.2-4.1-1.8-5.1-4c0.8-1,2-1.2,3.2-1.3c3.4,1.1,7.6-0.7,10.1,3.2c-0.8,1.1-2.6,0.6-3.1,2
	C426.1,315,424.5,315,422.8,315z"/>
<path fill="#DBCD9B" d="M430.9,313c-3.1-1.9-6.9-0.5-10.1-2.1c-4-1.1-4.3-1.8-2.2-5.2c1.2-1.9,3-3.1,4.3-4.8c1.4-4.8-0.1-9.7,1-14.8
	c-2.3,2.4-4.8,3.2-7.7,3.3c-3.6-0.2-7.3,0.5-10.9-0.6c-1.4-0.7-2.1-1.9-2.4-3.3c-0.1,4.4,0.9,8.9,0.8,13.4c0,1.1-0.3,2.4,0.1,3.4
	c2.1,6.4,1,7.8-6.1,10.6c-4.7-0.1-8-3.5-12-5.2c-0.6-0.6-0.7-1.3-0.4-2.1c1.2-2.3,3.4-2.7,5.6-3.2c2.5-1.6,1.2-4.2,1.4-6.3
	c0.2-3.1,0.1-6.2,0-9.4c-0.1-1.4-0.3-2.7-2.2-2.3c-0.5,0-0.9,0-1.3-0.1c-2-0.7-1.7-3.1-3-4.3c-0.7-0.7-1.4-1.4-2.2-2.1
	c1.1-1.8,4-0.9,4.7-3.2c0.6-3.2,2.4-6,3.6-9.1c1.7-2.2,1.8-5.9,5.8-5.8c0.6,0,1.3,0,1.9,0c3.3-1,6.5,2.7,9.9,0.2
	c2.3-1,4.6-2.3,7.3-2.2c3.4-0.4,6.8-1.7,10.3-0.5c3,1.6,5.2,4.1,7.5,6.5c0.3,1.1,0.5,2.1,0.8,3.2c-0.5,2.4-0.4,4.9-0.9,7.4
	c-2,3.9-0.1,7.7,0.1,11.6c0,1.9,0,3.8,0,5.7c0.3,4.3-0.7,8.7,0.9,12.9C437.2,309.3,433.2,310.6,430.9,313z"/>
<path fill="#D9CC98" d="M377.6,267.1c-0.6,0-1.1,0-1.7,0c-6.6,3.2-13.4,5.6-20.9,4.7c-1.5-0.8-2.9-1.8-3.3-3.6
	c-1.1-1.8,0.3-2.6,1.5-3.4c1.6-1,3.2-2.1,4.6-3.5c2.1-2.2,4.6-3.8,8-5.7c-3.8,2-6.6,2.1-9.4,0c-1.7-1.8-1.3-3.4,0.2-5
	c0.5-0.5,0.9-1,1.5-1.5c1.1-1.1,2.2-2.2,3-3.6c1.5-3.2,2-6.1-1.6-8.2c-0.7-0.2-1.3-0.5-2-0.8c-1.1-0.6-2.1-1.3-2.3-2.7
	c-0.1-1.1,0.3-1.9,1.3-2.5c1.6-0.6,3-1.7,4.7-2.1c6.6,3.3,12.4-0.2,18.3-2.2c2.3-0.1,4.2,1.2,6.3,1.8c1.2,0.4,2.1,1.1,2.9,2
	c0.3,2.8,4.3,3.9,3.3,7.3c3,10.3-0.5,18.3-9.8,25.2C380.4,264.4,379.4,266.2,377.6,267.1z"/>
<path fill="#DED8C6" d="M359,261.9c-1.8,2.8-5.9,3-7.3,6.2c-1.9-0.7-3.4-2.8-5.9-2.1c-2.2-1.9-4.2-3.9-6.2-6s-3.5-4.1,0.2-6
	c3.5,0.8,6.6-0.1,9.2-2.6c1-0.3,1.9-0.3,2.8,0.2c1.6,1.1,2.7,2.7,4,4.1C357.9,257.2,360.7,258.4,359,261.9z"/>
<path fill="#826949" d="M385.8,229.9c-2-0.6-4-1.3-6-1.9c-0.8-1.1,0.6-2.1,0-3.3c-2.8,2.2-5.4,4.5-8.7,5.8c-5.5,2.1-8.4-0.2-8.3-6.3
	c3.3-2,4.5-6.3,8.6-7.3c2.6,2.2,5.3,0.1,8,0.1c2.5,0.1,3.6,1.8,5,3.4C386,223.4,388.1,226.3,385.8,229.9z"/>
<path fill="#816850" d="M349.8,235.9c-0.2,0-0.3,0-0.5,0c-2.5-0.1-5.2,3.8-7.4-0.2c-2-3.7-1.2-7.2,1.6-10.4c2.1-2.4,4.3-4.3,7.4-5.2
	c4.5,2,5,3.3,3,9.4c-0.8,1.7-2.3,3-2.9,4.7C350.7,235,350.4,235.5,349.8,235.9z"/>
<path fill="#AEB2A5" d="M349.8,235.9c0-0.6,0-1.2,0-1.9c1.9-1.5,3.9-1.8,5.9-0.3c0.7,0.7,1.4,1.5,2.1,2.2c1.1,1.1,1.5,2.4,1.5,3.9
	c-0.3,2.3-0.8,4.5-2,6.4c-1.1,1.8-1,3.3,0.4,4.8c-1,1.1-2.5,2.1-1,3.8c-0.4,0.9-1.2,1.1-2.1,1.2c-1-1.5-2.9-2.2-3-4.3
	c-2-1.4,0.3-4.4-2-5.6C349.7,242.7,349.8,239.3,349.8,235.9z"/>
<path fill="#414037" d="M380.6,262.9c9.2-5.8,12.5-14.2,11.3-24.7c3.6,1.3,1.8,4.4,2,6.7c0.4,3.7-1.5,7.4,0,11.1
	c-2.2,4.5-4.7,8.8-10,10.4C382.3,265.7,381.3,264.4,380.6,262.9z"/>
<path fill="#4B4F5D" d="M383.8,266c4.4-2.4,6.3-7.2,10.1-10.1c2.4,0.2,3.9,1.4,3.9,4c-2.4,1.5-3.4,4-4.8,6.3c-2,1.1-3.4,3-5.6,3.8
	c-1.4,0.5-2.9,1.3-4.1,0.2C381.7,268.8,382.6,267.3,383.8,266z"/>
<path fill="#373525" d="M383.8,266c0.4,1.2-1.1,2.8,0.1,3.6c1.2,0.9,2.3-0.7,3.6-0.9c2.1-0.3,2.9-3.5,5.5-2.5
	c-0.8,3.3-3.3,5.9-3.3,9.4c-3.1-1.7-6.7-2-9.7-3.7c-0.3-1.9-3-2.6-2.3-4.9c0.1-2,1.5-3.1,2.9-4.1C382.6,262.9,383.1,264.6,383.8,266
	z"/>
<path fill="#4F3A1D" d="M362.8,224.2c2.7,7.1,4.8,7.7,11.5,3.1c2.3-1.6,4.7-3.1,6.2-5.7c2.9,2.5,0.4,4.4-0.7,6.4
	c-1.5,0.6-3.2,1-4.5,1.9c-4.9,3-9.6,3-14.4-0.1c-2.9-2.9-2.7-3.8,1-5.6C362.1,224,362.5,224,362.8,224.2z"/>
<path fill="#6D5947" d="M361.8,224.2c-2.4,1.5-2.6,3.4-1,5.6c-1.1,1.1-1.8,3-4,2.1c-1-1.3-2.8-1-4-1.9c1.4-3.6,1.9-7.1-1.9-9.7
	c2.6-1.5,4.8-0.7,6.5,1.4C358.6,223,359.8,224.2,361.8,224.2z"/>
<path fill="#CFC18B" d="M379.9,271.9c3.6,0.3,7.9-1.1,9.7,3.7c-1,3.2-3.9,1.7-6,2.4C380.7,277.1,379.4,275,379.9,271.9z"/>
<path fill="#756D59" d="M355,271.8c7-1.6,13.9-3.2,20.9-4.7C370,273.1,362.9,274.1,355,271.8z"/>
<path fill="#ACAD96" d="M385.9,306c0,0.6,0,1.2,0,1.8c-0.8,0.2-1.8,0.2-2.1,1.2c-0.3,0-0.6,0-0.9-0.1c-2.8-1.9-3.5-5-4.8-7.9
	c2.7-1.6,5.5-2.7,8.6-2.1c0.1,0.2,0.2,0.4,0.4,0.6C387.2,301.9,385.3,303.7,385.9,306z"/>
<path fill="#60563C" d="M385.9,280.1c2.8-0.1,1.9,2.7,3,3.9c1.1,3.4,1.1,6.8,1,10.3c-0.1,1.8-0.2,4.1-2.9,4.5h-0.3l-0.1,0.3
	C385.9,292.8,385.4,286.4,385.9,280.1z"/>
<path fill="#675849" d="M383.7,220c-4-3.4-7.6-2.2-10.5,1.3c-2.3-1.1,2.2-4.2-1.8-4.5c4.5-2.9,11.3-1.4,13.8,2.9
	C384.8,220.3,384.3,220.4,383.7,220z"/>
<path fill="#2C231D" d="M348.9,252.1c-2.4,3.5-5.1,5.9-9.1,1.9c1.1-4.5,4.5-4.3,8-3.8C348.5,250.6,348.9,251.2,348.9,252.1z"/>
<path fill="#5D5041" d="M383.7,220c0.5-0.1,1-0.1,1.5-0.2c2.9,3.1,3.4,7,3.4,11c-0.9-0.3-1.9-0.6-2.8-0.9
	C386.2,226.4,384.5,223.3,383.7,220z"/>
<path fill="#6D6F5F" d="M378,301.1c2.8,1.9,3.4,5.1,4.8,7.9c-3.1,2.5-3.4-1-4.4-2.3C377.3,305.1,377.3,303,378,301.1z"/>
<path fill="#5E533A" d="M434.8,264c-3.8-0.2-4.8-3.8-7.1-5.8c-0.3-0.2-0.4-0.5-0.3-0.7c0.1-0.2,0.2-0.3,0.3-0.3
	c1.3,0.3,2.6,0.6,3.9,0.9c0.4,2.4,2.6,2.3,4.2,2.9C435.5,262,435.2,263,434.8,264z"/>
<path fill="#443F2B" d="M427.8,257.2c-0.1,0.3-0.1,0.7,0,1c-3.6-1-7.3,1.1-10.8-0.2C420.4,255.4,424,255.1,427.8,257.2z"/>
<path fill="#82775F" d="M409.6,260.2c-3.4,4.4-6.6,0.4-9.9-0.2C403.1,256.7,406.3,261.2,409.6,260.2z"/>
<path fill="#716C62" d="M339.6,260c3,1,5.3,2.7,6.2,6C342.3,265.6,340.3,263.5,339.6,260z"/>
<path fill="#0D0D10" d="M348.9,252.1c-0.8-0.4-1.1-1.1-1.1-1.9c1.8-0.8,2.2-2.3,1.8-4.1c1.4-1.4,1.9-0.1,2.1,0.9
	c0.2,1.5,0,3.1,0,4.7C350.8,251.8,349.8,251.9,348.9,252.1z"/>
<path fill="#605A46" d="M444,245.9c-0.3,0.9-0.2,2.9-1.8,1.2c-1.2-1.3-2.3-3-2.4-5.1C442.5,242,443.5,243.7,444,245.9z"/>
<path fill="#655C41" d="M434,286.1c-1.5-4-1.7-8,0-12c0.3-0.8,0.8-1.4,1.7-1c0.5,0.2,0.4,0.7,0.2,1.2c-2.7,4.2,0.7,8.6-0.3,12.8
	C434.7,287.3,434.3,286.8,434,286.1z"/>
<path fill="#211809" d="M435.6,304.8c-3.3-3.9-1.4-8.4-1.7-12.7c1.9-0.5,1,1.4,1.7,1.9C435.6,297.6,435.6,301.2,435.6,304.8z"/>
<path fill="#807D64" d="M435.9,274.2c-0.6-1.1-1.3-0.4-1.9-0.1c0-2.4-1.2-5.1,1.6-6.8C437.2,269.5,438,271.7,435.9,274.2z"/>
<path fill="#3D381F" d="M435.6,294c-0.6-0.6-1.1-1.3-1.7-1.9c0-2,0-4,0-6c0.5,0.3,1.1,0.6,1.6,0.9
	C435.6,289.3,435.6,291.7,435.6,294z"/>
<path fill="#AFA98F" d="M423.8,302.2c-1.6,1.3-3.1,2.6-4.4,4.3c-2,2.6-0.7,3.4,1.4,4.4c-1,0.1-2.1,0.1-3.1,0.2
	c-2.2,0.1-4.3-0.2-5.9-1.9c-3.1-4.7,2.2-5.1,3.8-7.5c1.3-0.9,3-1.6,1.8-3.8c-1.2-2.1-1.1-4.4-0.1-6.9c-3.6,0-6.7,0.1-9.9,0
	c-2.3-0.1-2.8,1.1-2.8,3c-2.9-1.7-2-3.2,0.1-4.8c3.5-0.5,7.1-0.1,10.6-0.2c9.4-0.3,9.4-0.3,8.9,9.2
	C424.2,299.5,423.7,300.8,423.8,302.2z"/>
<path fill="#908664" d="M404.8,290c-1.4,1.3-1.4,2.6-0.1,4c0,2.7-0.1,5.3-0.1,8c-2.2,0-0.6-2.1-1.6-2.9c-0.4-5.4-2-10.7-0.8-16.5
	c2.3,1.3,2,3.6,2.6,5.4C405.4,288.7,405.4,289.3,404.8,290z"/>
<path fill="#524C38" d="M403,299.2c0.5,1,1.1,1.9,1.6,2.9c2.4,7.3,1.8,8.8-4.6,11c-0.7,0-1.4,0-2.1-0.1c0.7-0.6,1.3-1.5,2.1-1.9
	c3.5-1.8,4.9-4.1,3.1-8C402.6,302,403,300.5,403,299.2z"/>
<path fill="#736E65" d="M415.7,303.8c-3.7,0.4-4.3,2.4-3.9,5.4c-1.7-0.4-3.8-0.8-3.8-2.9c0-2.2,2.1-3.2,3.8-4"/>
<path fill="#A6A07D" d="M387,298.8c1.6-2.5,2.3-5.2,1.5-8c-0.7-2.4-0.3-4.6,0.4-6.8c0.3,0,0.6,0,0.9,0c1.5,0.5,2.6,1.5,2.9,3.1
	c0.8,5.7,1.2,11.3-0.7,16.9c-2.4-0.4-4.2,0.7-6,2.1C383.2,303.1,386.3,301.2,387,298.8z"/>
<path fill="#524B26" d="M391.9,304c-0.4-3.2,0.6-6.2,0.8-9.3c0.2-3.8-1.1-7.3-2.9-10.7c1.3-1.1,3.1-3.5,3.7,0.1
	c0.9,6.4,0.6,12.9,0.1,19.4C393.5,304.1,392.5,304,391.9,304z"/>
<path fill="#5C532A" d="M423.8,302.2c-1.9-2.2,0-4.6-0.1-6.9c-0.2-6.1,0.1-6.1-5.9-5.3c-0.6,0.1-1.3-0.1-2-0.1
	c-0.4-0.9,0.2-1.4,0.9-1.7c1.4-0.5,2.8-0.9,4.2-1.4c1.2-0.5,2.2-1.2,4-2.2C424.3,290.7,426.1,296.5,423.8,302.2z"/>
<path fill="#625D49" d="M416.8,288.2c-0.3,0.6-0.6,1.1-0.9,1.7c-3.7,0-7.4,0.1-11.1,0.1c0-0.7,0-1.3,0-2
	C408.8,288.1,412.8,288.1,416.8,288.2z"/>
<path fill="#7D7050" d="M354.7,256c0.4-0.9,1.3-1.1,2.1-1.2c3.5,2.6,7.1,0,11.8-0.5c-3.9,3-6.7,5.3-9.6,7.5
	C360.1,258.1,355.9,258.2,354.7,256z"/>
<path fill="#DEE0CE" d="M358.6,240.3c-0.3-1.4-0.5-2.8-0.8-4.3c0.7,0,1.4,0,2.2,0c2.7,2.9,3.1,6.2,1.9,9.8c-0.3,1.9-1.9,2.9-3.1,4.1
	C356.2,246.8,358.8,243.5,358.6,240.3z"/>
<path fill="#10110F" d="M358.6,240.3c0.1,3.2,0.1,6.5,0.2,9.7c-0.3,0.4-0.7,0.7-1,1.1c-3.1-0.3-4.7-1.5-1.9-4.3
	C357.7,244.9,356.8,242.1,358.6,240.3z"/>
<path fill="#4D3F28" d="M352.8,229.9c2-0.6,4.2-1.9,4,1.9c-0.9,0.4-1,1.1-1.1,2c-2,0.1-3.9,0.2-5.9,0.3
	C349.9,232,351.8,231.3,352.8,229.9z"/>
<path fill="#868162" d="M361.9,245.8c-0.1-3.4-0.6-6.7-1.9-9.8C364.5,238.6,364.3,242,361.9,245.8z"/>
<path fill="#7C7145" d="M365.5,266.9c-2.1,1.8-4.1,0.9-6.4-0.3C361.4,265.4,363.5,267.4,365.5,266.9z"/>
</svg>
