<?xml version="1.0" encoding="utf-8"?>
<!-- Generator: Adobe Illustrator 18.0.0, SVG Export Plug-In . SVG Version: 6.00 Build 0)  -->
<!DOCTYPE svg PUBLIC "-//W3C//DTD SVG 1.1//EN" "http://www.w3.org/Graphics/SVG/1.1/DTD/svg11.dtd">
<svg version="1.1" id="Layer_1" xmlns="http://www.w3.org/2000/svg" xmlns:xlink="http://www.w3.org/1999/xlink" x="0px" y="0px"
	 viewBox="0 0 612 792" enable-background="new 0 0 612 792" xml:space="preserve">
<path fill="#6F7040" d="M359.1,384.1c3.8-0.4,6.5,0.5,8.1,4.5c0.7,1.8,3.1,3,4.7,4.4c0,1,0,2,0,3c-12.5-0.5-23.8,3.7-35,8.9
	c-2.4,1.1-1.5,4.3-4.1,4.9c-1.4,0.1-2.9-0.3-4,1c-4.7-3.3-9-7-11.9-12c0.8-3.2,3.7-3.1,5.9-3c4.8,0.2,9.5-0.5,14.2-1.2
	c6.6-1.3,12.9-3.7,19.1-6.1C358.1,387.8,358.1,385.5,359.1,384.1z"/>
<path fill="#C7C0A8" d="M242,376c0.2-0.2,0.5-0.2,0.8-0.1c3.3-0.5,3.2-4.1,5.1-5.8c3.1,0,6.3-0.6,9.3,1.1c1.3,0.7,2,1.7,1.8,3.2
	c-0.2,1.2-1.1,1.6-2.2,1.6c-3.5,0-6,1.4-5.7,5.2c0.3,3.4,2.3,5.7,6,5.9c0.1,2.9-1.1,4.4-4.2,3.9c-6.3,0.3-8.5-4.5-10.9-9
	C242,380,242,378,242,376z"/>
<path fill="#695949" d="M320,342c0,0.8,0.1,1.6,1,2c0.8,1.7,1.4,3.7-0.1,5s-3.1-0.2-4.5-0.9c-2.3-1.1-4.9-0.5-7.3-1.2
	c-0.5-0.2-0.9-0.5-1.2-0.9c0.4-1.3,0.7-2.6,1.1-4C312.7,342,316.3,342,320,342z"/>
<path fill="#DBCD9B" d="M274.1,388c2,0.7,4.1,1.4,6.1,2.2c4.2,3.2,7.8-0.9,11.7-1.1c0.2-0.1,0.5-0.2,0.8-0.1c3.4,1,4.5,4.1,6.1,6.8
	c1.1,3.3,2.5,6.3,3.8,9.5c1.5,2.1,3.5,4.1,2.3,7.2c-0.1,1.4-0.7,2.6-1.6,3.6c-1,0.6-2.1,0.1-3.1,0.4c-2.4,6.6-3.8,13.2,0.2,19.7
	c2.1,0.9,4.3,1.8,5.8,3.8c0.2,1.1-0.3,1.9-0.9,2.7c-4.2,2.6-7.9,6.6-13.6,4c-2.6-1.8-6.4-2.6-5.9-7c1.7-3.2,1-6.6,1.1-9.9
	c0.1-3.9,0.8-7.8,0.6-11.6c-4,5.8-10.1,2.4-15.3,3.2c-2.5-0.2-4.7-1.4-7.2-2.6c0.8,5.6-0.9,11,1.2,16.2c0.9,1,2,1.7,3,2.6
	c3.8,3.9,3.5,5.7-1.4,8.6c-3.6,1.3-7.2,2.1-10.7-0.2c-1.2-2.5-7.2-2.2-4.1-7.1c1.1-4.8,0.2-9.6,0.5-14.4c-0.1-3.3,0-6.6,1.1-9.8
	c1-3.1,0.5-6.2-1.2-9.1c-0.9-2.4-0.4-5-1.1-7.4c0.6-0.8,1.2-1.5,1.8-2.3c3.1-7.6,5.4-9.1,13.6-8.3
	C269.8,387.8,271.9,388.1,274.1,388z"/>
<path fill="#D9CC97" d="M338,395.8c-6.7,2.8-14.4-0.7-20.9,3.1c-0.6-0.3-1.3-0.5-1.9-0.8c-5.1-3.3-9.3-7.5-13.1-12
	c-4.2-5.1-4.3-11.6-4-18c0.1-3.9,3.1-6.1,4.9-9.1c0.8-0.9,1.7-1.7,2.9-2.1c2.3-0.7,4.4-2.2,7-1.8c2.1,0.5,4,1.5,6.1,2.2
	c3.5,1.9,7.1,2.9,10.8,0.4c0.8-0.6,1.9-0.5,2.9-0.3c1.5,0.6,2.9,1.4,4.4,2.2c0.8,0.6,1.3,1.3,1.4,2.4c-0.1,1.3-1,2-2,2.6
	c-1.1,0.7-2.1,1.6-3.3,2.2c-3.6,2.7-1.9,5.8-0.7,8.8c0.6,1.4,1.7,2.4,2.9,3.3c1,0.9,2.3,1.4,3.1,2.6c0.6,1.5,0.1,2.8-0.8,4
	c-2.5,2.4-5.5,2.1-8.5,1.3c1.7,1,3.3,1.9,5.1,2.7C336.4,390.9,339.1,392.2,338,395.8z"/>
<path fill="#3C3B31" d="M298.1,368.1c1.6,5.1,0.7,10.8,3.8,15.6c2.5,3.8,6.1,6.5,9.3,9.5c1.5,1.4,3.4,2.7,4,4.9
	c-0.3,2.4-2.9,3.4-3.4,5.7c-2.9,2.4-6.5,1.6-9.8,2.3c-2-3.1-3.1-6.5-3.8-10c3.5-1.5,5.1,3.4,8.5,2.6c-0.1-2.6-2.2-3.5-3.7-5
	c-2.3-2.3-5.1-4.3-5.1-8c0.2-3.2,0.3-6.4-0.6-9.6C296.5,373.4,296.4,370.6,298.1,368.1z"/>
<path fill="#B1AB8C" d="M268,444.9c3.3-1.6,4.1-3.2,0.9-6c-1.2-1.1-2.8-1.6-3.8-2.8c0.5-3.8-0.3-7.6-0.5-11.4
	c-0.1-2.5,1-4.1,3.4-3.9c5.9,0.5,11.9-0.5,17.8,0.8c0.5,0.4,0.6,1,0.2,1.5c-1.5,0-3-0.1-4.5-0.1c-7.5,0-9.5,1.9-9.4,9.3
	c0,1.6,1.7,1.4,2.2,2.4c0.2,0.7-1.6,0.7-0.8,1.2c1.2,0.7,2.8,0.9,4,1.9c1.8,1.4,2.6,3.1,0.6,5c-1.9,2.2-4.8,1.9-7.1,3.1
	C269.9,445.9,268.7,446.1,268,444.9z"/>
<path fill="#ADAF98" d="M305,442c0.3-0.7,0.7-1.3,1-2c-0.2-3.4-1.4-6.5-2.2-9.8c0.2-1.7-0.4-3.7,2-4.3c-1.4,5.3,3.4,6,6.2,8.2
	c2.6,4.1-0.4,6.4-2.9,8.8c-0.4,0-0.8,0.1-1.2,0.1C307,442.4,305.7,443.1,305,442z"/>
<path fill="#6A644C" d="M305,442c1.1,0,2.3-0.5,2.9,0.9c-4.2,5.8-7.3,8.5-17.1,4.2c0.1-0.6,0.5-0.9,1.1-1c2.9,2.2,5.1-0.2,7.5-1.1
	C301.4,444.2,303.2,443,305,442z"/>
<path fill="#CEC192" d="M302,406.1c2.6-3.6,6.5-1.8,9.8-2.3c1.3,5-3.8,5.5-5.8,8.3c-0.6,0.6-1.2,0.6-1.9,0.1
	C305.5,409.4,303.1,408,302,406.1z"/>
<path fill="#8D865D" d="M285.9,423.1c0-0.4,0.1-0.8,0.1-1.1c-3.6-1-7.2-0.2-10.8-0.5c-1.1-0.1-2.8,0.8-3.2-1.3
	c2.3,0,4.6-0.2,6.9-0.1c3.7,0.2,7.2,0.5,8.1-4.4c0.1-0.4,1-0.7,1.7-1.1c0.9,5.4,0.1,10.4-0.8,15.4c-2.6-0.4-0.5-2.9-1.7-3.9
	C286.1,425.1,286,424.1,285.9,423.1z"/>
<path fill="#504A2E" d="M304.1,412.2c0.6,0,1.3-0.1,1.9-0.1c-0.1,4.6-0.1,9.2-0.2,13.9c-1.2,1.5-0.7,3.3-0.9,5
	c-2.1,1.1-2.8-0.4-3-1.9c-0.5-4.4-1.4-8.9,0.9-13.1C303.2,414.6,303.7,413.4,304.1,412.2z"/>
<path fill="#5D553D" d="M274.1,388c-1.4,1.5-3.2,1.1-4.7,0.6c-6.4-1.9-11-0.1-13.9,6c-0.2,0.5-1,0.8-1.5,1.2
	c-0.4-1.6-0.8-3.3-1.2-4.9c2.1-0.5,3.3-2,4.2-3.9C262.8,387.3,268.6,385.4,274.1,388z"/>
<path fill="#635B47" d="M268,444.9c1,0.3,2.4-0.3,3,1.1c-4.9,4.4-10.2,4.4-13.9,0C260.8,446,264.4,446.3,268,444.9z"/>
<path fill="#777668" d="M278.1,442.8c1.3-4.1-2-4.5-4.5-5.6c-0.8-0.4-2.2-0.5-1.6-1.9c0.2-0.4,1.5-0.4,2.3-0.6
	c1.9-0.1,3.4,1,4.9,1.9c1.3,0.7,2.8,1.5,2.6,3.2C281.6,441.8,280.3,443,278.1,442.8z"/>
<path fill="#645E42" d="M254.1,405c2.6,3.7,2.8,7.8,1,11.8c-1.1,2.4-0.7,4.9-1.2,7.3c-0.2,0-0.4,0-0.7,0c-0.2-3.8-0.5-7.5,0.6-11.2
	c0.6-1.9,0.3-3.9-0.9-5.7C252.4,406,252.2,404.9,254.1,405z"/>
<path fill="#696962" d="M309.1,442.8c-0.1-3.3,4.4-5,2.9-8.8c2.9-0.3,3.5,1.9,2.8,3.7C314,440.3,313,443.4,309.1,442.8z"/>
<path fill="#655F48" d="M286.1,426.1c1.5,0.9,0.3,3,1.7,3.9c0.2,3.5,0.9,7-1.5,10.1c-0.5,0.5-1,0.5-1.4-0.1
	C286.6,435.5,285.7,430.7,286.1,426.1z"/>
<path fill="#7D7E6D" d="M254.1,405c-0.9,0.4-1,1.4-1.2,2.2c-2.5-2.8-2.7-5.8-0.6-9C255.8,399.7,253.2,402.8,254.1,405z"/>
<path fill="#514938" d="M285,440c0.5,0,0.9,0.1,1.4,0.1c0.3,3.5,4.3,3.4,5.6,6c-0.4,0.3-0.7,0.7-1.1,1
	C287,446.3,284.2,444.6,285,440z"/>
<path fill="#302A1B" d="M253.2,424c0.2,0,0.5,0,0.7,0c0.3,5,1.3,10-0.8,14.8C253.1,433.9,253.1,429,253.2,424z"/>
<path fill="#545637" d="M329,410.9c0.7-2.7,2.1-2.8,4-1C332,411.5,330.5,411,329,410.9z"/>
<path fill="#4E515A" d="M297.8,385.7c2.6,3.2,4.7,6.7,8.3,9c1.1,0.7,1.8,1.9,2,3.3c0.1,0.9,1.2,1.9,0,2.6c-0.5,0.3-1.6,0.1-2.3-0.2
	c-2.6-1.3-5.1-2.8-7.7-4.3c-1.8-2.3-3.6-4.7-5.4-7C293.3,386.2,296.3,387,297.8,385.7z"/>
<path fill="#524937" d="M306,357.9c-0.9,0.5-1.7,1.4-3,1.1c-0.8-5.3,1-9.5,4.9-13.1c0.3,0,0.7,0,1,0.1
	C310,350.5,307.3,354,306,357.9z"/>
<path fill="#867A65" d="M291.9,389.1c-1.4,0.8-2.8,1.6-4.2,2.5c-3,1.9-5.6,2-7.5-1.5C284.2,390.5,287.9,387.7,291.9,389.1z"/>
<path fill="#615946" d="M247.9,370.1c0.5,3.1-1.4,5.2-3.3,7.1c-1.6,1.6-1.6-0.2-1.8-1.3C244.1,373.6,244.4,370.4,247.9,370.1z"/>
<path fill="#826A4C" d="M306,357.9c-0.9-4.4,2.1-7.9,2.9-11.9c3.9,0,7.9-0.9,10.9,3.1c1.6-1.7-0.3-3.8,1.2-5.1c5,0.4,5.7,5.7,9,8
	c1.3,4.2-0.3,6.7-4.3,7.1c-1.7,0.1-3.2-0.4-4.7-1c-3.5-1.5-6.2-4.1-8.9-6.9c-1,2,1.7,3.1,0.9,4.8C310.7,356.6,308.3,357.3,306,357.9
	z"/>
<path fill="#DFD9C3" d="M338,395.8c-0.6-2.5-2.5-4-4.1-5.8c-0.3-3,2.3-3.3,4.1-4.3c2.4-1.1,3.5-4.4,6.8-4.1c0.6,0.2,1.2,0.5,1.7,1
	c3.1,3.4,5.9,3.3,8.6-0.5c1.6,0.3,0.5,5.6,4.1,2.1c-0.9,2.7,0.3,5.3-5.1,6.6C349,392,343.1,393.3,338,395.8z"/>
<path fill="#806952" d="M344,348c5.7,2.6,10.5,5.9,9.9,13.2c-0.4,5.3-2,6.1-7.1,4c-2.4-1.7-6.1,0.5-8.1-2.5c0.1-2,2.5-1.2,3.2-2.4
	c-0.6-1.4-1.8-2.1-2.3-3.4C338.4,351,339.3,349.2,344,348z"/>
<path fill="#AEB2A4" d="M339,362c2.4,1.7,6,0.3,7.9,3.1c-2.1-0.3-3.3,0.4-2.7,2.7c0.5,1.7,1.1,3.4,0.7,5.3c-0.9,2.6-2.6,5.3,0.2,7.8
	c0.1,0.5,0,0.8-0.5,1c-2.5,1-3.8,3.3-5.7,4.9c-0.6-0.8-1.7-1-1.9-2.1c0.8-1.1,1.1-2.4,0.9-3.8c0.5-4.6-3.7-7.8-3.5-12.3
	c0.1-1.7,0.4-3.3,1.5-4.7c0.7-0.8,1.4-1.5,2.2-2.3C338.5,361.5,338.8,361.6,339,362z"/>
<path fill="#695743" d="M344,348c-3.7,2.1-4.9,5.1-3.1,9.1c-1.2,1.1-2.5,2.1-4,3c-2,0.5-3.4-0.1-4-2.1c-1.6-1.9-1.6-3.9,0-5.8
	c1.9-0.7,3.2-2.2,4.5-3.7C339.6,346,341.7,345.6,344,348z"/>
<path fill="#2D2420" d="M355.1,382c-1.7,5.7-3.3,6.3-7.6,2.7c-1-0.9-1.9-1.8-2.9-2.7c0.2,0,0.4,0.1,0.5,0c0.8-1.1-1.3-2.1-0.1-3.2
	C348.8,378.6,352.2,379.5,355.1,382z"/>
<path fill="#48351A" d="M333,352.1c0,1.9,0,3.9,0,5.8c-2.5-0.1-4.1,2-6.4,2.5c-3.1,0.7-5.5-0.4-7.7-2.3c-0.2-1,0.1-1.4,1.2-1.2
	c1.3,0.3,2.5,0.7,3.8,0.9c4.1,0.8,5.7-0.8,6.1-5.8C331,352,332,352.1,333,352.1z"/>
<path fill="#131610" d="M345.1,378.8c0,1.1,1.5,2.1,0.1,3.2c-5.2-2.8-2.7-5.8-0.2-8.9C345,375,345,376.9,345.1,378.8z"/>
<path fill="#A6A07C" d="M302.8,415.9c0.1,3.7,0.1,7.5,0.2,11.2c0.1,1.4-0.8,3.5,1.9,3.7c0.5,3,3.4,5.8,1.1,9.2c-2-1-3.9-2-5.9-3
	c-3-3.7-2.8-8.1-2.4-12.3c0.3-3.4,1.1-6.8,2.6-9.9C301.1,415.2,302,415.5,302.8,415.9z"/>
<path fill="#655D3E" d="M272,420.2c2.7,1.7,5.7,0.5,8.5,0.9c1.8,0.3,3.9-0.7,5.5,0.9c-5.4,0-10.9,0.4-16.3,0
	c-4.4-0.3-5.1,1.6-4.4,5.3c0.5,2.4,0.6,4.9,1,7.3c0.2,1.2-0.5,1.4-1.4,1.5c-2.3-6.2-0.2-12.7-1.4-19.7
	C266.7,418.3,269.3,419.4,272,420.2z"/>
<path fill="#574D27" d="M300.3,414.9c0.3,1.1,0.8,2.1,0.2,3.3c-3.3,6.2-2.2,12.5-0.4,18.8c-0.8,0.9-1.8,1.3-2.1-0.1
	c-2-7.5-0.7-15,0.4-22.4C298.4,413.8,299.7,414.2,300.3,414.9z"/>
<path fill="#DFDDCB" d="M336,364.1c0.2,1.8-0.2,3.5-0.8,5.2c-0.3,3.2,2.6,6.6-0.4,9.7c-1.9-0.1-2.7-1.2-2.8-2.9c-1.3-3.5-1.8-7,1-10
	C334,365.3,334.4,363.8,336,364.1z"/>
<path fill="#5E4421" d="M320.1,356.9c-0.4,0.4-0.8,0.8-1.2,1.2c-2-0.7-4-1.4-5.9-2.1c-2-2-4.2-3.9-1.6-7.4
	C313.9,351.9,317.1,354.2,320.1,356.9z"/>
<path fill="#776D4B" d="M337,384.8c1.2,0.2,2,0.7,1.9,2.1c-2.2,0.1-3.8,1.2-4.9,3c-3.7,0.4-5.1-3.5-8.3-4.2
	C329.4,384.6,333.5,387.9,337,384.8z"/>
<path fill="#1F2319" d="M334.8,379c0.1-3.2,0.2-6.5,0.4-9.7c2.1,2.3,1.2,5.9,4,8c1.6,1.2-1.3,2.3-1.2,3.7
	C336.4,381.2,335.1,380.8,334.8,379z"/>
<path fill="#504425" d="M337,360c0.2-2.5,1.7-3.2,4-3c0.5,1.9,4.2,1.9,3.3,4.1c-0.8,1.8-3.5,0.5-5.3,0.9c-0.3-0.1-0.5-0.2-0.8-0.3
	C337.8,361.2,337.4,360.6,337,360z"/>
<path fill="#746C4E" d="M333,366c-0.3,3.3-0.7,6.7-1,10C328.8,371.1,329.1,367.9,333,366z"/>
</svg>
