<?xml version="1.0" encoding="utf-8"?>
<!-- Generator: Adobe Illustrator 18.0.0, SVG Export Plug-In . SVG Version: 6.00 Build 0)  -->
<!DOCTYPE svg PUBLIC "-//W3C//DTD SVG 1.1//EN" "http://www.w3.org/Graphics/SVG/1.1/DTD/svg11.dtd">
<svg version="1.1" id="Layer_1" xmlns="http://www.w3.org/2000/svg" xmlns:xlink="http://www.w3.org/1999/xlink" x="0px" y="0px"
	 viewBox="0 0 612 792" enable-background="new 0 0 612 792" xml:space="preserve">
<path fill="#C2BC9B" d="M340.1,427.9c-0.3,0-0.7,0.1-1,0.1c-1.1,0.8-2.3,1.1-3.7,0.7c-1.6-0.5-3.3-1-3.4-2.9
	c-0.1-1.7,1.7-1.5,2.9-1.9c0.5-0.2,0.8-0.5,1.1-0.9c0.5-0.7,1.3-1.3,1.4-2c0.5-6.8,3.4-4.9,6.7-1.9c0,0.7,0,1.3,0,2
	C342.3,423.1,341.8,425.8,340.1,427.9z"/>
<path fill="#595341" d="M340.1,427.9c0.6-2.7,1.4-5.3,3.9-6.9c0,0.7,0,1.3,0,2C342.8,424.7,342.5,427.1,340.1,427.9z"/>
<path fill="#D6C99A" d="M292,419.9c0.4-1.6,0.8-3.3,1.2-4.9c0.6-0.2,1.2,0.1,1.7,0.3c1.1,0.6,2.3,0.7,3.4,1.2c1.4,0.8,2.8,1.7,4.3,0
	c2.5-2.9,0-7,2.3-10c0.3-0.9,0.7-1.8,0.9-2.7c0.6-1.9,1.7-3,3.8-2.4c2.5,2.1,0.3,4.4,0.2,6.8c0.8-1.6,0.9-3.3,1.9-4.6
	c3.3-1.4,6-4.4,10.1-3.6c7.5,2.9,9,5.8,6.8,13.6c-1.1,3.7,2.7,5.5,3.2,8.5c-1,2.5-0.5,5.4-2,7.8c0.2,0,0.3,0.1,0.5,0.1s0.3,0,0.5,0
	c0.7,2.7-0.3,4.3-3,4.9c-4.1,0.8-8.4,0.5-12.5,1.1c-1.4,0-2.8,0-4.3,0.1c-1.4-1.9-1-3.5,0.7-4.9c2.5-0.8,3.5-1.9,3.1-5
	c-0.3-2.8-2.5-6.7,1.9-8.8c0.6-1,1.8-1.6,2.6-3c-1.6,0.7-1.6,2.2-2.6,2.9c-2.8,0.7-3.4,1.9-2.7,5c0.6,2.5,2.5,6.2-1.5,8.2
	c-2.9,2.3-5.7,5.2-9.4,1.4c-0.4-0.3-0.7-0.7-0.9-1.1c-1-2.3-1.7-4.7-1.8-7.3c-0.2-0.6-0.7,0.5-0.2,0.1c0.3,1.8,1.2,3.7-0.1,5.5
	c-2.1,1.6-4.1,1.5-6.1,0c-0.7-0.6-1.4-1.3-2-1.9C291.7,424.7,290.1,422.3,292,419.9z"/>
<path fill="#868760" d="M328,379c3.5-2.3,7-4.4,10.1,0.7c0.4,2.9,0.2,5.7-1,8.4c-0.1,2.7,5.3,4.6,1.3,8c-2.4,2.1-5.4,2-8.3,2
	c-2.3-0.3-3.2-2-4-3.8c-4.5-2-9.2-0.8-13.8-1c-2.8-0.2-5.6,0.3-8.4,0c-2.9-0.4-3.8-1.7-1.8-4.3c3.7-3.2,7.6-6,12.6-6.7
	c4.1,0.6,8.2,1.2,11.6-2.2C326.8,379.7,327.5,379.5,328,379z"/>
<path fill="#D4C79A" d="M328,379c-0.3,0.3-0.7,0.7-1,1c-3.2,3.8-7.7,2.7-11.8,3.1c-4.8,0.6-8.1,4-12.2,6c-2.4,1.4-4.7,2.6-7.6,1.9
	c-1.1-0.3-2-0.8-2.6-1.7c-0.2-0.5-0.3-0.9-0.2-1.4c0.3-1.1,1.2-1.4,2.3-1.5c5.3-0.5,6-1.7,4.1-6.6c-0.3-0.8-0.8-1.4-1.2-2.2
	c-0.3-0.7-0.4-1.4-0.3-2.1c0.2-0.4,0.4-0.8,0.8-1.1c3-1.2,0.8-3.9,1.7-5.7c0.6-0.7,1.5-1.2,2.4-1.5c1.4-0.3,2.8-0.4,4.2,0.1
	c2,1.6-0.1,3.3,0.1,4.9c-0.4,1.3-1,2.6,0.3,3.8c0.7,0.7,1.7,1,2.7,1.3c2.5,0.4,2.1-1.4,2.1-2.8c0-1.8-1.3-3.4-1-5.3
	c0.4-1,1.1-1.5,2-1.7c2,0,3,1.8,4.6,2.4c1.3,0.7,2.5,1.6,3.9,2c0.6,0.2,1.1,0.6,1.6,1C323.2,376.1,324.8,378.2,328,379z"/>
<path fill="#868763" d="M293.2,388.8c0.6,0.4,1.2,0.8,1.8,1.2c1.6,1,5.1,1.1,1.9,4.2c-0.5,0.4-0.9,0.8-1.4,1.2
	c-0.5,0.4-1,0.6-1.7,0.8c-4.9-2.6-9.5-2.1-13.8,1.3c-1.6,1.3-2.9,2.1-4.7,0.4c-1.5-1.4-3-2.8-1.8-5.1c1.2-2.3,1.6-4-0.7-6.4
	c-2.4-2.6,0.2-5.2,2.1-7.3c2.1-2.3,4.2-1.3,6,0.5c0.9,0.9,1.5,2.1,2.2,3.2c1.7,0.8,2.9,2,3.5,3.8
	C288.1,389.8,290.9,388.3,293.2,388.8z"/>
<path fill="#7E664D" d="M302,368c-0.6,0.4-1.2,0.8-1.8,1.1c-0.8,1.8-0.2,4.1-2.1,5.5l0.1,0.2l-0.2,0.1c-1.3,1-2.6,1.1-3.9,0
	c0.8-3.6,0.6-5.9-4.2-4.6c-2.4,0.6-4.4-0.7-5.3-3.3c-0.8-2.3,0.4-3,2.3-3.2c2-0.5,3.9-1.2,5-3c5.7-1.9,7.8-1.1,10.9,4.2
	C302.5,366,303.1,367.2,302,368z"/>
<path fill="#E9E5CD" d="M286.2,386.9c-0.8-1.5-2.7-2.1-3-4c1.7-0.7,2-2.5,2.8-3.9c4.3,0.7,8.4,0.8,12.2-2c1.5,0.7,2.1,2.2,2.5,3.6
	c1.9,5.8,0.1,7.8-5.9,6.8c-0.8-0.1-1.3,0-1.7,0.6C290.4,389.6,288.2,388.8,286.2,386.9z"/>
<path fill="#795F46" d="M313,367.9c-0.6,0.4-1.2,0.8-1.8,1.2c-0.6,0.5-1.4,0.6-2.1,0.3c-0.7-0.3-1.2-0.9-1.5-1.6
	c-2.4-2.7-0.5-4.4,1.4-6.2h-0.1c1.3-0.1,2.5-0.4,3.5-1.4c2.1-2.1,4.5-2.5,7.2-1.4c2.7,0.7,2.5,3.3,3.3,5.2c-0.8,2.9,0,6.2-1.8,8.9
	c-1.7,0-2.6-1.4-3.9-2.1C315.9,369.7,315.6,367.2,313,367.9z"/>
<path fill="#CABE9E" d="M294.8,395.1c0.4-0.4,0.9-0.9,1.3-1.3c7.8-1.5,15.5-1.7,23.3-0.4c0.5,0.3,0.7,0.8,0.8,1.4
	c-1.6,2.4-4.5,2.4-6.8,3.6c-3.2,2.1-6.7,2-10.3,1.4c-1.5,0.1-3,0.5-4.2-0.7C298.5,396.9,294.8,397.8,294.8,395.1z"/>
<path fill="#6A654D" d="M319.9,394.9c-4-1.7-8.3-1.7-12.4-1.3c-3.8,0.3-7.6,0.5-11.3,0.3c3.2-2.3-0.8-2.5-1.1-3.8
	c2.6-0.3,5.3-0.6,7.9-0.9c-0.4,1.2-2.9,2.9,0.9,2.9c6-0.1,12.1-0.1,18.1,0c1.7,0,3.9-0.6,4,2.3c-1.7-0.5-3.1,0.2-4.6,0.9
	C320.8,395.5,320.3,395.4,319.9,394.9z"/>
<path fill="#4E4A50" d="M319.9,394.9c0.5,0.1,1,0.2,1.5,0.3c0.1,1.3,0.3,2.6,0.4,3.9c-3.6,0.9-6.4,4.2-10.6,3.8
	c-0.5-0.2-0.9-0.4-1.3-0.7c-2.4-0.5-3,0.8-2.9,2.8c-2.3,0.3-3.2-0.8-3.1-3c0.1-0.8,0.2-1.6-0.7-2.1c3-2,7.1,0,10-2.6
	c2.7,0.4,5-0.3,6.9-2.3L319.9,394.9z"/>
<path fill="#AFAC8D" d="M294,429c2-0.4,4.3,0.8,6-1.1c2.3-0.2,1.8,2.3,3,3.1l0,0c1,1.3,1.1,2.6,0,3.9c-2.7,2.5-5.4-0.4-8.1,0
	c-1.3-1.5-1.3-3.2-1.1-5C293.9,429.6,293.9,429.3,294,429z"/>
<path fill="#2E281F" d="M298.2,377c-4.5,5.1-5.9,5.3-12.2,2c1.4-3.9,5.7-2,8-4c1.3,0,2.6,0,3.9,0C298,375.7,298.1,376.4,298.2,377z"
	/>
<path fill="#766E58" d="M330.8,429.9c-0.7,0.2-0.4,1.7-1.6,1.4c1.1-3-1-6.9,2.7-9.2c1.1,1.3,2.6,0.9,4.1,0.8c1,3.5-2.6,1.1-3.3,2.9
	c1.1,3,4.1,2,6.4,2.2c-1,1.8-2.4,2.3-4.4,1.4C333.3,428.9,331.9,428.4,330.8,429.9z"/>
<path fill="#4D4427" d="M303,434.9c0-1.3,0-2.6,0-3.9c3.3,2.9,6.2,1.4,9-0.9c0.6,0.3,0.6,0.7,0.1,1.1c-1.4,1.3-0.8,3.1-1.1,4.7
	C308.2,436.3,305.6,435.3,303,434.9z"/>
<path fill="#766F5C" d="M315.2,435.8c4-2.4,8.2-2.4,12.5-1.1C323.9,438.7,319.5,437.2,315.2,435.8z"/>
<path fill="#756E5A" d="M294,416c-0.3-0.4-0.6-0.7-0.8-1.1c0.2-4,1-7.7,5-9.7c0.9-0.4,1.5-0.2,1.9,0.7c-0.1,0.8-0.4,1.4-0.8,2
	c-1.5,1.6-1.7,3.5-1.5,5.6C297.9,416.2,296.6,417.1,294,416z"/>
<path fill="#57493D" d="M319.5,358.9c-2.6-0.2-4.8,0.4-6.5,2.6c-1.3,1.7-2.7,1.4-4.2,0.3C313.5,356.2,314.5,356,319.5,358.9z"/>
<path fill="#5B4A39" d="M308.9,361.7c-1.3,1.9-2.1,3.9-0.9,6.1c-0.3,0.4-0.6,0.5-1,0.3c-1.7-0.1-3.3-0.1-5-0.2
	c0.1-1-0.2-2.2,0.8-2.9c0.7,0.9,1.5,1.3,2.2,0C305.8,363.4,307,362.1,308.9,361.7z"/>
<path fill="#343024" d="M311.1,402c4.1,0.8,6.6-4,10.7-3c0,0.3,0.1,0.6,0.1,1c-3.3,1.4-6.5,2.8-9.8,4.2
	C311.2,403.8,310.5,403.2,311.1,402z"/>
<path fill="#A29578" d="M298.9,406.9c0.4-0.3,0.8-0.6,1.2-0.9c2.1-0.6,2.2-2.9,3.8-4c0.9,1.2,1.5,2.5,3.1,3c-0.3,0.7-0.6,1.3-1,2
	C303.6,408.5,301.3,409,298.9,406.9z"/>
<path fill="#4E4F40" d="M330,398.1c2.5-1.7,5.6-1,8.3-2C336.2,399.8,333.3,399.9,330,398.1z"/>
<path fill="#7C7A72" d="M293.8,429.9c1.7,1.4,1,3.3,1.1,5c-1.3,0.2-2.6,0.6-3.2-1.2C291.1,431.6,292.1,430.5,293.8,429.9z"/>
<path fill="#665448" d="M291.9,360.9c-0.6,3.4-1.6,4-5,3C288.1,362.2,289.5,360.7,291.9,360.9z"/>
<path fill="#5E4B3B" d="M321,373c-0.2-3.1,0.5-6.1,1.8-8.9c0,2.9,0.1,5.9,0.1,8.8C322.2,372.9,321.6,373,321,373z"/>
<path fill="#67604C" d="M294.8,395.1c1.2,1.5,3.3,1.4,4.8,2.4c1.7,1.2,0.2,1.3-0.6,1.6c-2-0.5-4-0.9-5.1-2.9
	C294.2,395.8,294.5,395.5,294.8,395.1z"/>
<path fill="#8A846E" d="M292,419.9c-0.5,2.4,1.3,4.8,0,7.2C289.9,424.7,288.6,422.3,292,419.9z"/>
<path fill="#5C5E50" d="M337,388.1c-0.4-2.9,0.3-5.6,1-8.4C340.1,382.8,339.8,385.6,337,388.1z"/>
<path fill="#CABB97" d="M298.9,406.9c2.4,0,4.7,0,7.1,0c-0.7,2.1-1.9,4-0.9,6.5c0.6,1.5-0.2,2.9-1.8,3.6c-1.8,0.3-3.5,0-5.3,0
	c-1.4-0.1-2.9,0.5-4-1c1.7,0,3.8,0.1,2.6-2.6C295.2,410.4,296.4,408.5,298.9,406.9z"/>
<path fill="#66592B" d="M312.1,431.2c0-0.4-0.1-0.7-0.1-1.1c4.5-4.7,1.2-8.6-1.5-12.6c2.4-1.2,4.5-0.2,6.6-0.4H317
	c-2.4,2.8-3.1,6.5-1.6,9.3C317.8,431,315.4,431.1,312.1,431.2z"/>
<path fill="#786E39" d="M311.1,402c0.3,0.7,0.7,1.5,1,2.2c0.5,3.3-1.7,5.2-3.7,7.6c-1.2-3.8,2-6.5,1.5-9.7
	C310.3,402.1,310.7,402,311.1,402z"/>
<path fill="#514927" d="M298,417c1.8-1.7,3.5-1.6,5.3,0C301.5,421.6,299.7,418.9,298,417z"/>
<path fill="#49421D" d="M303,431c-1.9-0.2-1.8-2.2-3-3.1c0-2.1,0-4.2,0-6.3C300.4,425,302.7,427.7,303,431z"/>
<path fill="#74683A" d="M317.1,417c-0.3-1.8,0.3-3.2,1.3-4.6c1.1,0.9,2.2,1.8,3.6,2.9C320,416,318.5,416.5,317.1,417
	C317,417,317.1,417,317.1,417z"/>
<path fill="#5C5436" d="M315.1,383.1c3.7-2.1,8.3-0.4,11.8-3.1C325,383.9,320.9,385,315.1,383.1z"/>
<path fill="#9E9677" d="M309.2,368.9c0.7,0.1,1.3,0.2,2,0.2c1,2.2,2.1,4.4,1.8,7c-0.3,3.1-1.6,3.7-4,1.9c0.4-2.5,1-5-0.6-7.3
	C308.4,370,308.5,369.3,309.2,368.9z"/>
<path fill="#727057" d="M286.2,386.9c2.3,0.4,4.6,0.7,6.9,1.1c0,0.3,0.1,0.6,0.1,0.9C288.5,390.9,286.2,390.3,286.2,386.9z"/>
<path fill="#2C271D" d="M298.1,374.6c0.4-2,0.9-4,1.4-5.9c0,0,0.3,0,0.4,0.1s0.2,0.2,0.3,0.4C300.4,371.3,305,375.1,298.1,374.6z"/>
<path fill="#F7F3EC" d="M309.2,368.9c0,0.7-0.1,1.3-0.1,2c0.7,1.5,1.3,2.9-0.3,4.2c-2.2,0.1-1.9-2-2.8-3.1c-2.1-1.9,0.8-2.6,1-3.9
	c0.3-0.1,0.7-0.2,1-0.3C308.4,368.2,308.8,368.6,309.2,368.9z"/>
<path fill="#E0E2D2" d="M308.1,375c1.3-1.1,0.7-2.7,0.9-4.1c3,2.4,2.6,4.8-0.1,7.1c-1.1,0-2.3,0.2-3-1
	C306.6,376.3,307,375.2,308.1,375z"/>
<path fill="#0B0800" d="M308.1,375c0,1.4-0.5,2.3-2.1,2.1c-1.6-1.7-1.9-3.3,0-5C308.8,371.5,307.7,373.8,308.1,375z"/>
<path fill="#A48E6F" d="M313,367.9c3.8-2.4,4,0.3,4.1,3C315.3,370.5,314.2,369.1,313,367.9z"/>
<path fill="#362F1D" d="M320,395c-1.4,3.4-3.9,3.7-6.9,2.3C315.4,396.5,317.7,395.7,320,395z"/>
</svg>
