<?xml version="1.0" encoding="utf-8"?>
<!-- Generator: Adobe Illustrator 18.0.0, SVG Export Plug-In . SVG Version: 6.00 Build 0)  -->
<!DOCTYPE svg PUBLIC "-//W3C//DTD SVG 1.1//EN" "http://www.w3.org/Graphics/SVG/1.1/DTD/svg11.dtd">
<svg version="1.1" id="Layer_1" xmlns="http://www.w3.org/2000/svg" xmlns:xlink="http://www.w3.org/1999/xlink" x="0px" y="0px"
	 viewBox="0 0 612 792" enable-background="new 0 0 612 792" xml:space="preserve">
<path fill="#665848" d="M294.9,342.9c0-0.3,0.1-0.6,0.1-0.9c2,0,4,0,6,0c2.4,1.5,6.4,0.9,6.9,5c-0.4,0.8,0,2.1-1.5,2.3
	c-3.5-1.7-7-3.1-10.4,0.2c-0.8,0.8-2,1.4-3.1,0.3c-1-0.9-0.8-2.1-0.3-3.2C293.1,345.3,294.1,344.1,294.9,342.9z"/>
<path fill="#DCCD9B" d="M361.9,395c0,1.1,0,2.1,0.1,3.2c1,2.6,0.3,5.2-0.2,7.8c-2.9,4.8-0.6,9.8-0.3,14.7c0.2,5.4-0.5,10.9,0.4,16.3
	c2.1,4.6,0.4,7.8-3.8,10c-3.9,0.1-7.8,1-11.7-0.1c-3.9-2.9-4.1-4.5-1.5-8.3c1-1.5,2.5-2.5,3.9-3.6c1.8-5,0.3-10.2,1-15.7
	c-2.5,0.8-4.4,2.1-6.7,2.1c-5.1-0.4-10.6,1.3-15.5-1.8c-0.9,3.4,0.4,7,0.4,10.6c0.1,3.2-0.4,6.4,0.9,9.5c1,5.4-3.5,6.6-6.8,8.7
	c-5.2,0.3-9.7-1.7-13.5-5c-0.3-0.8-0.4-1.5-0.2-2.3c0.9-2.9,3.2-4,5.9-4.3c4-3.7,3.4-16.6-0.9-19.8c-0.5,0-0.9-0.1-1.3-0.2
	c-2.1-0.8-2.7-2.9-4-4.4c-0.4-0.7-0.8-1.3-1.1-2c0-3,3.5-1.1,4.2-3c1.1-2.7,2-5.5,3.1-8.2c2-3.2,2.5-7.6,6.9-8.9
	c0.9,0,1.9,0.1,2.8,0.1c2,0.9,4.2,1.3,6.4,1.6c1.5,0.2,0.1-1.1,0.6-1.6c3.4-0.5,7.1,0.7,10.1-2c2.1,1.5,4.1-0.2,6.2-0.1
	c2.8,0.1,5.6-0.6,8.2,1C357.8,390.9,359.2,393.7,361.9,395z"/>
<path fill="#D9CC98" d="M299.8,398c-0.9,0.3-1.8,0.6-2.6,1c-6.6-1.1-13.3,0.4-19.8-1.4c-1.6-0.4-3.4-0.2-4.5-1.8
	c0.9-2.7,4.1-2.4,5.6-4.3c2.7-1.6,5.2-3.5,7.8-5.4c-3.4,0.7-7,2.5-9.9-1.2c-0.5-1.2-0.5-2.3-0.1-3.5c0.5-1.1,1.4-1.9,2.3-2.6
	c1.7-0.4,2.3-1.7,2.8-3.2c1.3-2.9,2.3-5.8,0-8.8c-1.1-1.3-2.6-1.6-4.1-1.9c-1.3-0.4-2.1-1.3-2.1-2.7c0.1-1.1,0.6-1.9,1.4-2.6
	c1.7-1,3.4-2,5.5-2.1c5.6,2.2,10.9,2.4,15.8-1.6c1-0.8,2.4-1,3.8-0.8c2.6,0.4,5.1,1.2,7.5,2.5c0.9,0.3,1.8,0.7,2.5,1.4
	c1.7,3.1,3.4,6.1,5.1,9.2c-1.1,1.1-0.6,2.5-0.5,3.8c0.5,8.8-3.3,15.6-10.1,20.8C304,394.4,302.1,396.4,299.8,398z"/>
<path fill="#6E703F" d="M273,395c5.5,2,11.1,2.5,16.8,2c2.6-0.2,5.3-0.3,7.3,1.9c-1.7,2.5-2.5,5.6-6.3,6.3c-1.9,0.4,0.5,4.5-3.3,5
	c-3.9,0.5-7.2,1.7-8.7-3.8c-0.7-2.4-4-3.5-6.6-4.4c-6.3-2-12.8-3.8-19.2-5.6c-2.4-0.7-4.8-1.1-7.3,0c-1.4,0.7-2.6,0.3-3.3-1.1
	c-0.8-1.5-0.2-2.6,1.1-3.4c1.8-1.1,3-2.4,3.7-4.8c0.9-3,3.9-3.8,7-3.3c3.1,0.6,1.3,3.2,1.9,4.9c0.2,0.8,0.5,1.5,0.7,2.3
	c2.2-1.2,4.2-1.4,6.6,0.2C266.2,393.4,270.2,392.7,273,395z"/>
<path fill="#816A4C" d="M309.1,358.8c-2-1.8-4.7-1.7-7-2.7c-1.5-1.7,0.7-3,0.4-4.7c-3.2,3.3-6.5,6.4-11.1,7.6
	c-4.4,1.1-6.5-0.1-8.1-4.7c0-0.8,0.9-1.4,0.6-2.3c3.8-2.8,5.9-7.8,11-9.1c1,2.4-2.3,3.9-1.4,7.1c4.4-4.6,8.9-5.7,13.4-0.9
	C310.2,351.7,309.8,355.2,309.1,358.8z"/>
<path fill="#3B3A30" d="M299.8,398c0.2-2.6,2.2-4,4.1-5.2c7.7-4.8,11.4-11.7,11.4-20.7c0-1.3-1.1-3.5,1.6-4
	c1.7,3.4,1.5,6.9,0.3,10.5c-0.6,1.7-0.7,3.5-1,5.3c0.1,4-1.1,7.5-4.3,10c-2,1.6-3.2,3.7-4.9,5.6c2-0.2,3.8-1.2,5.7-1.7
	c1.1-0.3,2.8-1,2.6,1.4c-0.3,3.2-2.2,5.8-3.1,8.7c-2.5-3.2-7-1.6-9.8-4.2C301.7,401.7,299.3,400.5,299.8,398z"/>
<path fill="#B1AB8E" d="M350,436.1c-5.6,3-6.9,6.4-4,9.8c-0.7,0.7-1.4,0.8-2.1,0.2c-3,0.3-5.7,0-8-2.2c-3.3-4.9,1.8-5.7,4-8
	c3.3-0.8,2.1-3,2.4-5.5c1-7.6-3.7-6.3-8.1-6.4c-3.9-0.1-5.9,0.6-5.2,5.1c0.4,2.3,0,4.6-0.1,7c-2.8-1.6-0.7-4.2-1.4-6.3
	c0.3-2.4-1.4-4.8,0.4-7.1c4.7-2.1,9.8-0.5,14.6-1.1c7.2-1,7.4-0.8,7.4,6.7C350,430.8,350,433.4,350,436.1z"/>
<path fill="#C6C2A6" d="M356.9,388.1c2.6-0.5,4.7-1.7,6.1-3.9c2.2-3.4,1-6.2-2.8-7.5c-1.6-0.5-4.1-0.1-4.2-2.7
	c0-2.9,2.8-2.7,4.4-2.8c2.5-0.2,5-2.5,7.6-0.4c0.3,2.9,2.3,4.9,3.9,7.1c0.1,8.4-3.1,12.9-9.8,14.1
	C359.4,392.1,357.3,391.2,356.9,388.1z"/>
<path fill="#DFD8C5" d="M273,395c-4.4-0.4-8.9-0.8-12.2-4c-1.8-1.7-2.6,2.8-4,0.2c1-2.7-0.8-6,2.1-8.2c4.1,4.2,6.9,0.5,10.1-1.5
	c0.7-0.2,1.3-0.2,2,0c2.2,0.8,3.4,2.7,5,4.3c2.3,1.5,4.7,2.8,3.1,6.2C277.8,394.6,275.6,395.2,273,395z"/>
<path fill="#816850" d="M267.9,364.9c-2.3,0.8-5.1,2.6-6.7,0.1c-2.3-3.5-1.7-7.7,0.9-11.1c2.5-3.2,5.5-6.1,9.8-7c3,2.4,3.5,5.5,3,9
	c-0.5,3-3.4,4.6-4.5,7.3C270.2,364.6,268.8,364.3,267.9,364.9z"/>
<path fill="#ABB3A2" d="M267.9,364.9c0.6-0.7,1.2-1.4,1.8-2.1c1.7-2.5,3.8-2.4,6.2-1c0.1,1.4,0.8,2.1,2.2,2.2c1.2,1.3,1.5,3,1.5,4.7
	c0.4,4.4-3.4,7.9-2.6,12.4c0,1.2,0,2.4,0,3.6c-0.2,1.1-1.4,1.3-1.9,2.1c-1.4-1.6-2.7-3.3-4.1-4.9c-1.1-2.5,0.8-5.8-2-8
	c-0.2-1.9-0.1-3.8,0.6-5.7C270.3,366.7,270.3,365.1,267.9,364.9z"/>
<path fill="#4A5058" d="M315.2,399.2c-3.4-1.8-5.7,2.8-9.5,1.1c1.9-6.2,9.6-9.3,10.4-16.4c1.3,2.4,4.5,3.1,5.1,6.1
	C319.2,393,317.2,396.1,315.2,399.2z"/>
<path fill="#A49F7C" d="M312,416c0.3-0.1,0.5-0.1,0.8-0.1c2.7,1.6,3.2,4.4,3.6,7.2c0.7,5.1,0.8,10.1-1.4,14.9
	c-2.8-0.5-4.6,0.9-6,3.1c-3.2-2.7-3.2-4.5,0-8c0.3-0.6,0.6-1.2,0.9-1.9c1-2.7,0.4-5.4,0.2-8.1C310,420.6,309.3,417.8,312,416z"/>
<path fill="#6C5944" d="M274,356.9c0.8-3.6-1-6.7-2-9.9c2.9-1.4,4.6,0.5,6.1,2.4c1.5,2,3.3,3,5.8,2.6c0.6,0.3,1,0.6,0.2,1.1
	c-2.1,1.1-1.2,3.4-2.1,5c-1.5,0.9-2.8,2.5-4.9,2C275.7,359.3,274.7,358.3,274,356.9z"/>
<path fill="#ACAD94" d="M309,433c-1.1,2.7-1.9,5.4,0,8c0,0.6,0,1.2,0,1.8c-0.3,1-1.3,0.7-2,1.1c-0.7,0-1.4,0-2.2,0
	c-2-2.7-3.6-5.6-4.7-8.8C302.7,432.7,305.8,432.6,309,433z"/>
<path fill="#2E2623" d="M269.1,382.1c-0.5,1.2-1.9,1.4-2.5,2.2c-3.5,4.6-5.8,2.9-7.8-1.3c2.5-3.5,6.1-4.3,10.1-4.1
	C269.8,379.9,269.2,381,269.1,382.1z"/>
<path fill="#CDC18E" d="M302.2,403.8c3.4,1,8.7-2.3,9.8,4.2c-0.3,3.9-4.2-0.6-5.1,2.2C302.9,409.8,301.5,407.6,302.2,403.8z"/>
<path fill="#585439" d="M312,416c-0.8,2.7-1.4,5.4-0.5,8.3c0.7,2.5,0.3,4.9-1.6,6.8c-0.6-6.3-1.2-12.7-1.8-19
	C310.7,412.1,310.6,414.8,312,416z"/>
<path fill="#68644E" d="M307.1,443.9c0.4-0.8,1.2-0.9,2-1.1c4.3,1.7,8,4.8,12.8,5.2c0.8-0.5,1.5-0.6,2.2,0.1
	C315.6,450.8,311.2,449.7,307.1,443.9z"/>
<path fill="#65604C" d="M343.9,446c0.7-0.1,1.4-0.1,2.1-0.2c4,0.6,8.1-0.4,12,1.1C352.1,451.3,347,451,343.9,446z"/>
<path fill="#524B34" d="M355.9,390.2c-3.3-1.5-6.6-1.6-10.1-0.8c-1.5,0.3-4,2-4.7-1.3c5-1.8,9.9-2.2,14.9,0
	C356.6,388.9,356.6,389.6,355.9,390.2z"/>
<path fill="#61593E" d="M361.1,420.1c-2.1-4.7-3.7-9.4-0.2-14.1c1.8,0,1.7,1,1.2,2.2c-0.1,4-0.1,7.9-0.2,11.9
	C361.6,420.5,361.4,420.5,361.1,420.1z"/>
<path fill="#5D5443" d="M309.1,358.8c-1.7-3-0.3-6.7-2.1-9.7c0-0.8,0.1-1.5,0.9-2c3.1,3.4,3.7,7.5,3.9,11.8
	C310.8,359.2,309.9,359.4,309.1,358.8z"/>
<path fill="#6E6D64" d="M339.9,435.8c0.8,0.2,2,0.2,2.2,0.6c0.5,1-0.7,1.5-1.3,1.4c-4.6-0.4-4.9,2.6-4.8,5.9c-3.8-1.9-4-4.1-1.1-6.5
	C336.5,436,338.1,436,339.9,435.8z"/>
<path fill="#6C6D61" d="M300.2,435.1c2.3,2.5,4.7,5,4.7,8.8C300.4,443.3,299.3,441.3,300.2,435.1z"/>
<path fill="#635942" d="M355.9,390.2c0-0.7,0-1.4,0.1-2.1c0.3-0.1,0.6-0.1,0.9-0.1c1.7,1.3,3.5,2.6,5.2,4c-0.1,1-0.1,2-0.2,2.9
	C357.8,396.1,357.6,392.2,355.9,390.2z"/>
<path fill="#080905" d="M269.1,382.1c-1.8-1-0.2-2.1-0.2-3.2c0-1.6,0.1-3.2,0.1-4.8c5,1.6,3,4.9,2,8
	C270.4,382,269.7,382.1,269.1,382.1z"/>
<path fill="#47442C" d="M324,448c-0.7,0-1.5,0-2.2-0.1c0.3-1.7,1.9-2.1,3.1-2.7c2.2-1.1,3.4-2.7,3.1-5.3c0.6-0.6,1.3-0.6,1.9,0
	C331.1,444.9,327.9,446.7,324,448z"/>
<path fill="#807C65" d="M362.1,408.1c-0.2-0.8-0.2-1.8-1.2-2.2c0-2.6,0.1-5.2,1.1-7.7C365.3,401.5,364.5,404.8,362.1,408.1z"/>
<path fill="#67634C" d="M371.9,377.9c-3.3-1.3-5.6-3.1-3.9-7.1C370.2,372.8,372.7,374.5,371.9,377.9z"/>
<path fill="#887D63" d="M331,390.1c0.8,0.5,2.2,1.1,2.2,1.5c-0.1,1.4-1.6,1.4-2.7,1.3c-2.5-0.2-4.7-1.1-6.5-2.9
	C326.4,389.3,328.7,390.1,331,390.1z"/>
<path fill="#211D14" d="M361.1,420.1c0.2,0,0.5,0,0.7,0c0,5.6,0,11.3,0,16.9C359.3,431.4,361.6,425.7,361.1,420.1z"/>
<path fill="#665D4F" d="M330,440c-0.6,0-1.3,0-1.9,0c-1.7-3.2-1.1-6.6-0.9-9.9c0.2-0.5,0.5-0.5,0.8-0.1c0.3,2-0.7,4.2,0.9,6
	C329.2,437.4,329.6,438.7,330,440z"/>
<path fill="#534A25" d="M315,438c-0.8-5,1.6-10,0.2-15.2c-0.6-2.4-2.1-4.4-2.4-6.9c1.5-1.2,3.2-1.6,3.8,0.7c1.6,6.6,2,13.4,0.6,20.1
	C317,438,316.1,438.2,315,438z"/>
<path fill="#5B512B" d="M350,436.1c-2.2-2.6-0.8-5.6-1-8.4c-0.3-6-0.1-6-6-4.8c-0.7-0.4-1.4-0.8-1.3-1.8c0.3-0.6,0.9-0.8,1.4-1
	c1.3-0.2,2.6-0.1,3.8-0.9c1.1-0.7,2.3-1.2,4.2-2.2C350.4,423.9,352.2,430,350,436.1z"/>
<path fill="#928864" d="M343.1,420.1c-0.3,0.3-0.7,0.7-1,1c-2.7,1.6-5.7,0.6-8.6,0.9c-1.9,0.2-3.9-0.5-5.5,1.1c0,2.3,0,4.6,0,7
	c-0.3,0-0.5,0-0.8,0.1c-1.4-4.8-1.4-9.6-0.5-14.9c1.8,6.4,6.8,4.8,11,4.9C339.4,420.1,341.3,420.1,343.1,420.1z"/>
<path fill="#4F3B1D" d="M282,358c-0.8-2.3-2.7-5,2.1-5c0.9,4.8,2.7,6.1,7,4.8c4.9-1.5,8.6-4.6,11.4-8.9c3.2,2.6,0.2,4.8-0.5,7.1
	c-1.7,0-3.2,0.6-4.6,1.6C292.4,361.3,287.2,361.6,282,358z"/>
<path fill="#776E4D" d="M275.1,386.9c-0.2-1.5,0.6-2,1.9-2.1c4.2,3.3,8.2-0.5,13.8-0.6c-4.9,2.8-7.4,6.7-11.9,7.7
	C279.1,389.2,277.8,387.5,275.1,386.9z"/>
<path fill="#E5E4D2" d="M279,369c-0.5-1.6-1.3-3.2-0.9-5c1.8-0.1,3.3,0.3,4,2.1c1.5,3.3,1.1,6.6,0,9.9c-0.4,1.5,0.6,4.4-2.8,3
	C276.8,375.7,278.8,372.3,279,369z"/>
<path fill="#0E0E09" d="M279,369c0.1,3.3,0.2,6.6,0.2,9.9c-0.1,1.3-0.8,2.1-2.2,2.2c-1-1.5-4.9-2.4-0.5-5
	C278.7,375,276.6,371,279,369z"/>
<path fill="#4D4024" d="M274,356.9c1.9,0.2,3,1.2,3.1,3.2c-0.4,0.6-0.8,1.2-1.1,1.8c-2,0.6-4.3-0.3-6.2,1
	C269.6,359.7,273.2,359.3,274,356.9z"/>
<path fill="#716D51" d="M282,376c0-3.3,0-6.6,0-9.9C285.5,369.4,284.6,372.7,282,376z"/>
<path fill="#645F4D" d="M328,423.1c0.3-2.4,2.2-2,3.8-2c3.4,0,6.9,0.1,10.3,0.1c0.3,0.6,0.6,1.2,0.9,1.8C338,423,333,423,328,423.1z
	"/>
</svg>
