<?xml version="1.0" encoding="utf-8"?>
<!-- Generator: Adobe Illustrator 18.0.0, SVG Export Plug-In . SVG Version: 6.00 Build 0)  -->
<!DOCTYPE svg PUBLIC "-//W3C//DTD SVG 1.1//EN" "http://www.w3.org/Graphics/SVG/1.1/DTD/svg11.dtd">
<svg version="1.1" id="Layer_1" xmlns="http://www.w3.org/2000/svg" xmlns:xlink="http://www.w3.org/1999/xlink" x="0px" y="0px"
	 viewBox="0 0 612 792" enable-background="new 0 0 612 792" xml:space="preserve">
<g>
	<path fill="#80654D" d="M297,356c0.1,0.3,0.1,0.6,0.1,0.9c0,5.5-3.6,8.7-7.5,11.5c-2.5,1.8-5.4,1.5-7.4-1.4
		c0.9-2.1,1.8-4.1,2.7-6.2c1.6-2.8,5.3-2.4,7.1-4.8C293.7,356,295.3,356,297,356z"/>
	<path fill="#57402D" d="M292,356c-1.4,0.8,0.2,5.9-4.1,2.8c-1-0.7-0.8,3-3,2c0-2.3,2.2-3.1,3.1-4.8C289.3,356,290.7,356,292,356z"
		/>
	<path fill="#808075" d="M338.9,410.2c-0.9-0.3-2.1-0.5-1.5-1.9c0.3-0.8,1.2-1.1,2-0.6c1.2,0.7,2.4,1.5,3.6,2.3c0,0.7,0,1.3,0,2
		c-0.3,0.3-0.7,0.5-1.1,0.6c-0.9-0.1-1.6-0.5-2.1-1.2C339.5,410.9,339.8,410,338.9,410.2z"/>
	<path fill="#5C573F" d="M341.8,412c0.4,0,0.8,0,1.2,0c0,3,0,6,0,9c-0.7,0.4-1.3,0.8-2,1.2C339,418.6,340.5,415.3,341.8,412z"/>
	<path fill="#D6CA9F" d="M320.2,397.9c2.3,3.5,6.3,5.9,6.9,10.5c-0.1,2.2-1.8,2.2-3.2,1.9c-2.3-0.6-3.8,0.6-4.4,1.2
		c1.9-2,5.1-1.5,8.5-0.6c1.6,0,2.5,0.9,3.1,2.2c1.3,3.6,1.9,7.3,0,10.9c-0.3,0.7-0.6,1.4-0.9,2c-3.7-1.1-7.1,1.5-10.8,0.8
		c-0.8,0.5-2-2.7-2.4,0.4c-0.1,0.4-0.2,0.9-0.3,1.3c-0.8,2.1-1.3,4.3-2.5,6.3c-0.4,0-0.7,0.1-1.1,0.1c-7.3,1.2-9.6-0.9-8.6-7.8
		c0.3-2.4,0.5-4.9-0.4-7.2c-1.1-3.1-4.2-2.1-6.3-3.2c-0.6-1.4,0-2.9,0.1-4.3c0.8-2.9-1.6-5.9,0.4-8.7c0.4-0.2,0.9-0.3,1.4-0.2
		c2.1,1.4,0.2,6.6,5.1,5.5c1.6-1.1,2.4-3,3.9-4.2c1-1.2,3-1.5,3.4-3.5c-5.1-0.6-10.2,0.8-15.1-0.8c-1.9-0.5-3.7-1.3-5.5-2.1
		c-5.8-2.5-8.1-7-7.2-13.2c3.8-3.9,4.7-9.3,6.9-14.1c0.1-0.2,0.2-0.4,0.3-0.6c1.9-1.8,4.7-2,6.8-3.7c0.9-1.2,0.5-3,2-3.9
		c1.2,2.3,3.2,2.3,5.4,1.9c1.4-0.3,2.7-1.1,4.1,0c6.2,1,8.6,6.4,12.4,10.3c1,5.6,4.6,10.8,2.2,16.9c-1.9,0.6-3.2,2-4.5,3.3
		C318.9,396.2,318.6,397.3,320.2,397.9z"/>
	<path fill="#D0C598" d="M298.1,417c2.7-2.4,4.6,0.2,6.8,1.1c-0.4,3.8,0.2,7.7-0.5,11.5c-0.4,2.3-0.7,4.2-3.5,4.5
		c-1.4,0.3-2.9,0.6-4.3,0.9c-2.3,0.4-3.8-1.1-4.8-2.8c-1.9-3.3,3-3.3,3.1-5.8c0.1-0.5,0.2-0.9,0.5-1.2c2.1-2,1-4.8,1.8-7.1
		C297.4,417.6,297.7,417.2,298.1,417z"/>
	<path fill="#BAB28C" d="M318.9,426.1c2.7-0.5,5.4-0.9,8.1-1.6c1.8-0.5,2.8-0.2,3.1,1.7c-0.7,2.2,1,4.8-1.3,6.7
		c-3.7,0.2-7.5,0.3-11.2,0.1c-3.1-0.8-2.3-2.9-1.6-5h-0.1C316.7,426.9,319.4,429,318.9,426.1z"/>
	<path fill="#3E4132" d="M297,400.1c5.9-0.3,11.8,0.5,17.7-1c0.1,4.3-3.5,5-5.9,6.8c-2.5,1.5-4.7-1-7.1-0.7c-0.8-0.2-1.4-0.6-2-1
		c-0.2-0.1-0.5-0.1-0.7-0.2c-1-0.3-1.5-1.1-2-1.9c-0.2-0.2-0.2-0.4-0.2-0.7C296.4,400.8,296.4,400.4,297,400.1z"/>
	<path fill="#594634" d="M282.2,367c5.9,2.6,11.3-0.5,13.8-8.1c0.3-0.8,0.4-1.6,1.2-2c1.5,0.9,2,2.3,1.9,4c0.3,2.1-2,2.7-2.5,4.4
		c-1.8,1.9-3.5,3.9-5.7,5.5l0.1,0.3c-1.7-0.4-3.2-1.3-5.2-1C283.7,370.5,281.8,369.8,282.2,367z"/>
	<path fill="#ACA588" d="M298.1,417c-0.1,0.4-0.1,0.8-0.2,1.2c-1.1,2.5,0.5,6-2.8,7.7c-0.1,0.2-0.2,0.3-0.3,0.5
		c-4.3-5.1-4.3-9,0-12.4c1.3-0.5,2.5-1.7,4.1-1C298.7,414.3,298.4,415.6,298.1,417z"/>
	<path fill="#5A5333" d="M300.9,434c4.2-4,2.7-9.2,2.8-14c0-1.1-0.9-2.3,1.2-2c1.2,2.8,1,5.7,0.7,8.7c-0.8,7.2-0.1,8,7.4,8.3
		C308.8,437.2,304.8,436.1,300.9,434z"/>
	<path fill="#6B6855" d="M297,400.1c-0.1,0.4-0.1,0.8-0.2,1.2c-6.1-1.2-11.1-3.9-13.4-10.2c-0.8-2.1-1-4.1,0.7-6
		c0.3,0.4,0.8,0.8,0.8,1.2c-1.1,6.9,3.2,9.8,8.6,11.9C294.8,398.8,295.9,399.5,297,400.1z"/>
	<path fill="#B4B198" d="M341.8,412c1.1,3.5-1.3,6.7-0.8,10.2c-0.7,1.3-1.6,2.3-3,2.7c-1.9-0.5-2.9-1.4-1.6-3.4
		c1-1.6,2.3-3.2,2.3-5.3c1.3-1.5,0.3-3.6,1.3-5.3C340.6,411.3,341.2,411.7,341.8,412z"/>
	<path fill="#CCCAAC" d="M339.2,417.1c1.7,2.2-0.8,3.1-1.5,4.4c-0.8,1.5-1.1,2.4,0.4,3.5c-1.8,0.2-3.5-0.1-5.1-1
		c-0.9-1.4-1.2-2.8,0.3-4c1.4,0.3,2.6-0.4,3.8-0.9C337.7,418.3,338,417.2,339.2,417.1z"/>
	<path fill="#858272" d="M298.9,413c-1.2,0.9-2.6,1.2-4.1,1c3.5-3.5,1.4-8,2.2-12c0.7,0.6,1.3,1.3,2,1.9
		C296.2,406.9,300,410,298.9,413z"/>
	<path fill="#6F6953" d="M333.2,419.9c-0.1,1.3-0.2,2.7-0.3,4c-0.6,0.1-1.3,0.1-1.9,0.2c0-3.6,0-7.3,0-10.9
		C334.2,414.7,332.5,417.7,333.2,419.9z"/>
	<path fill="#80796C" d="M317.9,432.2c3.7,0,7.4-1.2,11,0.6c-3.1,2.5-6.7,0.6-10,0.9C318.2,433.4,317.7,433,317.9,432.2z"/>
	<path fill="#5A523C" d="M317.9,432.2c0.3,0.5,0.7,1,1,1.5c-1.6,0.4-3.2,0.8-4.7,1.1c-0.3-2.5,0.2-4.9,1.9-6.9
		C316.4,429.4,315.1,431.7,317.9,432.2z"/>
	<path fill="#87684E" d="M328.2,369.7c1.6,5,1.2,5.4-5.2,5.2c-1.3-0.7-2.7-1.4-3.6-2.6c-2.4-3.2-5.4-5.6-8.4-8.2
		c2-3.3,3.7-7.2,8.8-4.4c1.3,0.7,2.4-2.6,4.2-0.7C327.4,361.7,326.6,366.2,328.2,369.7z"/>
	<path fill="#604C2F" d="M311,364.1c5.7,1.8,8.1,7.1,12,10.8c-0.3,0.1-0.6,0.2-0.9,0.3c-0.8-0.3-1.7-0.5-2.2-1
		c-3-3.6-6.4-6.7-10.2-9.3C310.1,364.6,310.5,364.3,311,364.1z"/>
	<path fill="#86774F" d="M327.9,411c-4.7-0.5-9-0.3-9.6,6.6c-1.9-5.2,0.1-8.7,4.3-8.2c1.9,0.2,3.2,0.2,4.4-1
		C328,409.1,327.9,410,327.9,411z"/>
	<path fill="#72604C" d="M296,364.9c0.3-1.9,1.5-3.1,3.1-4c0.4,0.7,0.7,1.4,1.1,2.1c-0.3,1.7,0.3,3.7-1.1,5.1
		C296,369,296,366.9,296,364.9z"/>
	<path fill="#605243" d="M328.2,369.7c-1-1.2-0.9-1.2-1.4-2.9c-0.8-2.6-1.8-5.2-2.8-7.9C329.2,361,327.6,365.8,328.2,369.7z"/>
	<path fill="#5F5B3E" d="M320.2,397.9c-1.6,0.7-3.5,1.1-2.2-1.6c1.2-2.4,3-4.6,6.2-4.3C323.4,394.4,319.9,394.9,320.2,397.9z"/>
	<path fill="#605F49" d="M339.2,417.1c-0.7,0.6-1.4,1.3-2.2,1.9c0-3.1,3-5.5,1.9-8.8c1.5-1.3,0.8,0.5,1.1,0.8
		C339.9,413.1,340.2,415.1,339.2,417.1z"/>
	<path fill="#E2DCC6" d="M302.9,385.9c0.3,0.7,0.5,1.4,0.8,2.2c1.5,1.1,1.4,2.6,0.6,4c-5.1,1.9-9.7,0.3-14.3-2
		c0.7-0.7,1.3-1.4,2-2.1c-0.2-2.1,1.5-2,2.8-2.4C297.5,385.8,300.2,384.4,302.9,385.9z"/>
	<path fill="#181714" d="M312.9,373.7c4.9,3.4,2.2,7.4,0.9,11.3c-0.9,0.9-2,0.9-3.1,0.4c-1-0.7-1.6-1.7-1.9-2.9
		c-0.4-2.1-0.5-4.2,0.1-6.2C309.6,374.4,310.7,373.1,312.9,373.7z"/>
	<path fill="#F4F1E9" d="M312.9,373.7c-5.4,1.5-1.7,6.2-3.2,9.1c-0.9,1.6-2.2,2.3-4,1.5c-2.6-3.8-0.2-6.9,1.2-10.2
		C308.8,372.5,310.7,370.6,312.9,373.7z"/>
	<path fill="#703B30" d="M311.1,384.9c0.9,0,1.8,0,2.8,0c0.1,6.9-1.8,9.6-6.8,10C305.2,390.3,306.5,387.2,311.1,384.9z"/>
	<path fill="#92524B" d="M311.1,384.9c-2.5,2.9-4.6,5.9-4.1,10c-1,0-2,0-3,0c-0.8-0.9-0.8-1.9-0.1-2.9c-0.1-1.3-0.2-2.7-0.2-4
		c0.2-0.7,0.3-1.4,0.5-2.1c0.6-0.6-0.2-2.5,1.7-1.9c1.3-0.4,2.5-0.8,3.8-1.3C310.2,383.5,310.6,384.2,311.1,384.9z"/>
	<path fill="#312C1B" d="M302.9,385.9c-2.7,0.2-5.1,2.1-7.9,1c-2.6-1.5-3.2-3.8-2.5-6.6c0.3-0.4,0.7-0.6,1.3-0.6
		c1.8,0.7,3.2,2.1,4.6,3.3C300.4,383.2,302,384,302.9,385.9z"/>
	<path fill="#877C5C" d="M304,392.1c0,1,0,1.9,0.1,2.9c-3.9,0.2-7.3-2.8-11.5-1.5c-1.3,0.4-1.6-2.2-2.5-3.3
		C294.7,390.8,299.2,392.4,304,392.1z"/>
	<path fill="#0E0D0D" d="M298.4,382.9c-2.1-0.2-4.1-0.4-4.5-3c-1.1-2.5,1.1-3.3,2.3-4.7c2.1-0.5,3.1,0.4,2.9,2.5
		C299,379.4,298.7,381.2,298.4,382.9z"/>
	<path fill="#D7BB6B" d="M302,404c2.7-0.8,4.5,1.7,6.9,1.8c-1.7,1-1.4,3.6-3.6,4.2C300,409,299.4,408,302,404z"/>
	<path fill="#AB957D" d="M296,364.9c1.3,0.7,0.7,3.3,3.1,3.1c-2.8,0.8-5.1,2.9-8.1,2.8C291.8,368.2,293.8,366.5,296,364.9z"/>
	<path fill="#6E6E4E" d="M293,380.1c0,2.5,0.9,4.7,2,6.8c-1.1,0.1-2.4-0.1-3,1.2c-1.6-3-1.6-6-0.1-9
		C292.6,379.1,292.9,379.5,293,380.1z"/>
	<path fill="#857A55" d="M318.9,426.1c0.5,1,2.2,0.8,2.3,2.4c-1.8,0.9-3.6,0.5-5.3-0.5c0.3-1.9-0.5-3.9,0.8-5.7
		C318.8,423.1,317.3,425.4,318.9,426.1z"/>
	<path fill="#877B62" d="M305.9,384c-0.6,0.6-1.1,1.3-1.7,1.9c0-4.2-1.3-8.6,2.7-11.9C307,377.4,304.1,380.5,305.9,384z"/>
	<path fill="#7B6529" d="M302,404c-3.3,4.4,1.6,4.3,3.3,6c-4.4,1.2-6.4-0.9-5.5-5.9C300.5,404.1,301.3,404.1,302,404z"/>
	<path fill="#EEEEE4" d="M293,380.1c-0.4-0.3-0.7-0.7-1.1-1c1.5-3,2.4-3.9,4.3-3.9c0.1,2-2.4,2.7-2.3,4.7
		C293.6,380,293.3,380,293,380.1z"/>
	<path fill="#6B633D" d="M295.2,425.8c0.9-2.6,1.8-5.1,2.8-7.7C297.3,420.8,300.3,424.8,295.2,425.8z"/>
</g>
</svg>
