<?xml version="1.0" encoding="utf-8"?>
<!-- Generator: Adobe Illustrator 18.0.0, SVG Export Plug-In . SVG Version: 6.00 Build 0)  -->
<!DOCTYPE svg PUBLIC "-//W3C//DTD SVG 1.1//EN" "http://www.w3.org/Graphics/SVG/1.1/DTD/svg11.dtd">
<svg version="1.1" id="Layer_1" xmlns="http://www.w3.org/2000/svg" xmlns:xlink="http://www.w3.org/1999/xlink" x="0px" y="0px"
	 viewBox="0 0 612 792" enable-background="new 0 0 612 792" xml:space="preserve">
<g>
	<path d="M304.6,401.4c-0.1,0.1-0.2,0.1-0.3,0.2c-0.1,0-0.1,0.1-0.2,0c-0.1-0.1-0.1-0.1,0-0.2c0.2-1.2,0.4-2.4,0.7-3.6
		c0-0.3,0.1-0.5,0.1-0.8c0-0.1,0-0.2-0.1-0.2c-1.1-1-2.2-2.1-3.3-3.1c-0.1-0.1-0.1-0.1-0.1-0.2c0-0.1,0.1-0.1,0.2-0.1
		c0.8-0.1,1.6-0.2,2.4-0.3c0.7-0.1,1.4-0.2,2.1-0.3c0.1,0,0.2-0.1,0.3-0.2c0.7-1.3,1.3-2.6,2-3.9c0-0.1,0.1-0.2,0.2-0.2
		c0.1,0,0.1,0.1,0.2,0.2c0.6,1.3,1.3,2.6,1.9,3.9c0.1,0.2,0.2,0.2,0.3,0.3c1.5,0.2,2.9,0.4,4.4,0.6c0.1,0,0.2,0,0.2,0.1
		c0,0.1,0,0.2-0.1,0.2c-0.1,0.1-0.1,0.1-0.2,0.2c-0.1,0.2-0.3,0.4-0.5,0.5c-0.1,0.1-0.2,0.2-0.3,0.3c-0.1,0.1-0.2,0.2-0.3,0.3
		c-0.2,0.1-0.3,0.3-0.5,0.5c-0.3,0.3-0.6,0.6-0.9,0.9c-0.1,0.1-0.3,0.2-0.4,0.4c0,0,0,0-0.1,0.1c-0.1,0.1-0.1,0.2-0.1,0.3
		c0,0.1,0,0.2,0.1,0.4c0,0.2,0.1,0.5,0.1,0.7c0,0.2,0.1,0.5,0.1,0.7c0,0.1,0,0.3,0.1,0.4c0,0,0,0,0,0.1c0,0.3,0.1,0.5,0.1,0.8
		c0,0,0,0.1,0,0.1c0,0.1,0,0.1,0,0.2c0,0.3,0.1,0.7,0.2,1c0,0.1,0,0.2-0.1,0.3c0,0-0.1,0-0.1,0c-0.4-0.2-0.9-0.4-1.3-0.6
		c-0.4-0.2-0.8-0.4-1.2-0.6c-0.5-0.3-1-0.6-1.6-0.8c-0.1-0.1-0.2-0.1-0.4,0c-0.9,0.5-1.8,0.9-2.7,1.4c-0.3,0.1-0.5,0.3-0.7,0.4
		C304.7,401.4,304.7,401.4,304.6,401.4z"/>
	<path fill="#BDBDBD" d="M304.6,401.4c0,0,0.1-0.1,0.2-0.1c0.1,0,0.1,0,0.2-0.1c0.2-0.1,0.4-0.2,0.5-0.3c0.9-0.5,1.8-0.9,2.7-1.4
		c0.2-0.1,0.3-0.1,0.5,0c1.3,0.7,2.7,1.4,4,2.1c0,0,0,0.1,0,0c-0.4-0.2-0.8-0.4-1.2-0.6c-0.5-0.3-1-0.5-1.5-0.8
		c-0.4-0.2-0.7-0.4-1.1-0.6c-0.3,0-0.5,0.2-0.8,0.3c-0.1,0.1-0.2,0.1-0.3,0.2c-0.3,0.1-0.5,0.2-0.7,0.3c-0.5,0.3-1,0.5-1.4,0.7
		c-0.2,0.1-0.4,0.2-0.7,0.3C304.8,401.8,304.7,401.8,304.6,401.4C304.6,401.5,304.6,401.5,304.6,401.4z"/>
	<path fill="#BDBDBD" d="M314.8,394.4c0.2-0.2,0.3-0.3,0.5-0.5c0,0,0,0,0.1,0c0.2,0.2,0.2,0.2,0,0.5c-0.3,0.2-0.5,0.5-0.8,0.8
		c-0.6,0.6-1.3,1.2-1.9,1.8c0,0,0,0,0,0c-0.3,0.2-0.3,0.5-0.3,0.8c0,0.1,0,0.2,0,0.3c0,0,0,0.1-0.1,0.1c-0.1-0.2-0.1-0.5-0.1-0.7
		c0-0.1,0-0.2,0-0.3c0-0.2,0-0.3,0.1-0.4c0,0,0,0,0,0c0.2-0.1,0.3-0.2,0.4-0.4c0.3-0.3,0.6-0.6,0.9-0.9c0.2-0.1,0.4-0.2,0.5-0.5
		c0.1-0.1,0.2-0.2,0.4-0.3C314.6,394.6,314.8,394.5,314.8,394.4z"/>
	<path fill="#C4C4C4" d="M312.4,398c0-0.2-0.1-0.5-0.1-0.7c0-0.1,0-0.2,0.1-0.3c0.3-0.2,0.6-0.6,0.9-0.8c0.4-0.4,0.8-0.8,1.2-1.1
		c0.3-0.3,0.6-0.6,0.9-0.9c0.1-0.1,0.2-0.2,0-0.2c-0.1,0,0-0.1,0-0.1c0.1,0,0.2,0.1,0.3,0.1c0.1,0,0.1,0.1,0,0.1
		c-0.2,0.2-0.3,0.3-0.5,0.5c-0.3,0.3-0.6,0.5-0.9,0.8c-0.6,0.6-1.3,1.2-1.9,1.8c-0.1,0.1-0.1,0.2-0.1,0.3c0.1,0.3,0.1,0.6,0.1,0.9
		c0,0,0,0.1-0.1,0.1C312.4,398.3,312.4,398.2,312.4,398z"/>
	<path fill="#C4C4C4" d="M312.8,400c0.1,0.4,0.2,0.8,0.2,1.3c0,0.2,0.1,0.4,0.1,0.6c0,0.1,0,0.1-0.1,0.1c0,0,0,0,0,0
		c-0.2,0-0.2-0.1-0.1-0.3c0.1-0.2,0-0.4-0.1-0.6c0-0.2-0.1-0.5-0.1-0.7c0,0,0,0,0-0.1c0-0.1,0-0.1,0-0.2
		C312.7,400,312.7,400,312.8,400C312.8,399.9,312.8,399.9,312.8,400z"/>
	<path fill="#C6C6C6" d="M307,400.6C307.1,400.5,307.1,400.5,307,400.6C307.1,400.6,307.1,400.6,307,400.6c-0.4,0.4-0.9,0.6-1.4,0.8
		c0,0-0.1,0-0.1-0.1"/>
	<path fill="#C4C4C4" d="M305.6,401.3C305.6,401.3,305.7,401.4,305.6,401.3c-0.3,0.2-0.6,0.4-0.9,0.6c0,0-0.1,0.1-0.1,0
		c0,0,0-0.1,0-0.1c0-0.1,0-0.2,0.1-0.2c0,0,0,0,0.1,0c0,0.3,0.2,0.1,0.3,0.1C305.2,401.5,305.4,401.4,305.6,401.3z"/>
	<path fill="#C7C7C7" d="M307.7,400.2c0.3-0.1,0.5-0.3,0.8-0.4c0.1,0,0.2-0.1,0.3,0C308.5,400,308.2,400.1,307.7,400.2
		C307.8,400.3,307.7,400.3,307.7,400.2z"/>
	<path fill="#C3C3C3" d="M307.7,400.2C307.8,400.2,307.8,400.3,307.7,400.2c-0.2,0.2-0.4,0.3-0.7,0.4c0,0,0-0.1,0-0.1
		C307.3,400.4,307.5,400.3,307.7,400.2z"/>
	<path fill="#C4C4C4" d="M312.5,398.4C312.5,398.4,312.5,398.4,312.5,398.4c0.1,0.2,0.2,0.5,0.2,0.8c0,0.1,0,0.1,0,0.2
		c-0.1,0-0.1-0.1-0.1-0.2c0,0,0,0,0,0c0-0.1,0-0.3,0-0.4C312.5,398.7,312.4,398.6,312.5,398.4z"/>
	<path fill="#CACACA" d="M312.7,399.4c0-0.1,0-0.1,0-0.2c0.1,0.2,0.1,0.4,0.1,0.7c0,0-0.1,0-0.1,0
		C312.6,399.8,312.6,399.6,312.7,399.4z"/>
	<path fill="#C1C1C1" d="M313,401.7C313,401.7,313,401.8,313,401.7c0,0.2,0.1,0.2,0.1,0.2c-0.1,0-0.3-0.1-0.4-0.2c0,0,0,0,0,0
		c0,0,0.1,0,0.1,0C312.9,401.7,312.9,401.7,313,401.7z"/>
	<path fill="#F0C317" d="M306.8,392.3c0-0.1,0.1-0.2,0.1-0.2c0.1,0.1,0.1,0.1,0,0.2c-0.1,0.3,0,0.6,0.3,0.9c0.3,0.3,0.7,0.6,0.9,1
		c0.1,0.2,0.2,0.5,0.3,0.7c0,0.1,0,0.2,0.1,0.2c0.1,0,0.1-0.1,0.1-0.2c0-0.1,0.1-0.2,0.1-0.4c0,0,0.1-0.1,0.1-0.1
		c0.1,0,0.1,0.1,0.1,0.2c0,0,0,0.1,0,0.1c0,0.2,0.1,0.3,0.2,0.3c0.1,0,0.1-0.1,0.2,0c0,0.1-0.1,0.1-0.2,0.2c-0.1,0-0.2,0.1-0.2,0.2
		c0.1,0.1,0.2,0,0.3,0c0.2-0.1,0.4,0,0.6,0c0.1,0,0.1,0,0.1,0.1c-0.2,0.1-0.4,0-0.5,0c-0.3,0-0.3,0-0.4,0.3c-0.1,0.1-0.1,0-0.2,0
		c-0.1-0.1-0.2-0.2-0.2-0.1c-0.1,0.1,0,0.2,0,0.3c0,0.1,0.1,0.2,0.1,0.3c-0.1,0.2,0,0.5-0.2,0.7c-0.1,0.2-0.2,0.3-0.4,0.3
		c0-0.1,0-0.2,0-0.2c0-0.3,0-0.5,0-0.8c0-0.1,0-0.2-0.2-0.2c-0.1,0,0-0.1,0-0.1c0.1-0.1,0.1-0.2,0-0.3c0,0,0,0,0,0c0,0,0,0,0.1-0.1
		c0.1,0,0.1-0.1,0-0.2c-0.1-0.1-0.1-0.1-0.2-0.2c0,0-0.1-0.1-0.1-0.2c0.1,0,0.2,0.1,0.3,0.1c0.1,0,0-0.1,0-0.1
		c-0.2-0.8-0.6-1.3-1.3-1.6c-0.1,0-0.1,0-0.2-0.1c-0.2-0.1-0.2-0.2,0-0.3C306.6,392.8,306.7,392.6,306.8,392.3z"/>
	<path fill="#F0D112" d="M314.2,394.5c-0.2,0.2-0.5,0.5-0.7,0.7c-0.1,0-0.1,0.1-0.2,0.1c-0.2,0.1-0.3,0-0.3-0.2
		c-0.1-0.2,0-0.5-0.1-0.7c0-0.2,0-0.3,0-0.5c0-0.2-0.1-0.3-0.2-0.4c-0.1,0-0.2-0.1-0.3-0.1c-0.1,0-0.1,0-0.1-0.1
		c-0.1,0-0.2,0-0.2-0.1c-0.1,0-0.1-0.1,0-0.2c0.2,0,0.4,0.1,0.7,0.1c0.1,0,0.3,0,0.4,0.1c0.1,0.1,0.2,0.1,0.4,0.2
		c0.1,0,0.2,0.1,0.3,0.1c0.1,0.1,0.2,0.1,0.1,0.3c0,0.1,0,0.2,0,0.3c0,0.2,0,0.2,0.2,0.2C314.1,394.4,314.2,394.4,314.2,394.5z"/>
	<path fill="#EFBB17" d="M305,397.6c0-0.2,0.1-0.5,0.1-0.7c0-0.1,0-0.2-0.1-0.3c-0.3-0.3-0.6-0.6-1-0.9c0.1-0.1,0.1,0,0.2,0
		c0.1,0.1,0.2,0.1,0.3,0.2c0.3,0.2,0.6,0.4,0.9,0.4c0.3,0,0.5-0.1,0.8-0.3c0.3-0.2,0.7-0.4,1.1-0.5c0.1,0,0.2,0.1,0.2,0.2
		c0,0.2-0.1,0.4-0.3,0.5c-0.2,0.1-0.5,0.2-0.8,0.2c-0.3,0.1-0.6,0.1-0.8,0.3c-0.2,0.2-0.3,0.4-0.4,0.6
		C305.1,397.6,305.1,397.7,305,397.6z"/>
	<path fill="#EFBF17" d="M306.8,392.3c0,0.3-0.1,0.5-0.3,0.7c-0.1,0.1-0.1,0.1,0,0.2c0.1,0,0.1,0.1,0.2,0.1c0.8,0.3,1.2,0.9,1.4,1.7
		c0,0.1,0,0.1,0,0.2c-0.1,0-0.1,0-0.1-0.1c-0.1,0-0.1-0.1-0.2-0.1c-0.1,0-0.1-0.1-0.2-0.1c-0.3-0.3-0.5-0.6-0.7-1
		c-0.2-0.3-0.4-0.5-0.7-0.5c-0.3-0.1-0.6-0.1-0.8-0.1c-0.1,0-0.2,0-0.2-0.1c0.4-0.1,0.7-0.1,1.1-0.2c0.2,0,0.4-0.1,0.4-0.3
		C306.6,392.6,306.7,392.5,306.8,392.3z"/>
	<path fill="#EED112" d="M312.3,393.5c0.2,0,0.3,0.1,0.4,0.2c0.1,0,0.1,0.1,0.1,0.2c0,0.3,0.1,0.6,0.1,0.9c0,0.2,0,0.3,0,0.5
		c0,0.1,0.1,0.2,0.2,0.1c0.1,0,0.2-0.1,0.3-0.1c-0.2,0.2-0.4,0.4-0.6,0.5c-0.1-0.1-0.2,0.1-0.3,0.1c0,0-0.1,0.2-0.2,0
		c0.1-0.3,0-0.7,0-1C312.4,394.4,312.3,393.9,312.3,393.5z"/>
	<path fill="#F1D412" d="M314.2,394.5C314.2,394.5,314.2,394.5,314.2,394.5c-0.5,0-0.6-0.1-0.5-0.6c0-0.1,0-0.2-0.1-0.2
		c-0.2-0.1-0.4-0.1-0.5-0.2c-0.1,0-0.1-0.1,0-0.1c0.2,0,0.3,0.1,0.5,0c0.5,0.1,1,0.1,1.6,0.2C314.8,394,314.5,394.2,314.2,394.5z"/>
	<path fill="#F1D213" d="M312.4,395.9c0.1-0.1,0.1-0.1,0.2-0.2c0.1-0.1,0.2-0.1,0.2,0c-0.3,0.3-0.7,0.6-1,1
		c-0.1,0.1-0.1,0.1-0.1,0.2c0.1,0.4,0.1,0.8,0.2,1.2c-0.1,0-0.1-0.1-0.1-0.1c-0.1-0.2-0.1-0.3-0.1-0.5c-0.1-0.3-0.2-0.5-0.5-0.6
		c-0.1,0-0.1-0.1-0.2-0.1c-0.1-0.1-0.3-0.1-0.4-0.1c-0.1,0-0.2,0-0.2-0.1c0.1-0.1,0.3-0.2,0.5-0.1c0.1,0,0.1,0,0.1-0.1
		c0.1-0.2,0.1-0.2,0.3-0.1c0.1,0,0.2,0,0.2-0.1c0,0,0,0,0,0c0.1,0,0.2-0.1,0.3-0.1C312.1,396.1,312.2,395.9,312.4,395.9z"/>
	<path fill="#F5DF2E" d="M310.1,400c-0.1,0-0.2-0.1-0.2-0.1c-0.3-0.2-0.6-0.4-0.8-0.7c-0.1-0.1-0.1-0.2-0.2-0.3c0-0.1-0.1-0.1,0-0.2
		c0.1,0,0.1,0.1,0.1,0.2c0.1,0.2,0.2,0.3,0.3,0.5c0.1,0.1,0.2,0.2,0.3,0.2c0.1,0.1,0.2,0.1,0.3,0.2c0.1,0,0.1,0.1,0.2,0
		c0,0,0-0.1,0-0.1c0-0.7,0.1-1.4,0.1-2.1c0-0.1,0-0.3,0.1-0.4c0.1,0,0.2,0,0.2,0.1c0,0,0.1,0.1,0.1,0.2c0,0.2,0,0.4,0,0.6
		c0,0.2,0,0.5,0,0.7c0,0.3,0,0.7,0,1c0,0.1,0,0.1,0,0.2c0,0.2-0.1,0.2-0.3,0.2C310.2,400,310.1,400,310.1,400z"/>
	<path fill="#F0CE13" d="M311.9,393.2c-0.1,0.1,0,0.1,0,0.1c0.1,0,0.1,0,0.2,0.1c-0.1,0.1-0.1,0.1-0.2,0c-0.3,0-0.6-0.1-0.9-0.1
		c-0.1,0-0.1,0-0.2,0c-0.1,0-0.2,0-0.3,0c-0.3,0.1-0.5,0.1-0.7-0.2c0,0-0.1-0.1-0.1-0.1c0-0.1,0-0.2,0-0.3c0.1-0.1,0.1-0.3,0-0.4
		c-0.1-0.2-0.2-0.5-0.2-0.7c0-0.1-0.1-0.1,0-0.2c0.2,0.5,0.5,0.9,0.7,1.4c0.1,0.1,0.2,0.2,0.3,0.2
		C311.1,393.1,311.5,393.1,311.9,393.2C311.9,393.2,311.9,393.2,311.9,393.2z"/>
	<path fill="#F0CA14" d="M309.3,399.6c-0.2-0.1-0.4-0.2-0.7-0.3c-0.1,0-0.2-0.1-0.3,0c-0.3,0.2-0.6,0.3-0.9,0.4
		c-0.1,0-0.2,0.1-0.4,0.1c0-0.1,0-0.1,0-0.1c0.2-0.1,0.4-0.2,0.5-0.4c0.1-0.1,0.1-0.1,0.2-0.1c0.2-0.1,0.3-0.3,0.4-0.6
		c0-0.1,0-0.1,0.1-0.1c0.1,0.1,0.2,0,0.3-0.1c0-0.1,0.1-0.2,0.2-0.1c0,0.1,0,0.2,0,0.3c0,0.4,0.2,0.7,0.5,0.9
		C309.3,399.5,309.4,399.5,309.3,399.6z"/>
	<path fill="#F4DE29" d="M310.1,400c0-0.1,0.1,0,0.2,0c0.2,0.1,0.2,0,0.2-0.1c0-0.2,0-0.4,0-0.7c0-0.3,0-0.6,0-0.9
		c0-0.3-0.1-0.5,0-0.8c0-0.1,0-0.1,0-0.2c0.2,0,0.2,0.2,0.2,0.3c0,0.3,0.1,0.7,0.2,1c0,0.5,0,0.9,0,1.4c0,0.2-0.1,0.2-0.3,0.2
		c-0.1,0-0.2-0.1-0.2-0.1C310.2,400.1,310.1,400,310.1,400z"/>
	<path fill="#F5D83A" d="M303.5,395.2c-0.1-0.1-0.1-0.2-0.2-0.2c0,0,0-0.1,0-0.1c0.2,0,0.3,0.2,0.4,0.3c0.1,0,0.1,0.1,0.2,0.1
		c0.1,0,0-0.1,0-0.2c0-0.4-0.1-0.7,0.1-1.1c0.1-0.1,0-0.3,0-0.4c0-0.1,0-0.1,0-0.2c0.1,0,0.2,0.1,0.2,0.2c0.1,0.4,0.1,0.7,0.2,1.1
		c-0.1,0.3,0,0.5,0,0.8c0,0.1,0,0.2-0.1,0.3c-0.1,0-0.3-0.1-0.4-0.2c0,0-0.1,0-0.1-0.1C303.8,395.4,303.7,395.3,303.5,395.2z"/>
	<path fill="#F7DF46" d="M302.9,394.6c-0.3-0.3-0.6-0.6-0.9-0.8c-0.1-0.2-0.1-0.2,0.1-0.2c0,0,0.1,0,0.1,0c0.1,0,0.2-0.1,0.3,0
		c0.1,0,0.3,0,0.4,0c0.2,0,0.3,0.1,0.4,0.3c0,0.2,0.1,0.5,0.1,0.7c0,0.1,0,0.2-0.1,0.3c-0.1,0.1-0.2,0-0.3,0
		C303,394.7,303,394.6,302.9,394.6z"/>
	<path fill="#F6DD41" d="M302.9,394.6c0.1-0.1,0.1,0,0.2,0c0.1,0,0.1,0.1,0.2,0c0.1-0.1,0-0.1,0-0.2c0-0.2-0.1-0.5-0.1-0.7
		c0-0.1-0.1-0.2-0.3-0.2c-0.1,0-0.3,0-0.4,0c0.2,0,0.4-0.1,0.5-0.1c0.1,0,0.2,0,0.2,0c0.1,0,0.2,0,0.3,0.1c0.1,0.4,0.1,0.8,0.1,1.2
		c0,0.1,0,0.1,0,0.2c-0.1,0.1-0.1,0.2-0.3,0.1c-0.1,0-0.2-0.1-0.3-0.2C303.1,394.7,303,394.7,302.9,394.6
		C303,394.6,303,394.6,302.9,394.6z"/>
	<path fill="#F5DA3B" d="M303.6,393.5c-0.1,0-0.2-0.1-0.4,0c0,0-0.1,0-0.1-0.1c0.2,0,0.4-0.1,0.6-0.1c0,0,0,0,0.1,0
		c0.1,0,0.3,0,0.4,0c0.1,0.3,0.1,0.5,0,0.8c-0.1,0.3-0.1,0.6,0,0.9c0,0,0,0,0,0.1c0,0.1,0,0.1,0,0.2c-0.1,0.1-0.1,0-0.2,0
		c0,0-0.1,0-0.1-0.1c0-0.1,0.1-0.1,0.1-0.2c0-0.5-0.1-0.9-0.2-1.4C303.6,393.6,303.6,393.5,303.6,393.5z"/>
	<path fill="#F0D718" d="M311.3,396.9c0.3,0.1,0.4,0.4,0.5,0.6c0.1,0.2,0.1,0.4,0.2,0.6c0.2,0.9,0.3,1.8,0.5,2.7c0,0.1,0,0.2,0,0.2
		c0,0.1,0,0.1-0.1,0.1c-0.1,0-0.1,0-0.2-0.1c0,0-0.1-0.1-0.2-0.1c-0.2-0.1-0.3-0.1-0.5-0.3c0,0,0-0.1,0-0.1c0.1,0,0.2,0,0.2,0
		c0.1,0,0.2,0.1,0.2,0.1c0.1,0,0.1,0.1,0.2,0c0.1,0,0-0.1,0-0.2c-0.1-0.5-0.2-1-0.3-1.5c0-0.2,0-0.5-0.1-0.7c-0.1-0.3-0.2-0.7-0.3-1
		C311.6,397.3,311.5,397.1,311.3,396.9C311.3,397,311.3,397,311.3,396.9C311.3,396.9,311.3,396.9,311.3,396.9z"/>
	<path fill="#F6DF3B" d="M305.4,400.6c0,0.1-0.1,0.1-0.2,0.1c-0.1-0.1,0-0.1,0-0.2c0.1-0.1,0.1-0.2,0.1-0.3c0-0.5,0-1.1,0.1-1.6
		c0.1-0.1,0.1,0,0.1,0c0.1,0.1,0.2,0.2,0.2,0.4c0,0.1,0,0.1,0,0.2c0,0.3,0,0.6,0,0.9c0,0.2-0.2,0.3-0.3,0.4
		C305.5,400.6,305.5,400.6,305.4,400.6z"/>
	<path fill="#F6DF46" d="M304.5,400.5c0.1-0.6,0.2-1.3,0.3-1.9c0-0.1,0-0.1,0-0.2c0,0,0,0,0-0.1c0.1-0.2,0.1-0.4,0.3-0.5
		c0.1,0,0.1,0.1,0.1,0.1c0,0.4,0.1,0.9-0.1,1.3c0,0.1-0.1,0.1-0.2,0.1c-0.1-0.1-0.1-0.2-0.1-0.2c0-0.1,0-0.3,0-0.4
		c-0.1,0.2-0.1,0.4-0.1,0.6c-0.1,0.4-0.1,0.7-0.2,1.1C304.6,400.4,304.6,400.5,304.5,400.5z"/>
	<path fill="#F7E54C" d="M304.6,400.4c0.1-0.4,0.2-0.7,0.2-1.1c0-0.1,0.1-0.1,0.1,0c0,0,0,0.1,0,0.1c0,0.4,0,0.9,0,1.3
		c0,0.1-0.2,0.2-0.3,0.2c-0.2,0.1-0.3,0.1-0.3-0.2c0,0,0-0.1,0-0.1c0,0,0-0.1,0-0.1C304.6,400.6,304.5,400.5,304.6,400.4z"/>
	<path fill="#F1D117" d="M309.8,391.4c-0.1,0.1,0,0.2,0.1,0.3c0.1,0.2,0.2,0.5,0.2,0.7c0,0.1,0,0.2-0.1,0.3
		c-0.1-0.1-0.1-0.1-0.2-0.2c-0.1,0-0.1-0.1-0.2-0.2c0,0,0-0.1,0-0.1c0.1-0.5,0-1-0.2-1.4c0-0.1-0.1-0.2-0.1-0.3c0.1-0.1,0.1,0,0.1,0
		c0.1,0.1,0.1,0.3,0.2,0.4C309.6,391.2,309.7,391.3,309.8,391.4z"/>
	<path fill="#F4DE2A" d="M308,389.9c0-0.1,0.1-0.3,0.2-0.4c0.1,0,0.1-0.1,0.1-0.1c0,0,0.1-0.1,0.2-0.1c0.1,0,0.1,0.1,0.1,0.2
		c0,0.2,0,0.4,0,0.6c0,0.1,0,0.2,0,0.3c0,0,0,0,0,0.1c0,0.2-0.1,0.3-0.1,0.5c0,0.1,0,0.2-0.2,0.3c-0.1-0.2-0.1-0.4-0.1-0.6
		c0-0.2,0-0.4-0.1-0.7C308.1,389.8,308.1,390,308,389.9C308,389.9,308,389.9,308,389.9z"/>
	<path fill="#F5D735" d="M304.1,393.4c-0.1,0-0.3,0-0.4,0c0.1,0,0.1,0,0.2-0.1c0,0,0.1,0,0.1,0C304,393.3,304,393.3,304.1,393.4
		c0.1-0.1,0.2-0.1,0.3-0.1c0,0,0.1,0,0.1,0c0.1,0,0.1,0.1,0.1,0.2c0,0.4,0,0.7-0.1,1.1c0,0,0,0.1-0.1,0.1c-0.1-0.4-0.2-0.8-0.2-1.1
		C304.2,393.5,304.2,393.4,304.1,393.4z"/>
	<path fill="#F5E145" d="M304.5,400.7C304.5,400.7,304.5,400.7,304.5,400.7c0.1,0.1,0,0.2,0.1,0.3c0.1,0,0.2-0.1,0.3-0.1
		c0,0,0.1,0,0.1-0.1c0.1-0.2,0-0.3,0.1-0.5c0-0.2,0-0.4,0-0.7c0-0.1,0-0.2,0.1-0.2c0.1,0,0.1,0,0.2,0c0,0,0,0.1,0.1,0.1
		c0,0.2,0,0.5,0,0.7c0,0.3-0.1,0.5-0.3,0.7c-0.2,0.1-0.4,0.2-0.7,0.4C304.4,401,304.4,400.9,304.5,400.7z"/>
	<path fill="#F3D427" d="M308.3,394.9c-0.1-0.4-0.3-0.8-0.6-1.1c-0.2-0.2-0.4-0.4-0.6-0.6c-0.2-0.2-0.3-0.5-0.3-0.9
		c0-0.1,0-0.1,0-0.2c0,0,0-0.1,0-0.1c0.1,0,0.1,0.1,0.1,0.2c0,0.3-0.1,0.5,0.1,0.8c0.2,0.3,0.4,0.5,0.6,0.7c0.2,0.2,0.4,0.4,0.5,0.6
		c0.1,0.1,0.1,0.3,0.2,0.4c0,0.1,0,0.1,0.1,0.2c0.1-0.1,0-0.3,0.2-0.3c0,0,0,0.1,0,0.1c0,0.1-0.1,0.3-0.1,0.4c0,0.1,0,0.1-0.1,0.1
		c-0.1,0-0.1-0.1-0.1-0.1C308.3,395,308.3,394.9,308.3,394.9z"/>
	<path fill="#F6DF48" d="M307,391.9c0.1-0.1,0.1-0.3,0.2-0.4c0,0,0,0,0,0c0.2-0.1,0.2-0.1,0.2,0.1c0,0.3,0,0.6,0.1,0.8
		c0,0.2,0,0.4,0,0.7c0,0.2,0,0.2-0.2,0.2c0,0-0.1,0-0.1-0.1c0,0,0,0,0-0.1c0.1-0.1,0-0.3,0-0.4c0-0.3-0.1-0.6,0-1
		c-0.1,0.1-0.1,0.2-0.2,0.3c0,0.1,0,0.1-0.1,0.2C307,392.1,307,392,307,391.9C307,391.9,307,391.9,307,391.9z"/>
	<path fill="#F3DD26" d="M308.6,390.3c-0.1-0.2,0-0.3,0-0.5c0-0.1,0-0.2,0-0.2c0-0.1,0.1-0.2-0.1-0.3c-0.1,0-0.1,0.1-0.2,0.2
		c0,0-0.1,0-0.1,0c0-0.1,0.1-0.2,0.1-0.3c0,0,0-0.1,0.1-0.1c0.1-0.1,0.2-0.1,0.2,0c0,0,0,0.1,0,0.1c0,0.2,0.1,0.3,0.1,0.5
		c0,0.1,0.1,0.2,0.1,0.3C308.8,390.1,308.7,390.2,308.6,390.3z"/>
	<path fill="#F0C41F" d="M304.9,398.4C304.9,398.4,304.9,398.4,304.9,398.4c0-0.2,0-0.5,0.1-0.7c0.1,0,0.1-0.1,0.1-0.1
		c0.2-0.6,0.7-0.9,1.3-1c0.3,0,0.6-0.1,0.8-0.2c0,0,0,0,0.1,0c0,0,0,0.1,0,0.1c-0.1,0.1-0.2,0.1-0.3,0.1c-0.1,0-0.2,0-0.4,0.1
		c-0.4,0-0.7,0.1-1,0.4c-0.2,0.2-0.4,0.5-0.4,0.8C305,398,305,398.2,304.9,398.4z"/>
	<path fill="#F3D12C" d="M304,393.3C304,393.3,304,393.3,304,393.3c0.1,0,0.1-0.1,0.2-0.1c0.1,0,0.2,0,0.2,0c0.3,0,0.6,0,0.9,0
		c0,0,0,0,0.1,0c0.2,0.2,0.3,0.3,0.1,0.7c-0.1,0.1-0.2,0-0.3-0.1c0,0,0-0.1,0-0.1c-0.1-0.3-0.1-0.3-0.4-0.3c-0.1,0-0.2,0-0.2-0.1
		c0,0-0.1,0-0.1,0C304.3,393.4,304.1,393.4,304,393.3z"/>
	<path fill="#EED01A" d="M309.3,399.6c0-0.1,0-0.1,0-0.1c-0.2-0.3-0.5-0.6-0.5-1c0-0.2,0-0.4,0-0.6c0-0.3,0-0.6,0-0.9
		c0-0.1,0-0.1,0-0.2c0.1,0,0.1,0.1,0.1,0.1c0,0.3,0,0.6,0,1c0,0.2,0,0.5,0,0.7c0,0,0,0,0,0c0,0.3,0.2,0.5,0.4,0.7
		c0.1,0.2,0.3,0.3,0.5,0.4c0,0,0.1,0.1,0.1,0.1C309.6,399.8,309.5,399.7,309.3,399.6z"/>
	<path fill="#F5DE35" d="M305.4,400.6C305.4,400.6,305.4,400.6,305.4,400.6c0.3-0.2,0.4-0.5,0.4-0.8c0-0.2,0-0.4,0-0.6c0,0,0,0,0,0
		c0.1,0,0.1,0.1,0.1,0.2c0,0.1,0.1,0.2,0.1,0.4c0,0.1,0,0.3,0,0.4c0,0.1-0.1,0.1-0.1,0.2c0,0-0.1,0.1-0.1,0.1
		c-0.1,0-0.2,0.1-0.2,0.2C305.5,400.6,305.5,400.7,305.4,400.6z"/>
	<path fill="#F7E241" d="M305,400.9c0-0.1,0-0.1,0-0.1c0.1-0.1,0.2-0.2,0.2-0.4c0-0.3,0-0.6,0-0.9c0.1,0,0.1,0.1,0.1,0.2
		c0.1,0.2,0,0.3,0.1,0.5c0,0.1,0,0.1,0,0.2c0,0.1,0,0.2-0.1,0.3c0,0-0.1,0.1-0.1,0.2C305.2,400.8,305.1,400.9,305,400.9z"/>
	<path fill="#4A401E" d="M311.7,400.8c0.2,0.1,0.3,0.2,0.5,0.3c0,0.1-0.1,0-0.2,0c-0.2-0.1-0.4-0.2-0.6-0.3
		c-0.4-0.2-0.7-0.4-1.1-0.6c0,0-0.1-0.1-0.1-0.1c0.1,0,0.1,0,0.2,0.1c0.2,0,0.3,0.1,0.4,0.2c0.1,0,0.1,0.1,0.2,0.1
		C311.3,400.6,311.5,400.6,311.7,400.8z"/>
	<path fill="#BCBCBC" d="M313,401.7c-0.1,0-0.1,0.1-0.2,0c0.1-0.1,0.1-0.1,0.1-0.3c-0.1-0.3-0.1-0.7-0.2-1.1c0,0,0-0.1,0-0.1
		c0.1,0.3,0.1,0.5,0.1,0.8C312.9,401.3,313,401.5,313,401.7z"/>
	<path fill="#EED112" d="M311.9,393.2C311.9,393.2,311.9,393.2,311.9,393.2c0.5,0,1.1,0.1,1.6,0.2c0,0-0.1,0.1-0.1,0.1
		c-0.1-0.1-0.3,0-0.4-0.1c-0.3,0-0.6-0.1-1-0.1C312,393.2,312,393.2,311.9,393.2z"/>
	<path fill="#D4BD3F" d="M308,389.9C308,389.9,308,389.9,308,389.9c0,0.2-0.1,0.3-0.2,0.5c0,0,0,0.1-0.1,0.1
		c-0.1,0.1-0.1,0.3-0.2,0.4c-0.1,0.1-0.1,0.2-0.2,0.4c0,0.1-0.1,0.2-0.2,0.2c0,0,0,0,0,0C307.4,390.9,307.7,390.4,308,389.9z"/>
	<path fill="#5A5227" d="M308.7,389.2C308.7,389.2,308.6,389.2,308.7,389.2c-0.1-0.1-0.1-0.2-0.2-0.3c0.1-0.1,0.1-0.1,0.2,0
		c0.1,0.1,0.1,0.3,0.2,0.4c0.1,0.2,0.1,0.3,0.2,0.5c0,0,0,0.1,0,0.1c-0.1,0-0.1-0.1-0.1-0.1C308.8,389.6,308.7,389.5,308.7,389.2z"
		/>
	<path fill="#B4B4B4" d="M305.5,401c0,0,0,0.1,0,0.1c-0.2,0.1-0.4,0.2-0.6,0.3c0,0-0.1,0-0.1,0C305,401.2,305.2,401.1,305.5,401z"/>
	<path fill="#F3D526" d="M305.8,400.4c0,0,0.1-0.1,0.1-0.1c0.1,0,0.1-0.1,0.1-0.1c0,0,0,0,0,0c0.1,0,0.2-0.2,0.3-0.1
		c0,0.1,0,0.1-0.1,0.2C306.2,400.3,306,400.4,305.8,400.4C305.8,400.5,305.7,400.5,305.8,400.4z"/>
	<path fill="#B8B8B8" d="M312.7,399.4c0,0.2,0.1,0.3,0.1,0.5c0,0,0,0.1,0,0.1c0,0,0.1,0.1,0,0.1c-0.1-0.3-0.1-0.6-0.1-0.9
		C312.6,399.3,312.6,399.4,312.7,399.4z"/>
	<path fill="#3E3317" d="M309.1,389.8c-0.1-0.1-0.2-0.3-0.2-0.5c0,0,0,0,0,0c0,0,0,0,0,0c0.2,0.3,0.4,0.7,0.5,1c0,0,0,0,0,0
		C309.2,390.2,309.1,390,309.1,389.8z"/>
	<path fill="#BEBEBE" d="M312.5,398.4c0,0.1,0,0.3,0,0.4c0,0,0,0-0.1,0c0-0.2-0.1-0.5-0.1-0.7c0,0,0-0.1,0-0.1
		C312.5,398.2,312.4,398.3,312.5,398.4z"/>
	<path fill="#1B1A14" d="M311.4,400.8c0.2,0,0.4,0.2,0.6,0.2c0.1,0,0.1,0.1,0.2,0c0.1,0,0.1,0,0.1,0.1c0,0,0,0.1-0.1,0.1
		C311.9,401.1,311.7,401,311.4,400.8z"/>
	<path fill="#B6B6B6" d="M314.1,395C314.2,395,314.2,395,314.1,395c-0.1,0.2-0.3,0.4-0.5,0.5C313.8,395.3,314,395.1,314.1,395z"/>
	<path fill="#F1C923" d="M304.4,393.3c-0.1,0-0.1,0-0.2,0c0.1,0,0.2-0.1,0.4,0c0.1,0,0.2,0,0.4,0c0.2,0,0.4,0,0.6,0c0,0,0.1,0,0.1,0
		c-0.1,0.1-0.2,0-0.3,0C305.1,393.3,304.7,393.3,304.4,393.3z"/>
	<path fill="#F1CC1B" d="M306.6,400.1C306.6,400.1,306.6,400.1,306.6,400.1c-0.1,0.1-0.2,0.1-0.2,0c0,0,0,0,0-0.1
		c0,0,0.1-0.1,0.1-0.1c0.1,0,0.2-0.1,0.3-0.2c0.1,0,0.1-0.1,0.2-0.1c0,0,0,0,0.1,0.1c0,0.1-0.1,0.1-0.2,0.2
		C306.8,400,306.7,400,306.6,400.1z"/>
	<path fill="#F1C41F" d="M305.7,393.3c-0.2-0.1-0.5,0-0.7,0c0-0.1,0.1,0,0.1-0.1c0,0,0,0,0,0c0.1,0.1,0.3,0,0.4,0
		c0.2,0,0.5,0,0.7,0.1c0,0,0,0,0,0.1C306,393.4,305.9,393.3,305.7,393.3C305.7,393.3,305.7,393.3,305.7,393.3z"/>
	<path fill="#B6B6B6" d="M312.3,396.7c-0.1,0.1-0.1,0.3,0,0.5c0,0.1,0,0.2,0,0.2c0-0.1,0-0.2-0.1-0.3
		C312.1,396.9,312.2,396.8,312.3,396.7z"/>
	<path fill="#F3C929" d="M303.9,395.5C303.9,395.5,304,395.5,303.9,395.5c0.2,0.2,0.4,0.2,0.5,0.3c0.1,0,0.1,0.1,0.1,0.2
		c0,0,0,0-0.1,0c-0.2-0.1-0.3-0.2-0.4-0.3C304,395.7,304,395.6,303.9,395.5C303.9,395.5,303.9,395.5,303.9,395.5z"/>
	<path fill="#B6B6B6" d="M312.7,396.4C312.7,396.4,312.7,396.4,312.7,396.4c0,0.2-0.2,0.4-0.4,0.4
		C312.5,396.6,312.6,396.5,312.7,396.4z"/>
	<path fill="#E6C217" d="M306.6,400.1c0.1-0.1,0.3-0.1,0.4-0.3c0,0,0,0,0,0c0.1,0,0.2-0.1,0.4-0.1
		C307.2,399.8,306.9,400,306.6,400.1z"/>
	<path fill="#3E3317" d="M309.6,391c-0.1-0.1-0.1-0.2-0.2-0.4c0-0.1-0.2-0.2,0-0.3c0,0,0,0,0,0C309.5,390.6,309.6,390.8,309.6,391z"
		/>
	<path fill="#0E0D09" d="M312.2,401.2C312.2,401.2,312.2,401.2,312.2,401.2c0.1,0,0.2,0,0.2,0c0,0,0.1,0,0.1,0c0,0,0.1,0.1,0,0.1
		c0,0-0.1,0-0.1,0C312.4,401.3,312.3,401.3,312.2,401.2z"/>
	<path fill="#B3B3B3" d="M314.8,394.4C314.8,394.4,314.8,394.4,314.8,394.4c0,0.2-0.1,0.3-0.3,0.3
		C314.6,394.6,314.7,394.5,314.8,394.4z"/>
	<path fill="#EACA2F" d="M303.9,395.5C303.9,395.5,303.9,395.5,303.9,395.5c-0.1,0-0.3-0.2-0.4-0.3c0.1,0,0.2,0.1,0.3,0.2
		C303.8,395.4,303.9,395.4,303.9,395.5z"/>
	<path fill="#B8B8B8" d="M312.5,398.9C312.5,398.9,312.5,398.9,312.5,398.9c0.1,0.1,0.2,0.3,0.1,0.4
		C312.5,399.1,312.5,399,312.5,398.9z"/>
	<path fill="#E5CC29" d="M302.3,393.5C302.2,393.6,302.2,393.6,302.3,393.5c-0.2,0.1-0.3,0.1-0.2,0.2c-0.1,0-0.1-0.1-0.2-0.2
		C302,393.6,302.1,393.6,302.3,393.5z"/>
	<path fill="#F3D821" d="M308.5,388.9c0.1,0,0.1,0.1,0.1,0.2c-0.1-0.1-0.1-0.1-0.2,0C308.4,389.1,308.5,389.1,308.5,388.9
		C308.5,389,308.5,389,308.5,388.9z"/>
	<path fill="#F5DA3B" d="M303.1,394.7c0.1,0,0.2,0.1,0.3,0.2c0,0,0,0,0,0c0,0,0,0,0,0c0,0,0,0,0,0
		C303.2,394.9,303.2,394.9,303.1,394.7C303.1,394.8,303.1,394.8,303.1,394.7C303.1,394.7,303.1,394.7,303.1,394.7z"/>
	<path fill="#4B441F" d="M308.9,389.3C308.9,389.3,308.9,389.3,308.9,389.3c-0.1-0.1-0.2-0.2-0.2-0.4
		C308.8,389.1,308.8,389.2,308.9,389.3z"/>
	<path fill="#F4DA2D" d="M305.8,400.4C305.8,400.4,305.8,400.5,305.8,400.4c0,0.1-0.1,0.1-0.2,0.2
		C305.6,400.5,305.7,400.4,305.8,400.4z"/>
	<path fill="#EFBF17" d="M305,393.2C305,393.2,305,393.2,305,393.2c-0.2,0.1-0.3,0.1-0.4,0.1C304.7,393.2,304.9,393.2,305,393.2z"/>
	<path fill="#F5E145" d="M304.6,400.4c0,0.1,0.1,0.2-0.1,0.2c0,0,0-0.1,0-0.1C304.5,400.5,304.5,400.4,304.6,400.4z"/>
	<path fill="#E6C217" d="M306.4,400.1c0,0,0.1,0,0.1,0c-0.1,0.1-0.1,0.1-0.2,0.1C306.3,400.2,306.4,400.1,306.4,400.1
		C306.4,400.1,306.4,400.1,306.4,400.1z"/>
	<path fill="#F5D833" d="M307,392.2c0-0.1,0-0.1,0-0.2c0,0,0-0.1,0.1-0.1c0,0,0,0,0,0C307,392,307.1,392.1,307,392.2
		C307,392.2,307,392.2,307,392.2z"/>
	<path fill="#F4D330" d="M303.9,393.3c0,0.1-0.1,0.1-0.2,0.1c0,0,0,0,0,0C303.7,393.3,303.8,393.3,303.9,393.3z"/>
	<path fill="#B8B8B8" d="M312.8,400.3c0,0,0,0.1,0,0.1C312.7,400.3,312.7,400.3,312.8,400.3C312.7,400.2,312.7,400.2,312.8,400.3
		C312.8,400.2,312.8,400.2,312.8,400.3z"/>
	<path fill="#E2D35B" d="M308.5,389c0,0.1,0,0.1,0,0.2c0,0-0.1,0-0.1,0C308.4,389.1,308.4,389.1,308.5,389z"/>
	<path fill="#BCBCBC" d="M312.8,400.2C312.7,400.2,312.7,400.2,312.8,400.2C312.7,400.2,312.7,400.2,312.8,400.2c0-0.1,0-0.2,0-0.2
		C312.8,400.1,312.8,400.2,312.8,400.2z"/>
	<path fill="#1B1A14" d="M312.6,401.3c0,0-0.1,0-0.1,0c0.1,0,0.1-0.1,0.1-0.1C312.6,401.2,312.6,401.2,312.6,401.3z"/>
	<path fill="#F6DC3F" d="M303.1,394.7C303.1,394.7,303.1,394.8,303.1,394.7c-0.1,0-0.1,0-0.1-0.1C303,394.7,303.1,394.7,303.1,394.7
		z"/>
	<path fill="#F0C615" d="M308.3,394.9c0.1,0.1,0,0.2,0.1,0.2c0.1,0,0.1-0.2,0.1-0.3c0-0.1,0.1-0.2,0.1-0.3c0-0.1,0-0.2,0.1-0.3
		c0.2-0.1,0.3-0.3,0.4-0.5c0.2-0.2,0.3-0.2,0.4,0.1c0,0.1,0.1,0.2,0.1,0.3c0,0.1,0.1,0.1,0.2,0c0.1-0.1,0.1-0.2,0.1-0.3
		c0.1-0.2,0.1-0.3,0.2-0.5c0-0.1,0.1-0.2,0.2-0.1c0,0.1,0,0.1,0,0.2c-0.1,0.1-0.1,0.3-0.2,0.5c-0.1,0.4-0.4,0.7-0.7,0.9
		c0,0-0.1,0-0.1,0c-0.1,0-0.3,0.2-0.4,0c-0.1-0.1-0.1-0.1-0.1-0.2c0-0.1,0.1-0.2,0-0.3c-0.1,0.2-0.2,0.3-0.2,0.5
		c0,0.1-0.1,0.3-0.2,0.3C308.3,395.2,308.3,395,308.3,394.9z"/>
	<path fill="#F0C515" d="M308.7,398.1c-0.1,0.1-0.1,0.2-0.3,0.3c-0.1,0.1-0.1,0.1-0.2-0.1c0,0-0.1-0.1,0-0.1c0-0.2-0.1-0.3-0.2-0.5
		c0,0,0-0.1,0-0.1c0-0.2-0.1-0.3,0-0.5c0,0,0.1-0.1,0.1-0.1c0.1,0,0.1,0.1,0.2,0c0.1-0.1,0.2-0.3,0.2-0.4c0-0.1,0-0.3,0.1-0.4
		c0.2,0.1,0.2,0.2,0.2,0.4c0,0.4,0,0.8,0,1.1C308.7,397.9,308.8,398,308.7,398.1z"/>
	<path fill="#F0C615" d="M309,395.9c0-0.4,0-0.4,0.4-0.4c0.2,0,0.4,0,0.6,0c0.1-0.1,0.1,0,0.2,0c0.1,0,0.2,0.1,0.3,0.1
		c0,0,0.1,0,0.1,0.1c0.1,0.1,0.2,0.1,0.2,0.2c-0.1,0-0.2,0-0.2-0.1c-0.1-0.1-0.3-0.1-0.4-0.2c-0.2-0.1-0.3,0-0.3,0.2
		c0,0.1,0,0.3-0.1,0.4c-0.1,0-0.1,0-0.2,0C309.4,396.2,309.2,396,309,395.9C309,395.9,309,395.9,309,395.9z"/>
	<path fill="#F0C31A" d="M306.2,393.3C306.2,393.3,306.2,393.3,306.2,393.3c0.3,0,0.5,0.2,0.6,0.4c0.2,0.2,0.3,0.5,0.5,0.8
		c0.1,0.2,0.2,0.4,0.4,0.5c0.1,0.1,0.2,0.2,0.3,0.3c0.1,0.1,0.2,0.1,0.1,0.2c0,0.1-0.1,0.1-0.2,0.1c-0.2,0.1-0.3,0.1-0.5,0.1
		c-0.1-0.1,0-0.1,0-0.1c0.3,0,0.3-0.1,0.2-0.4c-0.2-0.3-0.4-0.6-0.6-0.9c-0.1-0.2-0.2-0.3-0.3-0.4c-0.1-0.1-0.1-0.2-0.3-0.2
		C306.3,393.5,306.2,393.5,306.2,393.3z"/>
	<path fill="#F1C917" d="M309,395.9c0.2,0.1,0.4,0.3,0.7,0.4c0.1,0,0.2,0.1,0.2,0.2c0,0,0,0-0.1,0c0,0-0.1,0-0.1,0c0,0,0,0,0,0
		c-0.1,0-0.1,0-0.2-0.1c-0.2-0.1-0.4-0.3-0.7-0.5c-0.1,0-0.1-0.1-0.2-0.1c0,0.1,0,0.2,0.1,0.2c0.1,0.2,0.1,0.3,0.1,0.5
		c0,0.1,0,0.2,0,0.2c0,0.6,0,1.2-0.1,1.7c-0.1-0.1,0-0.2,0-0.3c0-0.3,0-0.7,0.1-1c0-0.3,0-0.6-0.1-0.9c0-0.2-0.1-0.3-0.1-0.5
		c0-0.1,0-0.1,0-0.2c0.1-0.1,0.1,0,0.2,0C308.8,395.7,308.8,395.8,309,395.9z"/>
	<path fill="#EFC017" d="M307.3,395.6c0.2,0,0.4,0,0.5,0c0.1,0.1,0.2,0,0.2,0.1c0,0.1-0.1,0.2-0.2,0.3c0,0.1-0.2,0.2-0.3,0.2
		c-0.1,0-0.2,0.1-0.2,0.1c-0.1,0-0.1,0.1-0.2,0c0,0,0,0,0,0c0.1-0.2,0.2-0.3,0.2-0.5C307.4,395.7,307.4,395.6,307.3,395.6
		C307.3,395.6,307.3,395.6,307.3,395.6z"/>
	<path fill="#F0C419" d="M307.4,396.2c0.1-0.2,0.4-0.2,0.5-0.3c0,0,0.1,0,0.1,0c0.1,0,0.2,0,0.1,0.1c-0.1,0.4-0.1,0.8-0.1,1.2
		c0,0.2,0,0.3,0,0.5c0,0,0,0-0.1,0c-0.1-0.2-0.1-0.4-0.1-0.6c0-0.1,0-0.2,0-0.2c0-0.2,0-0.3,0-0.5c0-0.2-0.1-0.2-0.2-0.1
		C307.6,396.2,307.5,396.3,307.4,396.2z"/>
	<path fill="#E8BB15" d="M310.2,395.5c-0.1,0-0.2-0.1-0.2,0c-0.2-0.1-0.4-0.1-0.6-0.1c-0.1,0-0.2,0-0.3,0c-0.1,0-0.1,0-0.2,0
		c0-0.1,0.1-0.1,0.1-0.2c0.1-0.1,0.2-0.1,0.3-0.2c0.4-0.2,0.6-0.5,0.8-0.9c0,0,0,0,0.1,0c0,0.1,0,0.1,0,0.2
		c-0.1,0.3-0.3,0.4-0.5,0.6c-0.1,0.1-0.3,0.2-0.4,0.3c0,0-0.1,0.1,0,0.1c0.1,0,0.1,0,0.2,0c0.3,0,0.6,0,0.8,0.1c0,0,0.1,0,0.1,0.1
		c0,0,0,0,0,0.1C310.3,395.5,310.2,395.5,310.2,395.5z"/>
	<path fill="#EDCE12" d="M312,393.4c0.1,0,0.1,0,0.2,0c0,0,0.1,0,0.1,0c0.1,0.1,0.1,0.3,0.1,0.5c0.1,0.4,0.1,0.8,0.1,1.2
		c0,0.1,0,0.1,0,0.2c0,0.2,0.1,0.4-0.1,0.6c-0.1,0.1-0.3,0.2-0.4,0.2c0.2-0.4,0.1-0.8,0.1-1.2c0-0.4-0.1-0.9-0.2-1.3
		C311.9,393.6,311.9,393.5,312,393.4z"/>
	<path fill="#F1C320" d="M307.3,395.6C307.3,395.6,307.3,395.6,307.3,395.6c-0.4,0.1-0.8,0.3-1.1,0.5c-0.2,0.1-0.4,0.3-0.6,0.3
		c-0.1,0-0.2,0-0.3,0c-0.3-0.1-0.6-0.2-0.8-0.4c0,0,0.1,0,0.1,0c0,0,0,0,0,0c0.2,0.1,0.4,0.2,0.6,0.3c0.2,0.1,0.5,0.1,0.7,0
		c0.2,0,0.3-0.2,0.4-0.3c0.1-0.1,0.2-0.1,0.3-0.2c0.1,0,0.3-0.1,0.4-0.2c0.1,0,0.3-0.2,0.4-0.1C307.4,395.5,307.3,395.5,307.3,395.6
		z"/>
	<path fill="#F0CB14" d="M309.9,396.4c-0.1-0.1-0.2-0.1-0.2-0.2c0-0.2,0.1-0.3,0.1-0.5c0-0.2,0.1-0.2,0.3-0.2c0.2,0,0.4,0.1,0.6,0.2
		c0.1,0,0.1,0.1,0.2,0.1c0,0,0.1,0,0.1,0c0.2,0.1,0.3,0.2,0.5,0.3c0.1,0,0.2,0,0.2,0.1c0,0,0,0,0,0c-0.2,0.1-0.4,0-0.6-0.1
		c-0.3-0.2-0.3-0.2-0.4,0.2c0,0.2-0.1,0.2-0.3,0.2C310.2,396.6,310.1,396.5,309.9,396.4z"/>
	<path fill="#ECC912" d="M311.6,396.2c-0.1,0-0.2,0-0.2-0.1c0.1-0.1,0.1,0,0.2-0.1c0.2,0,0.3-0.1,0.3-0.4c0-0.2-0.1-0.5-0.1-0.7
		c0-0.3,0-0.7,0-1c0-0.4-0.1-0.5-0.5-0.6c-0.1,0-0.2,0-0.2-0.1c0.3,0,0.5,0,0.8,0.1c0,0,0.1,0,0.1,0c0.1,0.4,0.1,0.7,0.2,1.1
		c0.1,0.5,0.1,0.9,0.1,1.4c0,0.1-0.1,0.2-0.2,0.2C311.9,396.2,311.8,396.3,311.6,396.2z"/>
	<path fill="#F1CF13" d="M309.9,396.4c0.2,0,0.3,0.1,0.4,0.1c0.1,0,0.2,0,0.2-0.2c0-0.1,0-0.1,0-0.2c0.1-0.2,0.1-0.3,0.3-0.1
		c0.2,0.1,0.5,0.3,0.7,0.3c-0.1,0.1-0.2,0.1-0.3,0c-0.1-0.1-0.2,0-0.2,0.1c0,0.1-0.1,0.3-0.2,0.1c0,0-0.1,0-0.2,0
		c-0.1,0-0.2,0.1-0.2,0c-0.1,0.1-0.3,0-0.4,0C310,396.6,309.9,396.5,309.9,396.4C309.9,396.5,309.9,396.5,309.9,396.4
		C309.9,396.4,309.9,396.4,309.9,396.4z"/>
	<path fill="#F3D921" d="M309.9,396.5c0.2,0,0.4,0.1,0.6,0.1c0.2,0.1,0.3,0.1,0.5,0.1c0.1,0,0.1,0,0.1,0.1c0.1,0,0.1,0.1,0.2,0.1
		l0,0c0.1,0.2,0.2,0.4,0.1,0.6c0,0.1-0.1,0.1-0.2,0.1c-0.1,0-0.1-0.1-0.1-0.2c0-0.1,0-0.2,0-0.2c0-0.3-0.1-0.3-0.4-0.4
		c-0.2-0.1-0.4-0.1-0.5-0.1c0,0,0,0,0,0C310,396.6,310,396.6,309.9,396.5C309.9,396.5,309.9,396.5,309.9,396.5
		C309.9,396.5,309.9,396.5,309.9,396.5z"/>
	<path fill="#F3DA1D" d="M311.3,396.9c-0.1,0-0.1-0.1-0.2-0.1C311.2,396.8,311.2,396.9,311.3,396.9
		C311.3,396.9,311.3,396.9,311.3,396.9z"/>
	<path fill="#F6DF34" d="M310,399.8c-0.2,0-0.3-0.2-0.4-0.3c0.1,0,0.2-0.1,0.2-0.3c0-0.3,0-0.5,0-0.8c0-0.5,0-1,0-1.5
		c0-0.2,0-0.3,0-0.5c0-0.1,0.1-0.1,0.1-0.1c0,0,0.1,0,0.1,0c0,0,0.1,0,0.1,0.1c0.1,0.1,0.1,0.2,0.1,0.4c0,0.7,0,1.4,0,2.2
		c0,0.1,0,0.3,0,0.4C310.1,399.7,310.1,399.7,310,399.8z"/>
	<path fill="#F4DB28" d="M310.1,396.6c0.2,0,0.4,0.1,0.6,0.2c0.2,0.1,0.2,0.2,0.2,0.4c0,0.4,0,0.9,0,1.3c0,0.1,0,0.2-0.1,0.2
		c-0.2-0.3-0.2-0.6-0.2-1c0-0.1,0-0.2-0.1-0.3c0,0,0-0.1,0-0.1c0,0,0-0.1,0-0.1c0-0.2,0-0.3-0.2-0.3
		C310.2,396.7,310.1,396.7,310.1,396.6z"/>
	<path fill="#F5DD31" d="M310,399.8c0.1-0.2,0.1-0.3,0-0.5c-0.1-0.1,0-0.2,0-0.3c0-0.7,0-1.4,0-2.1c0-0.1,0-0.2-0.1-0.3
		c0.3,0,0.4,0.2,0.3,0.5c-0.1,0.1-0.1,0.2-0.1,0.3c0,0.5,0,0.9,0,1.4c0,0.3-0.1,0.5,0,0.8C310.1,399.7,310.1,399.8,310,399.8z"/>
	<path fill="#F6E13A" d="M309.8,398.5c0,0.3,0,0.6,0,0.8c0,0.2,0,0.2-0.2,0.2c-0.1,0-0.2-0.1-0.3-0.2c0.2-0.1,0.1-0.2,0.1-0.4
		c0-0.1,0-0.1,0-0.2c0.1,0,0.2-0.1,0.2-0.2C309.7,398.5,309.8,398.5,309.8,398.5z"/>
	<path fill="#F7E241" d="M309.5,398.7c0,0.1,0,0.3,0,0.4c0,0.1,0,0.2-0.1,0.1c0,0,0,0,0,0c-0.1-0.1-0.3-0.3-0.3-0.5c0,0,0-0.1,0-0.1
		c0.1,0,0.1,0.1,0.2,0.2c0.1,0,0-0.1,0-0.2c0-0.2,0-0.4,0-0.7c0-0.1,0-0.2,0-0.2c0.1,0,0.1,0.1,0.1,0.1c0,0.1,0.1,0.2,0,0.3
		C309.5,398.4,309.5,398.5,309.5,398.7C309.5,398.7,309.5,398.7,309.5,398.7z"/>
	<path fill="#F5DB2E" d="M310.3,397.1c0-0.2,0-0.4-0.3-0.5c0,0,0,0,0,0c0.1,0,0.1,0,0.2,0c0,0,0,0,0,0c0,0,0.1,0.1,0.1,0.1
		c0.3,0.1,0.3,0.2,0.2,0.5C310.4,397.2,310.3,397.1,310.3,397.1z"/>
	<path fill="#F6DF40" d="M309,398.7C309,398.7,309,398.8,309,398.7c-0.1,0-0.1-0.1-0.1-0.1c0,0,0,0,0,0c0-0.3,0-0.5,0-0.8
		c0-0.4,0.1-0.8,0-1.2c0-0.1,0-0.1,0-0.2c0.1,0,0.1,0.1,0.1,0.2c0.1,0.3,0,0.6,0,1c0,0.3-0.1,0.6,0,1C309,398.6,309,398.7,309,398.7
		z"/>
	<path fill="#E9C513" d="M311.1,393.3c0.1,0.1,0.2,0.1,0.3,0.1c0.4,0,0.5,0.3,0.5,0.6c0,0.3,0,0.6,0,0.9c0,0.3,0.1,0.5,0.1,0.8
		c0,0.3-0.1,0.4-0.4,0.4c-0.1,0-0.1,0-0.2,0c-0.2,0-0.4-0.2-0.5-0.3c0.1-0.1,0.2,0,0.3,0c0.2,0.1,0.2,0.1,0.2-0.1
		c0-0.7-0.1-1.4-0.2-2.1c0-0.2-0.1-0.3-0.3-0.2c-0.1,0-0.2,0-0.3,0c0-0.1,0.1-0.1,0.1-0.1c0.1,0,0.2,0,0.3,0
		C311,393.3,311,393.3,311.1,393.3z"/>
	<path fill="#F0CA14" d="M310.6,393.3c0,0-0.1,0-0.1,0c-0.1,0.1-0.1,0.1-0.2,0.1c-0.2,0.1-0.2,0.2-0.2,0.3c-0.1,0.2-0.1,0.4-0.3,0.6
		c-0.1,0.1-0.1,0.1-0.2-0.1c0-0.1-0.1-0.3-0.1-0.4c-0.1-0.2-0.1-0.2-0.2,0c-0.1,0.1-0.2,0.3-0.3,0.4c0,0.1-0.1,0.1-0.2,0.1
		c0-0.1,0-0.1,0.1-0.1c0.2-0.2,0.3-0.4,0.5-0.6c0.2-0.1,0.3-0.3,0.5-0.5c0-0.1,0-0.1,0.1-0.1c0.1,0,0.2,0.1,0.2,0.2
		c0,0.1,0.1,0.2,0.2,0.1C310.5,393.3,310.5,393.3,310.6,393.3C310.7,393.3,310.7,393.3,310.6,393.3
		C310.6,393.3,310.6,393.3,310.6,393.3z"/>
	<path fill="#F1CF18" d="M309.9,393c-0.1,0.2-0.2,0.4-0.4,0.5c-0.1,0-0.1,0.1-0.2,0.1c0-0.1,0.1-0.2,0.1-0.3
		c0.1-0.1,0.1-0.2,0.1-0.4c0-0.2-0.1-0.4,0-0.6c0.1,0,0.1,0.1,0.2,0.1c0.1,0,0.2,0.1,0.2,0.2C309.9,392.8,310,392.9,309.9,393z"/>
	<path fill="#ECC912" d="M310.6,393.3C310.6,393.3,310.6,393.3,310.6,393.3c0.1-0.1,0.2-0.1,0.3,0
		C310.8,393.4,310.7,393.3,310.6,393.3z"/>
	<path fill="#F2D01F" d="M307.1,399.8C307.1,399.8,307.1,399.8,307.1,399.8C307,399.7,307,399.7,307.1,399.8c-0.1-0.1-0.1-0.1,0-0.2
		c0.2-0.1,0.2-0.3,0.2-0.5c0-0.2,0-0.3,0-0.5c0-0.1,0-0.3,0.1-0.4c0.2,0,0.3,0.1,0.4,0.2c0.2,0.4,0.1,0.8-0.3,1.1
		C307.3,399.5,307.2,399.6,307.1,399.8C307.1,399.7,307.1,399.7,307.1,399.8z"/>
	<path fill="#F1CC1B" d="M307.2,399.7c0.1-0.1,0.2-0.3,0.4-0.4c0.1-0.1,0.2-0.3,0.2-0.5c0-0.2,0-0.3,0-0.5c0-0.1,0-0.2,0.1-0.3
		c0.1-0.1,0.2,0,0.2,0c0.1,0.3,0.1,0.5,0,0.8c0,0.1,0,0.1-0.1,0.2c-0.1,0.1-0.1,0.1-0.2,0.2C307.6,399.5,307.4,399.6,307.2,399.7z"
		/>
	<path fill="#F1C917" d="M307.9,399.1c0,0,0.1-0.1,0.1-0.1c0.2-0.3,0.2-0.6,0.1-1c0-0.1,0-0.1,0-0.2c0.2,0.2,0.2,0.4,0.2,0.6
		C308.2,398.7,308.1,399,307.9,399.1C307.8,399.1,307.8,399.1,307.9,399.1z"/>
	<path fill="#F1CA18" d="M307.9,399.1C307.9,399.1,307.9,399.1,307.9,399.1c-0.1,0.1-0.1,0.2-0.2,0.2
		C307.7,399.2,307.8,399.1,307.9,399.1z"/>
	<path fill="#F4DE25" d="M310.8,398.6c0-0.1,0-0.1,0-0.2c0.1,0,0.2,0,0.3,0.1c0,0.1,0,0.2,0,0.4c0,0.4,0,0.7,0,1.1
		c0,0.1,0,0.1,0,0.2c0,0.2-0.1,0.2-0.3,0.2c-0.1,0-0.3-0.1-0.4-0.2c0,0,0,0,0,0c0.3,0,0.3,0,0.3-0.3
		C310.8,399.4,310.7,399,310.8,398.6z"/>
	<path fill="#F4D233" d="M304.6,396c-0.1-0.1-0.3-0.2-0.4-0.3c-0.1-0.1-0.1-0.1-0.2-0.2c0.1,0,0.2,0.1,0.3,0.2
		c0.3,0.1,0.3,0.1,0.3-0.2c0-0.3,0-0.6,0-0.9c0-0.2,0-0.5,0-0.7c0-0.1,0-0.2,0-0.4c0.1,0,0.1,0.1,0.1,0.2c0.1,0.5,0.3,1,0.3,1.5
		c0,0.1,0,0.2,0.1,0.3c0,0.2,0,0.4,0.1,0.5c0.1,0.2,0,0.3-0.2,0.3C304.9,396.2,304.7,396,304.6,396L304.6,396z"/>
	<path fill="#F4D435" d="M304.7,393.5c0.1,0.3,0.1,0.6,0.1,1c0,0.1-0.1,0.2-0.1,0.3c0,0.3,0,0.6,0,1c0,0,0,0.1,0,0.1
		c0,0-0.1,0-0.1,0c-0.1,0-0.2-0.1-0.2-0.2c0.1,0,0.1-0.2,0.1-0.2c0-0.3-0.1-0.5,0-0.8c0-0.3,0.2-0.6,0.1-0.9
		C304.6,393.7,304.6,393.6,304.7,393.5C304.6,393.4,304.7,393.5,304.7,393.5z"/>
	<path fill="#F6DC3F" d="M303.4,394.9C303.4,394.9,303.4,394.9,303.4,394.9c0.2,0.1,0.3,0,0.3-0.3c0-0.4-0.1-0.8-0.1-1.2
		c0.1,0,0.1,0.1,0.1,0.1c0.1,0.5,0.2,1,0.2,1.5c0,0.1-0.1,0.1-0.1,0.1C303.6,395.1,303.5,395,303.4,394.9z"/>
	<path fill="#F7E34B" d="M302.9,393.9c0,0.1,0,0.1,0,0.1c0,0.1,0,0.1-0.1,0.2c-0.1,0-0.1,0-0.2-0.1c-0.1-0.1-0.2-0.3-0.4-0.4
		c0,0-0.1-0.1-0.1-0.1c0,0,0.1-0.1,0.1-0.1c0.1,0,0.3,0,0.4,0C302.9,393.7,302.9,393.8,302.9,393.9z"/>
	<path fill="#F3DB18" d="M311.7,397.5c0.1,0.1,0.1,0.2,0.1,0.3c0.1,0.4,0.2,0.8,0.3,1.3c0.1,0.6,0.2,1.2,0.3,1.8c0,0.1,0,0.1,0,0.1
		c0,0-0.1,0-0.2,0c-0.1-0.1-0.2-0.1-0.3-0.2c0.1-0.7,0-1.5,0-2.2c0-0.1,0-0.2-0.1-0.3c0-0.2,0-0.4-0.1-0.6
		C311.6,397.6,311.6,397.6,311.7,397.5z"/>
	<path fill="#F3DC1A" d="M311.8,398.3c0.1,0.1,0.1,0.2,0.1,0.3c0,0.6,0.1,1.3,0.1,1.9c0,0.1,0,0.3-0.1,0.4c-0.1,0-0.1-0.1-0.2-0.1
		c-0.1,0-0.1,0-0.1-0.1c0.1-0.1,0.2-0.2,0.2-0.3c0-0.5,0-1-0.1-1.5c0-0.2,0-0.3,0.1-0.5C311.7,398.3,311.7,398.3,311.8,398.3z"/>
	<path fill="#F3DA1D" d="M311.8,398.3c-0.1,0.2-0.1,0.4-0.1,0.6c-0.1,0.1-0.1,0.2-0.3,0.1c0-0.5,0-0.9,0-1.4c0.1-0.2,0-0.4-0.1-0.6
		c0.2,0.1,0.3,0.4,0.4,0.6C311.7,397.8,311.8,398,311.8,398.3z"/>
	<path fill="#EBD21C" d="M311.5,400.6c0,0.1,0.1,0.1,0.2,0.1c0,0,0,0.1,0,0.1c-0.2-0.1-0.5-0.2-0.7-0.4c0.1-0.1,0.2,0,0.3,0
		C311.4,400.5,311.5,400.6,311.5,400.6z"/>
	<path fill="#F5D93A" d="M304.9,398.4c0-0.2,0.1-0.4,0.2-0.5c0.1-0.2,0.2-0.5,0.3-0.7c0.1-0.1,0.1-0.1,0.2-0.2
		c0.1-0.1,0.1-0.1,0.2-0.1c0.1,0,0.1,0.1,0.1,0.2c0,0,0,0.1,0,0.1c0,0.6-0.1,1.2,0,1.8c0,0.1,0,0.2-0.1,0.3c0,0,0,0,0,0
		c0,0,0-0.1,0-0.1c0-0.2-0.1-0.4-0.2-0.5c-0.1,0,0-0.1,0-0.2c0-0.1,0-0.2,0-0.3c0-0.2-0.1-0.5,0-0.7c-0.1,0.1-0.2,0.2-0.2,0.4
		c0,0.1-0.1,0.1-0.1,0.2C305.1,398.1,305,398.2,304.9,398.4z"/>
	<path fill="#F6DF40" d="M305.5,398.4c0,0.1,0,0.1,0,0.2c0,0.6-0.1,1.1-0.1,1.7c-0.1-0.1-0.1-0.2-0.1-0.4c0-0.2,0-0.3-0.1-0.5
		c0,0,0-0.1,0-0.1c0.1-0.4,0-0.9,0-1.3c0-0.1,0-0.2-0.1-0.1c0-0.1,0-0.1,0.1-0.2c0.1-0.1,0.1,0,0.2,0.1c0.1,0.1,0.1,0.3,0.1,0.4
		C305.5,398.2,305.5,398.3,305.5,398.4z"/>
	<path fill="#F7E349" d="M305.1,399.4c0,0.4,0,0.8,0,1.2c0,0.1,0,0.1-0.1,0.1c-0.1-0.5,0-0.9,0-1.4c0-0.1,0-0.1-0.1-0.1
		c0-0.2,0.1-0.4,0.1-0.5c0-0.1,0.1-0.1,0.1-0.1c0.1,0,0.1,0.1,0.1,0.1C305.1,399,305.1,399.2,305.1,399.4z"/>
	<path fill="#F2D21C" d="M309.6,392.4c0,0.1,0,0.2,0,0.3c0.1,0.4-0.1,0.7-0.3,1c-0.2,0.2-0.3,0.4-0.5,0.6c0,0,0-0.1,0-0.1
		c0-0.1,0.1-0.2,0.2-0.3c0.1-0.2,0.2-0.4,0.2-0.6c0-0.3-0.1-0.6,0-0.9c0-0.1,0-0.2,0.1-0.3C309.5,392,309.6,392.1,309.6,392.4
		C309.6,392.3,309.6,392.4,309.6,392.4z"/>
	<path fill="#F2D41B" d="M309.6,392.3c0-0.2-0.2-0.2-0.3-0.2c-0.1-0.1,0-0.2,0-0.3c0.1-0.6,0-1.1-0.3-1.6c0,0,0-0.1,0-0.1
		c0,0,0.1,0,0.1,0c0.1,0.2,0.2,0.3,0.2,0.5c0,0.3,0.2,0.5,0.2,0.7C309.6,391.6,309.7,392,309.6,392.3z"/>
	<path fill="#4B441F" d="M309.3,390.6c-0.1-0.2-0.2-0.4-0.3-0.5c0,0,0,0,0-0.1c0,0,0-0.1,0-0.1c0.1,0.2,0.2,0.4,0.3,0.5
		C309.3,390.5,309.4,390.5,309.3,390.6C309.4,390.6,309.4,390.6,309.3,390.6z"/>
	<path fill="#F4DE2F" d="M307.8,390.3c0-0.1,0.1-0.3,0.2-0.4c0.1-0.1,0.1-0.2,0.2-0.2c0.1,0,0.1,0.2,0.1,0.3c0,0.3,0.1,0.7,0.1,1
		c0,0,0,0.1,0,0.1c-0.1,0.2-0.1,0.4-0.2,0.5c0,0-0.1,0-0.1,0c-0.1-0.3-0.1-0.6-0.1-0.9c0-0.1,0-0.3,0-0.4
		C308,390.3,308,390.2,307.8,390.3C307.9,390.3,307.8,390.3,307.8,390.3z"/>
	<path fill="#F4DB25" d="M308.6,390.3c0.1-0.1,0.1-0.2,0.3-0.2c0.1,0,0.1,0.1,0.1,0.1c0,0.4,0,0.7,0,1.1c0,0.1,0,0.1-0.1,0.2
		c-0.1,0.1-0.2,0-0.3-0.1C308.6,391,308.5,390.7,308.6,390.3C308.6,390.3,308.6,390.3,308.6,390.3z"/>
	<path fill="#F4DA2A" d="M308.6,390.3c0,0.3,0.1,0.7,0.1,1c0,0.2,0,0.4,0,0.7c0,0.1-0.1,0.1-0.2,0.1c-0.1-0.1-0.1-0.1-0.1-0.2
		c0-0.2,0-0.5,0-0.7c0,0,0-0.1,0-0.1c0.2-0.2,0.1-0.4,0.2-0.6C308.6,390.4,308.6,390.4,308.6,390.3z"/>
	<path fill="#F4D330" d="M304.7,393.5C304.6,393.5,304.6,393.5,304.7,393.5c-0.1-0.1-0.1-0.1-0.1-0.2c0.1,0,0.2,0,0.4,0
		c0.2,0,0.3,0.1,0.3,0.3c0,0.1,0,0.2,0,0.2c0,0,0,0.1,0,0.1c-0.1,0.2,0,0.4,0,0.7c0,0.2-0.1,0.4-0.1,0.5c0,0.1,0,0.1-0.1,0.2
		c-0.1-0.1-0.1-0.3-0.1-0.4c0-0.3-0.1-0.6-0.2-0.9c0-0.1-0.1-0.3-0.1-0.4C304.7,393.6,304.7,393.5,304.7,393.5z"/>
	<path fill="#F4D330" d="M304,393.3c0.1,0,0.3,0,0.4,0C304.3,393.4,304.1,393.4,304,393.3z"/>
	<path fill="#F4D72F" d="M308.3,394.7c-0.1-0.1-0.1-0.3-0.2-0.4c0.1-0.1,0.1-0.2,0.1-0.3c0-0.3-0.1-0.5,0-0.8c0-0.1,0.1-0.3,0-0.4
		c0-0.1,0-0.2,0-0.3c0,0,0.1-0.1,0.1-0.1c0.1,0.2,0.1,0.4,0.1,0.6c0,0.2,0,0.4,0,0.7c-0.1,0.2-0.1,0.4,0,0.5c0,0.1,0,0.3,0,0.4
		C308.5,394.6,308.5,394.7,308.3,394.7z"/>
	<path fill="#F5D833" d="M308.3,393.2c0,0.3,0.1,0.6,0,0.9c0,0.1,0,0.2-0.2,0.2c-0.2-0.4-0.6-0.7-1-1.1c-0.1-0.1-0.1-0.1-0.1-0.2
		c0,0,0,0,0,0c0.1,0,0.1,0.1,0.2,0.2c0,0,0,0,0,0c0,0,0.1,0.1,0.1,0.1c0.1,0.1,0.1,0.1,0.2,0.2c0.1,0.1,0.2,0.3,0.4,0.4
		c0.1-0.1,0-0.3,0.1-0.5C308.1,393.3,308.1,393.2,308.3,393.2C308.3,393.1,308.3,393.2,308.3,393.2z"/>
	<path fill="#F4D52C" d="M308.3,394.7c0.1,0,0.2,0,0.2-0.1c0-0.2,0-0.4,0-0.5c0-0.1,0-0.3,0.1-0.4c0.1,0,0.1,0.2,0.2,0.3
		c0,0.2,0,0.4-0.1,0.6c0,0,0,0,0,0c-0.1,0.1-0.1,0.1-0.1,0.2c0,0.1,0,0.1-0.1,0.2C308.4,394.9,308.4,394.8,308.3,394.7
		C308.3,394.7,308.3,394.7,308.3,394.7z"/>
	<path fill="#F5D833" d="M307.1,393c-0.2-0.2-0.2-0.5-0.1-0.8c0,0,0,0,0,0c0.1,0.2,0,0.3,0.1,0.5c0,0,0,0,0,0.1
		C307,392.8,307.1,392.9,307.1,393L307.1,393z"/>
	<path fill="#F3D222" d="M308.9,394.1c0,0,0,0.1,0,0.1c0,0-0.1,0.1-0.1,0.1c-0.1,0.1-0.1,0.2-0.2,0.3c0,0,0-0.1,0-0.1c0,0,0,0,0,0
		C308.7,394.4,308.7,394.2,308.9,394.1C308.8,394.1,308.9,394.1,308.9,394.1z"/>
	<path fill="#F7E24D" d="M307,392.1c0.1-0.1,0.1-0.3,0.1-0.4c0,0,0-0.1,0.1-0.1c0.1,0,0.1,0.1,0.1,0.1c-0.1,0.4,0,0.9,0,1.3
		c0,0.1,0,0.1-0.1,0.1c-0.2-0.1-0.2-0.2-0.3-0.4l0,0c0-0.1,0-0.2,0-0.3c0-0.1,0-0.1,0-0.2C307,392.2,307,392.1,307,392.1z"/>
	<path fill="#F6DF45" d="M307.4,393.3c-0.1,0-0.1-0.1-0.1-0.1c0.1,0.1,0.2,0,0.2-0.1c0-0.5-0.1-1-0.1-1.4c0,0,0,0,0,0
		c0-0.1,0-0.3-0.2-0.1c0,0,0,0,0,0c0,0,0,0,0,0c0.1-0.1,0.1-0.2,0.2-0.2c0.1-0.1,0.2-0.1,0.2,0c0.1,0.3,0,0.5,0.1,0.8
		c0,0.3,0,0.7,0.1,1c0,0,0,0.1,0,0.1C307.7,393.4,307.6,393.4,307.4,393.3z"/>
	<path fill="#F6DF45" d="M307,392.4c0,0.1,0,0.2,0,0.3c-0.1-0.2,0-0.4,0-0.5c0.1-0.1,0-0.2,0-0.3c0.1,0.1,0,0.1,0,0.2
		c0,0,0,0.1,0,0.1C307,392.3,307.1,392.4,307,392.4z"/>
	<path fill="#F6DF45" d="M307,392.7c0.1,0.1,0.2,0.3,0.3,0.4c0,0,0,0,0,0c-0.1-0.1-0.1-0.1-0.2-0.2C307.1,392.9,307,392.8,307,392.7
		z"/>
	<path fill="#F3D821" d="M308.9,391.4c0-0.3,0-0.6,0-0.8c0-0.1,0-0.2,0-0.2c0-0.1,0-0.2,0-0.3c0-0.2-0.1-0.4-0.2-0.6
		c0-0.1,0-0.2,0-0.2c0.1,0.2,0.3,0.5,0.4,0.7c0,0,0,0,0,0.1c0,0,0,0.1,0,0.1c0.2,0.5,0.1,0.9,0.1,1.4c0,0,0,0,0,0.1
		C309,391.7,309,391.5,308.9,391.4C308.9,391.5,308.9,391.5,308.9,391.4z"/>
	<path fill="#F3CE29" d="M305.4,397.2c-0.2,0.2-0.2,0.4-0.3,0.6c0.2-0.8,0.7-1.2,1.5-1.2c0.3-0.1,0.5,0.1,0.5,0.4c0,0.1,0,0.2,0,0.3
		c0,0.1,0,0.2-0.1,0.3c-0.2,0-0.2-0.1-0.2-0.3c0-0.2,0-0.4-0.1-0.6c0-0.1-0.1-0.1-0.2-0.1c-0.1,0-0.2,0-0.2,0c-0.1,0-0.2,0-0.2,0.1
		C305.7,396.9,305.6,397,305.4,397.2z"/>
	<path fill="#F2CA22" d="M306.9,396.5c0.1,0,0.2-0.1,0.3-0.1c0.2-0.1,0.3-0.1,0.3,0.2c0,0.1,0,0.2,0,0.4c0,0.3-0.1,0.5-0.3,0.7
		c-0.1,0-0.1-0.1-0.1-0.2c0-0.2-0.1-0.5-0.1-0.7C307.1,396.6,307,396.6,306.9,396.5z"/>
	<path fill="#F1C61D" d="M307.5,396.9c0-0.1,0-0.2,0-0.3c0-0.3,0-0.3-0.3-0.2c0,0,0-0.1,0-0.1c0.1,0,0.1,0,0.2-0.1
		c0.1,0,0.2-0.1,0.3-0.1c0.2-0.1,0.2,0,0.2,0.1c0,0.2,0,0.4,0,0.5C307.8,396.9,307.7,396.9,307.5,396.9
		C307.6,397,307.6,396.9,307.5,396.9z"/>
	<path fill="#F3CC25" d="M306.9,396.5c0.2,0,0.3,0.1,0.2,0.2c0,0.2,0.1,0.5,0.1,0.7c-0.1,0.1-0.1,0.1-0.2,0.1
		c-0.1,0-0.1-0.1-0.1-0.1c0-0.2,0-0.4,0-0.5c0-0.2-0.2-0.3-0.4-0.3C306.7,396.5,306.8,396.5,306.9,396.5z"/>
	<path fill="#F3CF2E" d="M305.1,395.2c0.1-0.4,0-0.9,0.2-1.3c0.1,0,0.2,0,0.3,0.1c0.1,0.1,0.1,0.2,0.1,0.3c0,0.1,0,0.1,0,0.2
		c0,0.1-0.1,0.1-0.2,0.2C305.4,394.9,305.3,395.1,305.1,395.2z"/>
	<path fill="#F3CF29" d="M305.7,394.3c-0.1-0.1-0.1-0.2-0.1-0.3c0,0,0-0.1,0-0.1c0.1-0.2,0-0.4-0.1-0.5c0.1,0,0.3,0,0.4,0
		c0.1,0,0.2,0.2,0.2,0.4c-0.2,0.1-0.3,0.2-0.3,0.5C305.7,394.2,305.7,394.3,305.7,394.3z"/>
	<path fill="#F3CC25" d="M306,393.7c0-0.3-0.1-0.4-0.6-0.4c0,0,0,0,0,0c0,0,0,0,0,0c0,0,0,0,0,0c0.1,0,0.2,0,0.3,0h0
		c0.2,0,0.4,0.1,0.6,0.2c0.1,0.1,0.2,0.1,0.1,0.3c-0.1,0-0.3,0-0.4,0.1C306,393.8,306,393.8,306,393.7z"/>
	<path fill="#F3CF29" d="M305.4,393.3C305.4,393.3,305.4,393.3,305.4,393.3c-0.3,0-0.6,0-1,0c0.1-0.1,0.3,0,0.4,0
		C305,393.3,305.2,393.3,305.4,393.3z"/>
	<path fill="#F5DB2E" d="M308.9,396.4c0,0.3,0.1,0.6,0.1,0.8c0,0.3,0,0.5-0.1,0.8c0,0.2,0,0.4,0,0.5c-0.1-0.3,0-0.5,0-0.8
		c0-0.3,0.1-0.7,0-1c0-0.3-0.1-0.6-0.2-0.9c0,0-0.1-0.1,0-0.2c0.1,0,0.1,0,0.1,0.1c0.3,0.2,0.5,0.4,0.8,0.6c0,0,0.1,0,0.2,0.1l0,0
		c0,0,0.1,0,0.2,0.1l0,0c0,0,0,0,0,0c0,0,0,0,0,0c0,0-0.1,0-0.1,0c-0.2,0-0.3-0.1-0.4-0.2c-0.1-0.1-0.3-0.2-0.4-0.3c0,0,0,0-0.1,0
		c0,0-0.1-0.1-0.1-0.1c0,0.1,0,0.1,0,0.2c0,0,0,0,0,0C308.8,396.3,308.9,396.3,308.9,396.4C308.9,396.4,308.9,396.4,308.9,396.4z"/>
	<path fill="#F5D935" d="M305.8,399.3c0.1-0.7,0.1-1.4,0.1-2.1c0.1,0,0.1,0.1,0.1,0.1c0,0.2,0.1,0.4,0.1,0.6c0,0.2,0,0.4,0,0.5
		c0,0.1,0,0.2,0,0.2c-0.1,0.2-0.1,0.4-0.1,0.6c0,0.1,0,0.1-0.1,0.1C305.9,399.3,305.8,399.3,305.8,399.3z"/>
	<path fill="#F5DB32" d="M305.9,399.4c0.1-0.1,0-0.3,0.1-0.5c0-0.1,0.1-0.2,0.1-0.2c0.2,0.2,0.2,0.4,0.2,0.6c0,0.2,0,0.4,0,0.6
		c0,0.2-0.1,0.3-0.2,0.4h0c0,0,0,0,0,0c0-0.2,0.1-0.4,0-0.5C305.9,399.6,305.9,399.5,305.9,399.4z"/>
	<path fill="#F4DA2D" d="M306,400.2C306,400.2,306,400.2,306,400.2c0,0.1,0,0.1-0.1,0.1C305.9,400.3,306,400.2,306,400.2z"/>
	<path fill="#F4DF20" d="M311.3,400.5c-0.1,0-0.2-0.1-0.3-0.1c-0.1,0-0.1,0-0.1-0.1c0.2,0,0.2-0.1,0.2-0.3c0-0.4,0-0.8,0-1.2
		c0.1,0,0.2,0,0.3,0.1c0.1,0.4,0.1,0.9,0.1,1.3C311.5,400.4,311.4,400.5,311.3,400.5z"/>
	<path fill="#F6DE3A" d="M307.5,390.9c0-0.2,0.1-0.3,0.2-0.4c0.1-0.1,0.2,0,0.2,0.1c0,0.1,0.1,0.3,0.1,0.4c0,0.4,0,0.8,0.1,1.1
		c0,0.2,0,0.4,0,0.6c-0.1,0.1,0,0.3-0.2,0.2c-0.1-0.1-0.1-0.1-0.1-0.2c0-0.5-0.1-1-0.1-1.5C307.6,391.1,307.6,391,307.5,390.9z"/>
	<path fill="#F6DF40" d="M307.5,390.9c0.1-0.1,0.1,0,0.2,0.1c0,0.2,0,0.5,0,0.7c0,0.3,0.1,0.7,0,1c0,0.1,0,0.1,0,0.2
		c0.1,0.2,0.1,0.4,0,0.6c0,0.2-0.1,0.1-0.2,0c-0.1,0-0.1-0.1-0.2-0.2c0.1,0.1,0.2,0,0.2-0.1c0-0.6,0-1.3-0.1-1.9
		c0-0.2-0.1-0.1-0.2-0.1C307.4,391.1,307.5,391,307.5,390.9z"/>
	<path fill="#F5DE34" d="M308,392.1c0,0,0-0.1,0-0.1c0-0.4,0-0.7,0-1.1c0-0.1,0-0.2,0-0.3c0-0.1-0.1-0.1-0.2-0.1
		c0,0,0.1-0.1,0.1-0.1c0.1,0,0.1-0.2,0.2-0.2c0.1,0,0,0.2,0.1,0.3c0,0,0,0.1,0,0.1c-0.1,0.4,0.1,0.8,0,1.2c0.1,0.1,0,0.2,0,0.3
		C308.1,392,308.1,392.1,308,392.1z"/>
	<path fill="#F4DA2D" d="M306,400.2c0.3-0.3,0.2-0.6,0.2-0.9c0.1-0.1,0.1-0.1,0.1-0.2c0,0,0-0.1,0.1,0c0,0.1,0,0.3,0,0.4
		c0,0.1,0,0.2,0,0.3c0.1,0.1,0,0.2-0.1,0.3c0,0,0,0,0,0c0,0,0,0,0,0C306.3,400.1,306.2,400.2,306,400.2z"/>
	<path fill="#F3D323" d="M307.3,398.6c0,0.1,0,0.2,0,0.4c0,0.3,0,0.6-0.3,0.8c-0.1,0-0.1,0.1-0.2,0.1c0,0,0,0,0,0
		c0.2-0.3,0.1-0.7,0.1-1c0-0.1,0-0.3,0.1-0.4C307.2,398.3,307.2,398.5,307.3,398.6z"/>
	<path fill="#F4D82B" d="M306.4,400c0.1-0.1,0-0.2,0-0.4c0-0.2,0-0.4,0-0.7c-0.1-0.1-0.1-0.1,0-0.2c0.1-0.1,0.1-0.1,0.2-0.1
		c0.1,0,0.1,0.1,0.1,0.1c0,0.2,0.1,0.5,0.1,0.7c0,0.2,0,0.3-0.2,0.4c0,0,0,0-0.1,0.1C306.5,400,306.5,400,306.4,400z"/>
	<path fill="#F3D526" d="M306.5,400C306.5,400,306.5,399.9,306.5,400c0.3-0.2,0.2-0.5,0.1-0.8c0-0.1,0-0.3,0-0.4
		c0-0.1,0-0.1,0.1-0.1c0.1,0,0.1,0,0.2,0.1c0,0.3,0,0.5,0,0.8c0,0.1-0.1,0.2-0.2,0.3C306.7,399.9,306.6,399.9,306.5,400z"/>
	<path fill="#F1C923" d="M306.4,393.8c0-0.2-0.2-0.3-0.4-0.4c-0.1,0-0.2,0-0.3-0.1c0.2,0,0.3,0.1,0.5,0.1c0.1,0.1,0.1,0.1,0.2,0.1
		c0.1,0.1,0.3,0.2,0.4,0.4c0,0.1,0,0.2,0,0.2c-0.1,0.2-0.1,0.3,0,0.5c0,0.1,0,0.2-0.1,0.2c-0.1,0-0.1,0-0.2-0.1c0-0.2,0-0.4-0.1-0.6
		C306.4,394,306.4,393.9,306.4,393.8z"/>
	<path fill="#E8C213" d="M310.3,393.5c0.1,0,0.1-0.1,0.2-0.1c0.2,0,0.3,0,0.5,0c0.1,0,0.1,0,0.2,0.1c0.1,0.5,0.2,0.9,0.2,1.4
		c0,0.3,0,0.7,0,1c0,0.2,0,0.2-0.2,0.1c-0.1-0.1-0.2-0.2-0.3-0.1c0,0,0,0,0,0c0-0.1-0.2-0.1-0.2-0.2c0,0,0.1,0,0.1,0
		c0.2,0,0.2,0,0.2-0.2c0-0.4,0-0.7-0.1-1.1c0-0.2-0.1-0.5-0.1-0.7c0-0.2-0.1-0.3-0.3-0.2c-0.1,0-0.1,0.1-0.2,0.1
		C310.2,393.5,310.3,393.5,310.3,393.5z"/>
	<path fill="#E6BE13" d="M310.3,393.6c0.1-0.1,0.2-0.2,0.3-0.2c0.1,0,0.2,0,0.2,0.2c0,0.4,0.1,0.9,0.2,1.3c0,0.3,0,0.5,0,0.7
		c0,0.1-0.1,0.1-0.2,0.1c-0.1,0-0.1-0.1-0.2-0.1c0,0-0.1,0-0.1,0c0,0-0.2,0-0.2-0.1c0,0,0,0,0,0c0.1,0,0.2,0,0.2,0
		c0.1,0,0.2,0,0.2-0.1c0-0.1,0-0.3,0-0.4c0-0.4,0-0.8-0.1-1.2c0,0,0-0.1-0.1-0.1c-0.1,0-0.1,0-0.1,0.1c-0.1,0.1-0.1,0.2-0.1,0.3
		c0,0.1,0,0.1-0.1,0.1c0,0,0,0,0,0C310.1,393.9,310.1,393.8,310.3,393.6z"/>
	<path fill="#F1CA18" d="M308.1,397.8c0.1,0.4,0.1,0.7-0.1,1.1c0,0,0,0.1-0.1,0.1c0-0.3,0.1-0.6,0-0.9
		C307.9,398,307.9,397.8,308.1,397.8C308.1,397.7,308.1,397.7,308.1,397.8C308.1,397.7,308.1,397.8,308.1,397.8z"/>
	<path fill="#E8C213" d="M310.3,395.5c0.1,0,0.1,0.1,0.2,0.1c-0.1,0-0.2-0.1-0.3-0.1C310.2,395.5,310.3,395.5,310.3,395.5z"/>
	<path fill="#F1C41F" d="M306.7,393.8c-0.1-0.2-0.2-0.3-0.3-0.4C306.6,393.5,306.7,393.7,306.7,393.8c0.3,0.4,0.6,0.9,0.9,1.3
		c0.1,0.1,0.1,0.2,0,0.2c-0.1,0.1-0.2,0.1-0.3,0.1c-0.2,0-0.3,0.1-0.4,0.2c0.1-0.3,0-0.7,0-1C306.9,394.4,306.8,394.1,306.7,393.8z"
		/>
	<path fill="#F4DB28" d="M309.9,396.5c-0.1,0-0.1,0-0.2-0.1C309.8,396.4,309.8,396.4,309.9,396.5
		C309.9,396.4,309.9,396.5,309.9,396.5C309.9,396.5,309.9,396.5,309.9,396.5z"/>
	<path fill="#F4DB28" d="M309.7,396.4c-0.1,0-0.1,0-0.2-0.1C309.6,396.4,309.7,396.4,309.7,396.4z"/>
	<path fill="#F1C91C" d="M308.1,397.7c-0.1,0.1,0,0.3-0.1,0.4c-0.1,0-0.1-0.1-0.2,0c-0.1-0.1-0.1-0.2-0.1-0.3c0-0.3,0-0.6-0.1-0.9
		c0.1,0,0.2-0.1,0.3-0.1C308,397.1,308,397.4,308.1,397.7z"/>
	<path fill="#E3BB13" d="M310.1,394.1c0.1-0.1,0.1-0.2,0.1-0.3c0-0.1,0.1-0.2,0.1-0.2c0.1,0,0.1-0.1,0.2-0.1c0.1,0,0.1,0.1,0.1,0.2
		c0,0.2,0.1,0.4,0.1,0.6c0,0.2,0,0.3,0,0.5c0,0.2,0,0.4,0.1,0.6c0,0.1,0,0.2-0.2,0.2c-0.1,0-0.2-0.1-0.3-0.1c0,0-0.1,0-0.1,0
		c-0.1-0.3,0-0.5-0.1-0.8c0-0.1,0-0.3-0.1-0.4C310.1,394.2,310.1,394.2,310.1,394.1z"/>
	<path fill="#E2B613" d="M310.1,394.3c0.1,0,0.1,0.1,0.1,0.1c0,0.3,0.1,0.7,0,1c-0.3,0-0.7-0.1-1-0.1c-0.1,0-0.1,0-0.2,0
		c0-0.1,0.1-0.1,0.1-0.1c0,0,0,0.1,0.1,0.1c0.2,0,0.3,0,0.5,0c0.1,0,0.2,0,0.2-0.1c0-0.1,0-0.2-0.1-0.3c0,0-0.1,0-0.1,0
		c-0.1,0-0.1,0.1-0.2,0C309.8,394.7,310,394.5,310.1,394.3z"/>
	<path fill="#DEB213" d="M309.6,394.9C309.6,394.9,309.6,394.9,309.6,394.9c0.3-0.1,0.4-0.1,0.4,0.3c0,0.1-0.1,0.2-0.2,0.2
		c-0.2,0-0.4,0-0.7,0c0-0.1,0.1-0.1,0.1-0.2C309.4,395.1,309.5,395,309.6,394.9z"/>
	<path fill="#F3C929" d="M304.6,396c0.2,0,0.3,0.1,0.4,0.2c0.2,0,0.4,0.1,0.5,0.1c0.2-0.1,0.3-0.1,0.3-0.4c0-0.3,0-0.6-0.1-0.9
		c0-0.1,0-0.2,0-0.3c0-0.1,0.1-0.1,0.1-0.2c0.1-0.1,0.1-0.2,0.1-0.4c0-0.2,0-0.2,0.1-0.2c0.1,0.2,0.1,0.5,0.2,0.8
		c0.1,0.3,0.1,0.6,0.1,0.9c0,0.1,0,0.2-0.1,0.3c-0.1,0.1-0.2,0.2-0.4,0.3C305.4,396.5,305,396.3,304.6,396z"/>
	<path fill="#F2C522" d="M306.7,393.8c0.1,0.3,0.3,0.5,0.3,0.8c0,0.2,0,0.4,0,0.6c0,0.2,0,0.3-0.1,0.4c-0.1,0-0.2,0.1-0.4,0.2
		c0.1-0.3,0.1-0.5,0-0.8c0-0.1,0-0.1,0-0.1c0,0,0-0.1,0-0.1C306.6,394.5,306.7,394.2,306.7,393.8z"/>
	<path fill="#F2C526" d="M306.7,394.8c0,0.2,0,0.3,0,0.5c0,0.2,0,0.3-0.1,0.5c-0.2,0.1-0.4,0.4-0.7,0.5c0.1-0.1,0.2-0.2,0.3-0.3
		c0.1-0.1,0.1-0.2,0.1-0.4c0-0.3-0.1-0.6-0.1-0.9c0-0.1,0.1-0.1,0.2-0.1c0.1,0,0.1,0.1,0.1,0.1C306.6,394.8,306.6,394.8,306.7,394.8
		z"/>
	<path fill="#F4DB24" d="M311.1,398.5c-0.1-0.1-0.2,0-0.3-0.1c0-0.4,0-0.8,0-1.2c0-0.2,0-0.3-0.2-0.5c0.3,0,0.4,0.1,0.4,0.4
		c0,0.4,0.1,0.8,0.1,1.1C311.2,398.4,311.2,398.4,311.1,398.5z"/>
	<path fill="#F3DB21" d="M311.1,398.5c0-0.4,0-0.9,0-1.3c0.1,0.1,0,0.2,0,0.3c0,0.1,0,0.1,0.1,0.2c0.1,0,0.1-0.1,0.2-0.1
		c0.1,0.1,0,0.1,0,0.2c0,0.4,0,0.8,0,1.3c0,0,0,0,0,0c-0.1,0-0.2,0-0.3-0.1C311.1,398.7,311.1,398.6,311.1,398.5z"/>
	<path fill="#F4DB28" d="M309.9,396.6C309.9,396.5,309.9,396.5,309.9,396.6c0.1,0,0.2,0,0.2,0C310,396.6,310,396.6,309.9,396.6
		C309.9,396.6,309.9,396.6,309.9,396.6z"/>
	<path fill="#F6DF3A" d="M309.4,396.4c0.1,0,0.3,0.1,0.4,0.2c0.1,0.1,0.1,0.2,0.1,0.3c0,0.6,0,1.1,0,1.7c-0.1,0-0.1,0-0.1,0.1
		c0,0.2-0.1,0.2-0.2,0.1c0,0,0,0,0,0c0-0.1-0.1-0.2-0.1-0.3c0-0.4,0-0.8,0-1.2C309.5,396.8,309.5,396.6,309.4,396.4z"/>
	<path fill="#F6DF40" d="M309.4,396.4c0.3,0.2,0.2,0.5,0.2,0.8c0,0.5,0,0.9,0,1.4c0,0.1,0,0.1,0,0.2c-0.1-0.1-0.1-0.2-0.1-0.3
		c0-0.2,0-0.4-0.1-0.5c0,0,0,0,0-0.1c0-0.4,0-0.7,0-1.1c0-0.2,0-0.4-0.2-0.5c-0.1,0-0.1-0.1-0.1-0.2
		C309.1,396.1,309.2,396.2,309.4,396.4z"/>
	<path fill="#F7E346" d="M309.3,397.8C309.3,397.8,309.3,397.8,309.3,397.8c0,0.4,0,0.7,0,1.1c0,0.1,0,0.1-0.1,0.1
		c-0.1,0-0.1,0-0.1-0.1c0-0.1-0.1-0.1-0.1-0.2c-0.1-0.4-0.1-0.7,0-1.1c0.1-0.1,0.1-0.1,0.2,0C309.2,397.7,309.2,397.7,309.3,397.8z"
		/>
	<path fill="#F7E045" d="M309.3,397.8c-0.1,0-0.1-0.1-0.1-0.1c-0.1-0.2-0.1-0.1-0.2,0c0-0.4,0-0.8-0.1-1.1c0,0,0,0,0-0.1
		c0,0,0,0,0,0c0-0.1,0-0.2-0.1-0.3v0c0,0,0,0,0-0.1c0-0.1-0.1-0.1,0-0.2c0.1,0,0.1,0,0.2,0.1c0,0,0,0,0,0c0,0,0,0,0,0
		c0.4,0.2,0.4,0.6,0.3,0.9C309.3,397.3,309.3,397.5,309.3,397.8z"/>
	<path fill="#F2CB1F" d="M307.6,396.9c0.1,0.1,0.1,0.3,0.1,0.5c0,0.2,0,0.5,0,0.7c-0.1,0.1,0,0.2-0.1,0.3c-0.1-0.1-0.2-0.2-0.3-0.2
		c0-0.2-0.1-0.4,0-0.5c0-0.1,0-0.2,0.1-0.3C307.5,397.2,307.5,397.1,307.6,396.9C307.6,396.9,307.6,396.9,307.6,396.9z"/>
	<path fill="#F3CF23" d="M307.3,397.6c0,0.1,0,0.2,0.1,0.3c0.1,0.1,0,0.2,0,0.2c0,0.1-0.1,0.3-0.1,0.4c-0.1-0.1-0.1-0.2-0.2-0.2
		c-0.2-0.3-0.1-0.5-0.1-0.8c0.1,0,0.2-0.1,0.2-0.1C307.3,397.5,307.3,397.5,307.3,397.6z"/>
	<path fill="#F3CE2F" d="M305.5,396.3c-0.2,0-0.4,0-0.5-0.1c0.2,0,0.3-0.1,0.2-0.3c-0.1-0.2-0.1-0.3-0.1-0.5c0-0.1,0-0.1,0-0.2
		c0.1-0.2,0.3-0.3,0.4-0.5c0.1,0.2,0.1,0.5,0.1,0.8c0,0.2,0,0.4,0,0.6C305.7,396.1,305.6,396.2,305.5,396.3z"/>
	<path fill="#F3DE1D" d="M311.4,399C311.4,399,311.4,399,311.4,399c0.1-0.1,0.2-0.1,0.3-0.2c0.1,0.2,0.1,0.4,0.1,0.6
		c0,0.3,0,0.6,0,0.9c0,0.2,0,0.3-0.2,0.3c-0.1,0-0.1,0-0.2-0.1c0.1-0.1,0.1-0.2,0.1-0.2C311.4,399.9,311.4,399.4,311.4,399z"/>
	<path fill="#F4D433" d="M306.1,397.9c-0.1-0.2,0-0.5-0.2-0.7c0-0.1,0-0.2-0.1-0.2c-0.1,0-0.1,0-0.2,0.1c-0.1,0.1-0.1,0.1-0.2,0.2
		c0.1-0.2,0.3-0.3,0.5-0.4c0.2,0,0.3,0,0.3,0.2c0.1,0.3,0,0.5,0,0.8C306.2,397.9,306.2,397.9,306.1,397.9z"/>
	<path fill="#F6DB3F" d="M305.5,398.4c-0.1-0.1-0.1-0.3-0.1-0.4c0-0.1,0-0.3-0.2-0.3c0-0.2,0.1-0.3,0.2-0.4c0,0,0,0,0.1-0.1
		c0,0,0.1,0.1,0.1,0.1C305.5,397.7,305.6,398,305.5,398.4C305.6,398.4,305.6,398.4,305.5,398.4z"/>
	<path fill="#F3D420" d="M309.3,391.8c0,0.1,0.1,0.2,0,0.3c-0.1,0.3,0,0.6,0,0.8c0,0.1,0,0.2,0,0.3c-0.2-0.2-0.3-0.4-0.2-0.6
		c0-0.2,0-0.5,0-0.7c0-0.1,0-0.2,0.1-0.3c0-0.1,0.1-0.1,0.1,0C309.3,391.6,309.4,391.7,309.3,391.8z"/>
	<path fill="#F3D222" d="M309.1,392.6c-0.1,0.2,0.1,0.4,0.2,0.6c0.1,0.4-0.2,0.6-0.4,0.9c0,0,0,0,0,0c0,0,0,0,0-0.1
		c0.1-0.4,0-0.8,0.1-1.2C308.9,392.7,309,392.6,309.1,392.6z"/>
	<path fill="#F3D71E" d="M309.3,391.8c0-0.1-0.1-0.2-0.2-0.1c0-0.5,0-1-0.1-1.5c0.2,0.4,0.4,0.7,0.3,1.2
		C309.3,391.4,309.4,391.6,309.3,391.8z"/>
	<path fill="#F5DA31" d="M308.1,392c0-0.1,0-0.2,0-0.3c0,0,0.1,0,0.1,0c0.1,0.2,0.1,0.5,0.1,0.8c0,0.1-0.1,0.3,0,0.4
		c0,0.1,0,0.2-0.1,0.4c0,0,0-0.1-0.1-0.1c0,0,0,0-0.1-0.1C308.1,392.7,308.1,392.4,308.1,392z"/>
	<path fill="#F5DB2E" d="M308.4,392.5c-0.1-0.1,0-0.3-0.1-0.4c0-0.1,0-0.2,0-0.4c0-0.2,0-0.4,0.2-0.5c0.1,0.1,0,0.3,0,0.4
		c0,0.2,0,0.4,0,0.6C308.5,392.2,308.5,392.3,308.4,392.5C308.4,392.4,308.4,392.4,308.4,392.5z"/>
	<path fill="#F4D826" d="M308.6,392c0-0.2,0-0.4,0-0.7c0.1,0.1,0.1,0.1,0.2,0.1h0c0.1,0.1,0,0.3,0,0.4c0,0.2,0,0.5,0,0.7
		c-0.1,0.1-0.1,0.3-0.2,0.3c0,0-0.1-0.1-0.1-0.1C308.7,392.5,308.6,392.2,308.6,392z"/>
	<path fill="#F4D72B" d="M308.6,392c0.1,0.2,0.1,0.3,0.1,0.5c0,0.1,0,0.2,0,0.3c0.1,0.1,0,0.2,0,0.3c0,0.2,0,0.4,0,0.6
		c0,0.1,0,0.1-0.1,0.2c-0.1-0.1-0.1-0.2-0.2-0.2c-0.1-0.1-0.1-0.3,0-0.4c0-0.3,0-0.5-0.1-0.8c0-0.1,0-0.2,0-0.3
		C308.5,392.1,308.6,392.1,308.6,392z"/>
	<path fill="#F5DB3A" d="M307.6,393.5c0.2,0.1,0.2,0,0.2-0.1c0-0.1,0-0.3,0-0.4c0.1,0,0.1-0.2,0.2-0.2c0.1,0,0.1,0.1,0.1,0.1
		c0,0.3,0,0.7,0,1c0,0,0,0.1-0.1,0.1C307.9,393.8,307.8,393.7,307.6,393.5z"/>
	<path fill="#F5DB35" d="M308.1,393.9c0.1-0.1,0.1-0.3,0-0.4c0-0.3,0-0.5,0-0.8c0,0,0-0.1,0-0.1c0-0.2-0.1-0.4,0-0.6
		c0,0,0.1-0.1,0.1-0.1c0,0.4,0.1,0.8,0.1,1.2C308.2,393.4,308.1,393.6,308.1,393.9C308.1,393.9,308.1,394,308.1,393.9z"/>
	<path fill="#F3D427" d="M308.7,393.8c0-0.3,0-0.7,0-1c0.1-0.1,0-0.2,0.2-0.3c0.1,0.1,0.1,0.2,0,0.3c0,0.4,0.1,0.9-0.1,1.3
		c-0.1,0.1-0.2,0.3-0.2,0.4C308.7,394.3,308.7,394.1,308.7,393.8z"/>
	<path fill="#F6DF48" d="M307,392.4c0-0.1,0-0.1,0-0.2C307,392.3,307.1,392.4,307,392.4z"/>
	<path fill="#F3D722" d="M308.9,392.8c0-0.1,0-0.2,0-0.3c0-0.2,0-0.3,0-0.5c0-0.2,0-0.4,0-0.6c0.1,0,0.1,0.2,0.2,0.2
		c-0.2,0.2-0.1,0.5-0.1,0.7c0,0.1,0,0.2,0,0.3C309,392.7,309,392.8,308.9,392.8z"/>
	<path fill="#F4D22F" d="M306.2,397.8c0-0.1,0-0.2,0-0.3c0.1-0.2,0-0.4,0-0.7c0-0.1-0.2-0.1-0.3-0.1c0.1-0.1,0.1-0.1,0.2-0.1
		c0.3,0,0.4,0,0.4,0.3c0,0.2,0,0.5,0,0.7C306.4,397.8,306.4,397.9,306.2,397.8C306.2,397.9,306.2,397.9,306.2,397.8z"/>
	<path fill="#F3D229" d="M306.8,398.7c0,0-0.1,0.1-0.1,0.1c0,0-0.1-0.1-0.1-0.1c-0.1,0-0.1-0.1-0.1-0.2c0-0.2,0-0.4,0-0.6
		c0-0.1,0-0.2,0-0.3c0-0.1,0-0.2,0.1-0.2c0,0.1,0,0.2,0.2,0.3C306.9,398,307,398.3,306.8,398.7z"/>
	<path fill="#F3D126" d="M306.8,398.7c0-0.3,0-0.7,0-1c0-0.1,0-0.2,0.1-0.3c0,0,0.1,0.1,0.1,0.1c0,0,0,0.1,0,0.1
		c-0.1,0.2,0,0.5,0,0.7c0,0.1-0.1,0.3-0.1,0.4C306.9,398.7,306.9,398.7,306.8,398.7z"/>
	<path fill="#F3D12C" d="M306.7,397.4c-0.1,0.1,0,0.3-0.1,0.5c-0.1,0-0.1,0-0.1-0.1c0-0.2,0-0.5,0-0.7c0-0.3,0-0.3-0.3-0.3
		c0.1-0.1,0.2,0,0.4,0c0.1,0,0.1,0,0.1,0.1C306.6,397,306.7,397.2,306.7,397.4z"/>
	<path fill="#F3CB2C" d="M305.5,396.3c0-0.1,0-0.2,0.1-0.3c0-0.4-0.1-0.8-0.1-1.3c0-0.1,0.1-0.1,0.2-0.2c0.1,0,0.1,0.1,0.2,0.2
		c0.1,0.4,0.1,0.8,0.1,1.1C305.9,396.1,305.8,396.2,305.5,396.3z"/>
	<path fill="#F3CC29" d="M305.8,394.7c-0.1,0-0.1-0.1-0.2-0.2c0-0.1,0-0.1,0-0.2c0-0.1,0-0.2,0-0.3c0-0.2,0.1-0.3,0.3-0.3
		c0,0,0,0.1,0,0.1c0,0,0,0.1,0,0.1c0,0-0.1,0.1-0.1,0.1C306.1,394.4,306,394.5,305.8,394.7z"/>
	<path fill="#F2C926" d="M306,394c0,0,0-0.1,0-0.1c0.1-0.1,0.2-0.1,0.4-0.1c0,0.3,0.1,0.6,0.2,0.8c0,0.1,0,0.1,0,0.2
		c-0.1,0-0.2-0.2-0.3,0C306.1,394.5,306.1,394.2,306,394z"/>
	<path fill="#F6DF40" d="M308.9,396c0,0-0.1,0-0.1-0.1c0,0.1,0,0.1,0,0.2c0,0,0,0,0-0.1c0-0.1-0.1-0.2,0-0.2
		C308.8,395.8,308.9,395.9,308.9,396z"/>
	<path fill="#F6DF40" d="M308.8,396.2c0.1,0.1,0.1,0.2,0.1,0.3C308.8,396.4,308.8,396.3,308.8,396.2z"/>
	<path fill="#F4D72F" d="M306.2,397.8C306.2,397.8,306.3,397.9,306.2,397.8c0.1,0.1,0.1,0.3,0.1,0.4c0,0.2,0.1,0.3,0.1,0.5
		c0,0.1,0,0.2,0,0.2c-0.1,0.1,0,0.2-0.1,0.2c0,0.1-0.1,0.1-0.1,0.1c0.1-0.2-0.1-0.4-0.1-0.6c0-0.2,0-0.4,0-0.6c0-0.1,0-0.2,0-0.2
		C306.2,397.9,306.2,397.8,306.2,397.8z"/>
	<path fill="#F4D52D" d="M306.4,398.8c-0.1-0.3-0.1-0.6-0.2-0.9c0.1,0,0.1-0.2,0.2-0.1c0,0.1,0,0.1,0.1,0.1c0.1,0.2,0,0.3,0,0.5
		c0,0.1,0,0.2,0,0.3C306.6,398.7,306.5,398.8,306.4,398.8z"/>
</g>
</svg>
