<?xml version="1.0" encoding="utf-8"?>
<!-- Generator: Adobe Illustrator 18.0.0, SVG Export Plug-In . SVG Version: 6.00 Build 0)  -->
<!DOCTYPE svg PUBLIC "-//W3C//DTD SVG 1.1//EN" "http://www.w3.org/Graphics/SVG/1.1/DTD/svg11.dtd">
<svg version="1.1" id="Layer_1" xmlns="http://www.w3.org/2000/svg" xmlns:xlink="http://www.w3.org/1999/xlink" x="0px" y="0px"
	 viewBox="0 0 480 360" enable-background="new 0 0 480 360" xml:space="preserve">
<g>
	<g>
		<path fill="#020202" d="M87.7,98.7c0.3-7.6-2.9-14.4-4.8-21.5c-1.5-5.4-1.3-10.6-0.4-16.1c0.8-4.5,2.8-7.4,7.1-8.3
			c2.3-0.5,4.1-1.2,5.1-3.6c1.4-3.2,3.7-3.6,6.6-1.8c4.8,1.6,2.7-2.9,4-4.5c2.1-4.6,2.9-10.4,9.8-10.6c6.3-0.2,9.8,3.6,13,8.4
			c3.4,4.9-1.8,7.3-2.8,10.9c-0.7,2.6-1.9,4.9-1.6,7.7c3.7,3.3,9.3-0.7,12.8,3.5c1,0.9,2,1.9,2.4,3.2c2.1,1.4-4.4,1.3-0.5,3.3
			c2.3,1.1,3.3,3.4,1.8,6.1c0.9,3.9-2.3,3-4.2,3.6c-2.9-0.9-5.8-0.8-8.7,0l-0.5-0.3l-0.4,0.3c-6.8,3.3-3.1,9-3.1,13.8
			c2.5,8.4,5,16.9,7.5,25.3c0.8,11.2-3.6,20.2-11.8,27.6c-0.7,0-1.3-0.2-1.9-0.6c-6.7-1.3-12.8-6.4-20.5-0.7c-3.1,2.3-3,5.3-5.3,8
			c2.8-1.9,1.2-7.6,6.3-6.3c3.8,1,7.3,1.8,6.3,7.2c-0.3,1.6,2.6,2.3,2.6,4.3c-0.4,5-3.4,8.8-6.2,12.4c-4.4,5.6-7.2,11.9-9,18.6
			c-2,7.5-5,14.5-9.4,20.8c-1.4,2.8,0.9,6.4-1.8,9c-2,0-4,0-6,0c-5.1-1.7-4-5.4-3.1-9.1l-0.1-0.1c1.8-0.8,3.3-0.1,4.6,1
			c0.3,0.3,0.5,0.7,0.7,1.1c-0.1-0.9-0.8-1.5-1.5-2.1c-1.2-0.9-2.6-1.6-3.6-2.8c4.3-17.4,9.3-34.6,14-51.9c2.1-7.8,3.8-16-0.8-24.4
			c-2.5-4.7,1.8-10.8,2-16.5c4-4.5,3.5-10.7,6.5-15.7C90.6,97.2,89.4,99.6,87.7,98.7z"/>
		<path fill="#050505" d="M144.5,218.4c0.4-18.9-6.1-36.5-9.2-54.8c-0.5-2.8-2.8-3.2-4.3-4.7c-4.5-4.6-9-9.2-13.4-13.8
			c6.4-7.1,12.1-14.4,11.5-24.7c0-0.7,1.2-1.4,1.9-2.1c5.7,9.8,11.4,19.6,17.1,29.4c1.5,2.6,2.4,5.4,2.6,8.4
			c1.1,16.6,6.8,32.4,8.9,48.8c0.3,2.4,1.5,6.4,5.3,6.2c5.9-0.2,5.8,3.2,5.1,7.3C161.5,218.4,153,218.4,144.5,218.4z"/>
		<path fill="#3D3D3D" d="M71,209.3c0.5,3.2-0.5,6.9,3.1,9.1c-1.5,0-3,0-4.5,0C70.7,215.5,68.3,212,71,209.3z"/>
		<path fill="#1D1D1D" d="M80.1,209.4c2.6,2.6,1,6,1.5,9c-0.5,0-1,0-1.5,0C81.2,215.4,77.6,212.4,80.1,209.4z"/>
		<path fill="#0D0D0D" d="M135.5,64.2c-2.4-5.3-9.4,0.3-11.8-4.9c9.1,1.4,18.3-0.3,27.4,0.4c3.2,0.3,4.1-1.9,5.5-3.9
			c1.5-2,0.4-5.8,4.5-5.9c4.9-0.2,10-1.5,14.7-0.5c2.8,0.6,0.7,3.3-1.2,4.5c-2.1,0.8-4.6,0.6-6,2.9c-2.2,1.3-2.5,3.7-2.9,5.7
			c-1.1,4.9-5.1,7.6-8.8,7.5c-6.5-0.2-11.5,2.4-16.6,5.3c-0.2-1.7-0.6-3.4-2-4.6c-3.2-2.8-3.2-2.8,0.2-5.1
			C138.6,65.4,136.6,64.4,135.5,64.2z"/>
		<path fill="#0E0E0E" d="M87.7,98.7c1.4-1.4,2.6-3,4.1-4.1c1-0.7,2.4-0.2,3.4,0.7c0.8,0.8,1.3,1.9,0.5,2.6
			c-3.9,3.4-3.9,8.4-4.9,12.8c-0.6,2.7-4.1,0.2-4.3,2.9C86.9,108.6,87.3,103.6,87.7,98.7z"/>
		<path fill="#FAF9F9" d="M76.5,78c4.2,3.1,6,6.4,5.6,10.4c-0.1,0.6-3.9,2-5.2,0.6C74.2,85.8,75.8,82.3,76.5,78z"/>
		<path fill="#F9F7F7" d="M86.8,46.6c1.2-4.7,4.1-5,8.2-3.4C93.1,47.1,88.9,44.2,86.8,46.6z"/>
		<path fill="#F8F7F6" d="M150.4,54.7c1.1-2.8-1.9-5.3-0.1-8c0.2-0.3,1.8-0.1,1.9,0.2C153.1,49.8,152.1,52.3,150.4,54.7z"/>
		<path fill="#ECEAEA" d="M123.4,92.9c-2-3.3-1.2-7-1.5-10.5c-0.3-3.6,1.8-3.9,4.6-3.3C121.7,82.8,124.4,88.3,123.4,92.9z"/>
		<path fill="#656464" d="M105.3,42.9c0,1.9,0.2,3.8,0,5.7c-0.1,1.3-1.1,2.2-2.6,1.8c-1.4-0.4-1.5-1.7-1.4-2.9
			C104,47.2,103.4,43.9,105.3,42.9z"/>
		<path fill="#F8F7F6" d="M157.3,75.3c1.7-1.7,2.6-0.9,2.6,1c0,1.8-1.6,1.4-2.7,1.3c-1.4-0.2-3.2-0.7-2.7-2.5
			C155.2,73,156.3,74.9,157.3,75.3z"/>
		<path fill="#F8F7F7" d="M75.6,62.1c-0.5-2.2-0.9-4.5-1.4-7.2C77.6,56.8,77.1,59.3,75.6,62.1z"/>
		<path fill="#F7F6F6" d="M138.5,122.1c3.2-0.9,4.2,0.6,6,2.1C141.4,125.7,140.2,124.3,138.5,122.1z"/>
		<path fill="#F7F6F6" d="M83,154.9c-0.5,1.9-1.7,2.5-3.2,2.6c-0.3,0-0.9-1-0.9-1.5c0.3-1.7,1.6-2.2,3.1-2.3
			C82.3,153.6,82.7,154.5,83,154.9z"/>
		<path fill="#545454" d="M75.6,210.7c-1.5-0.5-3.1-1-4.6-1.5c0.1-0.9,0.2-1.9,0.3-2.8c1.6,0.3,3.5-0.3,4.6,1.6
			C76.4,208.9,76.5,209.9,75.6,210.7z"/>
		<path fill="#858584" d="M168.6,56.9c0.1-4.8,3.5-2.9,6-2.9C172.4,54.6,171.1,57.1,168.6,56.9z"/>
		<path fill="#F7F6F6" d="M169.2,67.6c0.8,3.4,1.1,5.3,0.1,7.4C167.9,72.8,168.3,70.8,169.2,67.6z"/>
		<path fill="#F4F4F4" d="M130.7,53c-0.7,0.6-1.3,1.4-2.1,1.7c-0.8,0.3-1.5-0.3-0.9-1.1c0.5-0.7,1.4-1.2,2.1-1.8
			C130.1,52.1,130.3,52.4,130.7,53z"/>
		<path fill="#ECEAEA" d="M127.4,79c2.9-1.1,5.8-1.3,8.7,0C133.2,79,130.3,79,127.4,79z"/>
		<path fill="#F6F5F5" d="M136.3,114.8c0.9,1.7,1.1,3.1-0.7,4.3C134.6,117.4,135.4,116.2,136.3,114.8z"/>
		<path fill="#050505" d="M117.6,145c-2.2-1.8-4-2.1-5.6,1c-1.9,3.9-4.2,7.5-6.3,11.3c-2-1.5-8-0.7-3.1-6.2c1.5-1.6-2.2-2.5-3.8-3
			c-1.4-0.4-4.7-1.7-4.1,0.6c1.5,5.7-4.4,4.4-5.5,7.3c1.4-7.2,4.9-12.9,11.5-16.2c1.4-0.7,3.8-1.2,5-0.5c3.8,2.3,7.6,2.6,11.9,2.5
			C120,141.7,117.5,143.9,117.6,145z"/>
		<path fill="#1A1A1A" d="M135.5,64.2c2.6-1.3,5.2-2.4,8.2-0.6c-0.8,3.3-3.5,1.5-5.2,2.1C137.3,65.7,136.2,65.5,135.5,64.2z"/>
		<path fill="#1D1D1D" d="M75.6,210.7c0.1-0.9,0.2-1.8,0.2-2.7c2.1,1.8,1.1,4,0.2,6.2C75.9,213,75.7,211.9,75.6,210.7z"/>
		<path fill="#F5F4F4" d="M108.1,165.9c0.7,1.2,1.3,1.8,1.3,2.4c0.1,0.5-0.5,1.1-0.7,1.6c-0.5-0.4-1.2-0.7-1.3-1.2
			C107.2,168.2,107.6,167.6,108.1,165.9z"/>
	</g>
	<g>
		<path fill="#101111" d="M288.9,121.2c0,3.7,0,7.3,0,11.8c-6.1-6-11.3-11.7-18.5-15.6c5.6,0,10.8,0,16.6,0
			c-2.4-4.7-2.5-8.7,1.2-12.2c2.7-2.5,6.1-3.6,9.4-2.2c2.7,1.2,3,0.1,3.9-1.9c3.6-8.2,12-12.3,19.5-9.7c4.4,1.6,8.1,4.5,11.6,7.4
			c12.4,10.2,20.6,22.9,22.9,39c0.4,2.9,0.7,6,0.4,8.9c-0.8,8.5,2.4,15.9,5.7,23.3c3.9,8.7,9.5,16.2,16.1,23.1
			c2.5,2.7,3.7,5.9,2.3,9.4c-1.4,3.5-3.9,6-7.9,6.7c-3,0.5-5.4-0.5-7.4-2.6c-10.7-11.3-19.4-23.7-24.2-38.7c-0.8-2.4-1.9-3-4.4-3.2
			c-3.9-0.2-7.7-1.5-11.7-1.6c-2.8-0.1-5.5,0.1-8.2,0.1c-3,0-3.1,1.5-2.8,3.7c0.8,5.5,3.8,10,6.9,14.4c1.2,1.8,2.6,3.5,3.9,5.3
			c5.4,7.1-0.5,13-6.5,13.8c-3.2,0.5-6.3-0.2-8.3-2.9c-6.5-8.3-12.8-16.8-14.7-27.5c-0.9-5.3-0.6-10.5,1.2-15.6
			c1.7-4.8,5.5-7.5,10.4-8.6c4-0.9,8-1.6,12.1-1.3c2.1,0.1,2.8-0.6,2.4-2.6c-0.7-3.4-1.7-6.6-3.7-9.4c-0.6-0.8-0.9-1.5-2.3-0.8
			c-7.2,3.3-13.5,2.1-19.1-3.4C293.3,125.9,291.3,123.6,288.9,121.2z"/>
		<path fill="#101111" d="M327.5,90.6c19.1-5.5,37.7-9.9,57.1-9c5.8,0.3,11.5,1.3,16.9,3.6c14.4,6.1,19.1,17.4,18.4,31.7
			c-0.8,17.9-8.8,32.6-21.9,44.5c-8.4,7.7-20.2,9-29.2,3.6c-7-4.3-11.2-13.1-9.1-20.9c2.9-10.9,0.1-20.6-5.9-29.6
			c-5.7-8.7-13.5-15.2-22-21C330.7,92.6,329.4,91.9,327.5,90.6z"/>
		<path fill="#101111" d="M284.9,76.5c-0.9,0.3-1.6,0.7-2.3,0.9c-2.5,0.6-4.3-1.2-3-3.2c2.5-3.6,3.3-7.3,3.9-11.5
			c0.4-3.5,3.9-4.8,7.2-5.3c5-0.8,10-1.6,15-2c7.3-0.7,9.7,4.7,9.7,11.4c0,0.8-0.3,1.5,0,2.5c3,9.5-1.6,18.6-10.4,20.9
			c-9.4,2.4-17.4-2.8-19.8-12.8C285.1,77.1,285,76.9,284.9,76.5z"/>
		<path fill="#FEFEFE" d="M398,129.8c0,2.7-1.6,5.3-4.7,6.6c-1.7,0.7-2.3,1.7-2.1,3.4c0.3,1.8-0.4,2.5-2.3,2.4
			c-1.7-0.1-3.2,0-2.8-2.4c0.4-2.1-1-2.3-2.6-2.9c-1.6-0.6-4.9,0-3.7-3.8c0.8-2.3,1.5-3.3,3.9-1.6c1,0.7,2.2,0.9,3.5,0.9
			c1.9,0,3.9,0,4.6-2.2c0.7-2.2-0.8-3.4-2.6-4.3c-1.4-0.7-2.8-1.2-4.1-2c-2.8-1.7-5.2-3.7-5.1-7.4c0.1-3.5,1.8-6,5.1-7.3
			c1.2-0.5,1.6-1.3,1.5-2.5c-0.2-1.7,0-2.8,2.3-2.7c2,0.1,2.8,0.5,2.5,2.6c-0.3,1.9,1.1,1.9,2.4,2.3c3.6,0.9,3.7,1.5,2.4,4.9
			c-0.6,1.5-1.2,1.4-2.3,0.8c-1.6-0.8-3.3-1.2-5.1-1.1c-1.3,0.1-2.4,0.6-2.7,2c-0.4,1.4,0.3,2.3,1.5,3c1.7,0.9,3.5,1.8,5.2,2.7
			C396,122.7,398.2,125.1,398,129.8z"/>
	</g>
	<g>
		<path fill="#9EBCDE" d="M397.7,255.2c-1.2,0.7-2.3,1.5-3.5,2.2c-4.2-5.6,0.3-9.8,2.2-14.4c0.7-0.5,1.5-0.5,2.3-0.1
			c1,3.2-1.7,6.1-0.4,9.3C398.1,253.3,397.9,254.3,397.7,255.2z"/>
		<path fill="#BCD1E8" d="M398.3,252.3c-2.2-3.1,0.2-6.1,0.2-9.1c-0.8-1.8-0.6-3.4,1.1-4.5c0.4,0.1,0.8,0.3,1.3,0.4
			C400,243.5,399.2,247.9,398.3,252.3z"/>
		<path fill="#F4F7FC" d="M61.4,228c-0.5-0.1-0.9-0.2-1.4-0.3c0.7-3.4,1.3-6.9,2-10.3c0.5,0.1,0.9,0.2,1.4,0.3
			C65.4,221.7,64.8,225.1,61.4,228z"/>
		<g>
			<path fill="#EEEEEC" d="M396.6,240.1c-0.3,5-4,9.3-3,14.5c-0.1,0.6-0.3,1.1-0.4,1.7c-2.2,0.6-3.3,2.5-4.6,4.1
				c-0.9,1.7-2.6,2.7-3.7,4.2c-2,2.1-4.7,3.3-6.6,5.6l0.1-0.1c-2.6,1.9-5.5,3.5-8.6,4.5l0.1-0.1c-2.2,1.2-5.3,1.2-5.6,4.9
				c-0.5,6-4.1,10.8-6.8,16c-2,2.1-3.4,4.7-5.5,6.7c-4.5,4.7-9.9,8.2-15.7,10.9c-7.1,3.1-14.5,4.7-22.2,5
				c-6.8,0.3-13.4-1.3-20.1-2.6c-1.4-0.8-2.8-1.2-4.3-1.6c-1.8-1.5-4.8-0.7-6.2-3c-0.8-0.5-1.7-1-2.5-1.5c-1.4-1.3-4.2-0.9-4.7-3.4
				c0.1-1,0.4-1.9,1.3-2.5c-1,0.3-1,1.3-1.4,2.1c-0.3,1.5-1.8,1.8-2.8,2.6c-2.6,5.1-7.9,6.7-12.2,9.6c-3.8,0.9-7.6,1.6-11.4,2
				c-1,0-2-0.3-2.9-0.7c-2.3-1.3-4.9-1.7-7.5-1.4c-1.4,0-2.7-0.2-4-0.9c-2.8-2-6.2-3.1-8.4-5.9c-2.2-1.9-4.2-3.9-5.5-6.4
				c0.1-0.9,1-0.1,0.1-0.3c-0.5-0.1-0.6,0.3,0.1,0.6c0.3,0.9,0.1,1.7-0.2,2.5c-1.1,1.9-3.1,2.5-4.8,3.6c-3.3,2.5-6.8,4.7-11.3,3.7
				c-2,2.1-4.7,1.9-7.2,2.4c-4.5,0.3-8.9,1.2-13.3-0.3l-0.5-0.1l-0.5-0.1c-4.4,0.7-8.4-1.2-12.6-1.7c-2.2-1.3-5-1.3-6.6-3.6l-0.6,0
				c-4.1-0.5-7-3.4-10.3-5.3c-3-1.9-5.6-4.2-7.9-6.9c-4.7-5.3-8.8-11-10.9-17.9c-0.7-2.8-1.6-5.6-2-8.5c-0.3-5.6-1.7-11.3,0.8-16.7
				c1.2-1.9,1.5-4.1,2.1-6.2c0.9-1.9,1.8-3.7,3-5.4c0.1-0.4,0.7-0.8,0.6-1.1c-0.1-0.7-0.2-0.6-0.3,0.2c-0.1,1,0-0.4-0.3,0.6
				c-0.8,1.3-1.6,2.6-2.3,4.1c-0.7,1.2-1,2.5-1.3,3.9c-4.1,7-3.1,14.6-2.3,22.1c0.7,2.8,1.3,5.6,2.2,8.3c0.7,1.8,1.3,3.5-0.7,4.9
				c-4.5,2.1-9.2,2.9-14.1,1.8c-4.9,0.6-9.2-0.8-12.9-4c-2.6-1.9-5.3-3.7-6.2-7.1c-2.1-2-3.3-4.7-4.7-7.2c-0.4-0.9-0.7-1.7-1.1-2.6
				c-1.1-3.9-5.6-1.9-7.5-4.4c-2.8-0.8-4.9-2.9-7.6-3.8c-2.6-3-5.4-5.9-9-7.8c-0.9-2-1.9-3.9-3.7-5.3c-0.3-1-0.6-1.9-0.9-2.9
				c-1.8-3.3-2.1-7.2-4.2-10.4l0,0.1c-0.6-1.9,1.1-3.4,1-5.2l0.2-0.4c-0.6-1.1-0.9-2.2-0.8-3.5c0.3-2.4,0.8-4.7,1.3-7
				c0.2-1.1,0.5-2.3,1.1-3.3c2-2.7,3-6.2,5.8-8.4c0-0.4,0.1-0.8,0.2-1.2c6.5-6.9,14.6-10.9,23.6-13.3c7.5-1.2,15-1.4,22.4,0.9
				c3.5,0.2,6.4,2.2,9.4,3.6c1.2,0.8,2.7,1.3,3.9,2.1c-1.1-0.8-2.3-1.3-3.5-2c-3.3-1.8-6.6-3.4-10.3-4.1c-4.3-2.8-2.1-6.2-0.8-9.5
				c2.7,0.3,2.7,0.3,2.9,4.6c0,1,1-0.4,0.1,0c-0.9-2.7,0.7-5.7-1-8.2c-0.2-1.6,0.6-2.8,1.2-4.2c8.9-15.9,23.5-22.5,40.6-25.4
				c4.9,0.5,9.8-0.4,14.7,0c3.1,0.5,6.1,1.3,9.2,1.8c0.4,0.1,0.6,0.1,0.6,0.1c0.6,0.3,0.7,0.4,0.2,0.1c-2.7-1-5.6-0.6-8-2.2
				c-1.7-6.1,1.9-10.4,4.9-14.8c1.9-2.7,4-5.1,6.4-7.2c1.2-1.7,2.9-2.8,4.6-4c1.5-2.9,4.9-3,7.1-4.8c1.9-1.1,4-1.9,6-2.8
				c2.1-0.7,4-1.9,6.1-2.5c0.2,0.1,0.5,0.2,0.7,0.3c2.1-1.2,4.4-1.9,6.8-2.3c2.1-0.2,4.1-0.4,6.2-1c2.1-0.1,4.2-0.2,6.4-0.4
				c1.8,0.2,3.7,0.3,5.5,0.1c1.9,0.5,3.9-0.1,5.8,0.4c4.4,0.8,8.8,1.7,13.3,2.6c2.4,0.2,4.5,1.6,6.9,2.1c1.4,0.6,2.8,1.3,4.4,1.7
				c2.2,1.5,4.9,2.2,6.7,4.3c0.7,0.1,1.3,0.2,2,0.2c2.7,2.6,6.3,3.8,8.9,6.4l0.7,0c2.1,2.5,4.5,4.6,6.7,6.9c2.4,1.9,3.7,4.7,5.4,7.1
				c2.7,3.2,3.9,7.1,5.7,10.7c0.5,2.1,1.2,4.2-1.4,5.5c-3.5,1.8-6.6-1.9-10.1-0.8c-2.4-0.3-4.8-0.1-7.1,0c-1.5,0.2-3.1,0.2-5.6,0.8
				c2.5-0.3,4-0.6,5.5-0.6c3.1-0.4,6.3-0.2,9.4-0.1c0.7,0.1,1.3,0.4,2,0.7c3.7,2.2,7.9,1.9,11.9,2.5c0.7,0.1,1.3,0.5,1.7,1
				c1-0.3,2-0.7,3-1c1.4,2.1,4.1,1.8,6,2.8l-0.1-0.1c1.9,2.3,4.3,3.8,7.2,4.5c4.9,4.5,9.7,9.1,13.5,14.6c5.8,3.8,12.7,1.8,18.8,3.6
				c0.7-0.1,1.3,0.2,1.7,0.7l-0.1-0.1c1.3,3.6,5,1.5,7.2,3l-0.1-0.1c2.3,2.6,5.7,3.4,8.3,5.5c3.7,2.8,7.3,5.9,10.9,8.9
				c5.1,6.7,9.8,13.6,12,21.9c-0.6,2.4-0.1,4.7,0.2,7C398.4,234.8,398.1,237.6,396.6,240.1z"/>
		</g>
		<path fill="#79A5D4" d="M160.3,153c-13.2,3.5-26.4,7.1-35.5,18.7c-1.5,1.9-2.2,4.4-4.4,5.8c-0.9-0.5-0.9-1.5-1.3-2.2
			c8.6-14.7,21.6-22.5,38.4-24.5C159.2,150.4,160.1,151.3,160.3,153z"/>
		<path fill="#73A2D4" d="M119.1,175.2c0.4,0.7,0.9,1.5,1.3,2.2c-0.3,1.4-0.6,2.7-0.8,4.1c0.1,1.5-0.9,2.1-1.9,2.7
			c0.1,3.1-4.1,6.6,0.8,9.3c0.7,1.1,0.5,2-0.5,2.7c-7.9-2-16-1.6-24-1c-0.7-0.9-0.7-1.7,0.1-2.5c3-0.8,6.1-1.7,9.3-1
			c3.2-1,6.1,1.8,9.3,0.4l-0.1,0c2.3-1.9,1-5.2,2.8-7.4C115.8,181.3,117.5,178.3,119.1,175.2z"/>
		<path fill="#75A2D3" d="M94.1,192.7c0,0.8-0.1,1.7-0.1,2.5c-7.4,4-14.9,7.9-22.3,11.9C76.2,197.7,85,195,94.1,192.7z"/>
		<path fill="#76A3D3" d="M160.3,153c-1-0.8-1.9-1.5-2.9-2.3c5.5-1.3,11.1-1.4,16.6,0c0.7,0.7,0.6,1.3-0.3,1.8
			C169.3,152.3,164.9,155.4,160.3,153z"/>
		<path fill="#7AA5D4" d="M183.4,135.9c-2.3,5-6.5,9.2-6,15.3c-0.9,0.6-1.5,0.5-2.1-0.4c-1.5-6.6,2.3-11,6.1-15.5
			C182.2,134.9,182.9,135.1,183.4,135.9z"/>
		<path fill="#8FB2D7" d="M257.1,116.4c-5-1-10-1.9-15-2.9c-0.7-1-2.4-0.6-2.7-2c2.7-1.3,5.3-0.4,7.9,0.3c2.2,1.5,4.6,1.9,7.1,1.4
			c2.7,0.3,5.5,0.5,7.6,2.7C260.5,117.3,258.7,115.5,257.1,116.4z"/>
		<path fill="#7BA6D5" d="M302.7,154.7c-1.8-3.4-3.7-6.9-5.5-10.3c0-1.6,0.7-2.1,2.1-1.4c2.7,3,4.7,6.3,5.3,10.3
			C304.3,154.2,303.7,154.7,302.7,154.7z"/>
		<path fill="#6F9FD3" d="M358.8,188.2c-6.8,2.3-13.1-2.2-19.9-1.5c-1.1,0.1-0.1-1.8,1-2.5c2.4,0.5,4.7,1,7.1,1.5
			C351.1,185.7,355.1,186.3,358.8,188.2z"/>
		<path fill="#7DA8D7" d="M386.5,205.8c-5.3-0.6-7.5-5.5-11.4-8.1c0.3-0.9,1.3-0.9,2-1.2C380.8,199,384.8,201.3,386.5,205.8z"/>
		<path fill="#93B8E1" d="M64.5,226.9c-0.1,1.2-0.3,2.4-0.4,3.5c-0.9-0.8-1.8-1.6-2.7-2.4c0.7-3.4,1.3-6.9,2-10.3
			c0.7-0.9,1.3-1.9,2-2.8c0.9,0.4,1.3,1,1.3,2c-0.3,1-0.5,2-0.8,3C64.5,222,64.1,224.4,64.5,226.9z"/>
		<path fill="#83ABD6" d="M66.7,216.9c-0.4-0.7-0.9-1.3-1.3-2c1.2-3,1.5-6.7,6-6.6C70.8,211.7,69.3,214.6,66.7,216.9z"/>
		<path fill="#6899CD" d="M302.7,154.7c0.6-0.5,1.3-0.9,1.9-1.4c1.4,1.8,2.1,3.8,2.1,6.1c0.3,0.9,0.1,1.6-0.6,2.2
			c-2.1,0.4-4.2,0.7-4-2.6C304.3,157.8,302.1,156.1,302.7,154.7z"/>
		<path fill="#7FAAD7" d="M299.3,143c-0.7,0.5-1.4,0.9-2.1,1.4c-1.6-2.3-3.2-4.5-4.9-6.8c-0.3-0.9-0.1-1.6,0.7-2.2
			C296.2,137,297.7,140.1,299.3,143z"/>
		<path fill="#89AFD8" d="M285.4,129.8c-4-0.7-7.1-2.7-8.9-6.4C280.5,124.1,284.2,125.1,285.4,129.8z"/>
		<path fill="#85ACD6" d="M367.5,191.4c-2.4-1-8.1,6-7.2-3C362.9,189.1,365.9,188.7,367.5,191.4z"/>
		<path fill="#78A5D4" d="M377.1,196.5c-0.7,0.4-1.3,0.8-2,1.2c-2.7-1.9-6.9-2.1-7.7-6.3C371,192.4,374.2,194.1,377.1,196.5z"/>
		<path fill="#81ABD7" d="M183.4,135.9c-0.7-0.2-1.4-0.4-2-0.6c1.4-2.6,2.8-5.2,5.8-6.4c0.8-0.4,1.5-0.3,1.9,0.6
			C187.8,132.1,185.6,134,183.4,135.9z"/>
		<path fill="#82ABD7" d="M293.1,135.4c-0.2,0.7-0.5,1.4-0.7,2.2c-2.7-2.1-5.9-3.9-6.3-7.8C289.3,130.5,291.5,132.5,293.1,135.4z"/>
		<path fill="#6296CC" d="M175.2,150.8c0.7,0.1,1.4,0.3,2.1,0.4c3.7,0.9,7.5,1.7,11.2,2.6c-0.4,2.6-1.7,1.8-3.1,0.9
			c-3.9-0.7-7.7-1.5-11.6-2.2c0.1-0.6,0.2-1.2,0.3-1.8C174.5,150.6,174.9,150.6,175.2,150.8z"/>
		<path fill="#8EB3DA" d="M326.4,169.7c-3.9,0.8-6.5-0.3-7.2-4.5C322.2,165.7,324.5,167.3,326.4,169.7z"/>
		<path fill="#8DB4DF" d="M358.8,188.2c-3.9-0.8-7.9-1.6-11.8-2.4c4.9-1.1,9.4-0.4,13.5,2.8C359.9,188.4,359.4,188.3,358.8,188.2z"
			/>
		<path fill="#85ACD8" d="M274.5,123.1c-2.5-1.1-5-2.1-7.5-3.2c0.5-2.8,1.9-1.7,3.3-0.9C272.8,119.4,274.5,120.4,274.5,123.1z"/>
		<path fill="#9BBADC" d="M397.3,242.9c0.1-3.1,0.2-6.1,0.3-9.2c0.5-0.5,0.8-1.4,1.7-1.4c1.3,2,0.5,4.1,0.3,6.2
			c-0.4,1.5-0.8,3-1.1,4.5c0,0-0.6-0.1-0.6-0.1L397.3,242.9z"/>
		<path fill="#87AED8" d="M219.4,114.3c-2.2,1.1-4.4,1.8-6.8,1.3c1.5-2.9,4-3.7,7.1-3.2C220.4,113.1,220.3,113.8,219.4,114.3z"/>
		<path fill="#6A9ED4" d="M189.1,129.4c-0.6-0.2-1.3-0.4-1.9-0.6c1.2-2.2,2.7-3.9,5.5-3.4C192.1,127.3,191.1,128.8,189.1,129.4z"/>
		<path fill="#71A3D7" d="M231.6,113.1c-2,0.1-4.1,0.1-6.1,0.2c-0.6-0.3-1-0.8-1.2-1.5c1.9-1.6,4-0.5,6.1-0.4
			C232.1,111,232.2,111.8,231.6,113.1z"/>
		<path fill="#82ACD8" d="M206.2,118.7c-2,1.1-3.8,2.7-6.4,2c0.6-2.8,3-3,5.1-3.6C206.6,116.5,206.6,117.5,206.2,118.7z"/>
		<path fill="#98B9DD" d="M399.3,232.4c-0.6,0.5-1.1,0.9-1.7,1.4c0.6-2-2.2-4.5,1-6.1C399.7,229.1,399.6,230.7,399.3,232.4z"/>
		<path fill="#96B7DB" d="M231.6,113.1c-0.4-0.6-0.8-1.2-1.2-1.7c1.5-1.2,3.2-0.9,4.8-0.3c0.6,0.4,1,1,1.2,1.7
			C235,114,233.3,113.6,231.6,113.1z"/>
		<path fill="#7DA8D7" d="M257.1,116.4c1.5-1.4,3.2-0.5,4.9-0.5c1.3,0.4,2.6,0.7,3.9,1.1c0,1.4-0.4,2.1-1.9,1.2
			C261.8,117.6,259.5,117,257.1,116.4z"/>
		<path fill="#83ACD7" d="M224.4,111.8c0.4,0.5,0.8,1,1.2,1.5c-2,0.3-4.1,0.7-6.1,1c0.1-0.6,0.1-1.3,0.2-1.9
			C221.2,112.2,222.8,112,224.4,111.8z"/>
		<path fill="#86ADD8" d="M206.2,118.7c-0.4-0.5-0.9-1.1-1.3-1.6c2.1-1.6,4.4-2.2,7-1.7C210.3,117,208.6,118.5,206.2,118.7z"/>
		<path fill="#80A7D2" d="M306.2,161.2c0.2-0.6,0.4-1.2,0.6-1.8c1.6,1,4.3,1,3.4,4c0,0-0.7-0.2-0.7-0.2l-0.7,0c-1.1,0.6-2,0.3-3-0.3
			C305.5,162.3,305.6,161.7,306.2,161.2z"/>
		<path fill="#92B5DA" d="M319.2,165.3c-3,1.2-5.2,0.7-6-2.8C315.4,163,317.9,162.9,319.2,165.3z"/>
		<path fill="#8CB0D8" d="M112.6,192.1c-3.2,2.3-6.2,0-9.3-0.4C106.5,190.1,109.5,191.8,112.6,192.1z"/>
		<path fill="#699ACE" d="M254.5,113.2c-2.8,1.5-5.2,1.1-7.1-1.4C249.7,112.2,252.1,112.7,254.5,113.2z"/>
		<path fill="#99BADD" d="M264.1,118.2c0.6-0.4,1.3-0.8,1.9-1.2c1.8,0.1,3.4,0.5,4.5,2.1c-1.1,0.3-2.2,0.6-3.3,0.9
			C265.8,119.8,264.7,119.3,264.1,118.2z"/>
		<path fill="#71A0D3" d="M236.5,112.7c-0.4-0.6-0.8-1.1-1.2-1.7c1.4,0.2,2.8,0.3,4.1,0.5c0.9,0.7,1.8,1.3,2.7,2
			C240.3,113.2,238.4,113,236.5,112.7z"/>
		<path fill="#8CB0D8" d="M115.4,184.8c-0.6,2.6,0.3,5.8-2.8,7.4C113.6,189.7,113.1,186.7,115.4,184.8z"/>
		<path fill="#7BA5D3" d="M357,298.7c2.2-6.2,6.2-11.8,6.8-18.6c0.5-5,4-2.9,6.7-2.7c-5.4,5.1-5.3,13-9.6,18.7
			c-1.3,1.7-2.1,3.9-4,5.2C356.3,300.4,356.3,299.5,357,298.7z"/>
		<path fill="#7DA7D5" d="M314.9,320.2c7.4-1.8,14.8-3.7,22.3-5.5c0.6,0.9,0.6,1.7-0.1,2.5c-7,3.6-14.4,5.6-22.4,4.3
			c-0.4-0.4-0.5-0.7-0.3-0.9C314.6,320.3,314.8,320.1,314.9,320.2z"/>
		<path fill="#79A5D3" d="M134.9,289.6c-0.1-1.6-0.3-3.2-0.4-4.8c0.6-0.6,0.9-1.6,2-1.5c3.4,5.7,6.9,11.4,10.3,17.2
			c0.3,0.9,0.1,1.6-0.7,2.1C140.5,299.8,139.5,293.1,134.9,289.6z"/>
		<path fill="#77A4D3" d="M337.1,317.2c0-0.8,0.1-1.7,0.1-2.5c4.8-3.5,9.6-6.9,14.5-10.4c1.4,0,2,0.5,1.2,1.9
			C349.1,311.9,343.3,315,337.1,317.2z"/>
		<path fill="#77A3D3" d="M247.7,320.4c1,0.3,2,0.6,3,0.9c0.5,0.5,1.3,0.8,1.3,1.7c-6.4,1.3-12.3,0-17.8-3.4c0-1.6,0.6-2.3,2.2-1.4
			c1.4,0.3,2.8,0.5,4.2,0.8C243.1,318.7,245.5,319.2,247.7,320.4z"/>
		<path fill="#719FD1" d="M314.9,320.2c-0.1,0.4-0.2,0.9-0.2,1.3c-7.8,1.8-14.8-1.5-22.1-3c-0.1-1.4,0.3-2,1.6-1.1
			C301.1,318.3,308,319.2,314.9,320.2z"/>
		<path fill="#86ADD7" d="M154.4,307.1c3.3,2.2,6.7,4.4,10.1,6.5c-5.6,1.8-8.5-2.3-12-5.3C152.7,307.4,153.7,307.4,154.4,307.1z"/>
		<path fill="#8AAFD8" d="M87.8,265.2c3,0,6.4,4.5,9.3-1.7c1.3,3.3,1.3,5.3-1.2,6.9c-2.6-1.7-6.2-1.2-8.3-4.1
			c-0.5-0.3-0.6-0.6-0.4-0.9C87.4,265.3,87.6,265.2,87.8,265.2z"/>
		<path fill="#93B6DD" d="M185.3,319.1c4.7-0.1,9.4-0.3,14.1-0.4c0.3,0.4,0.3,0.8,0.2,1.1c-0.2,0.3-0.3,0.4-0.5,0.4
			C194.4,320.5,189.6,323.3,185.3,319.1z"/>
		<path fill="#7AA6D5" d="M236.4,318.2c-0.7,0.5-1.5,0.9-2.2,1.4c-3.6-1-6.4-2.9-8.3-6.1c0.4-0.9,1.3-0.9,2.1-1.2
			C230.8,314.3,233.6,316.3,236.4,318.2z"/>
		<path fill="#6D9FD3" d="M252,323c-0.4-0.6-0.8-1.1-1.3-1.7c3.7-0.5,7.2-2.4,11.1-1C259,322.9,255.7,323.6,252,323z"/>
		<path fill="#669BD3" d="M62.9,235.9c4,2.4,3.8,6.5,4.2,10.4C63.3,243.8,62.9,239.9,62.9,235.9z"/>
		<path fill="#7CA8D7" d="M154.4,307.1c-0.7,0.4-1.3,0.8-2,1.3c-2.6-1.3-5.1-2.8-6.4-5.7c0.2-0.7,0.5-1.4,0.7-2.1
			C149.3,302.7,151.8,304.9,154.4,307.1z"/>
		<path fill="#7EA8D5" d="M228,312.4c-0.7,0.4-1.4,0.8-2.1,1.2c-1.2-0.8-2.5-1.6-3.7-2.5c-0.6-0.4-0.9-1-0.9-1.7c0.1-1,0.2-2,0.3-3
			l-0.1,0.1C225,307,225.8,310.4,228,312.4z"/>
		<path fill="#73A5D8" d="M107.9,287.3c4.4,1.1,8.3,3.9,12.9,4C115.5,293.1,111,292.5,107.9,287.3z"/>
		<path fill="#85ACD7" d="M370.5,277.5c2.2-2.8,4.8-4.7,8.6-4.5C377.4,276.7,374.7,278.5,370.5,277.5z"/>
		<path fill="#6D9DD0" d="M170.9,315.9c4.4,1,8.8,2,13.2,3c-4.7,2.2-9.1-0.6-13.6-1.2c-0.3-0.5-0.3-0.9-0.1-1.3
			C170.7,316.1,170.8,315.9,170.9,315.9z"/>
		<path fill="#7DA7D5" d="M352.9,306.2c-0.4-0.6-0.8-1.3-1.2-1.9c1.4-2.2,2.9-4.4,5.4-5.6c0,0.8,0,1.7,0,2.5
			C356.7,303.8,355.4,305.5,352.9,306.2z"/>
		<path fill="#78A7D8" d="M379,273c0.4-3.6,4.2-4.1,6.1-6.4c1.4,0,2.1,0.3,1.1,1.7C384.3,270.7,381.9,272.3,379,273z"/>
		<path fill="#8AAFD8" d="M96.9,273c3.5,1.2,3.5,4.6,4.7,7.2C97.8,279.4,97,276.4,96.9,273z"/>
		<path fill="#95B6DB" d="M87.8,265.2c-0.1,0.4-0.1,0.8-0.2,1.2c-3.1,0.1-5.4-1.4-6.8-4.1C83.9,261.3,85.7,263.5,87.8,265.2z"/>
		<path fill="#86B0DD" d="M170.9,315.9c-0.1,0.6-0.2,1.2-0.3,1.8c-2.6-0.4-5.5-0.3-5.6-4.1C166.9,314.6,169.5,313.8,170.9,315.9z"/>
		<path fill="#B7CDE6" d="M277.7,308.1c1.3,1.3,2.6,2.6,4,3.8c-2.5-0.4-5-0.8-7.5-1.2c0.7-1,1.4-1.9,2.1-2.9
			C276.8,307.3,277.3,307.4,277.7,308.1z"/>
		<path fill="#A3C0E2" d="M199.1,320.2c0.1-0.5,0.2-1,0.3-1.5c2.2-0.6,4.3-1.1,6.5-1.7C204.7,320.5,201.8,320.3,199.1,320.2z"/>
		<path fill="#92B5DB" d="M386.1,268.4c-0.4-0.6-0.7-1.2-1.1-1.7c1.3-1.3,2.6-2.7,3.9-4c0.7-0.4,1.2-0.2,1.5,0.5
			C389.5,265.3,388.2,267.2,386.1,268.4z"/>
		<path fill="#6F9FD2" d="M68.1,249.1c3.2,0.4,4,2.5,3.7,5.3C69.9,253.1,68.7,251.3,68.1,249.1z"/>
		<path fill="#8CB4DE" d="M284.1,313.5c2.4,0.7,4.8,1.4,7.2,2.1c-0.5,2.8-1.9,1.5-3.2,0.8C286.3,316,284.4,315.9,284.1,313.5z"/>
		<path fill="#85AED9" d="M390.4,263.1c-0.5-0.2-1-0.3-1.5-0.5c1.2-1.8,1.9-4.3,4.9-3.5C392.7,260.5,391.6,261.8,390.4,263.1z"/>
		<path fill="#88AFDB" d="M63.9,230.8c1.6,2.1,0.3,3.6-1,5.2C61.5,233.9,61.6,232.2,63.9,230.8z"/>
		<path fill="#A1C1E3" d="M221.3,309.3c0.3,0.6,0.6,1.1,0.9,1.7c-1.3,1.7-2.9,2.5-5.1,2.3C218.5,312,219.9,310.7,221.3,309.3z"/>
		<path fill="#A2BFE0" d="M288.1,316.4c1.1-0.3,2.1-0.5,3.2-0.8c1.3,0.1,2.4,0.5,3,1.7c-0.6,0.4-1.1,0.8-1.6,1.1
			C290.8,318.5,289.1,318.1,288.1,316.4z"/>
		<path fill="#74A0CF" d="M132.5,277.2c-2.3-8.3-1.6-16.4,2-24.2c3.4,1.3,1.1,3.3,0.6,5c-2.4,5.9-0.4,11.9-0.6,17.8
			C133.9,276.3,133.5,277.2,132.5,277.2z"/>
		<path fill="#F5F3EE" d="M216.7,291.6c1.7,1.9,1.4,4.2-0.8,4.6c-2.3,0.4-2.1-2.5-2-3.8c0.5-3.8,1.4-7.6,2.2-11.4
			c0-0.1,0.4-0.2,0.6-0.2c0.2,0,0.4,0.2,0.6,0.4c0.4,0.6,0.7,1.3,0.9,2C218.9,286.2,216.7,288.7,216.7,291.6z"/>
		<path fill="#85AAD3" d="M118,196.2c0.2-0.9,0.3-1.8,0.5-2.7c3.8,0.4,7.1,2,10,4.4c0.6,0.8,0.5,1.4-0.5,1.8
			C124.6,198.5,121.3,197.4,118,196.2z"/>
		<path fill="#B5C9DE" d="M306.7,222.4c4.5,0.4,8.9,0.8,13.4,1.2c0.6,1.3,0.3,2.3-0.9,3.2c-2.4-0.2-4.9-0.2-7-1.7
			c-1-0.2-2-0.4-3-0.6C307.4,224.9,306,225,306.7,222.4z"/>
		<path fill="#79A2D0" d="M365.4,274c-1.4-2.6-2-5.2-0.8-8.6C367.3,268.5,367.3,271.1,365.4,274z"/>
		<path fill="#95B5D6" d="M306.2,161.2c-0.1,0.4-0.1,0.8-0.2,1.2c-3.7,1.2-7-0.5-10.4-1.5l0-0.5c-0.7-1.1-2.6-0.6-2.9-2.2
			c3.4-2.2,6.2,1.8,9.5,0.7C302.9,161,304.7,160.8,306.2,161.2z"/>
		<path fill="#6B9BCE" d="M135.5,275c0.7-0.5,1.3-1,2-1.4c0.6,2.5,1.3,5,1.9,7.6c-0.7,0.5-1.3,1-2,1.5
			C136.4,280.2,135.2,277.8,135.5,275z"/>
		<path fill="#DDE3E7" d="M184.5,221.2c-3,2.5-6.3,2.2-9.7,0.6C178.1,221.6,181.3,221.4,184.5,221.2z"/>
		<path fill="#79A3D1" d="M292.7,158.3c1,0.7,2,1.5,2.9,2.2c-3.5-0.1-7.1-0.3-10.6-0.4c-0.4-0.4-0.6-0.8-0.3-1.1
			c0.2-0.3,0.4-0.5,0.6-0.4C287.8,157.1,290.3,158.1,292.7,158.3z"/>
		<path fill="#7BA4D1" d="M325.7,225.8c3.1,1.1,6.9,0.4,9.8,4.7c-3.9-1.3-6.9-2.2-10-3.2c-0.3-0.4-0.4-0.7-0.2-1
			C325.4,226,325.5,225.8,325.7,225.8z"/>
		<path fill="#F2F1ED" d="M117.7,184.2c0.6-0.9,1.3-1.8,1.9-2.7c1.7,3.4-0.5,6.4,0,10.5C116.6,189.1,119.5,186.2,117.7,184.2z"/>
		<path fill="#82A9D3" d="M285.3,158.6c-0.1,0.5-0.2,1-0.3,1.6c-2.8,0.5-5.6,1-8.4,1.5C279.1,158.3,282.1,158.1,285.3,158.6z"/>
		<path fill="#FCF7EF" d="M295.6,161c3.5,0.5,6.9,1,10.4,1.5c0.9,0.3,1.8,0.6,2.8,0.9C304,164.7,299.7,163.6,295.6,161z"/>
		<path fill="#80A7D2" d="M128,199.7c0.2-0.6,0.3-1.2,0.5-1.8c2.5,0.9,4.8,2,7,5.2C131.8,202.9,129.9,201.3,128,199.7z"/>
		<path fill="#709DCE" d="M360.6,255.8c-1.8-1.8-3-3.8-3.9-7c3.9,1.4,4.8,4.3,5.7,7.2C361.6,256.7,361.1,256.6,360.6,255.8z"/>
		<path fill="#A4BEDA" d="M216.7,291.6c-1.8-3,0-5.9,0.5-8.8c3.1,0.2,1.9,2.8,2.4,4.4c0.1,0.7,0,1.3-0.5,1.8
			C218.3,289.9,217.5,290.8,216.7,291.6z"/>
		<path fill="#BBCCDF" d="M219,287.6c-0.6-1.6-1.2-3.2-1.8-4.8c0.1-0.5,0.1-1.1,0.2-1.6c1.5,1.4,1-5.3,3.3-0.8
			C221,283,220.9,285.5,219,287.6z"/>
		<path fill="#F8F5EF" d="M312.2,225c2.5,0.4,4.9,0.8,7.4,1.1c1.7-0.7,3.2-0.5,4.3,1.2C319.6,228.6,315.7,228,312.2,225z"/>
		<path fill="#D8E0E6" d="M306.7,222.4c0.3,1.3,1.4,1.7,2.5,2c-2.7,1.8-5.1,0.4-7.8-0.4C302.8,221.9,304.7,222.1,306.7,222.4z"/>
		<path fill="#8DAFD5" d="M261.8,167.6c-2,1.2-4,2.4-6,3.6C256.8,168.3,258.6,166.7,261.8,167.6z"/>
		<path fill="#A5BFDA" d="M323.8,227.3c-1.4-0.4-2.8-0.8-4.3-1.2c0.2-0.9,0.3-1.7,0.5-2.6c2,0.4,4.3,0.1,5.6,2.3
			c-0.1,0.5-0.1,1-0.2,1.5C324.9,227.3,324.4,227.3,323.8,227.3z"/>
		<path fill="#9EBAD8" d="M99.9,254.5c0.1,2.9-0.9,4.3-2.7,5.4C96.5,257.5,97,255.7,99.9,254.5z"/>
		<path fill="#F8F5EF" d="M219,287.6c0.5-2.4,1.1-4.9,1.6-7.3c1.6,3.3,1,6.1-1.6,8.7C219,288.6,219,288.1,219,287.6z"/>
		<path fill="#7BA4D1" d="M221.6,306.4c-2.3-0.6-3.2-2-2.8-4.5C222.4,301.9,221.7,304.3,221.6,306.4
			C221.5,306.4,221.6,306.4,221.6,306.4z"/>
		<path fill="#98B6D7" d="M199.4,159.8c-3.1-0.2-4.4-1.3-5.7-2.8C196.5,155.8,197.4,158.1,199.4,159.8z"/>
		<path fill="#9DB9D8" d="M185.4,154.7c1-0.3,2.1-0.6,3.1-0.9c1.1,0.3,3.1,0.7,2.1,1.9C188.9,157.7,186.9,156.3,185.4,154.7z"/>
		<path fill="#6396CB" d="M138.6,246c0.4-2.1,1.3-3.8,3.4-4.8c0.9,2.6-1.1,3.6-2.1,5.1C139.4,246.6,139,246.6,138.6,246z"/>
		<path fill="#6597CC" d="M138.6,246c0.4,0.1,0.9,0.2,1.3,0.3c-0.8,1.8-1.7,3.7-2.5,5.5c-1.4,0-2.1-0.4-1.2-1.9
			C136.7,248.4,136.9,246.7,138.6,246z"/>
		<path fill="#7EA6D1" d="M136.3,249.9c0.4,0.6,0.8,1.3,1.2,1.9c-0.3,2.2-0.5,4.5-2.3,6.2c0-1.7,0.9-3.5-0.6-5
			C134.6,251.7,135.1,250.6,136.3,249.9z"/>
		<path fill="#90B1D5" d="M329.4,186.7c2-1.1,3.4-1.4,5-0.6C333.2,188.3,331.7,187.6,329.4,186.7z"/>
		<path fill="#5E94CA" d="M360.6,255.8c0.6,0.1,1.2,0.2,1.7,0.3c0.6,1.4,1.1,2.8,1.9,4.6C360.7,260.1,361.1,257.6,360.6,255.8z"/>
		<path fill="#9EBAD8" d="M144.3,210.4c-1.5,0.5-2.2,0.8-2.3,0.7c-0.6-0.7-1.4-1.4-1.6-2.3c-0.2-0.8,0.5-1.3,1.3-0.6
			C142.6,208.9,143.3,209.5,144.3,210.4z"/>
		<path fill="#F9F5EF" d="M247.7,320.4c-2.4-0.5-4.8-0.9-7.1-1.4C243.3,317.6,245.7,318.1,247.7,320.4z"/>
		<path fill="#709FD2" d="M64.5,226.9c-1.5-2.7-1-5.1,1.4-7C65.5,222.2,65,224.5,64.5,226.9z"/>
		<path fill="#C1D1E0" d="M277.7,308.1l-0.7-0.1c0,0-0.7-0.1-0.7-0.1c0.6-1.8,1.2-3.5,3.2-4.2C280.3,305.8,278.4,306.7,277.7,308.1z
			"/>
		<path fill="#D5DDE6" d="M316.5,191.8c-0.5-0.4-0.9-0.8-1.3-1.1c0.8-0.4,1.5-1,2.4-1.1c0.4-0.1,1,0.6,1.5,0.9
			C318.3,190.9,317.5,191.3,316.5,191.8z"/>
		<path fill="#D9E0E7" d="M144.6,217.1c1.3-0.7,1.8-1,1.9-1c0.6,0.7,1.4,1.4,1.6,2.2c0.2,0.8-0.3,1.5-1.3,0.8
			C146.1,218.5,145.5,217.8,144.6,217.1z"/>
		<path fill="#595959" d="M273.3,251.1c3.8-3.6,6,2.5,9.4,1.6C279.1,255.1,276.3,252.2,273.3,251.1z"/>
		<path fill="#7C7A7A" d="M219.6,175.3c0.3-0.7,0.7-1.3,1-2c0.7-0.2,1.3-0.1,1.9,0.4c0.9,1.7,1.7,3.5,2.6,5.2
			C222.8,178.4,220.7,177.6,219.6,175.3z"/>
		<path fill="#4D4D4D" d="M264.7,164.1c0.7-1.4,1.3-2.7,2-4.1c1.2,0,3-0.5,3,1C269.7,164.4,266.5,163.3,264.7,164.1z"/>
		<path fill="#ACACAC" d="M222.5,173.7c-0.6-0.1-1.3-0.2-1.9-0.4c-0.4-2.6-0.4-4.9,3.1-6.3C224.1,169.5,223.9,171.6,222.5,173.7z"/>
	</g>
	<text transform="matrix(1 0 0 1 142.3636 233.7874)" fill="#39B54A" font-family="'Swiss721BT-Black'" font-size="26.9424">Shoot-em-all</text>
</g>
</svg>
