<?xml version="1.0" encoding="utf-8"?>
<!-- Generator: Adobe Illustrator 18.0.0, SVG Export Plug-In . SVG Version: 6.00 Build 0)  -->
<!DOCTYPE svg PUBLIC "-//W3C//DTD SVG 1.1//EN" "http://www.w3.org/Graphics/SVG/1.1/DTD/svg11.dtd">
<svg version="1.1" id="Layer_1" xmlns="http://www.w3.org/2000/svg" xmlns:xlink="http://www.w3.org/1999/xlink" x="0px" y="0px"
	 viewBox="-111.6 -123.5 1349.7 1271.7" enable-background="new -111.6 -123.5 1349.7 1271.7" xml:space="preserve">
<rect x="59.4" y="37.4" fill="#F95C3D" width="963" height="720"/>
<g>
	<g>
		<path fill="#87865A" d="M339.1,435.9c5,3,0,8.1,2,11.6c1,2.2,2,4.3,1.8,7c-1.5,10.8,48.7,19.5,55.2,33.3c-1.3,4.9-6,4.1-9.5,7.3
			c6.5,3.8,13.3,5.7,19.3,9.2c9,5.1,16.6,11.4,19.1,23c1.3,6,4.8,8.9,10.5,9.2c3.5,0.3,6.5,1.1,8.8,4.1c1.8,4.9-2,5.7-4.8,7.6
			c-9.8,2.4-17.3-1.4-23.8-8.9c-2.8-3-2.3-6.5-1.5-10c-0.8-8.1-7-9.7-12.3-13c-4.8-2.7-9.3-5.7-13.8-8.7c-4.5-2.7-9-6.2-14.3-7.3
			c-7.5-2.4-13.5-8.1-21.1-10.8c-1.3-0.5-2.3-1.1-3.3-1.9c-8-8.4-17.1-14.1-28.8-13.8c-6,1.4-13,6.2-16.8-3
			c-4-9.2,1.5-14.3,8.3-18.7c1.3-0.8,2.3-2.4,3.5-3.5c-2-7.3-1-13.3,5.5-17.3C329.8,428.3,335.8,427.2,339.1,435.9z"/>
	</g>
	<path fill="#87875C" d="M446.7,540.6c-3.3,0-6.5,0-9.8-0.5c-6.3-0.8-11.3-1.6-12.3-11.1c-2-16.8-15.8-21.4-27.6-26.8
		c-5.3-2.4-10.5-4.1-15-8.4c4-6.2,11.3-2.2,15.5-6.5c1.5-3,4-3,6.5-1.9c9.5,6.5,19.6,12.2,31.3,11.9c10.5-1.4,21.6-3.8,24.8,12.2
		c-1.5,8.9-7,14.6-13.5,19.8C446.4,533,446.7,536.8,446.7,540.6z"/>
	<path fill="#81837C" d="M352.9,485.9c-0.8,1.4-21.3-8.1-29.8-12.2c1-1.4,2.5-3.8,3-3.8C335.1,475.1,346.3,475.4,352.9,485.9z"/>
	<path fill="#515242" d="M405.8,519.2c-2.8-5.1-8.5-6-12.3-9.5c-1.8-1.4-4.8-2.2-2.3-5.7c7.5,4.6,14.8,9.5,22.3,13.8
		c4.8,2.7,4.5,6.5,3,11.1C413.6,523,405.3,519.8,405.8,519.2z"/>
	<path fill="#51523A" d="M411.3,489.2c-41.6-20.8,13,14.6,22.6,4.3c0.5,1.4,0.8,2.4,1.3,3.8c-1.8,1.6-2.5,6.2-4.8,4.9
		c-9.3-5.1,9.8,1.9-28.1-15.7C364.6,468.6,453.2,510,411.3,489.2z"/>
	<path fill="#51534D" d="M446.4,529c4.5-6.5,9-13.3,13.5-19.8C461.2,520.3,455.7,526.3,446.4,529z"/>
	<path fill="#707269" d="M322.8,433.4c-5,3.8-3,10.3-5,15.2c-6.3-8.4-2.5-13.8,4.3-18.4C322.8,431,323,432.1,322.8,433.4z"/>
	<path fill="#3D3F32" d="M418.1,539c7.3,4.9,15,8.7,23.8,8.9C430.9,554.4,423.8,549,418.1,539z"/>
	<path fill="#656664" d="M322.8,433.4c-0.3-1.1-0.5-2.2-0.8-3.5c12-4.6,15-3.5,17.1,6C334.6,428.8,328.8,429.9,322.8,433.4z"/>
	<path fill="#6A654F" d="M391.2,504.1c2.8,7.8,15.8,14.1,15.5,14.3c-0.3,0.3-0.8,0.5-1,0.8c-8.5-5.4-17.1-11.1-25.8-16.5
		c-0.5-2.2-3.5-2.2-3.3-4.9C382.5,497.6,386.7,501.1,391.2,504.1z"/>
	<path fill="#6A654F" d="M352.9,485.9"/>
</g>
<g>
	<path fill="#80654D" d="M673.9,441.6c0.3,0.8,0.3,1.6,0.3,2.4c0,14.9-9,23.5-18.8,31.1c-6.3,4.9-13.5,4.1-18.6-3.8
		c2.3-5.7,4.5-11.1,6.8-16.8c4-7.6,13.3-6.5,17.8-13C665.6,441.6,669.6,441.6,673.9,441.6z"/>
	<path fill="#57402D" d="M661.3,441.6c-3.5,2.2,0.5,16-10.3,7.6c-2.5-1.9-2,8.1-7.5,5.4c0-6.2,5.5-8.4,7.8-13
		C654.6,441.6,658.1,441.6,661.3,441.6z"/>
	<path fill="#808075" d="M778.9,588.3c-2.3-0.8-5.3-1.4-3.8-5.1c0.8-2.2,3-3,5-1.6c3,1.9,6,4.1,9,6.2c0,1.9,0,3.5,0,5.4
		c-0.8,0.8-1.8,1.4-2.8,1.6c-2.3-0.3-4-1.4-5.3-3.2C780.4,590.2,781.2,587.7,778.9,588.3z"/>
	<path fill="#5C573F" d="M786.2,593.1c1,0,2,0,3,0c0,8.1,0,16.2,0,24.4c-1.8,1.1-3.3,2.2-5,3.2C779.2,611,783,602.1,786.2,593.1z"/>
	<path fill="#D6CA9F" d="M732,555c5.8,9.5,15.8,16,17.3,28.4c-0.3,6-4.5,6-8,5.1c-5.8-1.6-9.5,1.6-11,3.2c4.8-5.4,12.8-4.1,21.3-1.6
		c4,0,6.3,2.4,7.8,6c3.3,9.7,4.8,19.8,0,29.5c-0.8,1.9-1.5,3.8-2.3,5.4c-9.3-3-17.8,4.1-27.1,2.2c-2,1.4-5-7.3-6,1.1
		c-0.3,1.1-0.5,2.4-0.8,3.5c-2,5.7-3.3,11.6-6.3,17.1c-1,0-1.8,0.3-2.8,0.3c-18.3,3.2-24.1-2.4-21.6-21.1c0.8-6.5,1.3-13.3-1-19.5
		c-2.8-8.4-10.5-5.7-15.8-8.7c-1.5-3.8,0-7.8,0.3-11.6c2-7.8-4-16,1-23.5c1-0.5,2.3-0.8,3.5-0.5c5.3,3.8,0.5,17.9,12.8,14.9
		c4-3,6-8.1,9.8-11.4c2.5-3.2,7.5-4.1,8.5-9.5c-12.8-1.6-25.6,2.2-37.9-2.2c-4.8-1.4-9.3-3.5-13.8-5.7
		c-14.5-6.8-20.3-18.9-18.1-35.7c9.5-10.6,11.8-25.2,17.3-38.2c0.3-0.5,0.5-1.1,0.8-1.6c4.8-4.9,11.8-5.4,17.1-10
		c2.3-3.2,1.3-8.1,5-10.6c3,6.2,8,6.2,13.5,5.1c3.5-0.8,6.8-3,10.3,0c15.5,2.7,21.6,17.3,31.1,27.9c2.5,15.2,11.5,29.2,5.5,45.7
		c-4.8,1.6-8,5.4-11.3,8.9C728.8,550.4,728,553.3,732,555z"/>
	<path fill="#D0C598" d="M676.6,606.7c6.8-6.5,11.5,0.5,17.1,3c-1,10.3,0.5,20.8-1.3,31.1c-1,6.2-1.8,11.4-8.8,12.2
		c-3.5,0.8-7.3,1.6-10.8,2.4c-5.8,1.1-9.5-3-12-7.6c-4.8-8.9,7.5-8.9,7.8-15.7c0.3-1.4,0.5-2.4,1.3-3.2c5.3-5.4,2.5-13,4.5-19.2
		C674.9,608.3,675.6,607.2,676.6,606.7z"/>
	<path fill="#BAB28C" d="M728.8,631.3c6.8-1.4,13.5-2.4,20.3-4.3c4.5-1.4,7-0.5,7.8,4.6c-1.8,6,2.5,13-3.3,18.1
		c-9.3,0.5-18.8,0.8-28.1,0.3c-7.8-2.2-5.8-7.8-4-13.5h-0.3C723.3,633.5,730,639.1,728.8,631.3z"/>
	<path fill="#3E4132" d="M673.9,560.9c14.8-0.8,29.6,1.4,44.4-2.7c0.3,11.6-8.8,13.5-14.8,18.4c-6.3,4.1-11.8-2.7-17.8-1.9
		c-2-0.5-3.5-1.6-5-2.7c-0.5-0.3-1.3-0.3-1.8-0.5c-2.5-0.8-3.8-3-5-5.1c-0.5-0.5-0.5-1.1-0.5-1.9
		C672.4,562.8,672.4,561.7,673.9,560.9z"/>
	<path fill="#594634" d="M636.7,471.3c14.8,7,28.3-1.4,34.6-21.9c0.8-2.2,1-4.3,3-5.4c3.8,2.4,5,6.2,4.8,10.8
		c0.8,5.7-5,7.3-6.3,11.9c-4.5,5.1-8.8,10.6-14.3,14.9l0.3,0.8c-4.3-1.1-8-3.5-13-2.7C640.5,480.8,635.7,478.9,636.7,471.3z"/>
	<path fill="#ACA588" d="M676.6,606.7c-0.3,1.1-0.3,2.2-0.5,3.2c-2.8,6.8,1.3,16.2-7,20.8c-0.3,0.5-0.5,0.8-0.8,1.4
		c-10.8-13.8-10.8-24.4,0-33.6c3.3-1.4,6.3-4.6,10.3-2.7C678.1,599.4,677.4,602.9,676.6,606.7z"/>
	<path fill="#5A5333" d="M683.6,652.7c10.5-10.8,6.8-24.9,7-37.9c0-3-2.3-6.2,3-5.4c3,7.6,2.5,15.4,1.8,23.5
		c-2,19.5-0.3,21.7,18.6,22.5C703.5,661.3,693.4,658.4,683.6,652.7z"/>
	<path fill="#6B6855" d="M673.9,560.9c-0.3,1.1-0.3,2.2-0.5,3.2c-15.3-3.2-27.8-10.6-33.6-27.6c-2-5.7-2.5-11.1,1.8-16.2
		c0.8,1.1,2,2.2,2,3.2c-2.8,18.7,8,26.5,21.6,32.2C668.3,557.4,671.1,559.3,673.9,560.9z"/>
	<path fill="#B4B198" d="M786.2,593.1c2.8,9.5-3.3,18.1-2,27.6c-1.8,3.5-4,6.2-7.5,7.3c-4.8-1.4-7.3-3.8-4-9.2
		c2.5-4.3,5.8-8.7,5.8-14.3c3.3-4.1,0.8-9.7,3.3-14.3C783.2,591.2,784.7,592.3,786.2,593.1z"/>
	<path fill="#CCCAAC" d="M779.7,606.9c4.3,6-2,8.4-3.8,11.9c-2,4.1-2.8,6.5,1,9.5c-4.5,0.5-8.8-0.3-12.8-2.7
		c-2.3-3.8-3-7.6,0.8-10.8c3.5,0.8,6.5-1.1,9.5-2.4C775.9,610.2,776.7,607.2,779.7,606.9z"/>
	<path fill="#858272" d="M678.6,595.8c-3,2.4-6.5,3.2-10.3,2.7c8.8-9.5,3.5-21.7,5.5-32.5c1.8,1.6,3.3,3.5,5,5.1
		C671.9,579.3,681.4,587.7,678.6,595.8z"/>
	<path fill="#6F6953" d="M764.6,614.5c-0.3,3.5-0.5,7.3-0.8,10.8c-1.5,0.3-3.3,0.3-4.8,0.5c0-9.7,0-19.8,0-29.5
		C767.2,600.4,762.9,608.6,764.6,614.5z"/>
	<path fill="#80796C" d="M726.3,647.8c9.3,0,18.6-3.2,27.6,1.6c-7.8,6.8-16.8,1.6-25.1,2.4C727,651.1,725.8,650,726.3,647.8z"/>
	<path fill="#5A523C" d="M726.3,647.8c0.8,1.4,1.8,2.7,2.5,4.1c-4,1.1-8,2.2-11.8,3c-0.8-6.8,0.5-13.3,4.8-18.7
		C722.5,640.2,719.3,646.5,726.3,647.8z"/>
	<path fill="#87684E" d="M752.1,478.6c4,13.5,3,14.6-13,14.1c-3.3-1.9-6.8-3.8-9-7c-6-8.7-13.5-15.2-21.1-22.2
		c5-8.9,9.3-19.5,22.1-11.9c3.3,1.9,6-7,10.5-1.9C750.1,457,748.1,469.2,752.1,478.6z"/>
	<path fill="#604C2F" d="M709,463.5c14.3,4.9,20.3,19.2,30.1,29.2c-0.8,0.3-1.5,0.5-2.3,0.8c-2-0.8-4.3-1.4-5.5-2.7
		c-7.5-9.7-16-18.1-25.6-25.2C706.7,464.8,707.7,464,709,463.5z"/>
	<path fill="#86774F" d="M751.4,590.4c-11.8-1.4-22.6-0.8-24.1,17.9c-4.8-14.1,0.3-23.5,10.8-22.2c4.8,0.5,8,0.5,11-2.7
		C751.6,585.3,751.4,587.7,751.4,590.4z"/>
	<path fill="#72604C" d="M671.4,465.6c0.8-5.1,3.8-8.4,7.8-10.8c1,1.9,1.8,3.8,2.8,5.7c-0.8,4.6,0.8,10-2.8,13.8
		C671.4,476.7,671.4,471.1,671.4,465.6z"/>
	<path fill="#605243" d="M752.1,478.6c-2.5-3.2-2.3-3.2-3.5-7.8c-2-7-4.5-14.1-7-21.4C754.6,455.1,750.6,468.1,752.1,478.6z"/>
	<path fill="#5F5B3E" d="M732,555c-4,1.9-8.8,3-5.5-4.3c3-6.5,7.5-12.5,15.5-11.6C740.1,545.5,731.3,546.8,732,555z"/>
	<path fill="#605F49" d="M779.7,606.9c-1.8,1.6-3.5,3.5-5.5,5.1c0-8.4,7.5-14.9,4.8-23.8c3.8-3.5,2,1.4,2.8,2.2
		C781.4,596.1,782.2,601.5,779.7,606.9z"/>
	<path fill="#E2DCC6" d="M688.7,522.5c0.8,1.9,1.3,3.8,2,6c3.8,3,3.5,7,1.5,10.8c-12.8,5.1-24.3,0.8-35.9-5.4c1.8-1.9,3.3-3.8,5-5.7
		c-0.5-5.7,3.8-5.4,7-6.5C675.1,522.2,681.9,518.4,688.7,522.5z"/>
	<path fill="#181714" d="M713.7,489.5c12.3,9.2,5.5,20,2.3,30.6c-2.3,2.4-5,2.4-7.8,1.1c-2.5-1.9-4-4.6-4.8-7.8
		c-1-5.7-1.3-11.4,0.3-16.8C705.5,491.4,708.2,487.8,713.7,489.5z"/>
	<path fill="#F4F1E9" d="M713.7,489.5c-13.5,4.1-4.3,16.8-8,24.6c-2.3,4.3-5.5,6.2-10,4.1c-6.5-10.3-0.5-18.7,3-27.6
		C703.5,486.2,708.2,481.1,713.7,489.5z"/>
	<path fill="#703B30" d="M709.2,519.8c2.3,0,4.5,0,7,0c0.3,18.7-4.5,26-17.1,27.1C694.4,534.4,697.7,526,709.2,519.8z"/>
	<path fill="#92524B" d="M709.2,519.8c-6.3,7.8-11.5,16-10.3,27.1c-2.5,0-5,0-7.5,0c-2-2.4-2-5.1-0.3-7.8c-0.3-3.5-0.5-7.3-0.5-10.8
		c0.5-1.9,0.8-3.8,1.3-5.7c1.5-1.6-0.5-6.8,4.3-5.1c3.3-1.1,6.3-2.2,9.5-3.5C707,516,708,517.9,709.2,519.8z"/>
	<path fill="#312C1B" d="M688.7,522.5c-6.8,0.5-12.8,5.7-19.8,2.7c-6.5-4.1-8-10.3-6.3-17.9c0.8-1.1,1.8-1.6,3.3-1.6
		c4.5,1.9,8,5.7,11.5,8.9C682.4,515.2,686.4,517.3,688.7,522.5z"/>
	<path fill="#877C5C" d="M691.4,539.3c0,2.7,0,5.1,0.3,7.8c-9.8,0.5-18.3-7.6-28.8-4.1c-3.3,1.1-4-6-6.3-8.9
		C668.1,535.7,679.4,540.1,691.4,539.3z"/>
	<path fill="#0E0D0D" d="M677.4,514.4c-5.3-0.5-10.3-1.1-11.3-8.1c-2.8-6.8,2.8-8.9,5.8-12.7c5.3-1.4,7.8,1.1,7.3,6.8
		C678.9,504.9,678.1,509.8,677.4,514.4z"/>
	<path fill="#D7BB6B" d="M686.4,571.5c6.8-2.2,11.3,4.6,17.3,4.9c-4.3,2.7-3.5,9.7-9,11.4C681.4,585,679.9,582.3,686.4,571.5z"/>
	<path fill="#AB957D" d="M671.4,465.6c3.3,1.9,1.8,8.9,7.8,8.4c-7,2.2-12.8,7.8-20.3,7.6C660.8,474.6,665.8,470,671.4,465.6z"/>
	<path fill="#6E6E4E" d="M663.8,506.8c0,6.8,2.3,12.7,5,18.4c-2.8,0.3-6-0.3-7.5,3.2c-4-8.1-4-16.2-0.3-24.4
		C662.8,504.1,663.6,505.2,663.8,506.8z"/>
	<path fill="#857A55" d="M728.8,631.3c1.3,2.7,5.5,2.2,5.8,6.5c-4.5,2.4-9,1.4-13.3-1.4c0.8-5.1-1.3-10.6,2-15.4
		C728.5,623.2,724.8,629.4,728.8,631.3z"/>
	<path fill="#877B62" d="M696.2,517.3c-1.5,1.6-2.8,3.5-4.3,5.1c0-11.4-3.3-23.3,6.8-32.2C698.9,499.5,691.7,507.9,696.2,517.3z"/>
	<path fill="#7B6529" d="M686.4,571.5c-8.3,11.9,4,11.6,8.3,16.2c-11,3.2-16-2.4-13.8-16C682.6,571.7,684.6,571.7,686.4,571.5z"/>
	<path fill="#EEEEE4" d="M663.8,506.8c-1-0.8-1.8-1.9-2.8-2.7c3.8-8.1,6-10.6,10.8-10.6c0.3,5.4-6,7.3-5.8,12.7
		C665.3,506.5,664.6,506.5,663.8,506.8z"/>
	<path fill="#6B633D" d="M669.3,630.5c2.3-7,4.5-13.8,7-20.8C674.6,616.9,682.1,627.8,669.3,630.5z"/>
</g>
<g>
	<path fill="#817B74" d="M199.1,561.7c0-3.5,0-7.3,0-10.8c1-1.1,1.3-2.4,2.3-3.5c1-0.3,1.8,0,2.5,0.3c0.8,0.5,1.3,1.4,2,2.2
		c0.5,0.8,1,1.6,1.5,2.7c0.5,1.1,0.8,1.9,0.8,3c0,1.6-0.3,3.2-1.3,4.6c-1.5,1.9-3.3,3-5.3,3C200.6,563.1,199.9,562.5,199.1,561.7z"
		/>
	<path fill="#35261B" d="M234.2,688.9c-1-0.8-1.8-1.9-2.8-2.7c-1.3-3.8-4.8-5.1-7.3-7.8c-0.8-1.1-1.5-2.2-2.3-3.2
		c-1.8-6.5-9.8-11.1-5.3-19.5c7.8,0,3.5-6.8,4.8-10.6c0.3-1.9,1-3.8,2.3-5.4c4.5-2.4,7.3-0.3,9.3,3.8c0.8,2.4,0.3,4.9,0,7.3
		c-0.8,4.1,1.3,7.3,3,10.8c0.8,2.2,1.3,4.1,2,6.2c1.3,3,3.5,5.7,3,9.5c-1,4.1-1.8,8.1-5,10.8C235.2,688.7,234.7,688.7,234.2,688.9z"
		/>
	<path fill="#665C4F" d="M206.9,615.3c-1.5-9.7-4.3-19.5-0.3-29.2c0.5-0.3,1-0.3,1.5-0.5c1.8,0.8,2.5,2.2,3.3,3.8
		c1,3.8,2,7.8,3.3,11.6c0.3,4.9,3,8.1,5.8,11.6c1,2.2,1.3,4.6,0.5,7c-0.5,1.1-1.3,1.9-2.3,2.4c-3.8,0-6-3.8-9.8-4.6
		C207.9,617.2,207.2,616.4,206.9,615.3z"/>
	<path fill="#937862" d="M363.4,650.8c-1.3,1.9-2.5,3.8-3.8,5.7c-5.3-1.1-10.3,1.9-15.5,0.5c-0.8-1.1-1.3-2.2-1.8-3.5
		c-0.3-2.2-0.3-4.1,0.5-6c2-4.3,5.8-5.4,9.8-6.2c4.5,0.3,9.3,0.3,12.8,4.3C365.9,647.8,366.2,650,363.4,650.8z"/>
	<path fill="#8C7661" d="M344.3,656.2c5-1.1,10.3-6.8,15.3,0c-0.3,0.8-0.5,1.9-0.8,2.7c-1.8,5.7-5.3,8.7-11,8.1
		c-1.3-0.3-2.3-0.5-3.5-1.1c-2.5-2.2-4.3-4.6-3.3-8.4C342.1,656.7,343.1,656.2,344.3,656.2z"/>
	<path fill="#88775F" d="M319.5,694.4c-2.5,1.1-5,2.2-7.8,3.2c-0.5-0.5-0.8-1.1-1.3-1.6c-1.5-3.5-1.3-6.8,0.5-10
		c1-1.1,2-1.9,3.3-2.2c1.8-0.5,3.8-0.8,5.8-0.8c4,0.3,7.8,0.8,9.5,6c-0.3,3.2-3,2.4-4.8,3.2C323.3,693.8,322,696,319.5,694.4z"/>
	<path fill="#88735A" d="M329.5,688.9c-3-1.9-6.3-3-10-2.7c-0.5-5.4,3.8-5.1,6.5-5.7c3.8-0.8,7.3-1.6,8-6.8c0.5-1.1,1-2.2,1.8-3.2
		c0.5-0.3,1-0.8,1.5-1.1c1.3,0,2.3,0.3,3,1.4c2,3.2,2.5,7,2.8,10.8c-0.5,6-5.8,5.4-8.8,7.6C332.8,688.9,331,688.9,329.5,688.9z"/>
	<path fill="#251811" d="M224.2,645.6c-1,4.9,3.8,14.1-7.5,10.8c-1.3-0.5-2-1.4-2.3-2.7c-1-1.1-1.8-2.2-2.8-3.2
		c-0.3-5.1,3-7,6.8-8.4C221.2,642.1,222.5,644,224.2,645.6z"/>
	<path fill="#5B432F" d="M269.4,701.9c-3.3-1.9-6.5-3.8-9.8-5.7c-0.5-1.9,0-3.8,1-5.4c2-2.4,4.5-4.1,7.8-3.5
		c1.8,0.3,3.3,1.4,4.5,2.7s2.3,2.7,2.8,4.6C275.4,699,272.4,700.6,269.4,701.9z"/>
	<path fill="#A5998E" d="M347.3,664.6c5,1.4,8.3-2.4,11.5-5.7c1.5,8.4-6.3,11.1-9.3,16.8c-1.5,0.5-2.8,0-3.5-1.1
		C344.1,671.1,344.6,667.6,347.3,664.6z"/>
	<path fill="#483D32" d="M214.7,653.8c0.8,0.8,1.5,1.9,2.3,2.7c-0.3,4.1,0,7.8,3.8,10.3c4,2.4,3.3,5.4,1.3,8.7
		C213.4,670.3,212.7,662.4,214.7,653.8z"/>
	<path fill="#2D251D" d="M299.4,700c-5.8,3-11.5,2.7-17.6,1.9c-1.8-2.2-1-4.1,0.5-6c5.5-3.2,10.8-3.2,16.3,0
		C299.9,697.1,300.2,698.7,299.4,700z"/>
	<path fill="#5D4537" d="M261.8,691.7c-0.8,1.6-1.5,3-2.3,4.6c-2.5-0.8-5-1.6-7.8-2.4c-2.3-2.2-4.3-4.3-2.8-8.1c1-0.8,2-1.4,3-1.9
		c2.5-0.5,4.8-0.3,7,1.1C261.3,686.5,261.8,688.9,261.8,691.7z"/>
	<path fill="#9A8977" d="M366.9,624c0,2.4,0,5.1,0,7.6c-0.8,1.6-1.3,3.5-3,4.6c-2.3,1.1-4.5,1.1-6.8-0.5c-0.8-1.1-1.3-2.2-1.5-3.2
		c0.5-5.1,3.8-7.6,7.8-9.2C364.6,622.9,365.9,623.2,366.9,624z"/>
	<path fill="#40312A" d="M219.2,642.9c-2.5,2.4-4.8,4.9-7.3,7.3c-5-2.2-1.3-7.3-3.3-10.6c0.5-0.3,0.8-0.8,1.3-1.1
		c3.5-0.5,6.5-4.3,10.3-0.8C220.7,640,220.4,641.6,219.2,642.9z"/>
	<path fill="#545446" d="M281.9,697.6c0,1.6,0,3,0,4.6c-4.3,0-8.5,0-12.8-0.3c1.8-2.4,3.3-4.9,5-7.6c0.8-0.8,1.8-1.1,2.8-1.1
		c1.5,0.5,3,1.4,4,2.4C281.4,696.5,281.6,697.1,281.9,697.6z"/>
	<path fill="#928876" d="M366.9,624c-0.8,0-1.5,0-2.3,0c-4.8-1.1-8-3-4.5-8.9c3.3-2.4,6.5-1.9,9.3,1.1c-0.3,2.4-0.5,5.1-0.5,7.6
		C368.2,623.7,367.7,623.7,366.9,624z"/>
	<path fill="#312C26" d="M201.4,578c0.3-0.8,0.5-1.6,1-2.4c1.5-1.6,3.3-2.2,5.3-1.6c2.8,1.4,3.5,3.8,3.3,7c-0.5,2.2-1.8,3.8-4,4.1
		l-0.5,0.5l0.3,0.8C203.6,584.5,201.9,581.8,201.4,578z"/>
	<path fill="#74573F" d="M245,693.8c-0.3-0.8-0.8-1.4-1-2.2c-0.5-4.3-1-8.4,5.3-5.4c0.8,2.4,1.8,4.9,2.5,7.6
		C249.5,693.8,247.3,693.8,245,693.8z"/>
	<path fill="#A99F8C" d="M372.2,540.1c-1.5,1.1-3,2.2-4.5,3.2c-2.5,1.4-4.3,0-5.8-1.9c-0.5-1.1-0.5-2.2,0-3.2c1-1.9,1.8-4.1,2.8-6
		C369.7,532,370.4,536.6,372.2,540.1z"/>
	<path fill="#B6A389" d="M203.9,540.1c-0.8-0.8-1.3-1.6-2-2.7c0.8,0,1.3-0.3,2-0.3c3.5-2.7,4-8.9,9.8-8.9c4.3,1.6,4.5,6.2,6,10
		c0.3,1.1,0.5,2.2,0.5,3.5c-0.3,1.6-1,3.2-2.3,4.3c-0.8,0.5-1.8,1.1-2.8,1.4s-2,0.3-3,0.3c-1-0.3-1.8-0.5-2.8-0.8
		c-1.3-0.8-2.3-1.6-3.3-2.7C205.2,542.8,204.9,541.2,203.9,540.1z"/>
	<path fill="#A69F8B" d="M374.4,572.8c-1.8,7.8-0.5,16.5-5,23.8c-4-1.6-6.5-4.3-6.3-9.2c0.8-2.7,2.3-4.9,2.5-7.6
		c0.3-1.1,0.5-2.2,1-3.2C368.7,574.2,370.4,570.9,374.4,572.8z"/>
	<path fill="#705D4A" d="M365.2,586.1c-1.3,4.9,3.3,6.8,4.3,10.6c-0.8,1.1-1.5,1.9-2.3,3c-0.8,0.3-1.5,0.5-2.3,0.8
		c-2.3,0.5-4.5,0.8-6.5-1.4c-1.3-1.4-2.3-3-2.8-4.9c-0.5-1.9-0.5-3.8,0.5-5.7c0.8-1.1,1.5-1.9,2.5-2.4
		C360.9,585.3,363.1,584.2,365.2,586.1z"/>
	<path fill="#CABBA1" d="M374.4,572.8c-2.5,1.6-4.8,3.5-7.3,5.1c-3.3-1.9-5-4.9-6-8.7c0-2.7,1.5-4.9,3.5-6.2
		c2.3-1.1,4.5-1.1,6.8,0.3c2.3,1.6,1.3,4.6,2.8,6.5h0.5C374.7,570.7,374.7,571.7,374.4,572.8z"/>
	<path fill="#766249" d="M269.1,516c4-2.2,7,1.1,10.3,2.4c1.5,1.1,3.3,1.9,3.8,4.1c0.3,2.2-0.3,3.8-1.8,5.4c-3,1.9-6,1.6-9,0.8
		c-2.5-0.8-4.5-2.2-6.3-4.3C264.6,520.3,265.8,517.9,269.1,516z"/>
	<path fill="#342818" d="M281.6,521.4c-0.8-0.8-1.5-1.9-2.3-2.7c1.3-0.3,2.8-0.3,4-0.5c4-3.8,9.3,1.1,13.3-2.2c2.5,0,5,0.3,7.3,0.3
		c1,2.7-0.3,4.6-1.8,6.5c-1.3,1.4-2.8,2.2-4.3,2.7c-1.8,0.5-3.5,0.3-5.3,0C289.2,524.4,284.9,524.6,281.6,521.4z"/>
	<path fill="#4C3219" d="M269.1,516c-0.8,2.4-1.3,4.9-2,7.3c1,4.1-1.8,4.6-4.5,5.1c-3.5-0.5-6.3-2.2-5.8-6.8c2.5-2.2,5-4.3,7.5-6.8
		C266.1,515.4,267.6,515.7,269.1,516z"/>
	<path fill="#574132" d="M296.9,516c-4,4.1-8.8,2.4-13.3,2.2c-1.3-4.3,0.5-5.4,4-4.3C290.9,514.6,293.9,515.2,296.9,516z"/>
	<path fill="#413625" d="M302,521.1c0.8-1.6,1.5-3.2,2.3-4.9c1.8-0.3,3.5-0.3,5-0.5c1,1.6,1.8,3.5,2.8,5.1
		C308.7,524.4,305.5,524.4,302,521.1z"/>
	<path fill="#9B866E" d="M206.7,559c0-1.9,0.3-3.8,0.3-5.7c0.8-0.8,1.5-1.4,2.5-1.9c1-0.3,2-0.5,3-0.5s2,0.3,3,0.5s2,1.1,2.8,1.6
		c1.8,1.6,2.8,3.8,3,6.2c0.3,1.9,0.3,3.8-0.3,5.4c-0.5,1.1-1.3,2.2-2.3,2.7c-5,0.5-9.5-0.8-12.8-5.4
		C205.7,561.2,205.7,560.1,206.7,559z"/>
	<path fill="#585149" d="M206.7,559c0,0.8,0,1.9,0,2.7c1.5,3.2,4.8,4.9,5.8,8.4c0,4.3-3.8,3.5-5.8,5.1c-1.5,0-3,0-4.5,0.3
		c2-4.6,2.8-9.2-0.8-13.5C203.1,560.9,204.9,559.8,206.7,559z"/>
	<path fill="#B29C90" d="M209.4,553.3c-0.8,0-1.8,0-2.5,0l-0.3,0.3c-0.8-0.8-1.5-1.6-2.3-2.4c0-0.8-0.3-1.9-0.5-2.7
		c0.3-0.5,0.5-0.8,0.8-1.4c0.8-0.5,1.8-0.8,2.8-0.8c0.5,0,1,0.3,1.5,0.5s0.8,0.5,1.3,0.8c0.5,0.8,0.8,1.9,0.8,3
		C210.7,551.7,210.2,552.5,209.4,553.3z"/>
	<path fill="#9D9492" d="M202.4,548.5c-0.3-1.1-0.8-1.9-1-3c0.8-1.1,1.5-1.9,2.3-3c0.5,0,1,0.3,1.3,0.3c0.5,0.8,0.8,1.9,0.8,2.7
		c-0.3,1.1-0.8,1.9-1.5,2.4l-0.5,0.3C203.1,548.5,202.6,548.5,202.4,548.5z"/>
	<path fill="#675847" d="M204.1,551.2c0.8,0.8,1.5,1.6,2.3,2.4C205.7,552.8,204.9,552,204.1,551.2z"/>
	<path fill="#BA9F8A" d="M372.2,564.4c-2.5,0-5,0-7.5,0c-1.8,1.4-3.5,1.6-5.5,0.3c-2.3-3.5-1.8-6.8,0.8-9.7c4.5-3.8,8.5-3,12,1.4
		l0,0c0,1.9,0.3,3.8,0.3,5.4c0.8,0.5,0.8,1.4,0.5,1.6C372.7,564.2,372.4,564.4,372.2,564.4z"/>
	<path fill="#877E72" d="M377.2,559c0,0.8,0,1.9,0,2.7c-1,0-1.8,0-2.8,0C375.7,560.9,376.4,559.8,377.2,559z"/>
	<path fill="#948171" d="M203.9,540.1c1,0.8,2,1.6,3,2.2c-0.3,0.3-0.5,0.8-0.8,1.1c-0.5-0.3-1-0.3-1.3-0.5l-1-0.5
		C203.9,541.7,203.9,540.9,203.9,540.1z"/>
	<path fill="#523E2D" d="M249.3,686.2c-4.5-1.1-2.8,4.3-5.3,5.4c-4.3,1.1-6.8-2.4-10-4.1c1.8-3.2,3.5-6.5,5-9.5c2-2.2,4-4.1,7-3.8
		c2.3,0.3,4.3,1.4,6.3,3c3,3.2,3.5,6.2-0.8,8.9C251,686.2,250,686.2,249.3,686.2z"/>
	<path fill="#4B3321" d="M219.2,642.9c0-1.9,0-3.8,0-5.4c-4.5-5.4-5.3-10.8,0-16.2l0,0c6.5-3.5,8.5,1.9,11,6.5
		c0.5,1.1,0.8,2.4,1,3.8c0,1.4,0,2.4-0.3,3.8c-0.8,4.1-4.5,3.2-6.8,5.1c0,1.9,0,3.5,0,5.4C222.2,645.6,220.2,645.1,219.2,642.9z"/>
	<path fill="#453223" d="M229.2,651.1c0.8-1.9,1.8-3.8,2.5-5.7c2.5-3,5.8-3,9-4.1c1-0.3,2.3-0.3,3.5-0.3c1.3,0.3,2.3,0.5,3.3,1.1
		c2,1.6,3,3.8,3,6.5c-0.5,1.9-1.5,3.5-3.3,4.3c-2.3,1.4-4.5,2.2-6.8,2.7C236,657,232.2,654.8,229.2,651.1z"/>
	<path fill="#472E24" d="M246.5,675.4c-2.5,0.8-5,1.9-7.3,2.7c0.5-4.1-3.5-5.4-5-8.1c1.5-1.9,3.5-2.7,5.8-3.2c4,0,5.3-6.2,9.8-5.4
		c2.3,1.4,3.3,3.5,3.3,6.5C251.8,671.1,252.5,676.5,246.5,675.4z"/>
	<path fill="#695440" d="M242,642.7c-2.5,4.3-6.5,2.4-10,2.7c-1.8-3-4.3-5.1-7.5-5.4c1.8-1.9,3.3-3.5,5-5.4c1-1.1,1.5-2.7,2.8-3.8
		c1-0.5,2-0.5,3-0.5c1,0.3,1.8,0.8,2.5,1.6c0.3,1.1,0.5,1.9,0.5,3c0.3,1.4,1,2.7,1.8,3.8c0.8,0.8,1.3,1.6,1.8,2.4
		C241.8,641.6,241.8,642.1,242,642.7z"/>
	<path fill="#493A2D" d="M229.2,651.1c4.3,0.8,8.3,1.6,12.5,2.7c0.3,0.5,0.5,1.1,0.5,1.6c0,1.1-0.5,2.2-1,3.2
		c-1.3,1.9-2.5,3.5-4.5,4.6c-1,0.3-2,0-2.8-1.1C229.7,659.7,229,655.7,229.2,651.1z"/>
	<path fill="#2A1105" d="M234.2,661.9c0.8,0,1.5,0,2.5-0.3c1-0.8,2.3-1.1,3.5-0.5c2.5,2.4,4.3,5.1,1.8,8.7c-2.5,0-5,0-7.5,0
		C234.2,667.3,234.2,664.6,234.2,661.9z"/>
	<path fill="#4B3E30" d="M219.2,621.3c-2,5.4,0,10.8,0,16.2c-3.3,1.1-5.3,6.2-9.5,3c-0.3-8.1-0.3-16.2-0.5-24.4
		C215.7,610.5,214.7,622.1,219.2,621.3z"/>
	<path fill="#3C291D" d="M211.9,602.3c-0.8-4.3-1.5-8.9-2.3-13.3c3.5-3.8,7.3-3.8,11.5-1.4c1.8,1.4,2.8,3.2,3.5,5.4
		c0.5,3.5,2.3,7.3-1,10.6C219.2,606.1,215.4,605,211.9,602.3z"/>
	<path fill="#4A3829" d="M211.9,602.3c4,0,8.3,0,12.3,0c1,0.8,1.5,1.9,1.8,3.2c0.3,3.5-1,6.5-3.8,8.4c-1.3,0.5-2.3,0.3-3.3-0.5
		C213.4,612.1,213.2,606.9,211.9,602.3z"/>
	<path fill="#503D33" d="M221.7,588.8c-4,0-8,0.3-12.3,0.3c-0.8-1.4-1.8-2.7-2.5-4.1c0.8-1.4,1.5-2.7,2.3-4.1c1.3-1.6,2.3-4.1,5-3.5
		c3,1.1,5.5,3.2,8,5.4c1,1.6,1.3,3.2,0.8,4.9C222.5,588,222,588.3,221.7,588.8z"/>
	<path fill="#564533" d="M218.9,613.4c1,0,1.8-0.3,2.8-0.3c2,0.3,3.8,0.8,5.5,1.4c2,0.3,3.5,1.4,4.8,3c0.5,0.8,0.8,1.9,0.8,3
		c-0.3,1.4-0.5,3-1,4.3c-0.3,0.8-0.5,1.9-0.8,2.7c-0.3,0.5-0.5,0.8-0.8,1.4c-0.3,0.3-0.8,0.5-1,0.8c-3.5-2.7-4.5-8.7-10-8.1
		C219.2,618.6,218.9,615.9,218.9,613.4z"/>
	<path fill="#9E8372" d="M352.1,642.9c-2.5,1.9-5,3.5-7.5,5.4c-3,1.6-4.5-0.3-6-2.7c-0.5-1.4-0.5-2.7,0-4.1c1.8-3.5,4.8-4.1,8-4.3
		c2,0,3.8,0.5,5.3,1.9C352.9,640.5,352.9,641.6,352.1,642.9z"/>
	<path fill="#826852" d="M339.8,645.4c1.5,1.1,3.3,1.9,4.8,3c0,1.9,0,3.8,0,5.7c-1.3,0.8-2.3,1.4-3.5,1.9c-4.8,1.4-9.3,2.2-12-3.8
		C331,647.3,336.1,647.3,339.8,645.4z"/>
	<path fill="#755A47" d="M352.1,642.9c0-0.8-0.3-1.6-0.3-2.4c0.8-2.7,2.3-3.8,5-3.8c3,1.6,5.5,3.5,7.5,6.5c0.5,0.8,0.5,1.6,0,2.4
		C360.1,645.6,355.9,645.4,352.1,642.9z"/>
	<path fill="#422911" d="M342.3,653.8c0.8,0,1.5,0,2.3,0c0,0.8,0,1.6-0.3,2.4c-0.8,0-1.3,0-2,0c-0.3-0.5-0.8-0.8-1-1.4
		C341.6,654.6,341.8,654.3,342.3,653.8z"/>
	<path fill="#88715A" d="M342.3,656.2c0.8,2.7,1.5,5.7,2.3,8.4c0.5,0.5,1,1.1,1,1.9c0,0.8,0,1.1-0.3,1.1c-1,1.4-2.5,1.9-4,1.9
		c-1.5-0.3-3-0.5-4.3,0.5l0,0c-7.5,0-8.8-5.1-7.8-11.6C333.1,654,337.6,654.6,342.3,656.2L342.3,656.2z"/>
	<path fill="#81705F" d="M344.6,667.3c0-0.8,0-1.6,0-2.7c1,0,1.8,0,2.8,0c0,3.8,0,7.3,0,11.1c-1.8,1.6-3.3,3.5-5,5.1
		c-3.8-2.7-2.3-7-2.8-10.8c0.3-0.3,0.8-0.8,1-1.1C342.1,668.6,343.6,668.4,344.6,667.3z"/>
	<path fill="#4F392C" d="M314.2,686c-0.8,0-1.5,0.3-2.3,0.3c-1.8,1.6-3.8,2.7-6.3,2.4c-5-0.8-9.5-3.2-14.3-4.3
		c-1.5-0.8-2.8-2.2-3.3-4.1s-0.3-3.5,0.8-5.1c2.3-2.4,5.3-4.3,7.8-6.5c1.5-0.5,3.3-0.5,4.8,0c1,0.5,1.8,1.4,2.3,2.2
		c1.8,3.2,4.5,3.8,7.8,3.5c2.3,0,4.5-0.3,6.3,1.9C320,681.1,318,684.1,314.2,686z"/>
	<path fill="#725B50" d="M314.2,686c2-3.2,3-6.8,2.3-10.6c0.3-0.5,0.8-1.1,1-1.6c2.3-2.2,4.8-3.2,7.8-3.5c4,0,7.8,0.8,11.5,2.4
		c0.5,6.8-2,10.6-8.8,10.8c-3,0-6.5-0.5-8.8,2.7C317.8,686.2,316,686,314.2,686z"/>
	<path fill="#6B563D" d="M304.5,686.2c2.5,0,5.3,0.3,7.8,0.3c0,3.5,0,6.8,0,10.3c-3.5,1.1-6.8,1.1-9.8-1.6c-0.5-0.5-0.8-0.8-1.3-1.4
		C299.9,690,301.5,687.9,304.5,686.2z"/>
	<path fill="#725D4B" d="M336.8,672.7c-4.3,3.8-8.3,0.3-12.5,0c-2-1.9-2.5-4.3-2.3-7.3c0.3-1.4,0.5-2.7,1-3.8
		c1.5-2.2,3.5-3.8,6.3-2.4c2,4.1,3,8.9,7.5,10.8C337.1,670.8,337.1,671.9,336.8,672.7z"/>
	<path fill="#735B48" d="M337.1,670c1-0.8,2-1.9,3-2.7c0.5,0.5,0.8,1.1,0.5,1.6c-0.3,0.5-0.5,0.8-0.8,0.8h-0.3
		C338.8,670,337.8,670,337.1,670z"/>
	<path fill="#3D2314" d="M261.8,691.7c-2-1.1-2.5-3.2-2.5-5.4c-1-2.2,0.3-3,2-3.5c2.3,0,4.3,0.8,6.3,1.9c1.5,1.1,2.5,2.2,1.8,4.3
		C266.8,689.8,264.3,690.6,261.8,691.7z"/>
	<path fill="#503423" d="M269.4,688.7c-0.8-0.8-1.5-1.6-2.5-2.7c-0.8-3.5,1.5-3.8,3.8-4.1c3.3,1.1,5.3,4.1,6.8,7.3
		c0.3,1.1,0,2.2-0.8,3.2c-1.5,0.5-3.3,0.5-4.5-0.8C271.1,690.8,270.1,689.8,269.4,688.7z"/>
	<path fill="#846746" d="M272.1,691.9c1.5,0,3.3,0,4.8-0.3c0.5,0.8,0.5,1.9,0,2.7c-0.8,0-1.8,0-2.5,0
		C273.6,693.6,272.9,692.7,272.1,691.9z"/>
	<path fill="#816A4E" d="M302.2,695.2c0,1.4-0.5,2.4-2,2.2c-6,0-12.3,0.3-18.3,0.3v-0.5c-0.8-0.5-1-1.1-1-1.6c0-0.8,0.3-1.1,0.3-1.1
		c0.8-1.4,4.5-0.5,2.5-4.1c0.8-1.6,2-2.4,3.8-2.7c3.8,0.3,7.5,1.1,11,2.4c1.5,0.8,2.3,2.4,3.3,3.8
		C302,694.1,302.2,694.6,302.2,695.2z"/>
	<path fill="#442C17" d="M261.8,683.5c-0.8,0.8-1.5,1.6-2.3,2.7c-2.5,0-5,0-7.5,0c1.5-2.7,1.5-5.4,0-8.1c0-2.7,0.5-4.9,2.8-6.5
		c1.3-0.5,2.3-0.5,3.5-0.5c2.5,0.8,4.3,2.4,5.3,5.1C264.1,678.9,263.8,681.6,261.8,683.5z"/>
	<path fill="#9B8470" d="M359.9,615.6c-0.5,4.3,3.3,5.4,4.8,8.4c-2.5,2.7-5,5.4-7.5,8.1c-2.3,2.2-4.8,2.4-7.3,1.1
		c-1.5-1.6-2.3-3.5-2.3-5.7c0.3-4.3,2.8-7.8,5.3-10.8C355.1,614.5,357.4,613.7,359.9,615.6L359.9,615.6z"/>
	<path fill="#694E3E" d="M349.6,632.1c2.5,0,5,0,7.5,0c0.3,0.8,0.3,1.9,0.5,2.7c0.5,1.1,0.3,1.9-0.5,2.4c-1.8,1.1-3.3,1.9-5,3
		c-1.8-0.3-3.3-0.3-5-0.5c-1.3-1.6-1.8-3.2-1.5-5.4C346.3,632.6,347.3,631.3,349.6,632.1z"/>
	<path fill="#A89582" d="M356.9,637.5c0.3-0.8,0.3-1.6,0.5-2.4c2.3,0,4.8,0,7,0c0,2.7-0.3,5.4-0.3,8.4
		C360.6,643.2,357.4,642.7,356.9,637.5z"/>
	<path fill="#795E40" d="M281.9,694.4c0,0.8,0,1.6,0,2.4c-2.3,0.3-4-0.3-5-2.4c0-0.8,0-1.9,0-2.7l-0.3-0.3c0.8-0.8,1.5-1.1,2.5-0.8
		C280.6,691.4,281.6,692.7,281.9,694.4z"/>
	<path fill="#4A3D31" d="M214.2,578c-1.8,0.8-3.3,1.9-5,2.7c0-2.2-0.5-4.3-2.5-5.4c1.8-1.9,3.3-3.5,5-5.4c2.8-1.4,4.3,0,5.8,2.2
		C217.9,575,216.7,576.9,214.2,578z"/>
	<path fill="#452B17" d="M302,521.1c3.3,0,6.8,0,10,0c6.8-2.2,13.3,0.5,20.1,0.5c2,2.2,2.3,4.9,1,7.6c-1.3,1.6-3,2.2-5,2.2
		c-2.8-0.3-5.8-1.1-8.5-1.1c-2.8-0.3-5.5-0.3-8.3-1.1c-2.5-0.8-5-1.6-7.8-2.4c-1-0.3-2-0.8-3-1.4c-0.3-0.5-0.8-0.8-1-1.4
		C300.2,523,301.2,521.9,302,521.1z"/>
	<path fill="#413625" d="M332,529.3c0-2.4,0-5.1,0-7.6c7.8-0.5,11.5,7.6,17.6,10.3c-1,3-3,5.1-5.3,6.8c-1.8,0.5-3.5,0.5-5,0
		C336.1,536.3,331,535.2,332,529.3z"/>
	<path fill="#381C10" d="M344.6,537.1c0-3.5,2-4.9,5-5.1c4.8-0.5,6.5,4.1,9.8,6.2c3,4.1,0.5,5.4-2.8,6.2c-2.3-1.9-4.8-0.5-7-0.5
		C347.3,542,345.6,540.1,344.6,537.1z"/>
	<path fill="#5A4436" d="M354.6,542.8c2.8,0,4.5-1.6,4.8-4.9c0.8,0,1.8,0,2.5,0c-0.3,0.8-0.3,1.4,0,2.2c3.5,6,5.3,10.8-4.5,9.7
		C355.1,548.2,353.6,546.3,354.6,542.8z"/>
	<path fill="#CCB9A1" d="M357.6,548.7c8.3,1.1,5-4.6,4.5-8.7c1.8,1.1,3.8,2.2,5.5,3.2c1.5,4.3,3,8.7,4.5,13c-3.5,0-6.8-2.7-10.3-0.3
		c-2-0.8-4-1.9-5-4.3C356.4,550.6,356.6,549.6,357.6,548.7z"/>
	<path fill="#523825" d="M231.7,521.4c0.8,0,1.5-0.3,2.3-0.3l-0.3,0.3c1.3,1.1,2.3,0.5,3.3-0.3c4.8-1.1,9.8-2.2,14.5,0.3
		c1,2.7-0.3,4.6-1.8,6.8c-1.3,1.4-2.8,2.4-4.5,2.7c-4.3,0.3-8.3-0.8-12-2.7c-1.5-1.1-2.8-2.4-1.8-4.9
		C231.7,522.8,231.7,522.2,231.7,521.4z"/>
	<path fill="#583C27" d="M249.3,526.3c0.8-1.6,1.5-3.2,2.5-4.9c1.8,0,3.5,0,5.3,0.3c1.5,1.6,3.3,3.2,4.8,4.9
		c0.8,1.4,0.8,2.7-0.5,3.8C256.3,532.8,252.3,531.1,249.3,526.3z"/>
	<path fill="#AA8D71" d="M213.9,545.5c1,0,2-0.3,3-0.3c1-0.3,2,0,2.5,0.8c0.3,1.1,0,2.2-0.8,3c-1.5,0.8-3,0.5-4.5-0.5
		c-0.5-0.5-0.8-1.4-0.8-1.9C213.7,546,213.7,545.5,213.9,545.5z"/>
	<path fill="#8C7A69" d="M206.9,542.5c1,1.1,2,2.2,3,3.2c-0.5,0.3-1,0.5-1.5,1.1c-0.5,0-1-0.3-1.8-0.3c-0.3-0.5-0.8-1.1-1-1.4
		c0.3-0.5,0.5-1.1,0.8-1.6C206.4,543.1,206.9,542.5,206.9,542.5z"/>
	<path fill="#C19C83" d="M209.9,545.5c0.8,0,1.5,0,2,0c0.5,1.1,0.3,1.9-0.5,2.7c-1,0.5-1.8,0.5-2.5-0.3l0.3,0.3
		c-0.8-0.5-1.3-1.1-1-1.6s0.5-1.1,0.8-1.1H209.9z"/>
	<path fill="#E3BEA5" d="M211.7,548.2c0-0.8,0-1.6,0.3-2.4c0.8,0,1.3,0,1.8,0c0.3,0.8,0.3,1.6,0.3,2.4l-0.5,0.8h-1L211.7,548.2z"/>
	<path fill="#A8937E" d="M219.2,543.1c0-1.1,0-2.2,0-3.2l0.8,0.3c0.8-0.5,1.8-0.8,2.5,0c0.3,1.1,0.3,1.9-0.5,3
		C221,543.6,219.9,543.6,219.2,543.1L219.2,543.1z"/>
	<path fill="#7C6B58" d="M221.7,534.9c1-2.7,2.3-5.4,3.3-8.1c2-1.6,3.8-3.8,6.5-3.5c1,1.1,1.8,2.2,2.8,3c1.5,1.4,3.5,2.4,3.3,5.1
		c-0.5,1.6-1.5,3-2.8,4.1c-1,0.5-1.8,1.1-3,1.4c-1,0.3-2,0.3-3,0.5c-1,0-2,0-3.3-0.3c-1-0.3-2-0.5-3-1.1
		C222.5,535.7,222,535.2,221.7,534.9z"/>
	<path fill="#A99689" d="M359.4,597.2c1.8,1.1,3.8,2.2,5.5,3.2c-1,0.5-1.8,1.4-2.8,1.9c-1,0.8-1.8,1.6-2.8,2.7
		c0,1.6,0.3,3.5,0.3,5.1c-1.5,1.9-3.3,2.2-5.3,1.4c-3.3-1.9-4.5-5.1-4.3-9.2C351.9,597.7,354.9,595.6,359.4,597.2z"/>
	<path fill="#B49F8A" d="M354.1,610.2c1.8,0,3.8,0,5.5-0.3l-0.3,0.3c0.5,0.5,0.8,1.1,0.5,1.6c-0.3,0.5-0.3,0.8-0.5,0.8
		c0,0.8,0,1.9,0.3,2.7c-1.8,1.1-3.5,1.9-5.3,3c-2.5,1.4-4,0-5.5-1.9c-0.5-1.1-0.5-2.4-0.3-3.5C350.1,611,351.6,609.4,354.1,610.2z"
		/>
	<path fill="#3A2B14" d="M359.6,612.9c0-0.8,0-1.6,0-2.4c0.5,0.5,1.3,1.1,1.8,1.6C360.9,612.3,360.4,612.6,359.6,612.9z"/>
	<path fill="#2E1F0E" d="M359.6,605c1-0.8,1.8-1.6,2.8-2.7C362.1,604,361.4,605,359.6,605z"/>
	<path fill="#BEA48C" d="M362.1,569.9c3.3,1.6,5,4.3,5,8.1c0,0.8,0,1.6,0,2.4c-1.5,2.4-4,2.7-6.5,3.2c-3.5,0.5-7,0.5-10.8,1.1
		c-2.5,0-4.5-1.4-5.8-3.8c-0.3-1.4-0.3-2.4,0.3-3.8c3.5-3.5,7.3-6.2,11.3-8.9c1.3-0.5,2.3-0.5,3.5-0.5
		C360.4,568.2,361.4,568.8,362.1,569.9z"/>
	<path fill="#83745D" d="M360.1,580.9c2.3,0,4.8-0.3,7-0.3c3.8,3.5,1.8,4.9-1.8,5.7c-2,0.8-4,1.6-6,2.4
		C357.6,585.8,357.6,583.1,360.1,580.9z"/>
	<path fill="#BDA383" d="M360.1,580.9c-0.3,2.4-0.5,5.1-0.8,7.6c-0.8,0.3-1.5,0.3-2.3,0.5c-2.3,1.9-4.5,2.4-7,1.1
		c-1-0.8-1.8-1.9-1.8-3.5c0-1.4,0.5-2.7,1.5-3.5C352.6,579.3,356.4,580.9,360.1,580.9z"/>
	<path fill="#6D553D" d="M349.6,588.5c2.5,0.3,5,0.3,7.5,0.5c0,1.6,0,3.2,0,5.1c-1.8,2.7-4.3,3.8-7,3.8c-1.8-0.5-3-1.6-3.8-3.5
		c-0.8-1.9-0.5-3.5,0.5-5.1C347.3,588.5,348.3,588.3,349.6,588.5z"/>
	<path fill="#7B6961" d="M349.6,596.9c2.5-1.1,5-1.9,7.5-3c0.8,1.1,1.5,2.2,2.5,3.2c-2.5,1.6-5,3.2-7.3,5.1c-1.5,1.6-3.3,1.6-5,0.8
		c-0.8-1.1-1.3-2.2-1.3-3.8C346.6,597.5,347.1,595.6,349.6,596.9z"/>
	<path fill="#795E48" d="M362.1,569.9c-0.8,0-1.5,0-2.3-0.3c-1-0.5-1.5-1.4-1.5-2.4c0.3-1.1,0.5-1.9,1.5-2.7c1.5,0,3.3,0,4.8,0
		C363.6,566.3,362.9,568,362.1,569.9z"/>
	<path fill="#2F1A0B" d="M271.9,526.5c3.3,0,6.8,0.3,10,0.3c3-0.5,5.8-0.3,8,2.2c0.5,1.4,0.5,2.4,0,3.8c-5.3,7-11.8,3.5-18.3,2.4
		c-0.8-1.1-1.5-2.2-1.8-3.5C269.9,529.8,270.4,527.9,271.9,526.5z"/>
	<path fill="#4D3224" d="M271.9,526.5c0,1.9,0,3.8-0.3,5.7c-2,1.9-4.3,2.7-7,1.9c-1.8-0.8-3.3-1.9-3-4.3c0-1.1,0.3-2.2,0.3-3.2
		c2.3,0,4.3-0.8,5.3-3C268.6,524.4,270.4,525.5,271.9,526.5z"/>
	<path fill="#574132" d="M289.4,529.3c-2.8-0.3-5.8,0.8-7.5-2.4c0-1.9,0-3.5-0.3-5.4c4.3,0.3,9-1.6,12.8,2.2
		c-0.8,1.9-2.8,2.2-3.8,3.8C290.7,528.2,290.2,528.7,289.4,529.3z"/>
	<path fill="#7C6C64" d="M289.4,526.8c-1-5.7,3.8-1.6,5.3-3.5c1.5,0,3.3,0.3,4.8,0.3l-0.3,0.3c1,1.4,0.8,2.7-0.5,3.5
		C295.4,529.8,292.4,529.3,289.4,526.8z"/>
	<path fill="#D1B7A0" d="M219.2,564.4c0.3-1.6,0.3-3.5,0.5-5.1c1.3-1.6,3-2.2,5-2.2c3.3,0.5,6,2.2,8,5.1c1.3,2.7,1.3,5.4,0,7.8
		c-1.5,1.6-3.3,2.2-5.3,2.2C222.7,571.7,221.2,568,219.2,564.4z"/>
	<path fill="#C5AE93" d="M224.5,558.8c-1.5,0-3.3,0.3-4.8,0.3c-1-1.9-2-3.8-2.8-5.4c0-1.1,0-1.9,0.3-2.7c0.5-0.8,1-1.6,1.5-2.2
		c0.3-1.1,0.3-2.2,0.5-3.2v0.3c0.8-0.8,1.5-1.1,2.5-1.1c1.5,0.3,2.8,0.5,4.3,0.8c1,0,2,0.3,3,0.5c1.5,0.5,3,1.1,3.8,2.7
		c0.3,1.1,0,2.2-0.5,3.2C229.7,554.4,227.2,556.9,224.5,558.8z"/>
	<path fill="#402815" d="M219.2,564.4c2.5,1.9,5,3.8,7.5,5.7c3,1.9,4.8,4.1,3.3,7.8c-1,0.8-2,1.4-3.3,1.6c-5-0.5-7.5-4.1-8.8-8.9
		c0-1.4,0.5-2.4,1.3-3.5C219.2,566.1,219.2,565.3,219.2,564.4z"/>
	<path fill="#382919" d="M219.2,567.1c0,0.8,0,1.9,0,2.7c-0.8,1.1-1,2.7-2.5,2.7c-1.8-0.8-3.3-1.6-5-2.4c-3.3-1.6-4.8-4.6-5-8.4
		C210.9,563.4,214.9,565.3,219.2,567.1z"/>
	<path fill="#AA8D71" d="M218.7,550.6c-0.8,1.1-1.3,1.9-2,3c-1,0-2,0-2.8,0c-0.5-1.1-0.3-2.2,0.5-3
		C215.9,549.6,217.2,549.3,218.7,550.6z"/>
	<path fill="#6C553A" d="M211.4,553.6c0-0.8,0.3-1.9,0.3-2.7l0.8-1.1h1l0.5,1.1c0,0.8,0,1.6,0,2.7
		C213.2,553.6,212.4,553.6,211.4,553.6z"/>
	<path fill="#6D492F" d="M211.7,550.9c-0.8,0-1.8,0-2.5,0c0-0.8,0-1.9,0-2.7c0.8,0,1.8,0,2.5,0l0,0c0.8,0.5,1.3,1.1,0.8,1.6
		C212.2,550.6,211.9,550.9,211.7,550.9L211.7,550.9z"/>
	<path fill="#4D3429" d="M206.9,548.2c0-0.8-0.3-1.9-0.3-2.7c0.8,0,1.8,0,2.5,0c0,0.8,0.3,1.9,0.3,2.7
		C208.4,548.2,207.7,548.2,206.9,548.2z"/>
	<path fill="#534030" d="M206.7,545.8c-0.8-0.3-1.5-0.3-2.5-0.5c0-0.8,0-1.6,0.5-2.2c0.5-0.3,1.3-0.3,1.8,0
		C206.7,543.9,206.7,544.9,206.7,545.8z"/>
	<path fill="#3C2313" d="M254.3,672.7c0,2.2-0.5,4.3-2.5,5.4c-2,0-4-0.5-5.3-2.7c1.8-2.7,3.5-5.4,5.3-8.1
		C256.1,667.3,256.1,669.5,254.3,672.7z"/>
	<path fill="#634D38" d="M234.5,632.1c-1,0-1.8,0-2.8,0c-0.8,1.1-1.8,0.8-2.5,0c0-0.8,0-1.9,0-2.7l0,0c1.5-1.6,3-1.6,4.8-0.8
		c0.8,0.8,1,1.4,0.8,2.2C234.7,631.6,234.5,632.1,234.5,632.1z"/>
	<path fill="#725842" d="M229.2,632.1c0.8,0,1.8,0,2.5,0c-0.8,0.8-1.8,1.9-2.5,2.7C229.2,634,229.2,632.9,229.2,632.1z"/>
	<path fill="#503829" d="M249.3,648.1c-0.8-1.6-1.8-3.5-2.5-5.1c0-1.1-0.3-2.2-0.5-3c-0.3-1.1-0.3-2.2-0.3-3.2
		c0.3-0.5,0.3-1.1,0.5-1.6c0.8-0.8,1.5-1.6,2.5-2.2c2-0.8,4.3-0.8,6.5-0.5c4.8,1.6,9.8,2.7,13.8,6.2c0.8,0.8,1.3,1.9,1.8,3.2
		c0,1.4,0,2.4-0.5,3.5c-0.8,0.8-1.8,1.6-2.8,2.2c-2,1.1-4.3,1.9-6.5,2.4c-3,0.8-5.8,1.1-8.8,0C251,650,250,649.2,249.3,648.1z"/>
	<path fill="#583F31" d="M249.3,648.1c0.8,0,1.8,0,2.5,0.3c1.3,1.4,1.5,3.2,1,5.1c-0.8,1.9-2,3-3.8,3.5c-1.3,0.3-2.3-0.3-3-1.1
		c-0.8-1.9-0.8-3.5,1-5.1C247.8,650,248.5,649.2,249.3,648.1z"/>
	<path fill="#4A3122" d="M249.3,640.2c-0.8,0.8-1.8,1.9-2.5,2.7c-0.8,0-1.5,0-2.3,0c-1.5-1.4-1.5-3-0.5-4.9c1-0.8,2-1.1,3-0.5v0.3
		C247.5,638.6,248.5,639.4,249.3,640.2z"/>
	<path fill="#654C3E" d="M246.8,651.1c0,1.9,0,3.5-0.3,5.4c-0.8,0.5-1.5,0.8-2.5,0.5c-1.3-0.5-1.8-1.9-2.5-3.2l0,0
		C243,651.3,244.8,651.1,246.8,651.1z"/>
	<path fill="#B69E8B" d="M244.3,637.5c0,1.9,0,3.8,0,5.4H243l-1.3-0.3v0.3c-1.3-1.1-1.5-2.7-1.5-4.6c0.5-1.1,1.3-1.6,2.5-1.6
		C243.5,637,244,637.3,244.3,637.5z"/>
	<path fill="#503726" d="M254.3,672.7c0-2.2-0.5-4.3-2.5-5.4c-0.8-1.9-1.8-3.8-2.5-5.4c-0.3-0.5-0.5-1.1-0.8-1.9
		c0.3-0.5,0.5-1.1,1-1.6c1-0.8,2-1.4,3.3-1.6c3-0.8,6-0.5,8.8,1.4c0.8,1.1,1.3,2.2,1.5,3.5c-0.5,4.6-1.5,8.9-6,11.1
		C256.1,672.7,255.3,672.7,254.3,672.7z"/>
	<path fill="#61473C" d="M249.3,659.2c0,0.8,0,1.6,0,2.7c-3.3,1.9-2,8.7-7.5,8.1c-0.8-2.7-1.8-5.4-2.5-8.1c0.5-1.6,1.5-3,2.8-3.8
		c1-0.3,2-0.5,3-0.3C246.5,657.8,248.3,657.6,249.3,659.2z"/>
	<path fill="#3A230C" d="M234.5,632.1c-0.3-0.8-0.3-1.6-0.3-2.4c-0.5-0.8-0.8-1.4-0.8-2.2c0.3-0.8,0.3-1.1,0.5-1.1
		c1-0.8,2-1.1,3.3-1.1c3.3,1.1,5.5,2.7,4.5,6.8c-1.5,1.4-3,1.9-4.8,0.5C236,632.4,235.2,632.1,234.5,632.1z"/>
	<path fill="#341E07" d="M239.3,640.2c-1.8-0.3-4.8,0-5.3-1.1c-1.3-2.2,1-3.5,3-4.3c0.5,0,1,0.3,1.5,0.3c0.8,0.5,1.5,1.4,2,2.2
		C240.3,638.6,240,639.4,239.3,640.2z"/>
	<path fill="#49301E" d="M239.3,640.2c0-0.8,0-1.6,0-2.4c0.8-0.8,1.5-0.8,2.5-0.3c0,1.9,0.3,3.5,0.3,5.4
		C241,642.1,240.3,641,239.3,640.2z"/>
	<path fill="#927860" d="M237,632.4c1.5,0,3.3-0.3,4.8-0.3c0.3,0.5,0.5,0.8,0.8,1.4c0,1.1-0.5,1.9-1.5,2.4c-1.5,0.3-3,0.3-4-1.4l0,0
		C236.8,634,236.8,633.2,237,632.4z"/>
	<path fill="#3F2619" d="M241.8,659.2c-0.8,0.8-1.8,1.9-2.5,2.7c-0.8,0-1.8,0-2.5,0c1.8-1.9,3.3-3.5,5-5.4c0.3,0.5,0.8,0.8,1,1.4
		C242.5,658.4,242,658.6,241.8,659.2z"/>
	<path fill="#3F2618" d="M241.8,653.8c0.8,0.8,1.5,1.9,2.5,2.7c-0.5,0.3-0.8,0.8-1.3,1.1c-0.5-0.3-0.8-0.8-1.3-1.1l0,0
		C241.8,655.7,241.8,654.6,241.8,653.8z"/>
	<path fill="#49352C" d="M222,594.2c0-1.9,0-3.8-0.3-5.4l0,0c2-3.8,4.8-5.7,9-4.6c1.8,0.5,3,1.9,4,3.5c0.8,1.9,0.3,3.5-0.8,5.1
		c-1.3,1.9-2.8,3.8-4.8,4.9C225.7,598.3,223.7,596.4,222,594.2z"/>
	<path fill="#4F3C34" d="M222,594.2c2.5,0.8,5,1.6,7.3,2.7c1.8-1.4,2.8,0,3.8,1.6c0.3,1.1,0.3,2.2,0,3.5c-0.5,1.6-1.8,3-3,4.1
		c-1,0.5-2,0.8-3,0.8c-1-0.3-2-0.8-2.8-1.6c0-0.8,0-1.9,0-2.7C223.5,599.6,222.7,596.9,222,594.2z"/>
	<path fill="#3F3122" d="M224.2,605c0.8,0,1.8,0,2.5,0c3.3,3.5,5.5,7.3,0,10.8c-3.8,3.2-3.8-1.1-5-2.7
		C222.5,610.5,223.5,607.7,224.2,605z"/>
	<path fill="#4F3A2C" d="M216.7,572.3c0.8-0.8,1.8-1.9,2.5-2.7c1.5,3.8,4.3,6.5,7.5,8.4c1,4.6-2.3,4.9-5,5.4c-3.5,0-6-1.9-7.5-5.4
		C214.9,576.1,215.9,574.2,216.7,572.3z"/>
	<path fill="#4D3528" d="M221.7,583.4c1.8-1.9,3.3-3.5,5-5.4c0.8,0,1.8,0,2.5-0.3c2-0.3,4-1.6,6,0.5c0.8,1.6,0.8,3.2,0.3,5.1
		c-1,1.6-2.3,2.4-4,2.7c-3.5-0.5-6.5,1.1-9.5,2.7C221.7,586.9,221.7,585.3,221.7,583.4z"/>
	<path fill="#41301E" d="M231.7,621c0-0.8,0-1.6,0-2.4c-2.5-4.9-0.3-6.5,3.8-7.3c2,0.3,3.8,1.1,5,3c1.3,2.7,1.3,5.4,0.5,8.1
		c-0.5,1.4-1.3,2.2-2.5,2.7c-1.3,0-2.5,0.3-3.5,0C233.2,624.5,232,623.2,231.7,621z"/>
	<path fill="#3B2C1F" d="M236.8,613.2c-3.3,0-5,1.9-5,5.4c-1.8-0.8-3.3-1.9-5-2.7c2.3-3.8,0-7.3,0-10.8c0.8,0,1.8,0,2.5,0
		c2.8,0.5,4.5,2.2,6.5,3.8C237,610.2,237.8,611.5,236.8,613.2z"/>
	<path fill="#8B7A66" d="M231.7,621c0.8,1.1,1.8,1.9,2.5,3c-0.8,0.8-1.5,1.4-2.5,1.6c-1-0.3-1.8-0.8-2.3-1.9
		C230.2,622.6,231,621.8,231.7,621z"/>
	<path fill="#432C17" d="M234.2,626.7c0,1.1,0,1.9-0.3,3c-1.5,0-3.3-0.3-4.8-0.3c0-0.8,0-1.9,0-2.7c0.8-0.8,1.5-1.1,2.5-1.4
		C232.7,625.3,233.7,625.9,234.2,626.7z"/>
	<path fill="#5D4B39" d="M231.7,626.7c-0.8,0-1.8,0-2.5,0c0-1.1,0.3-2.2,0.3-3.2c0.8,0.3,1.5,0.3,2.3,0.5c0.8,0.5,1,1.1,0.8,1.6
		C232.2,626.4,232,626.7,231.7,626.7z"/>
	<path fill="#705642" d="M339.8,645.4c-1,7.3-6,5.1-10.3,5.7c-3.5,0.8-3.8-1.6-3.8-4.3c0.8-2.4,2.8-3.5,4.8-4.6c2-0.8,4-0.5,6-0.5
		c1,0,2,0.5,2.5,1.4C339.6,643.7,339.6,644.6,339.8,645.4z"/>
	<path fill="#563D2B" d="M339.3,642.9h-1.3h-1.3c-2.3-2.7-2-5.7,0-8.7c3.5-2.7,6.8-2.7,10,0.5c0,1.6,0,3.5,0,5.1
		C344.3,640.5,341.1,639.7,339.3,642.9z"/>
	<path fill="#7E6753" d="M327,646.2c0,2.2,0.5,4.1,2.5,4.9c3.5,4.6,8.5,1.9,12.8,2.7c-0.3,0.8-0.3,1.6,0,2.4c-4.5,0-8.8,0.3-12.8,3
		c-1.8,0.8-3.3,1.9-5,2.7c-3.3,0-5.3-1.6-6.8-4.9c-0.5-1.1-0.8-2.4-0.8-3.5c-0.3-2.4,0-5.1,1.3-7.3c0.8-1.1,1.8-1.9,2.8-2.2
		c1.3-0.3,2.3-0.3,3.5,0C325.5,644.3,326.5,645.1,327,646.2z"/>
	<path fill="#A38C79" d="M339.8,670c0-0.8,0-1.6,0-2.4c1.5,0,3,0,4.8,0C343.6,669.5,341.8,669.7,339.8,670z"/>
	<path fill="#6B4B38" d="M279.4,691.7c-1,0-1.8,0-2.8-0.3c-1.5-2.7-5.3-3.8-5-7.8c-0.5-0.5-0.8-1.1-0.8-1.9c0-0.8,0.3-1.1,0.3-1.1
		c2.8-2.4,6-0.8,9-1.4c3,0,6.3-1.4,9,1.6c0.8,0.8,1.8,1.9,2.5,2.7c0.5,0.5,0.8,1.1,0.8,1.9c0,0.8,0,1.1-0.3,1.1
		c-1.5,1.9-4,0.8-5.5,2.4c-0.8,0.8-1.5,1.9-2.3,2.7C282.9,693.3,281.1,693.3,279.4,691.7z"/>
	<path fill="#5A3F29" d="M291.9,686.2c0-0.8,0-1.9,0-2.7c5-3.2,8.5,1.1,12.5,2.7c-1,2.4-1.8,4.9-2.8,7.3c-0.8-0.5-1.5-1.4-2.3-1.9
		C297.2,689.5,292.7,690.8,291.9,686.2z"/>
	<path fill="#564238" d="M289.4,680.8c-3.3,0-6.8,2.4-10,0c-1.5-1.6-1.5-3.8-0.5-5.7c2.8-2.4,6-2.7,9.3-1.1c0.5,0.5,1,1.1,1.3,1.6
		C289.4,677.3,289.4,679.2,289.4,680.8z"/>
	<path fill="#695044" d="M302,670.3c-1.8,0-3.5,0-5.3-0.3c-2.8,2.2-4.5,1.1-6-1.6c-0.5-3,0.5-5.1,2.8-6.8c4.3-1.1,7.8,1.4,11.5,3
		c1,1.9,1,3.5,0,5.4C304.2,670.8,303.2,670.8,302,670.3z"/>
	<path fill="#422F19" d="M302,670.3c0.8-0.3,1.8-0.3,2.5-0.5c2.3-1.9,4.5-2.2,7.3-1.6c2.8,1.6,6,2.7,5.3,7.3h-0.5
		c-1.5,0.8-3,1.9-4.8,2.7c-2.8-3.2-7.5-1.9-10-5.4C302,671.9,302,671.1,302,670.3z"/>
	<path fill="#7A6650" d="M302,672.7c4.3-0.3,8,0.5,10,5.4C308,677.6,302.7,680,302,672.7z"/>
	<path fill="#7B6852" d="M291.9,667.3c1,2.2,3,2.4,5,2.4c0.3,6-4,5.4-7.5,5.7v-0.3c-2-2.2-2.3-4.9-1-7.6
		C289.7,666.5,290.7,666.5,291.9,667.3z"/>
	<path fill="#826D5F" d="M317,675.4c-1.8-1.6-3.5-3.5-5-5.1c-1.3-1.6-1.5-3.5-0.8-5.4c4.3-3,8.8-3.8,13.3-0.5c0,2.7,0,5.7,0,8.4
		C322,673.5,319.5,674.6,317,675.4z"/>
	<path fill="#543A30" d="M324.5,664.3c-4.3-0.5-8.3,3-12.5,0.5c-2.5,1.9-5,2.2-7.3,0c-4.5,3-7.5,0.3-10.3-3
		c-2.5,0.5-3.3-0.8-2.8-3.2c1-0.8,2-1.6,3-2.2c4-1.1,8-1.1,12-2.2c4.3,0.5,8.8-0.8,12.5,1.9c1.8,1.9,3.3,3.5,5,5.4
		C324.5,662.7,324.5,663.5,324.5,664.3z"/>
	<path fill="#5A3E2C" d="M271.9,680.8c0,0.8,0,1.9,0,2.7c-2,0-3.8,0.5-5,2.4c-2,0-4-0.5-5-2.4c0-2.7,0-5.4,0-8.1
		c1.5-1.6,3-1.9,5-1.6C269.6,675.4,272.9,676.2,271.9,680.8z"/>
	<path fill="#6D5134" d="M291.9,686.2c2.5,1.9,5,3.5,7.5,5.4c-4.5,0.3-8.8,0-12.5-2.7C287.9,686.8,289.9,686.2,291.9,686.2z"/>
	<path fill="#675136" d="M279.4,691.7c1.8,0,3.5,0,5.3,0c2,4.1-1.5,2.2-2.8,2.7C281.1,693.6,280.1,692.5,279.4,691.7z"/>
	<path fill="#624A35" d="M266.8,675.4c-1.8,0-3.5,0-5.3,0c-1.5-1.1-3.3-1.9-4.8-3c1.5-3.5,3.3-7.3,4.8-10.8c4.3-1.9,6.3,1.6,8.3,4.6
		c0.5,1.1,0.8,2.4,0.8,3.5C270.6,672.7,269.4,674.6,266.8,675.4z"/>
	<path fill="#9E8772" d="M349.6,615.9c1.8,0.8,3.3,1.9,5,2.7c-1.8,3-3.5,5.7-5.3,8.7c-1.3,1.9-2.8,3.8-5.3,3.2
		c-2.3-0.8-4-1.9-5.3-4.1c-0.5-3.2,0.8-6,2.8-8.1C344.1,616.7,346.8,616.4,349.6,615.9z"/>
	<path fill="#876F5D" d="M344.6,629.4c1.5-0.8,3.3-1.4,4.8-2.2c0,1.6,0.3,3.2,0.3,4.9c-0.8,0.8-1.5,1.6-2.5,2.4c-3.3,0-6.5,0-10,0
		c-0.3-0.5-0.3-1.1-0.5-1.6C338.3,629.7,340.8,628,344.6,629.4z"/>
	<path fill="#5A4939" d="M299.4,526.3c0-0.8,0-1.4-0.3-2.2c1,0,1.8-0.3,2.8-0.3c2,2.7,4.8,3.5,7.8,4.1c1.8,0.3,2.8,1.4,3.5,3
		c1,3.5,5,7.6-0.8,10.6c-5.3,0.3-10.5-0.3-14.3-4.6C296.4,533,296.9,529.5,299.4,526.3z"/>
	<path fill="#483124" d="M332,529.3c2.5,2.7,5,5.4,7.5,8.1c-0.3,1.9-1.3,3-2.8,3.8c-1.5,0.5-3,0.8-4.5,0.3c-2.5-1.1-4.3-3-6.5-4.6
		c-0.8-0.8-1.5-1.6-2-2.7c0-2.4,1-4.3,3.3-5.1C328.8,529.3,330.3,529.3,332,529.3z"/>
	<path fill="#513828" d="M327,529.3c-0.8,1.6-1.8,3.5-2.5,5.1c-3.3,3-5.5,1.4-7.8-1.4c-1.3-3.2,0.8-4.9,2.8-6.5
		C322.3,526.5,325.3,526,327,529.3z"/>
	<path fill="#413625" d="M309.5,529.3c-5.5,3-7.3-0.3-7.5-5.4c2.8,0,5.8-0.5,7.5,2.7c0.8,0.5,1.3,1.4,1,1.9
		C310,529,309.7,529.3,309.5,529.3z"/>
	<path fill="#574E3D" d="M309.5,529.3c0-0.8,0-1.9,0-2.7c3.3,0,6.8,0,10,0c-0.8,1.9-1.5,3.5-2.5,5.1c-1.8,1.9-3.5,1.6-5,0
		C311.2,530.9,310.2,530.1,309.5,529.3z"/>
	<path fill="#6B5347" d="M337.3,539.8c0.8-0.8,1.5-1.9,2.3-2.7c1.8,0,3.5-0.3,5-0.3c3,0.3,5,1.9,4.8,5.7c-0.8,0.8-1.8,1.1-2.8,1.1
		c-2-0.3-4-0.8-5.8-1.1c-1-0.3-2-0.8-2.8-1.4C337.8,540.9,337.6,540.3,337.3,539.8z"/>
	<path fill="#281A0F" d="M347.1,542.5c0.8,0.3,1.5,0.3,2.3,0.3c1.8,0,3.5-3,5.3,0.3c1,1.9,2,4.1,3,6c-0.3,0.5-0.5,1.4-0.5,2.2
		c-1.5,0-3,0.3-4.5,0.3c-4.3,1.4-8,1.9-9.5-4.1C343.3,544.4,343.6,541.7,347.1,542.5z"/>
	<path fill="#826759" d="M261.6,529.8c0.8,0.8,1.5,1.6,2.3,2.7c1.3,3.5-1.3,3.8-3.3,4.6c-1,0-2,0.3-3.3,0c-2,0-4,0.8-5.8,1.9
		c-1,0.5-2,0.8-3.3,0.8c-1.8,0-3.3-0.5-4.5-2.2c-1.3-3.8,0.8-6,3-8.4c0.8-1.1,1.8-1.9,2.5-3C253.3,527.6,257.6,528.7,261.6,529.8z"
		/>
	<path fill="#705A46" d="M246.8,529.3c-0.8,2.7-1.8,5.4-2.5,7.8c-2.3,2.4-4.8,2.4-7.5,0.8c-1.5-2.2-1.3-4.1,0.3-6.2
		c-0.8-1.9-1.8-3.5-2.5-5.4C238.5,527.6,242.5,528.4,246.8,529.3z"/>
	<path fill="#4C3A24" d="M221.7,539.5c-0.8,0.3-1.3,0.3-2,0.3c-0.3-2.2-0.8-4.3,2-4.9v0.3C223.2,536.6,223,537.9,221.7,539.5z"/>
	<path fill="#957356" d="M218.7,550.6c-1.5,0-3,0.3-4.8,0.3h0.3c-0.8-0.5-0.8-1.4-0.8-1.9c0.3-0.5,0.5-0.8,0.8-0.8l0,0
		c1.5,0.3,3,0.3,4.5,0.5C218.7,549.3,218.7,549.8,218.7,550.6z"/>
	<path fill="#AA8D71" d="M221,545.8c-0.8,0-1.3,0-2-0.3c0-0.8,0-1.9,0.3-2.7c0.5,0,1,0,1.5,0c0.5,0.3,1,0.3,1.5,0.5
		C222.5,544.4,222,545.2,221,545.8z"/>
	<path fill="#AB876E" d="M214.2,548.2c0,0.8,0,1.9,0,2.7c-0.8,0-1.8,0-2.5,0c0-0.8,0-1.9,0-2.7C212.4,548.2,213.4,548.2,214.2,548.2
		z"/>
	<path fill="#7C6A56" d="M221.7,539.5c0-1.6,0-3-0.3-4.6c1.8,0,3.5-0.3,5.3-0.3c0.5,0.8,0.8,1.6,0.8,2.7c-0.3,1.4-1,2.7-1.5,4.1
		c-0.5,0.8-1,1.6-1.8,2.2c-1,0.3-1.8,0-2.3-0.8h-1C221.2,541.7,221.5,540.6,221.7,539.5z"/>
	<path fill="#836553" d="M236.8,532c0,1.9,0,3.8,0,5.7c0.8,1.9-0.5,3-2,3.8c-1,0.3-2,0-3-0.5c-0.8-0.8-1-1.9-1-3
		c0.8-1.6,2.3-2.2,3.3-3.2C235,533.9,236,532.8,236.8,532z"/>
	<path fill="#685041" d="M231.7,537.1c0,1.1,0,1.9,0,3c0.8,0.5,1,1.1,1,1.6c0,0.8-0.3,1.1-0.3,1.1c-0.8,0.8-1.8,0.8-3,0.5
		c-0.8-0.5-1.5-1.6-1.8-2.7c-0.3-1.1-0.3-2.2,0-3.2c0.3-1.1,0.8-2.2,1.5-3c1,0,1.8,0.3,2.8,0.3c0.5,0.5,0.8,1.1,0.5,1.4
		C232.2,536.8,232,537.1,231.7,537.1z"/>
	<path fill="#5A4232" d="M231.7,537.1c0-0.8,0-1.4,0.3-2.2c0.8-0.3,1.5-0.3,2.3-0.3C233.5,535.5,232.5,536.3,231.7,537.1z"/>
	<path fill="#BEAD9D" d="M229.2,534.7c0.3,0.8,0.3,1.6,0,2.7c-0.5,0.3-0.8,0.8-1.3,1.1c-0.5-0.3-0.8-0.5-1.3-1.1c0-0.8,0-1.9,0-2.7
		C227.7,534.7,228.5,534.7,229.2,534.7z"/>
	<path fill="#897563" d="M347.6,602.3c1.5,0,3,0,4.5,0c0.8,2.7,1.5,5.4,2,7.8c-1.5,1.1-3,1.9-4.5,3c-3,0.8-5.5,3.2-8.8,3.5
		c-1,0-2-0.5-2.8-1.6c-1.5-2.7-2.8-5.1-1-8.4C340.1,604.5,343.6,602.6,347.6,602.3z"/>
	<path fill="#947F6A" d="M339.6,615.9c3.5-0.3,5.3-8.4,10-2.7c0,0.8,0,1.6,0,2.7c-0.5,6.8-4.3,4.3-7.5,3
		C339.8,619.4,339.1,618.3,339.6,615.9z"/>
	<path fill="#BC9F82" d="M354.9,567.1c0.8,0,1.5,0,2.3,0c0.5,0.5,0.8,1.1,0.8,1.6c-0.3,0.5-0.3,0.8-0.5,0.8c-3.8,3.8-7,8.4-12.8,8.4
		c-1.3,0.8-2.3,0.5-3-0.5c-0.8-3.5,0.8-6.5,3-8.9C347.8,566.6,351.1,565.5,354.9,567.1z"/>
	<path fill="#3F2507" d="M349.6,583.1c0,1.1,0,2.2,0,3.2c-0.8,0.8-1.8,1.4-2.8,1.4s-2-0.5-3-1.4c-1-1.6-1-3.2-0.5-4.9
		c0.3-0.5,0.8-0.8,1-1.4C346.3,580.9,347.8,582,349.6,583.1z"/>
	<path fill="#85694F" d="M342.1,577.7c0.8,0,1.8,0.3,2.5,0.3c0.3,0.8,0,1.4,0,2.2l0.3,1.1c-0.8,0.5-1.5,1.1-2.5,1.1
		c-1-0.3-1.8-0.5-2.5-1.4c-0.5-0.8-0.5-1.9-0.3-2.7C340.3,577.4,341.1,577.2,342.1,577.7z"/>
	<path fill="#9E8471" d="M357.4,569.6c-0.3-0.8-0.3-1.6-0.3-2.4c0.8-0.3,1.5-0.3,2-0.5c0.3,1.1,0.5,1.9,0.5,3h-1.3H357.4z"/>
	<path fill="#CEB496" d="M347.3,586.4c0.8-0.3,1.5-0.5,2.3-0.3c0,0.8,0,1.6,0,2.2c-0.8,0.3-1.5,0.3-2.5,0.5
		c-0.3-0.5-0.5-0.8-0.8-1.4C346.6,587.2,346.8,586.9,347.3,586.4z"/>
	<path fill="#AF966F" d="M347.1,589.1c-0.3,1.6-0.5,3-0.8,4.6c-1.5,3-4.3,3.5-7,3.2c-3-0.5-5.3-1.9-5.8-5.4c0.3-2.4,1.8-4.1,3.8-4.9
		C341.1,585.6,344.1,586.9,347.1,589.1L347.1,589.1z"/>
	<path fill="#68533D" d="M339.6,594.5c2.3-0.3,4.5-0.5,6.8-0.8c1,1.1,2.3,2.2,3.3,3.5c-0.8,0.8-1.8,1.6-2.5,2.7
		c-2.8,2.7-5.5,5.7-9.8,3.5C334.8,599.4,337.6,596.9,339.6,594.5z"/>
	<path fill="#58422C" d="M337.1,602.3c3.3-0.8,6.8-1.9,10-2.7c0.3,0.8,0.3,1.9,0.5,2.7c-2.3,4.3-5.8,6-10.3,5.4
		c-2,1.6-3.8,1.1-5.5-0.5C330.5,602.1,332,600.2,337.1,602.3z"/>
	<path fill="#46352C" d="M299.4,526.3c0,3.8,0,7.3,0,11.1c0.8,0.5,1,1.1,0.8,1.9c0,0.8-0.3,1.1-0.3,1.1c-1,0.5-2,1.1-3,0.8
		c-2.3-0.5-4-1.6-5.8-3c-1.5-1.9-2-4.1-2-6.2c0-0.8,0-1.6,0-2.4s0-1.6,0-2.4C292.7,526.5,296.2,526.5,299.4,526.3z"/>
	<path fill="#756055" d="M289.4,531.7c1.8,1.4,2.5,3.2,2.3,5.4c-2.5,3.2-6,3.5-9.3,3.8c-3.5,0-7,0-10-2.4c-1-1.1-1.3-2.4-0.5-4.1
		C277.1,529.5,284.1,538.2,289.4,531.7z"/>
	<path fill="#634B3C" d="M271.9,534.4c0,0.8,0,1.9,0,2.7c-1,3-2.8,4.9-5,6.5c-1,0.3-2.3,0.3-3.3,0c-2.8-2.2-6-4.1-4-8.7
		c1.5-0.8,3-1.6,4.3-2.4c2.5,0,5.3-0.3,7.8-0.3C271.9,532.8,271.9,533.6,271.9,534.4z"/>
	<path fill="#DAB8A0" d="M231.7,569c0-2.2,0-4.6,0-6.8c0.3-0.5,0.5-1.1,0.8-1.4c1-0.5,2-0.8,3-1.1c3.5,0,6.3,1.6,8.8,4.1
		c0.8,1.1,1,2.2,1.3,3.2c0,1.4-0.3,2.4-0.8,3.5c-1.3,2.2-3.3,3.5-5.5,3.8c-1.3,0-2.3,0-3.3-0.5C234.2,572.8,232.2,571.7,231.7,569z"
		/>
	<path fill="#A9907A" d="M224.5,558.8c-0.5-5.7,2.5-7.6,7-8.1c1.8,1.4,2.3,3,2.5,5.1c0,2.2-0.8,3.8-2,5.4v1.1
		C229.5,561.2,227,559.8,224.5,558.8z"/>
	<path fill="#4E301B" d="M231.7,569c2.3,0.5,4.8,0.3,5.8,3.2c-0.3,2.4-1,4.6-3.3,5.7c-1.8,0.3-3.5,3-5,0c-0.8-2.7-1.5-5.1-2.5-7.8
		C228.5,569.6,230,569.3,231.7,569z"/>
	<path fill="#967A66" d="M232,556.6c-0.3-1.9-0.3-4.1-0.5-6c-0.3-0.8-0.3-1.6-0.5-2.2c-0.5-1.4-0.3-2.7,0.5-3.8
		c1-0.8,2.3-1.1,3.5-1.6c5.3-0.5,8.5,1.9,10,7.3c0.3,2.2-0.8,3.8-2.5,4.9C239.3,556.9,235.7,558.2,232,556.6z"/>
	<path fill="#B19E8D" d="M232,545.5c-0.3,1.1-0.5,1.9-0.8,3c-1.3,0-2.8,0-4,0c-1-0.8-1.8-1.6-1.8-3c0.5-2.2,1.5-3.5,3.8-3
		c0.8,0,1.8,0,2.5,0c0.8,0.5,0.8,1.4,0.8,2.2C232.2,545.2,232,545.5,232,545.5z"/>
	<path fill="#412D18" d="M221.7,542.8c0.8,0,1.5,0,2.5,0c0.8,0.5,1.3,1.6,1.3,2.7s-0.5,1.9-1.3,2.7c-1-0.8-2.3-1.6-3.3-2.4
		C221.2,544.7,221.5,543.9,221.7,542.8z"/>
	<path fill="#7D6B58" d="M224.2,548.2c0-0.8,0.3-1.4,0.3-2.2c0.3-1.4,1-1.6,2-0.8c0.3,1.1,0.5,2.2,0.8,3
		C226.2,548.2,225.2,548.2,224.2,548.2z"/>
	<path fill="#3F2B27" d="M351.6,556.6c0.3,2.7,0.5,5.1,0.8,7.8c-2.5,3.2-6,3.8-9.5,4.6c-2.8-6.5-6.8,0.8-10-0.8c-1-0.8-1.8-1.6-2-3
		c-0.5-3.2,0.8-6,2.5-8.4c2.8-2.4,6.3-1.4,9.3-1.9C345.6,555,348.8,554.7,351.6,556.6z"/>
	<path fill="#342419" d="M344.6,548.5c2.5,0.8,5.3,1.9,7.8,2.7c-0.3,0.8-0.3,1.6-0.8,2.4c-2.8,3-6.3,2.2-9.5,1.6
		c-4,0.5-6.8-0.5-6-5.7c0.8-1.4,1.8-2.2,3-2.7C341.3,546.3,343.1,546.6,344.6,548.5z"/>
	<path fill="#7C6047" d="M342.1,567.1c3.5-0.8,6.8-1.9,10.3-2.7c0.8,0.8,1.8,1.9,2.5,2.7c-3.3,2.2-6.8,3.2-10.5,3.2
		C342.3,570.4,341.3,569.6,342.1,567.1z"/>
	<path fill="#5C4D41" d="M342.1,553.6c3.3,0,6.5,0,9.8,0c0,1.1-0.3,1.9-0.3,3c-3.3,3-6.3,1.6-9.5,0c-0.5-0.5-0.8-1.4-0.5-1.9
		C341.6,553.9,341.8,553.6,342.1,553.6z"/>
	<path fill="#614935" d="M266.8,645.6c1,0,1.8,0,2.8-0.3c1.5-1.6,3.3-3,5.5-3.5c1-0.3,2-0.5,3.3-0.8c2.3,0,4.3,1.1,5.8,3
		c1.8,2.4,3.5,4.6,4,7.6c-0.3,3.5-2.3,5.4-5,6.8c-2,1.1-4.3,1.6-6.5,1.9c-1,0-2.3-0.3-3.3-0.5c-3-2.2-6.5-3.5-7-8.4
		C267.3,649.7,265.8,647.5,266.8,645.6z"/>
	<path fill="#907C66" d="M236.8,624c0.8,0,1.5-0.3,2.5-0.5c2.5-2.2,5.5-3,8.8-3c1.8,0,3.8,0.3,5.5,0.5c2.3,0.5,4.5,1.9,6,3.8
		c0.5,1.1,1,2.2,1,3.5c-0.8,3.5-3.3,4.9-6.3,5.7c-2.5,0-5,0.3-7.3,0.3c-0.5,0-1,0-1.5,0c-1.5-0.3-2.8-1.4-3.8-2.7l0,0
		c-1.8-1.9-3.3-3.8-5-5.4c-0.8-0.5-1.3-1.1-0.8-1.6C236.2,624.3,236.5,624,236.8,624z"/>
	<path fill="#78634B" d="M254.3,634.3c1.8-1.6,3.3-3.2,5-4.9c2.8-3,6.3-3.2,9.8-2.2c1,0.5,2,1.1,2.8,2.2c1,2.2,0.5,4.6,0,6.8
		c-0.3,1.1-0.8,2.2-1.3,3c-0.5,0.3-0.8,0.8-1.3,1.1C264.3,638.3,259.3,636.4,254.3,634.3z"/>
	<path fill="#4F3628" d="M261.8,659.2c-3.3,0-6.8,0-10,0c-0.8-0.5-1.3-1.6-1.3-2.7c0-1.1,0.5-1.9,1.3-2.7c0-1.9,0-3.8,0-5.4
		c3.3,0,6.8,0,10,0c0.8,0.8,1.3,1.6,1.3,3C262.8,654,263.1,656.7,261.8,659.2z"/>
	<path fill="#4C3423" d="M261.8,651.1c0-0.8,0-1.9,0-2.7c1-2.2,3-2.7,5-2.7c-1.3,1.9,8.3,3.5,0,5.7c-0.8,0.8-1.5,1.4-2.5,1.4
		C263.3,652.4,262.3,651.9,261.8,651.1z"/>
	<path fill="#412913" d="M276.9,642.9c-1.8,3.2-4.8,2.4-7.3,2.4c0-0.8,0-1.9,0-2.7C271.9,640.8,274.4,640.5,276.9,642.9z"/>
	<path fill="#674F38" d="M276.9,642.9c-2.5,0-5-0.3-7.5-0.3c0-0.8,0-1.6,0-2.4l0.3-0.8c2.3-1.6,4.3-1.6,6.5-0.3
		C277.1,640.5,277.4,641.6,276.9,642.9L276.9,642.9z"/>
	<path fill="#3A2112" d="M249.3,640.2c-0.8-0.8-1.5-1.6-2.5-2.4C247.8,638.6,248.5,639.4,249.3,640.2z"/>
	<path fill="#5F4931" d="M246.8,637.5h-1.3h-1.3l-0.3,0.3c-0.5-0.8-0.8-1.4-0.8-2.2c0.3-0.8,0.3-1.1,0.5-1.1c1-0.8,2-0.5,3,0.3l0,0
		C246.8,635.6,246.8,636.4,246.8,637.5z"/>
	<path fill="#3F2618" d="M249.3,659.2c-1.8,0-3.3,0-5,0c-0.8-0.5-0.8-1.1-0.8-1.9c0.3-0.5,0.5-0.8,0.8-0.8l0,0c0.8,0,1.8,0,2.5-0.3
		c0.8,0,1.8,0,2.5,0c0.3,0.5,0.8,0.8,1,1.4C250,658.4,249.5,658.6,249.3,659.2L249.3,659.2z"/>
	<path fill="#492F22" d="M251.8,653.8c0,0.8,0,1.6,0,2.7c-0.8,0.8-1.8,1.1-2.5,0l0,0C250,655.7,251,654.8,251.8,653.8z"/>
	<path fill="#776048" d="M244.3,634.8c0,1.1-0.3,1.9-0.3,3c-0.8-0.3-1.5-0.3-2.3-0.3c-0.8,0-1.8,0-2.5,0.3c-0.8-1.1-1.5-1.9-2.3-3
		c1.8,0,3.3,0,5,0C242.8,633.7,243.5,633.7,244.3,634.8z"/>
	<path fill="#543B28" d="M261.8,651.1c0.8,0,1.8,0,2.5,0c1.5,4.6,6.3,6.2,8.3,10.6c0.3,2.7-0.8,4.6-3.3,5.7c-2.5-1.9-5-3.5-7.5-5.4
		c0-0.8,0-1.6,0-2.7C260.3,656.5,260.3,653.8,261.8,651.1z"/>
	<path fill="#5F4638" d="M249.3,656.5c0.8,0,1.8,0,2.5,0c0,0.8,0,1.9,0,2.7c-0.8,0-1.8,0-2.5,0C249.3,658.4,249.3,657.3,249.3,656.5
		z"/>
	<path fill="#7B6254" d="M244.3,656.5c0,0.8,0,1.9,0,2.7c-0.8,0-1.8,0-2.5,0c0-0.8,0-1.9,0-2.7C242.5,656.5,243.5,656.5,244.3,656.5
		z"/>
	<path fill="#7B6853" d="M236.8,624c0,0.8,0,1.6,0,2.4c-0.8,0-1.8,0-2.5,0s-1.8,0-2.5,0c0-0.8,0-1.9,0-2.7c0.8,0,1.8,0,2.5,0
		C235,624,236,624,236.8,624z"/>
	<path fill="#523C24" d="M244.3,634.8H243h-1.3c0-0.8-0.3-1.9-0.3-2.7c2,0.5,4.3,0.3,5.3,2.7C246,634.8,245,634.8,244.3,634.8z"/>
	<path fill="#735844" d="M231.2,586.1c1-0.8,2-1.9,3-2.7c1.8-1.6,3.8-2.4,6-2.2c4.3,1.1,6.5,3.5,4.3,8.4c-3.5,2.4-6.8,2.4-10-0.5
		C233.2,588,232.2,587.2,231.2,586.1z"/>
	<path fill="#432B15" d="M234.2,589.1c3.3,0,6.8,0.3,10,0.3c1.3,0.5,2.3,1.4,2.8,2.7c0.3,1.6,0,2.7-1.3,3.5c-2.3,1.6-5,1.9-7.5,1.9
		c-3-0.8-7-0.5-6.5-6C232.5,590.7,233.5,589.9,234.2,589.1z"/>
	<path fill="#5C463F" d="M231.7,591.5c1.8,3.2,4.8,2.7,7.5,3c1.5,1.9,1.5,4.1,0,6c-2.8,1.6-5.3,1.4-7.5-0.8
		c-0.8-0.8-1.8-1.9-2.5-2.7C229.2,594.8,229.7,592.6,231.7,591.5z"/>
	<path fill="#564436" d="M234,610.5c-1.5-1.9-3.3-3.5-4.8-5.4c0.8-0.8,1.8-1.6,2.5-2.7c5.8-2.4,11.3-1.4,16.8,1.1
		c1,0.8,1.8,2.2,2,3.5c0,2.2-1,3.8-2.8,5.1C242.8,615.6,238.8,608.8,234,610.5z"/>
	<path fill="#301B12" d="M249.3,604.8c-5.8-0.8-11.8-1.6-17.6-2.4c0-0.8,0-1.9,0-2.7c2.5,0,5,0,7.5,0c3.8-3.2,7-2.4,9.8,1.4
		C249.8,602.3,249.8,603.4,249.3,604.8z"/>
	<path fill="#624028" d="M239.3,583.4c-1.8,0-3.5,0-5,0c0-1.9,0-3.5,0-5.4c0.3-2.4,1-4.6,3.3-5.7c0.8,0,1.3,0,1.8,0.5
		c1.5,1.4,2.3,3.2,2.3,5.1C241.5,580.1,240.5,581.8,239.3,583.4z"/>
	<path fill="#4B3A29" d="M249.3,623.4c-3.3,0-6.8,0-10,0c0-2.4,0-5.1,0-7.6c2.3-2.4,5-2.7,8-1.9C251,616.4,252,619.4,249.3,623.4z"
		/>
	<path fill="#372618" d="M246.8,615.9c-2.5,0-5,0-7.5,0c-0.8-0.8-1.8-1.9-2.5-2.7c-1-0.8-1.8-1.9-2.8-2.7c4.3-4.6,8.3,1.9,12.5,0.3
		C248.3,612.3,248.3,614,246.8,615.9z"/>
	<path fill="#8B705E" d="M337.1,634.8c0,2.7,0,5.4,0,8.1c-1.8,3-3.5,0.3-5.3,0c-1.5,1.6-3.3,1.4-5,0.8c-1.5-1.4-2-3.2-2-5.1
		c0-1.4,0.5-2.4,1-3.5c0.8-0.8,1.8-1.4,3-1.6C331.8,633.7,334.6,633.5,337.1,634.8L337.1,634.8z"/>
	<path fill="#B59A85" d="M326.8,642.7c1.8,0,3.3,0.3,5,0.3c-0.8,2.7-2.8,2.7-4.8,3.2c-0.8-0.3-1.5-0.5-2.3-0.8c-0.8-0.5-1-1.1-1-1.6
		s0.3-1.1,0.3-1.1C325,641.9,326,641.9,326.8,642.7z"/>
	<path fill="#796352" d="M319.5,645.6c0,2.7,0,5.4,0,8.1c-7,0-14.3,1.1-21.3-0.8c-1.3-0.8-2-1.9-2.5-3.2c-0.5-3,0.5-5.4,2.8-7.3
		c1-0.5,2.3-1.1,3.5-1.1c4.8,0.8,9.8,0.5,14.5,1.9C317.8,643.7,318.8,644.6,319.5,645.6z"/>
	<path fill="#4F3721" d="M296.9,651.1c7.5,0.8,15.3-2.2,22.6,2.7c0,0.8,0,1.9,0,2.7c-4.3,1.4-8.3,1.1-12.5,0c-3.8,2.4-7,1.4-10-1.6
		C296.2,653.5,296.2,652.4,296.9,651.1z"/>
	<path fill="#604736" d="M319.5,645.6c-1-0.3-2-0.3-2.8-0.5c-0.5-1.1-0.5-2.2,0.3-3c1-0.5,1.8-0.8,3-1.1c1,0.3,2,0.5,2.8,1.4
		c0.5,1.1,0.5,2.2-0.3,3C321.5,645.6,320.5,645.6,319.5,645.6z"/>
	<path fill="#A1846F" d="M322.3,645.6c0-0.8,0-1.6,0-2.4c0.8-0.8,1.8-0.8,2.3,0.3c0,0.5,0,1.1,0,1.6
		C324,645.4,323.3,645.6,322.3,645.6z"/>
	<path fill="#5E4536" d="M266.8,675.4c0.8-1.9,1.8-3.8,2.5-5.7c2-1.6,4-0.3,6,0.5c2,1.1,3.5,2.4,4,5.1c0,1.9,0,3.5,0,5.4
		c-2.5,3.2-5-0.8-7.5,0C270.1,678.9,268.6,677.3,266.8,675.4z"/>
	<path fill="#6D5843" d="M279.4,675.4c-1.8-1.1-3.3-1.9-5-3c-1-4.6,2.3-6.2,4.8-8.7c4-0.5,8-1.6,10.3,3.2c0,2.7,0,5.4,0,7.8
		C286.2,675.4,282.6,675.4,279.4,675.4z"/>
	<path fill="#62483D" d="M289.4,667.3c-3.3-0.8-6.8-1.9-10-2.7c-5.3,1.9-7,0.3-5-5.4c2.5-0.8,5-1.9,7.5-2.7c3.3,1.9,7.8-1.6,10,3
		c0.8,0.8,1.5,1.6,2.5,2.4c-0.8,1.9-1.8,3.8-2.5,5.4h-1.3H289.4z"/>
	<path fill="#7A6255" d="M304.7,664.9c2.5,0,5,0,7.3,0c0,1.9,0,3.5-0.3,5.4c-2.5-0.3-4.8-0.3-7.3-0.5
		C304.7,668.1,304.7,666.5,304.7,664.9z"/>
	<path fill="#977E67" d="M291.9,659.4c-3.5-1.1-7.5,1.4-10-3c1.5-1.9,3.3-3.5,4.8-5.4c1.8-2.7,4.5-3.2,7.3-4.1c1.3,0,2.3,0.3,3,1.4
		c0,0.8,0,1.6,0,2.7c0,0.8,0,1.6,0,2.7c1.3,3.2-1,4.1-2.8,5.1C293.4,658.9,292.7,659.2,291.9,659.4z"/>
	<path fill="#725942" d="M294.2,658.9c1-1.6,2-3.5,2.8-5.1c3,1.9,6.3,3.2,9.8,2.7C303.2,661.1,298.4,658.6,294.2,658.9z"/>
	<path fill="#745C4B" d="M274.4,659.2c0,3.5,1.8,5.4,5,5.4c0.5,4.1-3.5,5.1-5,7.8c-1.8-0.8-3.3-1.6-5-2.7c0-0.8,0-1.9,0-2.7
		c0.8-1.6,1.8-3.5,2.5-5.1C270.9,659.4,272.1,658.6,274.4,659.2L274.4,659.2z"/>
	<path fill="#73604B" d="M337.1,634.8c-2.5,1.6-5,1.6-7.5,0c-0.8-0.5-1-1.6-0.8-2.7c1.8-1.4,1.3-2.4,0-3.5c0-1.1,0-2.2,0.5-3.2
		c1-1.4,2.3-2.4,3.8-3c3.3-0.5,5.3,1.1,6.8,4.1c2,0.3,4,0.5,4.8,3C342.1,631.3,339.6,632.9,337.1,634.8z"/>
	<path fill="#97826E" d="M339.8,626.4c-2.5-0.8-5-1.6-7.8-2.4c-1.5-1.9-1.5-3.8-0.8-6c2.3-3.2,4.8-4.9,8.3-2.4v0.3
		c0.8,0.8,1.8,1.9,2.5,2.7C341.3,621.3,340.6,624,339.8,626.4z"/>
	<path fill="#70584C" d="M299.4,539.8c0-0.8,0-1.6,0-2.4c5,0.8,10,1.9,15,2.7c0.3,0.5,0.5,1.1,0.8,1.4c-0.3,1.1-0.8,2.2-1.5,2.7
		c-1,0.5-2,0.8-3,1.1c-1.5,0.3-3.3,0.3-4.8,0.3c-1,0-2.3-0.3-3.3-0.5C300.4,544.1,297.9,543.3,299.4,539.8z"/>
	<path fill="#7B6D5B" d="M312,531.7c1.8,0,3.5,0,5,0c2.3,1.4,4.5,3.2,7.5,2.4c0.8,0.3,1.5,0.3,2.3,0.3c1,2.4-0.5,3.5-2,4.6
		c-3.5,1.4-6.8,2.7-10.3,0.5l0,0C315.7,536.6,310.2,535.5,312,531.7z"/>
	<path fill="#5B493C" d="M324.3,537.6c0.8-1.1,1.8-1.9,2.5-3c2.8,0.8,4.3,2.7,5.3,5.4c-0.5,0.8-1.5,1.4-2.3,1.9c-1,0.3-2,0.3-3,0
		c-1-0.3-1.8-0.8-2.8-1.4C323.5,539.5,323.5,538.7,324.3,537.6z"/>
	<path fill="#46372B" d="M329.5,540.1c0.8,0,1.8,0,2.5,0c1.8,0,3.5,0,5-0.3h-0.3c0.8,0.8,1.3,1.6,1.5,2.7c0,0.5,0,1.1,0,1.6
		c-0.3,0.5-0.5,1.1-0.5,1.4c-0.8,0.8-1.8,1.1-2.8,1.1c-1.5-0.3-2.8-1.1-4-1.9c-0.8-0.5-1.5-1.4-2-2.2
		C328.8,541.7,328.8,540.9,329.5,540.1z"/>
	<path fill="#4C3B30" d="M344.6,548.5c-1.8,0-3.5,0-5.3-0.3c-0.8-0.5-1.3-1.6-1-2.4c0-1.1,0-1.9,0-3s0.5-1.9,1.3-2.7
		c2.8,0,5.5-0.5,7.5,2.4C344.8,543.9,344.8,546,344.6,548.5z"/>
	<path fill="#291A0E" d="M339.6,540.1c0,0.8,0,1.9,0,2.7c-0.8,1.1-1.5,1.1-2.5,0.3c0-1.1,0-1.9,0-3
		C337.8,540.1,338.8,540.1,339.6,540.1z"/>
	<path fill="#B8A795" d="M244.5,551.4c-2.8-3.2-5.5-7-10.5-6c-1.5-1.9-1.5-3.5,0-5.4c0.8-0.8,1.8-1.6,2.5-2.4c2.5-0.3,5-0.3,7.5-0.5
		c1.5,0,2.8,0.3,4.3,0.3c3,4.9,3.8,9.5-0.8,13.8C246.8,551.7,245.8,551.7,244.5,551.4z"/>
	<path fill="#725C51" d="M246.5,550.6c3.8-3.8-0.5-8.9,1.8-13c1,0,2,0,3.3-0.3c2.8,1.4,4.5,4.3,7.5,5.1c1.5,0.8,3,1.6,3.8,3.2
		c0.5,1.9,0.5,3.8-0.5,5.7c-1.5,2.4-3.5,3.8-6,4.3C252.3,556,248.8,554.7,246.5,550.6z"/>
	<path fill="#AC9787" d="M256.8,545.5c-3.3-1.6-4.8-4.3-5-7.8c0.8-3.5,1.3-7.3,5.5-2.7C258.8,538.2,259.6,542,256.8,545.5z"/>
	<path fill="#887262" d="M256.8,545.5c0-3.5,0.3-7.3,0.3-10.8c0.8,0,1.8,0,2.5,0c1.8,2.7,3.3,5.4,5,8.4c0.3,2.2-0.5,3-2.5,2.7
		C260.3,545.5,258.6,545.5,256.8,545.5z"/>
	<path fill="#4B3A2A" d="M226.5,545.2c-0.8,0.3-1.3,0.5-2,0.8c0-1.1-0.3-2.2-0.3-3.2c0-0.8,0-1.6,0-2.4c0.8-0.8,1.5-1.4,2.5-1.6
		c1,0,1.8,0.5,2.5,1.4c0,0.8,0,1.4-0.3,2.2C228.2,543.3,227.2,544.1,226.5,545.2z"/>
	<path fill="#907969" d="M234.2,540.1c0,1.9,0,3.5,0,5.4c-0.8,0-1.5,0-2.3,0c0-1.1,0-2.2-0.3-3.2c0-0.8,0-1.6,0-2.2
		C232.5,540.1,233.5,540.1,234.2,540.1z"/>
	<path fill="#766556" d="M226.5,540.1c0.3-0.8,0.3-1.6,0-2.7c0.8,0,1.8,0,2.5,0c0,0.8,0,1.9,0,2.7
		C228.2,540.1,227.5,540.1,226.5,540.1z"/>
	<path fill="#6B5542" d="M339.6,615.6c-2.5,1.1-5,2.2-7.3,3c-2.8-0.8-3.8-3-4-5.7c0.3-2.2,1-3.8,2.5-4.9c0.5-0.3,1.3-0.3,1.8-0.5
		c1.5,0,3.3,0.3,4.8,0.3C338.1,610.5,338.8,613.2,339.6,615.6z"/>
	<path fill="#DAC0A5" d="M342.1,567.1c0.8,1.1,1.5,2.2,2.3,3.2c-0.8,2.4-1.5,4.9-2.5,7.3c-0.8,0.3-1.8,0.3-2.5,0.3
		c-0.5,0-1,0-1.5,0.3c-2,0-4-0.5-5.8-1.9c-1.3-1.1-1.8-2.7-2-4.3c0-1.1,0.3-2.2,0.8-3.2c0.5-0.3,0.8-0.8,1.3-1.1
		C335.6,567.1,338.6,559.3,342.1,567.1z"/>
	<path fill="#91765A" d="M347.3,588.8c-3.5,0-7,0-10.5-0.3c-0.3-1.1,0-2.2,0.8-3.2c1.3-1.1,2.8-1.4,4.5-1.4c1,0.3,2,1.1,2.8,1.6
		c0.8,0.3,1.8,0.3,2.5,0.5C347.1,587.2,347.1,588,347.3,588.8z"/>
	<path fill="#5B3F24" d="M344.6,585.8c-0.8,0-1.8,0-2.5,0c-0.8-0.5-1.3-1.4-1.5-2.4c0-1.1,0.5-1.9,1.3-2.4c1,0,1.8,0.3,2.8,0.3
		C344.8,582.8,344.8,584.2,344.6,585.8z"/>
	<path fill="#4F3218" d="M342.1,580.9c0,0.8,0,1.6,0,2.4c-1.3,0.5-2.3,0.3-3-0.8c0-0.5,0.3-1.4,0.3-1.9
		C340.3,580.7,341.1,580.7,342.1,580.9z"/>
	<path fill="#D3B69D" d="M339.6,578c0,0.8,0,1.9,0,2.7l0.3,0.3c-1,0.8-2,0.8-3-0.3C336.8,578.2,337.3,576.6,339.6,578L339.6,578z"/>
	<path fill="#755E44" d="M337.1,602.3c-3,0.3-5,1.6-4.5,5.4L332,608c-2,0.8-3-0.5-4-2.4c-0.3-1.1-0.5-2.4-0.3-3.8
		c0.8-3.8,1.5-7.3,4-10c1-0.8,2-0.8,3,0c1.8,1.1,3.3,1.9,5,3C338.8,597.2,337.8,599.6,337.1,602.3z"/>
	<path fill="#664A30" d="M334.8,591.5c-0.8,0-1.8,0-2.5,0c-0.5-0.3-0.8-0.8-1.3-1.1c-1-2.4-1-4.6,0.3-6.8c0.8-0.8,1.8-1.1,3-1.1
		c1,0.5,2,1.1,2.5,2.2c0.3,0.5,0.3,1.1,0.5,1.6c-0.3,0.8-0.3,1.6-0.5,2.4C336.1,589.6,335.3,590.7,334.8,591.5z"/>
	<path fill="#3F291F" d="M281.9,537.6c3.3-0.3,6.5-0.3,9.8-0.5c2.3,0.3,4.3,0.5,5.3,3c-0.3,5.4-4,5.1-7.3,5.7
		c-2.8,0-5.5-0.5-7.8-2.4C280.6,541.7,280.4,539.5,281.9,537.6z"/>
	<path fill="#755D53" d="M289.4,543.1c2.8-0.5,5.8,0.5,7.5-2.7c0.8-0.3,1.5-0.3,2.3-0.3c1,2.2,3,2.7,5,3c0.8,2.7-0.8,3.8-2.8,4.9
		c-4,1.4-8,1.4-11.5-0.8C288.9,545.8,288.7,544.4,289.4,543.1z"/>
	<path fill="#382616" d="M281.9,537.6c0,1.6,0,3,0,4.6c-3.5,4.9-8,2.4-12.3,2.4c-1-0.3-2-1.1-2.8-1.9c0-3.8,2-5.4,5.3-5.7
		C275.4,537.4,278.6,537.4,281.9,537.6z"/>
	<path fill="#3D2720" d="M266.8,542.8c0.8,0,1.5,0,2.3,0c2.5,1.4,4.3,3,4,6.2c-2,4.9-5.8,4.9-9.8,3.2c-0.5-0.5-1-1.1-1.5-1.4
		c0-1.6,0.3-3.5,0.3-5.1c0.8-0.8,1.8-1.9,2.5-2.7C265.3,542.8,266.1,542.8,266.8,542.8z"/>
	<path fill="#856849" d="M239.3,578c0-1.6,0-3.5,0-5.1c1.8-1.1,3.5-2.2,5.3-3.5c2-1.9,4.5-1.9,7-1.6c3.5,1.1,7.3,1.6,10.8,2.7
		c3.5,1.6,8,1.4,10.3,5.7c0,1.6-0.8,3-2,3.8c-7.5,3.2-15.5,1.6-23.3,1.6C244.3,580.9,241.5,580.1,239.3,578z"/>
	<path fill="#533420" d="M232,556.6c3-2.7,6.3-3.5,10-2.4c2.5,0.8,6.3,0.5,4.8,5.4c-4,4.1-9-1.6-13,1.9h-1l-1-0.3
		C232,559.8,232,558.2,232,556.6z"/>
	<path fill="#A38875" d="M234,561.5c3.3-6,8.5-1.6,12.8-3c1-0.5,2-0.5,2.8,0.3c0.5,1.1,0.5,2.2,0,3.2c-0.8,1.4-2,2.4-3.5,3
		c-0.5,0-1,0.3-1.5,0.3C241,563.9,237.5,562.5,234,561.5z"/>
	<path fill="#422D1E" d="M249.3,559c-0.8-0.3-1.8-0.5-2.5-0.8c-1.5-1.4-3-2.7-4.8-4.1c1-1.1,1.8-1.9,2.8-3c0.8-0.3,1.3-0.3,2-0.5
		c3.5,1.1,6.8,2.2,10.3,3.2c0.5,1.1,0.3,1.9-0.3,2.7c-0.8,0.8-1.3,1.4-2.3,1.9C252.8,559.6,251,560.6,249.3,559z"/>
	<path fill="#3D2F23" d="M334.6,556.6c-0.8,2.7-1.8,5.1-2.5,7.8c-1.3,1.6-2.5,1.6-4.3,1.1c-1-0.5-1.8-1.4-2.5-2.2
		c-1-1.4-1.5-3-2-4.6c0-1.1,0.3-2.2,1-3.2c2.3-1.9,4.5-3,7.5-2.7C333.3,553.6,334.3,554.7,334.6,556.6z"/>
	<path fill="#504038" d="M334.6,556.6c-0.8-1.1-1.8-1.9-2.5-3c-1-1.9-0.3-3.5,0.8-5.1c0.5-0.3,1-0.8,1.3-1.1c0.5,0,1.3-0.3,1.8-0.3
		c0.5,0.3,1,0.8,1.5,1.1c-0.3,3.8,1.5,5.4,4.8,5.4c0,1.1,0,1.9,0,3C339.6,560.4,337.1,557.1,334.6,556.6z"/>
	<path fill="#503E2E" d="M327,564.4c1.8,0,3.3,0,5,0c0,1.1,0,1.9,0,3l0,0c-1.5,1.6-3,1.4-4.5,0.5c-0.3-0.5-0.8-1.1-1-1.6
		C326.8,565.5,326.8,565,327,564.4z"/>
	<path fill="#312619" d="M339.6,545.8c-0.3,0.8-0.3,1.6-0.3,2.4c-0.8,0-1.5,0-2.3,0h-0.3c-0.8-0.5-1-1.1-0.8-1.9
		c0.3-0.5,0.5-0.8,0.8-0.8l0,0C338.1,544.4,338.8,544.7,339.6,545.8z"/>
	<path fill="#7A6558" d="M294.4,648.6c-2,3-5,2.2-7.8,2.4c-1.5-1.9-3.3-3.5-4.8-5.4c1.5-1.9,0.5-4.9,2.3-6.8c2-1.9,4-2.7,6.5-1.4
		C293.4,640.5,297.7,642.9,294.4,648.6z"/>
	<path fill="#705745" d="M274.4,659.2c-0.8,0.8-1.8,1.9-2.5,2.7c-4.3-2.2-8.5-4.3-7.3-10.8c0.8,0,1.5,0,2.5,0
		C268.9,654.6,273.4,654.8,274.4,659.2z"/>
	<path fill="#6B5840" d="M284.1,640.2c0,2.2-0.5,4.1-2.5,5.4c-1-2.2-3-2.7-5-2.7c0-0.8,0-1.6,0-2.4c0.5-0.5,0.8-0.8,1.3-1.4
		C280.4,638.1,282.6,638.1,284.1,640.2z"/>
	<path fill="#4B3A2A" d="M246.8,615.9c0-1.9,0-3.5,0-5.4c1-1.1,2-2.2,2.8-3c2.8-2.4,5.8-3,9-1.4c1.8,1.4,2.3,3,2.3,5.1
		c-0.3,1.9-1,3.5-2.3,4.9c-1.8,2.2-2.8,4.9-4.3,7c-1.8,0-3.3,0-5,0C249.3,620.7,249.5,617.8,246.8,615.9z"/>
	<path fill="#614F3A" d="M271.9,629.4c-4.3,0-8.5,0-12.8,0c0-0.8,0-1.6,0-2.4c-1.3-1.9-0.3-3,0.8-4.3c1.3-1.1,2.5-1.9,4.3-2.2
		c2.5-0.3,5-0.3,7.5,0.5c1.3,1.1,1.8,2.7,2,4.3c0,1.1-0.3,2.2-0.8,3.2C272.6,628.6,272.4,629.1,271.9,629.4z"/>
	<path fill="#352615" d="M261.8,624c-0.8,1.1-1.8,1.9-2.5,3c-1.8-1.1-3.3-2.2-5-3.2c-1.8-3.5-3.8-7.3,2.5-7.8
		C261.1,616.7,264.8,618,261.8,624z"/>
	<path fill="#927B64" d="M276.9,640.2c-2.5-0.3-5-0.5-7.3-0.8c0-0.5,0-1.4-0.3-1.9c0.8-0.8,1.8-1.6,2.8-1.9c1.8-0.3,3.5,0,5,1.4
		C277.9,638.1,277.6,639.1,276.9,640.2L276.9,640.2z"/>
	<path fill="#503829" d="M271.9,637c-0.8,0.3-1.8,0.3-2.5,0.5c0-2.4,0.5-4.6,2.8-6l0.8,0.8c0.5,0.8,0.5,1.6,0.5,2.4
		C273.1,636.2,272.6,636.7,271.9,637z"/>
	<path fill="#8A7760" d="M272.1,631.6c0-0.8-0.3-1.4-0.3-2.2l0,0c1.3-0.5,2-0.3,2.8,0.8c0,0.5,0,1.4,0,1.9c-1,0.8-2,1.1-3,0.3
		L272.1,631.6z"/>
	<path fill="#503319" d="M239.3,578c2.5,0,4.8,0.3,7.3,0.3c2.5,1.4,4.5,3,4.3,6.5c-0.3,1.6-1,3.2-1.8,4.9c-0.3,0.5-0.8,0.8-1,1.4
		c-0.5,0.3-1,0.5-1.5,0.8c-0.8-0.8-1.5-1.6-2.3-2.4c0-3.8-1.5-6-5-6C239.3,581.5,239.3,579.6,239.3,578z"/>
	<path fill="#4C3524" d="M246.8,594.2c0-0.8,0-1.6-0.3-2.4l0.5-0.3c7.8-4.6,16-2.7,24.1-1.1c2.8,2.7,1,4.9-0.5,7.3
		c-1.8,1.9-4.3,3.2-6.5,4.1c-5.3,1.6-10,0.5-14.3-2.4C248,598,247,596.4,246.8,594.2z"/>
	<path fill="#594331" d="M246.8,594.2c0.8,0.8,1.8,1.9,2.5,2.7c1.3,1.4,1.5,2.7,1,4.6c-0.3,0.5-0.8,0.8-1,1.4c-3-2.2-6.3-3.2-10-3
		c0-1.6,0-3.5,0-5.1C241.8,594.2,244.3,594.2,246.8,594.2z"/>
	<path fill="#3D291A" d="M259.3,607.7c-3.3,0-6.5,0-9.8-0.3c0-0.8-0.3-1.9-0.3-2.7c0-0.8,0-1.6,0-2.2v-0.3c4-3.2,7-1.4,10,1.6
		C260.1,605.3,260.1,606.4,259.3,607.7z"/>
	<path fill="#908168" d="M327,634.8c0,0.8,0,1.9,0,2.7c-0.8,0.8-1.8,1.4-2.8,1.4s-2-0.5-3-1.1c-1.8-1.4-2.8-3.2-2.5-5.7
		c0.8-0.8,1.5-1.6,2.5-1.9c1,0,2,0,3,0.5C325.8,631.8,326.8,633.2,327,634.8z"/>
	<path fill="#5A3924" d="M324.5,638.1c0.8-0.3,1.5-0.3,2.3-0.5c0,1.6,0,3.5-0.3,5.1c-0.8,0.3-1.5,0.5-2.3,0.8
		c-0.8-0.3-1.5-0.3-2.3-0.3c-1,0-2-0.3-3-0.3c-0.5-0.8-0.5-1.9,0-2.7c0.8-0.8,1.5-1.4,2.5-1.4C322.8,638.6,323.8,638.6,324.5,638.1z
		"/>
	<path fill="#7D6D55" d="M327,634.8c-0.8-1.1-1.8-1.9-2.5-3c-0.8-2.2,0.5-3,2-3.2c1.5,0.8,2.5,1.9,3,3.5c0,0.8,0,1.6,0,2.7
		C328.8,634.8,327.8,634.8,327,634.8z"/>
	<path fill="#756449" d="M302,642.9c-0.8,0-1.5,0-2.3,0c-3.5-0.8-6.5-2.4-8.8-5.7c-1.5-6,2-7.8,6.3-9.2c2.3-0.3,4.3,0.5,6,2.2
		c0.8,0.8,1.3,1.6,1.8,2.7c0.3,1.6,0.3,3,0,4.6c0,1.6,0.3,3,0,4.6C304.2,643.5,303.5,644.6,302,642.9z"/>
	<path fill="#5E4D34" d="M291.9,637.5c3.8,0,6,2.2,7.5,5.4c-1,1.9-1.8,3.8-2.8,5.4c-0.8,0-1.8,0-2.5,0.3c-1.8-3.8-3.3-7.6-5-11.1
		c0.5-0.3,0.8-0.8,1.3-1.1C291.2,636.7,291.7,637,291.9,637.5z"/>
	<path fill="#362113" d="M302,642.9c1-0.8,1.8-1.6,2.8-2.4c0.5-0.3,0.8-0.5,1.3-1.1c1,0,2,0,3,0.3c1.5,0.3,3,0.5,4.5,1.1
		c1.5,0.5,2.8,1.1,3.8,2.7c0,0.8,0,1.4-0.3,2.2C311.7,644.8,306.2,648.3,302,642.9z"/>
	<path fill="#7D6C51" d="M316.7,643.2c-1.5-0.3-3.3-0.3-4.8-0.5c-1.5-1.1-1.5-2.7-1.3-4.3c0.5-1.1,1.3-1.6,2.5-1.9
		c2.3,0,4,1.1,5.5,2.7c0.3,0.5,0.5,1.1,0.8,1.4c0,0.8,0,1.6,0,2.4C318.5,642.9,317.8,643.2,316.7,643.2z"/>
	<path fill="#6D5946" d="M329.5,612.9c1,1.9,1.8,4.1,2.8,6c0,1.6,0,3.5-0.3,5.1c-0.8,0.8-1.5,1.6-2.3,2.7c-1,1.6-2.5,1.4-3.8,1.4
		c-1.3,0.3-1.8-2.4-3.3-0.8c-1,0.3-2,0.3-2.8-0.3c-1.3-1.1-1.8-2.7-2-4.3c0-3,1.3-5.4,3.5-7.3c1.8-0.8,3.8-1.6,5.5-3
		C327.5,612.1,328.5,612.3,329.5,612.9z"/>
	<path fill="#C0B099" d="M324.3,626.2c1.8,0,3.5,0.3,5.3,0.3c0,0.8,0,1.9-0.3,2.7c-0.5,1.1-1.3,1.4-2.3,0.5c-1,0.8-2,1.4-3,2.2
		c-1,0-2,0-2.8,0.3c-1-1.9-1-3.8,0.8-5.1h-0.3C322.8,625.9,323.5,625.9,324.3,626.2z"/>
	<path fill="#4F3E27" d="M327.3,629.9c0.8-0.3,1.5-0.5,2.3-0.5c0.3,0.5,0.8,1.4,1,1.9c0,0.3-0.5,0.5-1,0.8
		C328.8,631.3,328,630.8,327.3,629.9z"/>
	<path fill="#52403A" d="M302,545.5c0.8-0.8,1.8-1.9,2.5-2.7c0.8,0,1.8,0,2.5,0c0.5,0.5,1.3,1.4,1.8,1.9c0.8,1.1,1.8,2.2,2.5,3.2
		c1,1.1,1.8,2.4,2,4.1c0.3,1.1,0,2.2-0.3,3.2c-0.5,1.1-1.3,1.9-2.3,2.4c-1.8,0.5-3.3,0.5-5-0.3c-2.8-1.4-5-3.2-5.8-6.8
		C299.9,548.7,300.7,547.1,302,545.5z"/>
	<path fill="#362616" d="M324.3,537.6c0,0.8,0,1.4,0,2.2c-0.3,2.2-1.5,3.5-3.3,4.6c-2.5,0.8-4.8,0.8-6.5-1.4c0-0.8,0-1.9,0-2.7
		C317.5,538.2,320.8,536.8,324.3,537.6z"/>
	<path fill="#69594A" d="M314.5,542.8c2.5,0,5,0,7.5,0c0.3,0.5,0.5,0.8,0.8,1.4c0,1.1-0.5,1.9-1.3,2.4c-0.8,0.5-1.8,0.8-2.5,1.1
		c-1,0.3-1.8,0.3-2.8,0.3s-2-0.3-2.8-0.5c-1-0.3-1.8-1.1-2.3-1.9c-0.3-1.1,0-1.9,0.8-2.7C312.7,542.8,313.7,542.8,314.5,542.8z"/>
	<path fill="#463123" d="M311.7,542.8c0,0.8,0.3,1.6,0.3,2.4c-1.8,1.9-3.5,1.6-5.3,0c0-0.8,0-1.6,0-2.7
		C308.7,542.8,310.2,542.8,311.7,542.8z"/>
	<path fill="#85786A" d="M322.3,542.8c0.8-1.1,1.5-1.9,2.3-3c0.8,0,1.8,0.3,2.5,0.3c0.8,0.8,1.3,1.6,1.5,2.7c0,1.1-0.3,2.2-0.8,3
		c-0.8,0.5-1.8,0.8-2.8,0.5C323.3,545.5,323,543.9,322.3,542.8L322.3,542.8z"/>
	<path fill="#332618" d="M327,542.8c0-0.8,0-1.6-0.3-2.7c0.8,0,1.8,0,2.5,0c0,0.8,0,1.4-0.3,2.2c-0.3,0.5-0.8,1.1-1,1.4
		C328,543.3,327.5,543.1,327,542.8z"/>
	<path fill="#322518" d="M331.8,542.8c1,0.8,1.8,1.9,2.8,2.7c0.8,0.5,1,1.1,0.8,1.9c-0.3,0.5-0.5,0.8-0.8,0.8h-0.3
		c-2,1.1-3-0.3-3.5-2.2C330.8,544.7,331,543.9,331.8,542.8z"/>
	<path fill="#5D5245" d="M334.6,548.2c0-0.8,0-1.9,0-2.7c0.8,0,1.8,0,2.5,0c0,0.8,0,1.9,0,2.7h-1.3H334.6z"/>
	<path fill="#86796C" d="M331.8,542.8c0,0.8,0.3,1.6,0,2.4c-0.5,0.3-1,0.5-1.8,0.8c-0.5-0.5-1-0.8-1.5-1.4c0.3-0.5,0.5-1.4,0.8-1.9
		L329,542C330.3,542.5,331,542.5,331.8,542.8z"/>
	<path fill="#453020" d="M257.1,556c0-0.5,0-1.4-0.3-1.9c1.8-1.1,3.5-2.2,5-3.2l0,0c0.8,0.8,1.3,1.9,1.3,3.2c-0.8,2.7-2.3,4.1-5,3.2
		C257.8,556.9,257.3,556.3,257.1,556z"/>
	<path fill="#96806D" d="M329.5,612.9c-0.8,0.3-1.5,0.3-2.3,0.3c-4,2.2-7.5,2.7-8.8-3.2c0.3-1.4,0.8-2.4,1.8-3.2
		c3.5,1.4,6.3-1.9,9.3-1.6c0.8,0.8,1.8,1.9,2.5,2.7C331,609.4,330.3,611.3,329.5,612.9z"/>
	<path fill="#8B6F55" d="M334.8,583.7c-0.8,0-1.8,0-2.5,0c-1.3,1.1-1.8,3-3.5,3.2c-1,0-2-0.5-2.8-1.4c-1-2.2-1.3-4.3-0.5-6.8
		c1-2.2,2.8-3.2,4.8-4.1c0.5,0,1,0,1.5,0c2.8,0.8,6.3-1.1,7.8,3c-1,1.1-1.8,1.9-2.8,3c0.8,0.5,1,1.1,1,1.6c0,0.8-0.3,1.1-0.5,1.1
		C336.6,584.5,335.6,584.5,334.8,583.7z"/>
	<path fill="#3F2812" d="M332,569.6c-1.8,0-3.3,0.3-5,0.3l-0.8-0.8V568l0.8-0.8c1.8,0,3.5,0,5.3,0C332,568,332,568.8,332,569.6z"/>
	<path fill="#6B4F34" d="M337.1,583.4c0-0.8,0-1.6,0-2.4c0.8,0,1.8-0.3,2.5-0.3c0.8,0.8,1.8,1.9,2.5,2.7c0,0.8,0,1.6,0,2.4
		c-1.8,0-3.3,0.3-5,0.3l-0.5-0.3c-0.5-0.5-0.8-1.1-0.5-1.6C336.6,583.7,336.8,583.4,337.1,583.4z"/>
	<path fill="#5C4427" d="M332,591.5c0.5,4.1-0.8,7.3-2.5,10.6c-2,1.9-4.3,2.4-6.8,1.4c-1.8-1.1-2.3-2.7-2.3-4.9c1-4.1,4.3-5.4,7-7.6
		c0.5-0.3,1-0.5,1.5-0.8C330.3,590.2,331.3,590.7,332,591.5L332,591.5z"/>
	<path fill="#957D63" d="M322,602.1c2.5,0,5,0,7.5,0.3c0,1.1,0,1.9,0,3c-2.3,1.9-4,5.4-7.5,2.7c-1.8-1.4-3.8-2.4-2.8-5.4
		C320,601.5,321,601.5,322,602.1z"/>
	<path fill="#705438" d="M332,591.5c-0.8,0-1.5,0-2.5,0c-1.5-1.9-1.5-3.5,0-5.4c1-0.8,1.8-1.6,2.8-2.4
		C332,586.4,332,588.8,332,591.5z"/>
	<path fill="#54381E" d="M337.1,583.4c0,0.8,0,1.6-0.3,2.4c-0.8-0.8-1.5-1.4-2-2.2C335.6,583.4,336.3,583.4,337.1,583.4z"/>
	<path fill="#726559" d="M271.9,548.2c-1-1.9-1.8-3.5-2.8-5.4c4.3-3.5,8.5,1.4,12.8-0.5c2.5,0.3,5,0.5,7.5,0.8c0,0.8,0,1.6,0,2.4
		c-0.8,1.1-1.5,1.9-2.8,2.4c-3.3,1.1-6.8,1.6-10,2.4C274.9,550.1,273.1,549.8,271.9,548.2z"/>
	<path fill="#51433F" d="M286.7,545.8c0.8-0.3,1.8-0.3,2.5-0.5c4.3,0,8.3,0.3,12.5,0.3c0,1.9,0,3.5,0,5.4c-1.8,2.4-4.3,3.5-7,4.3
		c-1.8,0.5-3.3,0.3-5-0.3c-1-0.5-1.8-1.4-2.5-2.4C286.7,550.4,285.7,548.2,286.7,545.8z"/>
	<path fill="#6A5647" d="M271.9,548.2c1.8,0,3.8,0,5.5,0c2.5,0,3,1.6,3.3,3.8c-0.3,1.4-1,2.4-2,3.2c-3.8,1.9-7.5,1.9-11.3,1.4
		c-2-0.3-3.8-1.4-5-3c0-1.1-0.3-1.9-0.3-3C265.3,550.4,269.4,552.3,271.9,548.2z"/>
	<path fill="#8E7053" d="M271.9,577.7c0-0.8,0-1.6,0-2.2c7.3-6.8,15.8-3,23.8-3.8c4.5,0.5,8.8,1.1,10.3,6.8c0.3,1.4,0,3-0.5,4.3
		c-8.5,5.1-17.3,2.2-26.1,0.8C276.4,582.6,273.6,581.2,271.9,577.7z"/>
	<path fill="#E6CAA5" d="M296.7,575c-8.3,0.3-16.6,0.3-24.8,0.5c-3.5-0.5-7.5,1.1-10-3c-0.8-1.1-0.8-2.2,0-3.5
		c10.5-3.8,21.3,1.6,31.6-1.1c2,0.3,3.5,1.4,4.3,3.2C298.2,572.8,297.7,573.9,296.7,575z"/>
	<path fill="#72543B" d="M271.9,577.7c2.5,1.1,5,2.2,7.5,3.2c0.5,3.5-2,4.1-4.3,4.9c-1.3,0-2.3,0-3.5-0.3c-6.8-3-13,0.8-19.6,1.9
		c-1.3,0-2.3-0.5-3-1.6c-0.8-2.4-1.8-4.9-2.5-7.6C255.1,578,263.6,578,271.9,577.7z"/>
	<path fill="#856D61" d="M249.3,559c1.8-0.8,3.5-1.6,5.3-2.4c0.8,0.5,1.8,1.1,2.5,1.6c0.3,0.5,0.3,1.1,0.5,1.6
		c-0.5,2.7-2.3,3.5-4.5,3.8c-1,0-2-0.3-3-0.8c-0.3-0.5-0.5-0.8-0.8-1.4C249.3,560.6,249.3,559.8,249.3,559z"/>
	<path fill="#593E2B" d="M247,567.1c-1-1.1-1.8-1.9-2.8-3c1.8-0.8,3.3-1.9,5-2.7v1.1c0.8,0.5,1.3,1.4,1.3,2.2
		c-0.3,1.1-0.5,1.6-1.5,2.2C248.5,567.1,247.8,567.1,247,567.1z"/>
	<path fill="#6E5341" d="M249.3,566.6c0-0.8,0-1.4,0-2.2c0.8-1.1,1.8-1.4,3-1.4c2.3,0.3,4.5-0.8,6.8,0.3c0.8,0.5,1,1.4,0.8,2.2
		c0,0.8-0.3,1.1-0.3,1.1c-2.5,0.3-5,0.5-7.5,0.8C251,567.1,250,566.9,249.3,566.6z"/>
	<path fill="#998176" d="M256.6,558.8c-0.8-0.8-1.3-1.4-2-2.2c0.8-0.3,1.8-0.5,2.5-0.8l-0.3,0.5c0.8,0.5,0.8,1.1,0.5,1.6
		C257.1,558.5,256.8,558.8,256.6,558.8z"/>
	<path fill="#372C21" d="M329,546.8c1-0.5,2-1.1,3-1.6c0.8,0.8,1.8,1.9,2.5,2.7c-0.8,1.9-1.5,3.8-2.5,5.4c-2.5,0.8-5,1.9-7.3,2.7
		c-1.8-0.3-3-1.4-3.8-3c-0.5-1.9-0.5-3.5,0.5-5.1C323.5,546,326.3,547.1,329,546.8z"/>
	<path fill="#251507" d="M322,553.6c0.8,0.8,1.8,1.9,2.5,2.7c0,0.8-0.3,1.6-0.3,2.2c-0.3,1.1-1,1.9-1.8,2.7
		c-1.3,1.1-2.8,1.9-4.5,2.2c-1.8,0-3.3-0.3-4.5-1.6c-1-1.6-1.3-3.5-0.8-5.4c0.3-1.4,0.8-2.4,1.3-3.5c1.5-1.4,3-1.6,5-1.4
		C320.3,552,321.3,552.5,322,553.6z"/>
	<path fill="#54472E" d="M319.5,561.5c1-0.8,2-1.4,3-2.2c1.3,1.1,3,1.1,4.5,2.2c0,1.1,0,1.9,0.3,3l0,0c-2.3,2.2-4.8,2.4-7.3,0.8
		C318.5,564.2,318.5,562.8,319.5,561.5z"/>
	<path fill="#B1A893" d="M326.8,561.5c-1.8,0.3-3.8,0.8-4.5-2.2c0.8-0.3,1.3-0.5,2-0.8C325.3,559.6,326,560.4,326.8,561.5z"/>
	<path fill="#3A2A15" d="M319.8,564.7c2.5,0,4.8-0.3,7.3-0.3c0,0.8,0,1.9,0,2.7l0,0c-0.8,0.8-1.5,1.4-2.5,1.9c-1,0.3-2,0-3-0.3
		C320,567.7,318.8,566.6,319.8,564.7z"/>
	<path fill="#736049" d="M274.1,631.8c-0.8-0.8-1.5-1.6-2.3-2.2c0-0.8,0-1.9,0-2.7c0.8-0.8,1.3-1.4,1.8-2.2c1-1.9,2.3-3.2,4-4.3
		c1-0.3,2-0.5,3-0.5c2.8,0.5,5.3,1.6,7,4.1c0.8,1.1,1,2.2,1.5,3.2c0.5,3.5,1,7,0.3,10.6h-0.3c-1.8,0.8-3.5,1.9-5.3,2.7
		c-2.5,0-5,0-7.5,0c0-1.1,0-1.9,0-3C275.1,635.9,274.4,634,274.1,631.8z"/>
	<path fill="#423122" d="M259.3,607.7c0-0.8,0-1.6,0-2.7c1.3-1.6,3-2.2,5-2.2c2.5,0.3,4.8,1.6,7,3.2c3.8,3.2,6.5,6.8,4,12.2
		c-3.5,3-7,0.8-10.5-0.3c-2-1.4-4.3-2.4-5.5-4.9C259.3,611.3,259.3,609.6,259.3,607.7z"/>
	<path fill="#5C4C3C" d="M259.3,613.2c2,0,4,0.3,5,2.4c1.5,1.6,1.5,3.5,0.3,5.4c-1,1.1-1.8,1.9-2.8,3c0.5-4.3-3.5-5.4-5-8.1
		C257.6,615.1,258.6,614,259.3,613.2z"/>
	<path fill="#746554" d="M264.6,621c0-1.9,0-3.5-0.3-5.4c3.3,1.1,6.5,2.2,10,3.5c0.3,0.5,0.5,1.1,0.8,1.6c-0.5,0.5-0.8,0.8-1.3,1.4
		c-0.5-0.3-1-0.5-1.8-0.5C269.6,622.6,266.8,623.4,264.6,621z"/>
	<path fill="#2E1C09" d="M272.1,621.6c0.8,0,1.5-0.3,2.3-0.3c1.5,1.9,1.5,3.8,0,5.4c-0.8,0-1.5,0.3-2.5,0.3
		C271.9,625.1,272.1,623.2,272.1,621.6z"/>
	<path fill="#4A341C" d="M274.1,631.8c2,1.1,2.5,3.2,2.5,5.4c-1.8,0-3.3,0-5-0.3c0-0.8,0-1.6,0-2.4c0.8-0.8,1.5-1.6,2.5-2.4V631.8z"
		/>
	<path fill="#3A240C" d="M274.4,632.4c-0.8,0.8-1.8,1.6-2.5,2.4c0-0.8,0-1.6,0-2.4C272.6,632.4,273.6,632.4,274.4,632.4z"/>
	<path fill="#8D745A" d="M272.1,583.4c0.8,0,1.5,0,2.3,0c3.3,2.2,8.5,1.6,9,7.6c0,2.7-1,4.9-3,6.5c-1,0.5-2.3,0.8-3.5,0.8
		c-3.8-0.3-3.5-4.3-5.3-6.5c-8.3-0.3-16.3-0.5-24.6-0.5c-0.3-0.8-0.3-1.9,0-2.7c5.3-2.4,10.8-2.4,16.3-3.5
		C266.3,585,269.1,583.7,272.1,583.4z"/>
	<path fill="#B39781" d="M267.1,588.8c-6.8,0-13.3,0-20.1,0c0.8-1.1,1.3-1.9,2-3c1,0,2,0,3,0C257.3,585.8,263.6,579.6,267.1,588.8z"
		/>
	<path fill="#574231" d="M264.3,605c-1.8,0-3.3,0-5,0c-3-1.9-6.3-3.2-10-3c0-1.9,0-3.5,0-5.4c5,1.1,9.8,3.8,15,2.7
		c0.3,0.5,0.8,0.8,1,1.4C265.8,602.3,265.8,604,264.3,605z"/>
	<path fill="#786352" d="M264.6,599.6c1-2.4,3-2.4,4.8-2.7c3.5-1.1,5.8,1.1,8.3,3.2c0.3,1.6-0.5,2.7-1.5,3.5
		C270.9,606.1,267.1,604.5,264.6,599.6L264.6,599.6z"/>
	<path fill="#654E39" d="M276.9,599.9c-2.5-1.1-5-1.9-7.5-3c0.8-1.6,1.5-3.5,2.3-5.1c1.8,1.6,3.5,3.2,5.3,4.9
		c0.8,0.8,0.8,1.4,0.5,2.2C277.4,599.4,277.1,599.9,276.9,599.9z"/>
	<path fill="#514335" d="M322.3,627c-0.3,1.6-0.5,3.5-0.8,5.1h-1.3H319c-0.8,1.1-1.5,1.6-2.8,1.9c-4,0-7.8-0.3-10.5-3.8
		c-1-1.6-1.5-3.2-1.8-4.9c-0.5-2.4-1-4.6,0-7c2.5-2.7,5.5-4.1,9-3.8c1,0.3,2,1.1,2.8,1.9c1.5,2.4,1.3,5.7,3.5,7.6
		C320.3,624.8,321.3,625.9,322.3,627z"/>
	<path fill="#4E3B20" d="M317,632.1c0.8,0,1.3,0,2-0.3c1,1.9,1.8,3.5,2.8,5.4c-0.3,0.3-0.8,0.8-1,1.1c-1,0.3-2,0.3-3,0
		c-1-0.5-1.8-1.1-2-2.2C315.2,634.8,315.7,633.2,317,632.1z"/>
	<path fill="#70503C" d="M324.5,638.1c-1,0.5-1.8,1.4-2.8,1.9c-0.8-0.5-1-1.4-0.8-1.9s0.5-0.8,0.8-0.8h-0.3
		C322.8,637.8,323.8,637.8,324.5,638.1z"/>
	<path fill="#AE8D78" d="M322,637.3c0,0.8,0,1.9-0.3,2.7c-0.8,0-1.5,0.3-2.3,0.3l0.3-0.8c-1-0.3-1.3-0.8-1-1.4s0.5-0.8,0.8-0.8
		C320.5,637.8,321.3,637.5,322,637.3z"/>
	<path fill="#63503E" d="M289.7,637.5c-2-3.2-3-7-2.5-10.8c1.5-1.4,3.3-2.4,5.5-2.7c3.3,0.5,7.3,0,6.8,5.7c-3,1.9-7.3,2.7-7.3,7.8
		C291.2,637.5,290.4,637.5,289.7,637.5z"/>
	<path fill="#4D3A2D" d="M299.2,629.4c-1.5-3.2-4.5-2.7-7.3-3c3.8-9.2,9.3-5.4,15-2.4c0,1.9,0,3.5,0,5.4c-0.3,1.1-0.5,1.9-1.3,2.4
		c-0.5,0.3-0.8,0.3-1.3,0.5C302.5,632.1,300.4,631.6,299.2,629.4z"/>
	<path fill="#6C5B40" d="M304.7,640.5c-1-0.8-1.8-1.9-2.8-2.7c0.8-0.8,1.8-0.8,2.5,0C305.2,638.3,305.2,639.4,304.7,640.5
		L304.7,640.5z"/>
	<path fill="#987C61" d="M304.5,637.5c-0.8,0-1.8,0-2.5,0c0.8-0.8,1.8-1.9,2.5-2.7l0.8,0.8v1.1C305.2,636.7,304.5,637.5,304.5,637.5
		z"/>
	<path fill="#725C44" d="M304.5,634.8c0-0.8,0-1.6,0-2.7v-0.3c2.5-0.8,3,0.5,3,2.7C306.5,635.6,305.5,635.6,304.5,634.8L304.5,634.8
		z"/>
	<path fill="#6A593E" d="M312.2,637.8c0,1.6,0,3.2,0,4.9c-2,0.3-4,0-5.5-2.2c0.3-1.9,1.3-3,2.8-3.8
		C310.5,636.4,311.2,637,312.2,637.8z"/>
	<path fill="#88775C" d="M309.2,637.8c-0.8,1.1-1.8,1.9-2.5,3c-0.8-0.3-1.5-0.3-2.3-0.3c0-0.8,0-1.9,0-2.7l0,0
		c0.8-0.8,1.5-1.4,2.5-1.4C308,636.2,308.7,636.7,309.2,637.8z"/>
	<path fill="#5C4127" d="M309.2,637.8c-0.8,0-1.5-0.3-2.3-0.3c-0.8-0.5-1-1.1-0.8-1.9c0.3-0.5,0.5-0.8,0.8-0.8
		c-0.8-1.1-1.8-1.9-2.5-3c0.8-0.8,1.8-1.6,2.5-2.7c3.3,0.8,6.8,1.9,10,2.7c0,1.6,0,3.2,0,5.1c-0.5,1.4-1.3,1.6-2.3,0.5
		c-1,0-1.8,0-2.8-0.3C311.2,637.8,310.2,637.8,309.2,637.8z"/>
	<path fill="#98876D" d="M314.7,637.8c0.8-0.3,1.5-0.5,2.3-0.5c0.8,0.3,1.8,0.3,2.5,0.5c0,0.5,0,1.4,0,1.9
		C317.8,640.2,316,640,314.7,637.8z"/>
	<path fill="#786452" d="M319.5,607.7c0.3,5.4,3.8,5.4,7.5,5.4c0,5.1-3,3.5-5.5,3c-2.3,1.6-4.8,2.2-7,0v-0.5c-1.5-1.4-1.8-3.2-1-5.4
		C315,608,316.7,606.4,319.5,607.7z"/>
	<path fill="#312418" d="M314.5,616.1c2.3,0,4.8,0,7,0c-0.8,2.4-1.5,5.1-2.3,7.6C314.2,624,314.5,619.9,314.5,616.1z"/>
	<path fill="#43311D" d="M324.3,626.2c-0.8,0.3-1.5,0.5-2.3,0.5C322.5,625.6,323.3,624.5,324.3,626.2z"/>
	<path fill="#523C32" d="M294.4,553.9c1.8-3.2,4.8-3,7.5-3c1.8,1.6,3.3,3.2,5,4.9c-0.5,2.2-2,3.5-3.3,5.1c-0.8,0.8-1.5,1.4-2.5,1.6
		c-2.8,0.3-5-0.8-7-2.7c-0.8-0.8-1-1.9-1.3-3.2C293.2,555.5,293.7,554.7,294.4,553.9z"/>
	<path fill="#A79388" d="M302.2,557.9c1.5-0.8,3-1.4,4.5-2.2c1.8,0.3,3.3,0.3,5,0.5c0.3,0.5,0.3,1.4,0.5,1.9
		c-1.3,2.7-3.8,3.2-6.3,3.2C304.2,560.9,302.7,560.4,302.2,557.9z"/>
	<path fill="#5E4B42" d="M319.3,553.6c-1.5,0-3,0.3-4.5,0.3c-1,1.4-2,1.4-2.8-0.3c0-0.8,0-1.6,0-2.4c0.3-1.1,0.5-2.2,1.3-3
		c0.5-0.3,1-0.5,1.5-0.8c1-0.3,2,0,3,0.5C319.3,549.3,321,550.9,319.3,553.6z"/>
	<path fill="#2F231E" d="M307,545.5c1.8,0,3.5,0,5.3,0c0.8,0.3,1.5,0.3,2.5,0.5v1.4l-0.3,1.4c-1.3,1.1-2.8,1.1-4,0.3
		C309.2,547.7,308,546.6,307,545.5z"/>
	<path fill="#523D32" d="M312,553.6c1,0,1.8,0.3,2.8,0.3c-0.3,1.1-0.5,1.9-0.8,3c-0.8,0.8-1.8,1.1-2.5,0.3l0.5-0.5
		C312,555.5,312,554.4,312,553.6z"/>
	<path fill="#4F443B" d="M329,546.8c-2.3,0.5-4.8,1.1-7,1.4c-2.3,0.8-3.3,0-2.5-2.7c1,0,1.8,0,2.8-0.3c0.8-1.1,1.5-1.1,2,0
		c1,0,2,0,2.8,0c0.8-1.1,1.5-1.1,2.5,0C329.3,545.8,329.3,546.3,329,546.8z"/>
	<path fill="#2D241B" d="M319.3,545.8c0.8,0.8,1.8,1.9,2.5,2.7c0,1.6,0,3.5,0,5.1c-1,0-1.8,0-2.8,0c-0.8-1.6-1.5-3.5-2.3-5.1
		c-0.8-0.5-1-1.1-0.8-1.6s0.5-0.8,0.8-0.8C317.8,545.8,318.5,545.8,319.3,545.8z"/>
	<path fill="#261E18" d="M317,546c0,0.8,0,1.6,0,2.4c-0.8-0.3-1.8-0.8-2.5-1.1V546C315.2,545.8,316.2,545.8,317,546z"/>
	<path fill="#4E4133" d="M324.3,545.5h-1h-1c0-0.8,0-1.9,0-2.7C322.8,543.6,323.5,544.7,324.3,545.5z"/>
	<path fill="#BFB2A4" d="M329.5,545.2l-1.3,0.3l-1.3-0.3c0-0.8,0-1.9,0-2.7c0.8,0.3,1.8,0.3,2.5,0.5
		C329.5,543.9,329.5,544.7,329.5,545.2z"/>
	<path fill="#7C6458" d="M256.6,558.8c0.3-0.8,0.3-1.4,0.3-2.2c2-0.5,4.3-0.5,5.5-3c1.5,0,3.3,0,4.8,0c2,2.2,2.3,4.3,1.3,7
		c-2.5,3.5-5.3,1.6-8,0.8c-1-0.5-2-1.4-2.8-2.2L256.6,558.8z"/>
	<path fill="#78644F" d="M319.5,607.7c-1.8,0.8-3.5,1.9-5,2.7c-2,1.1-3.3-0.3-4.3-1.6c-1.3-2.2-2-4.3-1-6.8c3.5-1.9,7-1.4,10.5,0.5
		c0.8,1.6,1.5,3.5,2.3,5.1C321,607.7,320.3,607.7,319.5,607.7z"/>
	<path fill="#705439" d="M326.8,578.5c0,2.4,0.3,5.1,0.3,7.6c1,1.1,1,2.4,0,3.5c-2.3,1.6-4.8,1.6-7.3,1.1c-3.8-1.9-7.5-3.8-10.8-6.8
		c-0.8-2.2,0.3-3.5,1.8-4.9c2.5-1.4,5.5-2.2,8.3-3c1.8-0.5,3.5-0.5,5,0C325.3,576.6,326.3,577.2,326.8,578.5z"/>
	<path fill="#B79C86" d="M326.8,578.5c-1-0.3-1.8-0.5-2.8-1.1c-1.3-1.4-1-3-0.3-4.3c0.8-0.8,1.8-0.8,2.8-0.5h1c0.5,1.1,1,1.9,2,2.4
		c0.8,0,1.5,0.3,2.5,0.5C330.3,576.3,328.5,577.4,326.8,578.5z"/>
	<path fill="#806450" d="M327,589.1c0-1.1,0-1.9,0-3c0.8,0,1.5,0,2.5,0c0,1.9,0,3.8,0,5.4H329C327.3,591.8,326.5,591.2,327,589.1z"
		/>
	<path fill="#DAC0A5" d="M329.5,574.7c-0.8-0.8-1.5-1.6-2-2.4C328.3,573.4,329,573.9,329.5,574.7z"/>
	<path fill="#78624F" d="M326.5,572.6c-0.8,0-1.5,0-2.3,0.3c-0.3-0.5-0.5-0.8-0.8-1.4c0-0.5,0-1.1,0-1.4c0.3-0.3,0.5-0.8,1-1.1
		c1-0.3,1.8,0,2.5,0.8h-0.3C327,570.7,326.8,571.5,326.5,572.6z"/>
	<path fill="#937D6A" d="M327.3,569.9c-1,0-2,0-2.8,0l-0.8-1.1l0.8-1.1c1,0,1.8-0.3,2.8-0.3C327,568,327,568.8,327.3,569.9z"/>
	<path fill="#3F3019" d="M319.5,602.6c-3.5,3-6.8-0.5-10.3-0.5c-1-0.8-1.5-1.9-2-3.2c-0.5-1.9-0.3-4.1,0.5-6
		c1.3-2.7,3.5-3.5,6.3-3.5c4,0.8,7,3,7.5,7.8c0,1.6,0,3.2,0,4.9C321.3,602.3,320.5,602.3,319.5,602.6z"/>
	<path fill="#A68E6F" d="M322,597.2c-2.5-1.9-5-3.8-7.5-5.7c-0.3-4.6,2-4.3,5-2.7c2.5,0,5,0.3,7.5,0.3c0.8,0.8,1.5,1.6,2,2.4
		C328,595.3,325.5,596.9,322,597.2z"/>
	<path fill="#2E2B24" d="M279.6,550.6c-0.8-0.8-1.5-1.6-2.3-2.4c2.5-4.1,6.3-1.6,9.3-2.4c0.8,1.6,1.8,3.2,2.5,4.9
		C286.2,554.2,282.9,552.5,279.6,550.6z"/>
	<path fill="#4D362C" d="M279.6,550.6c3.3-2.2,6.5,0,9.5,0c0,1.1,0,1.9,0.3,3c1,1.4,1,2.4,0.3,3.8c-3.8,4.1-7.5,5.7-11.3,0
		c-0.3-1.4,0-2.7,1-3.8C279.4,552.8,279.6,551.7,279.6,550.6z"/>
	<path fill="#422D23" d="M289.4,556.6c0-1.1,0-1.9,0-3c1.8,0,3.3,0,5,0.3c0,0.8,0,1.4,0,2.2C292.9,557.1,291.7,562.8,289.4,556.6z"
		/>
	<path fill="#3E281A" d="M279.4,553.6c0,0.8,0,1.9,0,2.7c-1.8,2.4-3.8,4.1-6.3,5.1c-2,0.8-4,1.6-6,0.3c0-2.7,0-5.4-0.3-8.1
		C271.1,553.6,275.1,553.6,279.4,553.6z"/>
	<path fill="#533924" d="M281.9,591.5c-1-4.6-6-4.3-7.5-8.1c1.8-0.8,3.5-1.6,5.3-2.4c8.3,0.8,16.6,1.6,25.1,2.4
		c-1.3,12.2-11,7.6-17.1,10C285.4,593.7,283.4,593.1,281.9,591.5z"/>
	<path fill="#3B2616" d="M286.9,591.2c4.8-5.7,14.3,1.6,17.6-7.8c0-0.8,0-1.4,0-2.2c2.8-2.4,3.8,0.3,5,2.2c4,0.3,8.3,0.3,10,5.4
		c-2,0.3-4,0.3-5,2.7c-2,0-4,0.5-5.3,2.4c-1,1.1-2.3,1.6-3.5,1.6C299.4,594.2,292.4,597.2,286.9,591.2z"/>
	<path fill="#C1A386" d="M309.5,583.4c-1.8-0.8-3.3-1.4-5-2.2c0-6-4.3-5.7-7.8-6.2c0-0.8,0.3-1.6,0.3-2.4c2-4.9,6-5.7,10.3-5.4
		c2.3,0.3,4,1.1,5.5,3c2,3.8,1.8,7.3-1,10.6C311.2,581.2,310.2,582.3,309.5,583.4z"/>
	<path fill="#937C68" d="M262.1,569.6c0-0.8,0-1.6-0.3-2.2c7.3-6.2,16-4.9,24.3-4.9c1.8-0.3,3.8,0,5.5,0.5c2.3,1.6,3.8,3.5,3,6.8
		C283.6,576.1,272.9,570.1,262.1,569.6z"/>
	<path fill="#675243" d="M294.4,569.6c-1-1.6-1.8-3.5-2.8-5.1c-1.3-3.2,0.8-4.6,3-5.7c2.3,1.1,4.8,2.2,7,3.2c1,0,2,0,2.8,0.3
		c1,0.3,1.8,1.1,2.5,1.6c0.5,0.8,1,1.9,1,3c0,1.1-0.5,1.9-1.5,2.4c-3.3,1.1-6.5,1.9-9.8,3C296.2,571.5,295.4,570.7,294.4,569.6z"/>
	<path fill="#42250D" d="M267.1,588.8c-4.3-5.1-10-1.6-15-3c6.5-3,12.5-8.9,20.1-2.2C270.4,585.3,268.9,586.9,267.1,588.8z"/>
	<path fill="#554031" d="M287.2,564.4c-8.5,0.8-17.1,1.9-25.6,2.7c-0.8-0.3-1.5-0.3-2.3-0.5c0-0.8,0-1.6,0-2.2
		c-1.5-1.6-1.3-3.2,0-4.9c2.5,0.8,5.3,1.4,7.8,2.2c1.8-0.8,3.5-1.6,5.3-2.4C277.1,560.9,283.9,556.9,287.2,564.4z"/>
	<path fill="#4F3524" d="M259.3,559.6c0,1.6,0,3.2,0,4.9c-2.5,0-5,0-7.5-0.3c-0.5-0.5-0.8-0.8-0.5-1.4s0.3-0.8,0.5-0.8
		c1.8-1.1,3.5-1.9,5.5-3C257.8,559.3,258.6,559.3,259.3,559.6z"/>
	<path fill="#3C210F" d="M251.8,562c0,0.8,0,1.4,0,2.2c-0.8,0-1.5,0.3-2.5,0.3c0-0.8,0-1.4,0-2.2C250,562,250.8,562,251.8,562z"/>
	<path fill="#59422F" d="M319.8,564.7c0.8,0.8,1.8,1.6,2.5,2.4c0.5,0.5,0.8,1.4,0.8,2.2s-0.3,1.1-0.5,1.1c-0.8,0.8-1.8,1.4-3,1.6
		c-1.8,0.3-3.3,0-4.8-0.8c-1.3-1.1-2.3-2.4-3.5-3.5c-0.5-1.1-0.8-2.2-0.8-3.5c0.3-1.1,0.8-2.2,1.5-3.2c1-0.5,2-0.3,2.8,0.8
		c1.5,0,3.3-0.3,4.8-0.3C319.5,562.5,319.5,563.6,319.8,564.7z"/>
	<path fill="#958176" d="M314.5,561.7c-0.8,0-1.8,0-2.5,0c-0.8,0.8-1.8,1.4-3,1.4c-0.5-0.3-1-0.3-1.8-0.5c-0.5-0.5-0.8-0.8-1.3-1.4
		c0-0.5,0-1.4,0.3-1.9c1.8-0.8,3.5-1.6,5.3-2.4c0.8,0,1.8,0,2.5-0.3C314.2,558.5,314.5,560.1,314.5,561.7z"/>
	<path fill="#4E3D33" d="M307,624c-5,0.8-10.5-2.2-15,2.7c-1.8,0-3.3,0-5,0c0-0.8-0.3-1.9-0.3-2.7c-0.8-6.5,3.8-7,7.5-8.4
		c1.8-0.5,3.5-0.8,5.3-0.8c2.5,0.3,4.3,1.4,5,4.3C305.2,620.5,306.2,622.4,307,624z"/>
	<path fill="#6F6157" d="M296.7,618.6c-4.3-0.3-8,1.1-10,5.4c-2.5-1.1-5-1.9-7.5-3c-0.8-1.1-1-2.2-1-3.5c1-3.2,3.3-4.9,6-6.2
		c2.3-0.8,4.3-1.1,6.8-1.1c1,0.3,2.3,0.5,3.3,0.8c1.5,0.8,2.8,2.2,3.5,3.8C297.9,616.4,297.7,617.5,296.7,618.6z"/>
	<path fill="#4B3A26" d="M274.4,626.7c0-1.9,0-3.8,0-5.4V621c0.5-0.8,1.3-1.1,2.3-0.8c0.3,0.3,0.8,0.5,1,0.8
		C277.1,623.4,276.6,625.6,274.4,626.7z"/>
	<path fill="#958676" d="M279.4,618.3c0,0.8-0.3,1.9-0.3,2.7c-0.5,0-1.3,0-1.8-0.3h-0.3C275.9,618.3,277.4,618,279.4,618.3z"/>
	<path fill="#564536" d="M279.4,618.3c-0.8,0.8-1.5,1.9-2.3,2.7c-1,0-2,0-3-0.3c0-0.5,0-1.1,0-1.9c1.3-5.1-2-8.1-5-11.4
		c3.5-3.5,7.3-2.2,11-0.8c2.3,1.4,5,2.4,4.3,6.2C282.9,615.1,281.1,616.7,279.4,618.3z"/>
	<path fill="#453121" d="M279.1,610.5c-3-2.2-6.3-3-9.8-2.7c-1.8-0.8-3.3-1.9-5-2.7c0-1.9,0-3.8,0-5.4c3.8,2.4,8,3.2,12.3,2.4
		c1-0.8,1.8-1.1,3-0.5c2,1.4,3,3.2,3,5.7C282.1,608.8,280.4,609.4,279.1,610.5z"/>
	<path fill="#85715E" d="M286.9,591.2c6.8,1.6,14.3-2.4,20.6,3c-0.5,5.4-4.3,5.4-7.8,6.2c-4.3,0.3-8.5,0.3-13,0
		c-3-0.3-5.8-1.1-7.5-4.1c0.8-1.6,1.8-3.2,2.5-5.1C283.6,591.2,285.4,591.2,286.9,591.2z"/>
	<path fill="#66533E" d="M279.4,596.4c2.5,0.3,5,0.3,7.5,0.5c2,1.6,4.8,3.2,1.8,6.5c-3.3,1.9-6.3,0.8-9.3-1.1
		c-1-0.3-1.8-0.3-2.8-0.5c0-0.8,0-1.4,0-2.2c0-1.1,0-1.9,0-3C277.6,596.6,278.6,596.6,279.4,596.4z"/>
	<path fill="#6E5B4D" d="M304.5,618.8c-1.8-1.1-3.3-1.9-5-3c-1.3-1.1-1.5-2.7-1.3-4.6c0.5-1.1,1-1.9,2-2.4c1.5-0.8,3-1.1,4.5-1.4
		c2.5-0.5,5-1.4,7.3,0.3c0.8,0.8,1.8,1.9,2.5,2.7c0,1.6,0,3.5,0,5.1C311.2,616.7,307.7,617.8,304.5,618.8z"/>
	<path fill="#80654B" d="M307,634.8c0,0.8,0,1.9,0,2.7c-0.8,0-1.8,0-2.5,0c0-0.8,0-1.9,0-2.7C305.2,634.8,306.2,634.8,307,634.8z"/>
	<path fill="#7F6A5E" d="M287.2,564.4c-3.8-5.7-11.3,0.3-15-5.4c2.3-1.4,4.3-3.2,7.3-2.7c3.3,5.1,6.5,1.4,10,0.3
		c2,3,3.5-0.5,5.3-0.8c0.3,1.1,0.3,1.9,0.5,3c-1,1.9-2,3.8-3,5.7C290.2,564.4,288.7,564.4,287.2,564.4z"/>
	<path fill="#523E32" d="M306.2,559.6c0.3,0.5,0.5,1.4,0.8,2.2c-0.5,1.1-1.3,2.2-2.3,2.7c-1-0.8-2-1.6-2.8-2.2
		c0.3-1.4,0.3-2.7,0.5-4.1C303.7,558.5,305,559,306.2,559.6z"/>
	<path fill="#5F4834" d="M312,607.7c-2.5,0.8-5,1.9-7.5,2.7c-1.5-2.4-0.8-4.9,0-7.3c1-2.2,2-4.6,5-3.8c0,1.1,0,1.9,0,3
		C310.2,604,311.2,605.9,312,607.7z"/>
	<path fill="#CBAD92" d="M314.5,569.3c1.5,0.3,3.3,0.5,4.8,0.8c0.8,0.8,1.5,1.9,1.8,3.2c0.3,1.9-0.5,3.8-1.8,5.1
		c-1.8,3.2-4.8,2.4-7.5,2.2c0-3.2,0-6.8,0-10C312.5,568.8,313.2,568.5,314.5,569.3z"/>
	<path fill="#806B5B" d="M324.5,572.6c-1.8,0-3.3,0-5,0c0-0.8,0-1.6,0-2.4c0.8,0,1.8,0,2.5,0s1.5,0,2.5,0
		C324.5,570.7,324.5,571.5,324.5,572.6z"/>
	<path fill="#48311D" d="M309.5,599.4c-2,1.4-2.5,3.5-2.5,5.7c-5.3,0.5-10,0.5-7.3-7.8c2.8-0.5,6.3,0.3,8-3c0.5,0,1,0,1.8,0
		C309.5,595.8,309.5,597.5,309.5,599.4z"/>
	<path fill="#755D47" d="M314.5,569.3c-0.8,0.3-1.8,0.8-2.5,1.1c-1.8-0.3-3.5-0.5-5-0.8c0-0.8,0-1.6,0-2.2c0.5-0.8,1.5-1.4,2.5-1.6
		c1,0.3,1.8,0.5,2.5,1.6C312.7,567.7,313.7,568.5,314.5,569.3z"/>
	<path fill="#372314" d="M304.7,564.2c0.8-0.8,1.5-1.6,2.3-2.7l0,0c0.3,0.5,0.8,0.8,1,1.4c-0.3,0.5-0.5,1.1-0.8,1.4
		C306.2,564.4,305.5,564.2,304.7,564.2z"/>
	<path fill="#B6A293" d="M309.7,566.9c-1,0-1.8,0.3-2.8,0.3c0-0.8,0-1.6,0.3-2.4l-0.3-0.3c0.5-0.3,1.3-0.5,1.8-1.1
		c0.5,0.5,1,0.8,1.5,1.4C310,565.5,309.7,566.1,309.7,566.9z"/>
	<path fill="#523D32" d="M309.5,561.7c0.8,0,1.8,0,2.5,0c0,1.1,0,1.9,0,3c-0.8,0.8-1.5,0.8-2.5,0.3l0.3-1.1c-0.8-0.5-1-0.8-0.8-1.4
		C309,562,309.2,561.7,309.5,561.7z"/>
	<path fill="#483425" d="M309.5,561.7c0,0.8,0,1.4,0,2.2c-1,0.3-1.8,0.3-2.8,0.5c0-0.8,0-1.9,0-2.7
		C307.7,561.7,308.7,561.7,309.5,561.7z"/>
	<path fill="#5A453A" d="M299.4,610.5c0,1.9,0,3.8,0,5.4c-1,0.8-1.8,1.6-2.8,2.4c0-0.8,0.3-1.6,0.3-2.4c-1.3-1.6-1.5-3.2-0.8-5.1
		C297.2,609.9,298.2,609.6,299.4,610.5z"/>
	<path fill="#412C18" d="M299.4,610.5c-0.8,0-1.5,0-2.5,0c-0.8,0.8-1.3,2.4-2.5,2.7c-0.8,0-1.5,0-2.3-0.3c-2.5-3.5-7.5-2.2-10-5.7
		c-0.8-1.6-1.8-3.2-2.5-4.9c3.3,0,6.5-0.3,9.8-0.3C296.7,599.1,301,600.7,299.4,610.5L299.4,610.5z"/>
	<path fill="#6F5A46" d="M281.9,607.5c3.8,1.1,9.3-1.6,10,5.7c-2.5,0-5,0-7.5,0c-1.3-2.2-3.3-2.7-5.3-2.7
		C280.1,609.4,281.1,608.6,281.9,607.5z"/>
	<path fill="#533C30" d="M294.4,613.4c0.8-0.8,1.8-1.9,2.5-2.7c0,1.9,0,3.5,0,5.4C296.2,615.1,295.2,614.2,294.4,613.4z"/>
	<path fill="#5F4834" d="M299.4,610.5c-0.3-7-4.8-8.1-10-8.4c-0.8-1.6-1.5-3.5-2.3-5.1c4.3,0,8.5,0.3,12.5,0.3
		c0,5.1,4.3,5.7,7.3,7.8c-0.8,1.9-1.8,3.5-2.5,5.4C302.7,610.5,301.2,610.5,299.4,610.5z"/>
</g>
<text transform="matrix(1 0 0 1 250.8157 283.8078)" font-family="'Swiss721BT-BoldCondensedItalic'" font-size="60">PRESS SPACE TO BEGIN</text>
</svg>
