<?xml version="1.0" encoding="utf-8"?>
<!-- Generator: Adobe Illustrator 18.0.0, SVG Export Plug-In . SVG Version: 6.00 Build 0)  -->
<!DOCTYPE svg PUBLIC "-//W3C//DTD SVG 1.1//EN" "http://www.w3.org/Graphics/SVG/1.1/DTD/svg11.dtd">
<svg version="1.1" id="Layer_1" xmlns="http://www.w3.org/2000/svg" xmlns:xlink="http://www.w3.org/1999/xlink" x="0px" y="0px"
	 viewBox="0 0 612 792" enable-background="new 0 0 612 792" xml:space="preserve">
<g>
	<path fill="#817B74" d="M271,380c0-1.3,0-2.7,0-4c0.4-0.4,0.5-0.9,0.9-1.3c0.4-0.1,0.7,0,1,0.1c0.3,0.2,0.5,0.5,0.8,0.8
		c0.2,0.3,0.4,0.6,0.6,1c0.2,0.4,0.3,0.7,0.3,1.1c0,0.6-0.1,1.2-0.5,1.7c-0.6,0.7-1.3,1.1-2.1,1.1C271.6,380.5,271.3,380.3,271,380z
		"/>
	<path fill="#35261B" d="M285,427c-0.4-0.3-0.7-0.7-1.1-1c-0.5-1.4-1.9-1.9-2.9-2.9c-0.3-0.4-0.6-0.8-0.9-1.2
		c-0.7-2.4-3.9-4.1-2.1-7.2c3.1,0,1.4-2.5,1.9-3.9c0.1-0.7,0.4-1.4,0.9-2c1.8-0.9,2.9-0.1,3.7,1.4c0.3,0.9,0.1,1.8,0,2.7
		c-0.3,1.5,0.5,2.7,1.2,4c0.3,0.8,0.5,1.5,0.8,2.3c0.5,1.1,1.4,2.1,1.2,3.5c-0.4,1.5-0.7,3-2,4C285.4,426.9,285.2,426.9,285,427z"/>
	<path fill="#665C4F" d="M274.1,399.8c-0.6-3.6-1.7-7.2-0.1-10.8c0.2-0.1,0.4-0.1,0.6-0.2c0.7,0.3,1,0.8,1.3,1.4
		c0.4,1.4,0.8,2.9,1.3,4.3c0.1,1.8,1.2,3,2.3,4.3c0.4,0.8,0.5,1.7,0.2,2.6c-0.2,0.4-0.5,0.7-0.9,0.9c-1.5,0-2.4-1.4-3.9-1.7
		C274.5,400.5,274.2,400.2,274.1,399.8z"/>
	<path fill="#937862" d="M336.5,412.9c-0.5,0.7-1,1.4-1.5,2.1c-2.1-0.4-4.1,0.7-6.2,0.2c-0.3-0.4-0.5-0.8-0.7-1.3
		c-0.1-0.8-0.1-1.5,0.2-2.2c0.8-1.6,2.3-2,3.9-2.3c1.8,0.1,3.7,0.1,5.1,1.6C337.5,411.8,337.6,412.6,336.5,412.9z"/>
	<path fill="#8C7661" d="M328.9,414.9c2-0.4,4.1-2.5,6.1,0c-0.1,0.3-0.2,0.7-0.3,1c-0.7,2.1-2.1,3.2-4.4,3c-0.5-0.1-0.9-0.2-1.4-0.4
		c-1-0.8-1.7-1.7-1.3-3.1C328,415.1,328.4,414.9,328.9,414.9z"/>
	<path fill="#88775F" d="M319,429c-1,0.4-2,0.8-3.1,1.2c-0.2-0.2-0.3-0.4-0.5-0.6c-0.6-1.3-0.5-2.5,0.2-3.7c0.4-0.4,0.8-0.7,1.3-0.8
		c0.7-0.2,1.5-0.3,2.3-0.3c1.6,0.1,3.1,0.3,3.8,2.2c-0.1,1.2-1.2,0.9-1.9,1.2C320.5,428.8,320,429.6,319,429z"/>
	<path fill="#88735A" d="M323,427c-1.2-0.7-2.5-1.1-4-1c-0.2-2,1.5-1.9,2.6-2.1c1.5-0.3,2.9-0.6,3.2-2.5c0.2-0.4,0.4-0.8,0.7-1.2
		c0.2-0.1,0.4-0.3,0.6-0.4c0.5,0,0.9,0.1,1.2,0.5c0.8,1.2,1,2.6,1.1,4c-0.2,2.2-2.3,2-3.5,2.8C324.3,427,323.6,427,323,427z"/>
	<path fill="#251811" d="M281,411c-0.4,1.8,1.5,5.2-3,4c-0.5-0.2-0.8-0.5-0.9-1c-0.4-0.4-0.7-0.8-1.1-1.2c-0.1-1.9,1.2-2.6,2.7-3.1
		C279.8,409.7,280.3,410.4,281,411z"/>
	<path fill="#5B432F" d="M299,431.8c-1.3-0.7-2.6-1.4-3.9-2.1c-0.2-0.7,0-1.4,0.4-2c0.8-0.9,1.8-1.5,3.1-1.3c0.7,0.1,1.3,0.5,1.8,1
		c0.5,0.5,0.9,1,1.1,1.7C301.4,430.7,300.2,431.3,299,431.8z"/>
	<path fill="#A5998E" d="M330.1,418c2,0.5,3.3-0.9,4.6-2.1c0.6,3.1-2.5,4.1-3.7,6.2c-0.6,0.2-1.1,0-1.4-0.4
		C328.8,420.4,329,419.1,330.1,418z"/>
	<path fill="#483D32" d="M277.2,414c0.3,0.3,0.6,0.7,0.9,1c-0.1,1.5,0,2.9,1.5,3.8c1.6,0.9,1.3,2,0.5,3.2
		C276.7,420.1,276.4,417.2,277.2,414z"/>
	<path fill="#2D251D" d="M311,431.1c-2.3,1.1-4.6,1-7,0.7c-0.7-0.8-0.4-1.5,0.2-2.2c2.2-1.2,4.3-1.2,6.5,0
		C311.2,430,311.3,430.6,311,431.1z"/>
	<path fill="#5D4537" d="M296,428c-0.3,0.6-0.6,1.1-0.9,1.7c-1-0.3-2-0.6-3.1-0.9c-0.9-0.8-1.7-1.6-1.1-3c0.4-0.3,0.8-0.5,1.2-0.7
		c1-0.2,1.9-0.1,2.8,0.4C295.8,426.1,296,427,296,428z"/>
	<path fill="#9A8977" d="M337.9,403c0,0.9,0,1.9,0,2.8c-0.3,0.6-0.5,1.3-1.2,1.7c-0.9,0.4-1.8,0.4-2.7-0.2c-0.3-0.4-0.5-0.8-0.6-1.2
		c0.2-1.9,1.5-2.8,3.1-3.4C337,402.6,337.5,402.7,337.9,403z"/>
	<path fill="#40312A" d="M279,410c-1,0.9-1.9,1.8-2.9,2.7c-2-0.8-0.5-2.7-1.3-3.9c0.2-0.1,0.3-0.3,0.5-0.4c1.4-0.2,2.6-1.6,4.1-0.3
		C279.6,408.9,279.5,409.5,279,410z"/>
	<path fill="#545446" d="M304,430.2c0,0.6,0,1.1,0,1.7c-1.7,0-3.4,0-5.1-0.1c0.7-0.9,1.3-1.8,2-2.8c0.3-0.3,0.7-0.4,1.1-0.4
		c0.6,0.2,1.2,0.5,1.6,0.9C303.8,429.8,303.9,430,304,430.2z"/>
	<path fill="#928876" d="M337.9,403c-0.3,0-0.6,0-0.9,0c-1.9-0.4-3.2-1.1-1.8-3.3c1.3-0.9,2.6-0.7,3.7,0.4c-0.1,0.9-0.2,1.9-0.2,2.8
		C338.4,402.9,338.2,402.9,337.9,403z"/>
	<path fill="#312C26" d="M271.9,386c0.1-0.3,0.2-0.6,0.4-0.9c0.6-0.6,1.3-0.8,2.1-0.6c1.1,0.5,1.4,1.4,1.3,2.6
		c-0.2,0.8-0.7,1.4-1.6,1.5l-0.2,0.2c0,0,0.1,0.3,0.1,0.3C272.8,388.4,272.1,387.4,271.9,386z"/>
	<path fill="#74573F" d="M289.3,428.8c-0.1-0.3-0.3-0.5-0.4-0.8c-0.2-1.6-0.4-3.1,2.1-2c0.3,0.9,0.7,1.8,1,2.8
		C291.1,428.8,290.2,428.8,289.3,428.8z"/>
	<path fill="#A99F8C" d="M340,372c-0.6,0.4-1.2,0.8-1.8,1.2c-1,0.5-1.7,0-2.3-0.7c-0.2-0.4-0.2-0.8,0-1.2c0.4-0.7,0.7-1.5,1.1-2.2
		C339,369,339.3,370.7,340,372z"/>
	<path fill="#B6A389" d="M272.9,372c-0.3-0.3-0.5-0.6-0.8-1c0.3,0,0.5-0.1,0.8-0.1c1.4-1,1.6-3.3,3.9-3.3c1.7,0.6,1.8,2.3,2.4,3.7
		c0.1,0.4,0.2,0.8,0.2,1.3c-0.1,0.6-0.4,1.2-0.9,1.6c-0.3,0.2-0.7,0.4-1.1,0.5c-0.4,0.1-0.8,0.1-1.2,0.1c-0.4-0.1-0.7-0.2-1.1-0.3
		c-0.5-0.3-0.9-0.6-1.3-1C273.4,373,273.3,372.4,272.9,372z"/>
	<path fill="#A69F8B" d="M340.9,384.1c-0.7,2.9-0.2,6.1-2,8.8c-1.6-0.6-2.6-1.6-2.5-3.4c0.3-1,0.9-1.8,1-2.8
		c0.1-0.4,0.2-0.8,0.4-1.2C338.6,384.6,339.3,383.4,340.9,384.1z"/>
	<path fill="#705D4A" d="M337.2,389c-0.5,1.8,1.3,2.5,1.7,3.9c-0.3,0.4-0.6,0.7-0.9,1.1c-0.3,0.1-0.6,0.2-0.9,0.3
		c-0.9,0.2-1.8,0.3-2.6-0.5c-0.5-0.5-0.9-1.1-1.1-1.8c-0.2-0.7-0.2-1.4,0.2-2.1c0.3-0.4,0.6-0.7,1-0.9
		C335.5,388.7,336.4,388.3,337.2,389z"/>
	<path fill="#CABBA1" d="M340.9,384.1c-1,0.6-1.9,1.3-2.9,1.9c-1.3-0.7-2-1.8-2.4-3.2c0-1,0.6-1.8,1.4-2.3c0.9-0.4,1.8-0.4,2.7,0.1
		c0.9,0.6,0.5,1.7,1.1,2.4c0,0,0.2,0,0.2,0C341,383.3,341,383.7,340.9,384.1z"/>
	<path fill="#766249" d="M298.9,363.1c1.6-0.8,2.8,0.4,4.1,0.9c0.6,0.4,1.3,0.7,1.5,1.5c0.1,0.8-0.1,1.4-0.7,2
		c-1.2,0.7-2.4,0.6-3.6,0.3c-1-0.3-1.8-0.8-2.5-1.6C297.1,364.7,297.6,363.8,298.9,363.1z"/>
	<path fill="#342818" d="M303.9,365.1c-0.3-0.3-0.6-0.7-0.9-1c0.5-0.1,1.1-0.1,1.6-0.2c1.6-1.4,3.7,0.4,5.3-0.8c1,0,2,0.1,2.9,0.1
		c0.4,1-0.1,1.7-0.7,2.4c-0.5,0.5-1.1,0.8-1.7,1c-0.7,0.2-1.4,0.1-2.1,0C306.9,366.2,305.2,366.3,303.9,365.1z"/>
	<path fill="#4C3219" d="M298.9,363.1c-0.3,0.9-0.5,1.8-0.8,2.7c0.4,1.5-0.7,1.7-1.8,1.9c-1.4-0.2-2.5-0.8-2.3-2.5
		c1-0.8,2-1.6,3-2.5C297.7,362.9,298.3,363,298.9,363.1z"/>
	<path fill="#574132" d="M310,363.1c-1.6,1.5-3.5,0.9-5.3,0.8c-0.5-1.6,0.2-2,1.6-1.6C307.6,362.6,308.8,362.8,310,363.1z"/>
	<path fill="#413625" d="M312,365c0.3-0.6,0.6-1.2,0.9-1.8c0.7-0.1,1.4-0.1,2-0.2c0.4,0.6,0.7,1.3,1.1,1.9
		C314.7,366.2,313.4,366.2,312,365z"/>
	<path fill="#9B866E" d="M274,379c0-0.7,0.1-1.4,0.1-2.1c0.3-0.3,0.6-0.5,1-0.7c0.4-0.1,0.8-0.2,1.2-0.2c0.4,0,0.8,0.1,1.2,0.2
		c0.4,0.1,0.8,0.4,1.1,0.6c0.7,0.6,1.1,1.4,1.2,2.3c0.1,0.7,0.1,1.4-0.1,2c-0.2,0.4-0.5,0.8-0.9,1c-2,0.2-3.8-0.3-5.1-2
		C273.6,379.8,273.6,379.4,274,379z"/>
	<path fill="#585149" d="M274,379c0,0.3,0,0.7,0,1c0.6,1.2,1.9,1.8,2.3,3.1c0,1.6-1.5,1.3-2.3,1.9c-0.6,0-1.2,0-1.8,0.1
		c0.8-1.7,1.1-3.4-0.3-5C272.6,379.7,273.3,379.3,274,379z"/>
	<path fill="#B29C90" d="M275.1,376.9c-0.3,0-0.7,0-1,0c0,0-0.1,0.1-0.1,0.1c-0.3-0.3-0.6-0.6-0.9-0.9c0-0.3-0.1-0.7-0.2-1
		c0.1-0.2,0.2-0.3,0.3-0.5c0.3-0.2,0.7-0.3,1.1-0.3c0.2,0,0.4,0.1,0.6,0.2c0.2,0.1,0.3,0.2,0.5,0.3c0.2,0.3,0.3,0.7,0.3,1.1
		C275.6,376.3,275.4,376.6,275.1,376.9z"/>
	<path fill="#9D9492" d="M272.3,375.1c-0.1-0.4-0.3-0.7-0.4-1.1c0.3-0.4,0.6-0.7,0.9-1.1c0.2,0,0.4,0.1,0.5,0.1
		c0.2,0.3,0.3,0.7,0.3,1c-0.1,0.4-0.3,0.7-0.6,0.9c0,0-0.2,0.1-0.2,0.1C272.6,375.1,272.4,375.1,272.3,375.1z"/>
	<path fill="#675847" d="M273,376.1c0.3,0.3,0.6,0.6,0.9,0.9C273.6,376.7,273.3,376.4,273,376.1z"/>
	<path fill="#BA9F8A" d="M340,381c-1,0-2,0-3,0c-0.7,0.5-1.4,0.6-2.2,0.1c-0.9-1.3-0.7-2.5,0.3-3.6c1.8-1.4,3.4-1.1,4.8,0.5
		c0,0,0,0,0,0c0,0.7,0.1,1.4,0.1,2c0.3,0.2,0.3,0.5,0.2,0.6C340.2,380.9,340.1,381,340,381z"/>
	<path fill="#877E72" d="M342,379c0,0.3,0,0.7,0,1c-0.4,0-0.7,0-1.1,0C341.4,379.7,341.7,379.3,342,379z"/>
	<path fill="#948171" d="M272.9,372c0.4,0.3,0.8,0.6,1.2,0.8c-0.1,0.1-0.2,0.3-0.3,0.4c-0.2-0.1-0.4-0.1-0.5-0.2
		c0,0-0.4-0.2-0.4-0.2C272.9,372.6,272.9,372.3,272.9,372z"/>
	<path fill="#523E2D" d="M291,426c-1.8-0.4-1.1,1.6-2.1,2c-1.7,0.4-2.7-0.9-4-1.5c0.7-1.2,1.4-2.4,2-3.5c0.8-0.8,1.6-1.5,2.8-1.4
		c0.9,0.1,1.7,0.5,2.5,1.1c1.2,1.2,1.4,2.3-0.3,3.3C291.7,426,291.3,426,291,426z"/>
	<path fill="#4B3321" d="M279,410c0-0.7,0-1.4,0-2c-1.8-2-2.1-4,0-6l0,0c2.6-1.3,3.4,0.7,4.4,2.4c0.2,0.4,0.3,0.9,0.4,1.4
		c0,0.5,0,0.9-0.1,1.4c-0.3,1.5-1.8,1.2-2.7,1.9c0,0.7,0,1.3,0,2C280.2,411,279.4,410.8,279,410z"/>
	<path fill="#453223" d="M283,413c0.3-0.7,0.7-1.4,1-2.1c1-1.1,2.3-1.1,3.6-1.5c0.4-0.1,0.9-0.1,1.4-0.1c0.5,0.1,0.9,0.2,1.3,0.4
		c0.8,0.6,1.2,1.4,1.2,2.4c-0.2,0.7-0.6,1.3-1.3,1.6c-0.9,0.5-1.8,0.8-2.7,1C285.7,415.2,284.2,414.4,283,413z"/>
	<path fill="#472E24" d="M289.9,422c-1,0.3-2,0.7-2.9,1c0.2-1.5-1.4-2-2-3c0.6-0.7,1.4-1,2.3-1.2c1.6,0,2.1-2.3,3.9-2
		c0.9,0.5,1.3,1.3,1.3,2.4C292,420.4,292.3,422.4,289.9,422z"/>
	<path fill="#695440" d="M288.1,409.9c-1,1.6-2.6,0.9-4,1c-0.7-1.1-1.7-1.9-3-2c0.7-0.7,1.3-1.3,2-2c0.4-0.4,0.6-1,1.1-1.4
		c0.4-0.2,0.8-0.2,1.2-0.2c0.4,0.1,0.7,0.3,1,0.6c0.1,0.4,0.2,0.7,0.2,1.1c0.1,0.5,0.4,1,0.7,1.4c0.3,0.3,0.5,0.6,0.7,0.9
		C288,409.5,288,409.7,288.1,409.9z"/>
	<path fill="#493A2D" d="M283,413c1.7,0.3,3.3,0.6,5,1c0.1,0.2,0.2,0.4,0.2,0.6c0,0.4-0.2,0.8-0.4,1.2c-0.5,0.7-1,1.3-1.8,1.7
		c-0.4,0.1-0.8,0-1.1-0.4C283.2,416.2,282.9,414.7,283,413z"/>
	<path fill="#2A1105" d="M285,417c0.3,0,0.6,0,1-0.1c0.4-0.3,0.9-0.4,1.4-0.2c1,0.9,1.7,1.9,0.7,3.2c-1,0-2,0-3,0
		C285,419,285,418,285,417z"/>
	<path fill="#4B3E30" d="M279,402c-0.8,2,0,4,0,6c-1.3,0.4-2.1,2.3-3.8,1.1c-0.1-3-0.1-6-0.2-9C277.6,398,277.2,402.3,279,402z"/>
	<path fill="#3C291D" d="M276.1,395c-0.3-1.6-0.6-3.3-0.9-4.9c1.4-1.4,2.9-1.4,4.6-0.5c0.7,0.5,1.1,1.2,1.4,2
		c0.2,1.3,0.9,2.7-0.4,3.9C279,396.4,277.5,396,276.1,395z"/>
	<path fill="#4A3829" d="M276.1,395c1.6,0,3.3,0,4.9,0c0.4,0.3,0.6,0.7,0.7,1.2c0.1,1.3-0.4,2.4-1.5,3.1c-0.5,0.2-0.9,0.1-1.3-0.2
		C276.7,398.6,276.6,396.7,276.1,395z"/>
	<path fill="#503D33" d="M280,390c-1.6,0-3.2,0.1-4.9,0.1c-0.3-0.5-0.7-1-1-1.5c0.3-0.5,0.6-1,0.9-1.5c0.5-0.6,0.9-1.5,2-1.3
		c1.2,0.4,2.2,1.2,3.2,2c0.4,0.6,0.5,1.2,0.3,1.8C280.3,389.7,280.1,389.8,280,390z"/>
	<path fill="#564533" d="M278.9,399.1c0.4,0,0.7-0.1,1.1-0.1c0.8,0.1,1.5,0.3,2.2,0.5c0.8,0.1,1.4,0.5,1.9,1.1
		c0.2,0.3,0.3,0.7,0.3,1.1c-0.1,0.5-0.2,1.1-0.4,1.6c-0.1,0.3-0.2,0.7-0.3,1c-0.1,0.2-0.2,0.3-0.3,0.5c-0.1,0.1-0.3,0.2-0.4,0.3
		c-1.4-1-1.8-3.2-4-3C279,401,278.9,400,278.9,399.1z"/>
	<path fill="#9E8372" d="M332,410c-1,0.7-2,1.3-3,2c-1.2,0.6-1.8-0.1-2.4-1c-0.2-0.5-0.2-1,0-1.5c0.7-1.3,1.9-1.5,3.2-1.6
		c0.8,0,1.5,0.2,2.1,0.7C332.3,409.1,332.3,409.5,332,410z"/>
	<path fill="#826852" d="M327.1,410.9c0.6,0.4,1.3,0.7,1.9,1.1c0,0.7,0,1.4,0,2.1c-0.5,0.3-0.9,0.5-1.4,0.7
		c-1.9,0.5-3.7,0.8-4.8-1.4C323.6,411.6,325.6,411.6,327.1,410.9z"/>
	<path fill="#755A47" d="M332,410c0-0.3-0.1-0.6-0.1-0.9c0.3-1,0.9-1.4,2-1.4c1.2,0.6,2.2,1.3,3,2.4c0.2,0.3,0.2,0.6,0,0.9
		C335.2,411,333.5,410.9,332,410z"/>
	<path fill="#422911" d="M328.1,414c0.3,0,0.6,0,0.9,0c0,0.3,0,0.6-0.1,0.9c-0.3,0-0.5,0-0.8,0c-0.1-0.2-0.3-0.3-0.4-0.5
		C327.8,414.3,327.9,414.2,328.1,414z"/>
	<path fill="#88715A" d="M328.1,414.9c0.3,1,0.6,2.1,0.9,3.1c0.2,0.2,0.4,0.4,0.4,0.7c0,0.3,0,0.4-0.1,0.4c-0.4,0.5-1,0.7-1.6,0.7
		c-0.6-0.1-1.2-0.2-1.7,0.2l0,0c-3,0-3.5-1.9-3.1-4.3C324.4,414.1,326.2,414.3,328.1,414.9L328.1,414.9z"/>
	<path fill="#81705F" d="M329,419c0-0.3,0-0.6,0-1c0.4,0,0.7,0,1.1,0c0,1.4,0,2.7,0,4.1c-0.7,0.6-1.3,1.3-2,1.9
		c-1.5-1-0.9-2.6-1.1-4c0.1-0.1,0.3-0.3,0.4-0.4C328,419.5,328.6,419.4,329,419z"/>
	<path fill="#4F392C" d="M316.9,425.9c-0.3,0-0.6,0.1-0.9,0.1c-0.7,0.6-1.5,1-2.5,0.9c-2-0.3-3.8-1.2-5.7-1.6
		c-0.6-0.3-1.1-0.8-1.3-1.5c-0.2-0.7-0.1-1.3,0.3-1.9c0.9-0.9,2.1-1.6,3.1-2.4c0.6-0.2,1.3-0.2,1.9,0c0.4,0.2,0.7,0.5,0.9,0.8
		c0.7,1.2,1.8,1.4,3.1,1.3c0.9,0,1.8-0.1,2.5,0.7C319.2,424.1,318.4,425.2,316.9,425.9z"/>
	<path fill="#725B50" d="M316.9,425.9c0.8-1.2,1.2-2.5,0.9-3.9c0.1-0.2,0.3-0.4,0.4-0.6c0.9-0.8,1.9-1.2,3.1-1.3
		c1.6,0,3.1,0.3,4.6,0.9c0.2,2.5-0.8,3.9-3.5,4c-1.2,0-2.6-0.2-3.5,1C318.3,426,317.6,425.9,316.9,425.9z"/>
	<path fill="#6B563D" d="M313,426c1,0,2.1,0.1,3.1,0.1c0,1.3,0,2.5,0,3.8c-1.4,0.4-2.7,0.4-3.9-0.6c-0.2-0.2-0.3-0.3-0.5-0.5
		C311.2,427.4,311.8,426.6,313,426z"/>
	<path fill="#725D4B" d="M325.9,421c-1.7,1.4-3.3,0.1-5,0c-0.8-0.7-1-1.6-0.9-2.7c0.1-0.5,0.2-1,0.4-1.4c0.6-0.8,1.4-1.4,2.5-0.9
		c0.8,1.5,1.2,3.3,3,4C326,420.3,326,420.7,325.9,421z"/>
	<path fill="#735B48" d="M326,420c0.4-0.3,0.8-0.7,1.2-1c0.2,0.2,0.3,0.4,0.2,0.6c-0.1,0.2-0.2,0.3-0.3,0.3c0,0-0.1,0-0.1,0
		C326.7,420,326.3,420,326,420z"/>
	<path fill="#3D2314" d="M296,428c-0.8-0.4-1-1.2-1-2c-0.4-0.8,0.1-1.1,0.8-1.3c0.9,0,1.7,0.3,2.5,0.7c0.6,0.4,1,0.8,0.7,1.6
		C298,427.3,297,427.6,296,428z"/>
	<path fill="#503423" d="M299,426.9c-0.3-0.3-0.6-0.6-1-1c-0.3-1.3,0.6-1.4,1.5-1.5c1.3,0.4,2.1,1.5,2.7,2.7c0.1,0.4,0,0.8-0.3,1.2
		c-0.6,0.2-1.3,0.2-1.8-0.3C299.7,427.7,299.3,427.3,299,426.9z"/>
	<path fill="#846746" d="M300.1,428.1c0.6,0,1.3,0,1.9-0.1c0.2,0.3,0.2,0.7,0,1c-0.3,0-0.7,0-1,0
		C300.7,428.7,300.4,428.4,300.1,428.1z"/>
	<path fill="#816A4E" d="M312.1,429.3c0,0.5-0.2,0.9-0.8,0.8c-2.4,0-4.9,0.1-7.3,0.1c0,0,0-0.2,0-0.2c-0.3-0.2-0.4-0.4-0.4-0.6
		c0-0.3,0.1-0.4,0.1-0.4c0.3-0.5,1.8-0.2,1-1.5c0.3-0.6,0.8-0.9,1.5-1c1.5,0.1,3,0.4,4.4,0.9c0.6,0.3,0.9,0.9,1.3,1.4
		C312,428.9,312.1,429.1,312.1,429.3z"/>
	<path fill="#442C17" d="M296,425c-0.3,0.3-0.6,0.6-0.9,1c-1,0-2,0-3,0c0.6-1,0.6-2,0-3c0-1,0.2-1.8,1.1-2.4
		c0.5-0.2,0.9-0.2,1.4-0.2c1,0.3,1.7,0.9,2.1,1.9C296.9,423.3,296.8,424.3,296,425z"/>
	<path fill="#9B8470" d="M335.1,399.9c-0.2,1.6,1.3,2,1.9,3.1c-1,1-2,2-3,3c-0.9,0.8-1.9,0.9-2.9,0.4c-0.6-0.6-0.9-1.3-0.9-2.1
		c0.1-1.6,1.1-2.9,2.1-4C333.2,399.5,334.1,399.2,335.1,399.9L335.1,399.9z"/>
	<path fill="#694E3E" d="M331,406c1,0,2,0,3,0c0.1,0.3,0.1,0.7,0.2,1c0.2,0.4,0.1,0.7-0.2,0.9c-0.7,0.4-1.3,0.7-2,1.1
		c-0.7-0.1-1.3-0.1-2-0.2c-0.5-0.6-0.7-1.2-0.6-2C329.7,406.2,330.1,405.7,331,406z"/>
	<path fill="#A89582" d="M333.9,408c0.1-0.3,0.1-0.6,0.2-0.9c0.9,0,1.9,0,2.8,0c0,1-0.1,2-0.1,3.1
		C335.4,410.1,334.1,409.9,333.9,408z"/>
	<path fill="#795E40" d="M304,429c0,0.3,0,0.6,0,0.9c-0.9,0.1-1.6-0.1-2-0.9c0-0.3,0-0.7,0-1c0,0-0.1-0.1-0.1-0.1
		c0.3-0.3,0.6-0.4,1-0.3C303.5,427.9,303.9,428.4,304,429z"/>
	<path fill="#4A3D31" d="M277,386c-0.7,0.3-1.3,0.7-2,1c0-0.8-0.2-1.6-1-2c0.7-0.7,1.3-1.3,2-2c1.1-0.5,1.7,0,2.3,0.8
		C278.5,384.9,278,385.6,277,386z"/>
	<path fill="#452B17" d="M312,365c1.3,0,2.7,0,4,0c2.7-0.8,5.3,0.2,8,0.2c0.8,0.8,0.9,1.8,0.4,2.8c-0.5,0.6-1.2,0.8-2,0.8
		c-1.1-0.1-2.3-0.4-3.4-0.4c-1.1-0.1-2.2-0.1-3.3-0.4c-1-0.3-2-0.6-3.1-0.9c-0.4-0.1-0.8-0.3-1.2-0.5c-0.1-0.2-0.3-0.3-0.4-0.5
		C311.3,365.7,311.7,365.3,312,365z"/>
	<path fill="#413625" d="M324,368c0-0.9,0-1.9,0-2.8c3.1-0.2,4.6,2.8,7,3.8c-0.4,1.1-1.2,1.9-2.1,2.5c-0.7,0.2-1.4,0.2-2,0
		C325.6,370.6,323.6,370.2,324,368z"/>
	<path fill="#381C10" d="M329,370.9c0-1.3,0.8-1.8,2-1.9c1.9-0.2,2.6,1.5,3.9,2.3c1.2,1.5,0.2,2-1.1,2.3c-0.9-0.7-1.9-0.2-2.8-0.2
		C330.1,372.7,329.4,372,329,370.9z"/>
	<path fill="#5A4436" d="M333,373c1.1,0,1.8-0.6,1.9-1.8c0.3,0,0.7,0,1,0c-0.1,0.3-0.1,0.5,0,0.8c1.4,2.2,2.1,4-1.8,3.6
		C333.2,375,332.6,374.3,333,373z"/>
	<path fill="#CCB9A1" d="M334.2,375.2c3.3,0.4,2-1.7,1.8-3.2c0.7,0.4,1.5,0.8,2.2,1.2c0.6,1.6,1.2,3.2,1.8,4.8c-1.4,0-2.7-1-4.1-0.1
		c-0.8-0.3-1.6-0.7-2-1.6C333.7,375.9,333.8,375.5,334.2,375.2z"/>
	<path fill="#523825" d="M284,365.1c0.3,0,0.6-0.1,0.9-0.1c0,0-0.1,0.1-0.1,0.1c0.5,0.4,0.9,0.2,1.3-0.1c1.9-0.4,3.9-0.8,5.8,0.1
		c0.4,1-0.1,1.7-0.7,2.5c-0.5,0.5-1.1,0.9-1.8,1c-1.7,0.1-3.3-0.3-4.8-1c-0.6-0.4-1.1-0.9-0.7-1.8C284,365.6,284,365.4,284,365.1z"
		/>
	<path fill="#583C27" d="M291,366.9c0.3-0.6,0.6-1.2,1-1.8c0.7,0,1.4,0,2.1,0.1c0.6,0.6,1.3,1.2,1.9,1.8c0.3,0.5,0.3,1-0.2,1.4
		C293.8,369.3,292.2,368.7,291,366.9z"/>
	<path fill="#AA8D71" d="M276.9,374c0.4,0,0.8-0.1,1.2-0.1c0.4-0.1,0.8,0,1,0.3c0.1,0.4,0,0.8-0.3,1.1c-0.6,0.3-1.2,0.2-1.8-0.2
		c-0.2-0.2-0.3-0.5-0.3-0.7C276.8,374.2,276.8,374,276.9,374z"/>
	<path fill="#8C7A69" d="M274.1,372.9c0.4,0.4,0.8,0.8,1.2,1.2c-0.2,0.1-0.4,0.2-0.6,0.4c-0.2,0-0.4-0.1-0.7-0.1
		c-0.1-0.2-0.3-0.4-0.4-0.5c0.1-0.2,0.2-0.4,0.3-0.6C273.9,373.1,274.1,372.9,274.1,372.9z"/>
	<path fill="#C19C83" d="M275.3,374c0.3,0,0.6,0,0.8,0c0.2,0.4,0.1,0.7-0.2,1c-0.4,0.2-0.7,0.2-1-0.1l0.1,0.1
		c-0.3-0.2-0.5-0.4-0.4-0.6c0.1-0.2,0.2-0.4,0.3-0.4L275.3,374z"/>
	<path fill="#E3BEA5" d="M276,375c0-0.3,0-0.6,0.1-0.9c0.3,0,0.5,0,0.7,0c0.1,0.3,0.1,0.6,0.1,0.9c0,0-0.2,0.3-0.2,0.3
		c0,0-0.4,0-0.4,0S276,375,276,375z"/>
	<path fill="#A8937E" d="M279,373.1c0-0.4,0-0.8,0-1.2c0,0,0.3,0.1,0.3,0.1c0.3-0.2,0.7-0.3,1,0c0.1,0.4,0.1,0.7-0.2,1.1
		C279.7,373.3,279.3,373.3,279,373.1L279,373.1z"/>
	<path fill="#7C6B58" d="M280,370.1c0.4-1,0.9-2,1.3-3c0.8-0.6,1.5-1.4,2.6-1.3c0.4,0.4,0.7,0.8,1.1,1.1c0.6,0.5,1.4,0.9,1.3,1.9
		c-0.2,0.6-0.6,1.1-1.1,1.5c-0.4,0.2-0.7,0.4-1.2,0.5c-0.4,0.1-0.8,0.1-1.2,0.2c-0.4,0-0.8,0-1.3-0.1c-0.4-0.1-0.8-0.2-1.2-0.4
		C280.3,370.4,280.1,370.2,280,370.1z"/>
	<path fill="#A99689" d="M334.9,393.1c0.7,0.4,1.5,0.8,2.2,1.2c-0.4,0.2-0.7,0.5-1.1,0.7c-0.4,0.3-0.7,0.6-1.1,1
		c0,0.6,0.1,1.3,0.1,1.9c-0.6,0.7-1.3,0.8-2.1,0.5c-1.3-0.7-1.8-1.9-1.7-3.4C331.9,393.3,333.1,392.5,334.9,393.1z"/>
	<path fill="#B49F8A" d="M332.8,397.9c0.7,0,1.5,0,2.2-0.1c0,0-0.1,0.1-0.1,0.1c0.2,0.2,0.3,0.4,0.2,0.6c-0.1,0.2-0.1,0.3-0.2,0.3
		c0,0.3,0,0.7,0.1,1c-0.7,0.4-1.4,0.7-2.1,1.1c-1,0.5-1.6,0-2.2-0.7c-0.2-0.4-0.2-0.9-0.1-1.3C331.2,398.2,331.8,397.6,332.8,397.9z
		"/>
	<path fill="#3A2B14" d="M335,398.9c0-0.3,0-0.6,0-0.9c0.2,0.2,0.5,0.4,0.7,0.6C335.5,398.7,335.3,398.8,335,398.9z"/>
	<path fill="#2E1F0E" d="M335,396c0.4-0.3,0.7-0.6,1.1-1C336,395.6,335.7,396,335,396z"/>
	<path fill="#BEA48C" d="M336,383c1.3,0.6,2,1.6,2,3c0,0.3,0,0.6,0,0.9c-0.6,0.9-1.6,1-2.6,1.2c-1.4,0.2-2.8,0.2-4.3,0.4
		c-1,0-1.8-0.5-2.3-1.4c-0.1-0.5-0.1-0.9,0.1-1.4c1.4-1.3,2.9-2.3,4.5-3.3c0.5-0.2,0.9-0.2,1.4-0.2C335.3,382.4,335.7,382.6,336,383
		z"/>
	<path fill="#83745D" d="M335.2,387.1c0.9,0,1.9-0.1,2.8-0.1c1.5,1.3,0.7,1.8-0.7,2.1c-0.8,0.3-1.6,0.6-2.4,0.9
		C334.2,388.9,334.2,387.9,335.2,387.1z"/>
	<path fill="#BDA383" d="M335.2,387.1c-0.1,0.9-0.2,1.9-0.3,2.8c-0.3,0.1-0.6,0.1-0.9,0.2c-0.9,0.7-1.8,0.9-2.8,0.4
		c-0.4-0.3-0.7-0.7-0.7-1.3c0-0.5,0.2-1,0.6-1.3C332.2,386.5,333.7,387.1,335.2,387.1z"/>
	<path fill="#6D553D" d="M331,389.9c1,0.1,2,0.1,3,0.2c0,0.6,0,1.2,0,1.9c-0.7,1-1.7,1.4-2.8,1.4c-0.7-0.2-1.2-0.6-1.5-1.3
		c-0.3-0.7-0.2-1.3,0.2-1.9C330.1,389.9,330.5,389.8,331,389.9z"/>
	<path fill="#7B6961" d="M331,393c1-0.4,2-0.7,3-1.1c0.3,0.4,0.6,0.8,1,1.2c-1,0.6-2,1.2-2.9,1.9c-0.6,0.6-1.3,0.6-2,0.3
		c-0.3-0.4-0.5-0.8-0.5-1.4C329.8,393.2,330,392.5,331,393z"/>
	<path fill="#795E48" d="M336,383c-0.3,0-0.6,0-0.9-0.1c-0.4-0.2-0.6-0.5-0.6-0.9c0.1-0.4,0.2-0.7,0.6-1c0.6,0,1.3,0,1.9,0
		C336.6,381.7,336.3,382.3,336,383z"/>
	<path fill="#2F1A0B" d="M300,367c1.3,0,2.7,0.1,4,0.1c1.2-0.2,2.3-0.1,3.2,0.8c0.2,0.5,0.2,0.9,0,1.4c-2.1,2.6-4.7,1.3-7.3,0.9
		c-0.3-0.4-0.6-0.8-0.7-1.3C299.2,368.2,299.4,367.5,300,367z"/>
	<path fill="#4D3224" d="M300,367c0,0.7,0,1.4-0.1,2.1c-0.8,0.7-1.7,1-2.8,0.7c-0.7-0.3-1.3-0.7-1.2-1.6c0-0.4,0.1-0.8,0.1-1.2
		c0.9,0,1.7-0.3,2.1-1.1C298.7,366.2,299.4,366.6,300,367z"/>
	<path fill="#574132" d="M307,368c-1.1-0.1-2.3,0.3-3-0.9c0-0.7,0-1.3-0.1-2c1.7,0.1,3.6-0.6,5.1,0.8c-0.3,0.7-1.1,0.8-1.5,1.4
		C307.5,367.6,307.3,367.8,307,368z"/>
	<path fill="#7C6C64" d="M307,367.1c-0.4-2.1,1.5-0.6,2.1-1.3c0.6,0,1.3,0.1,1.9,0.1c0,0-0.1,0.1-0.1,0.1c0.4,0.5,0.3,1-0.2,1.3
		C309.4,368.2,308.2,368,307,367.1z"/>
	<path fill="#D1B7A0" d="M279,381c0.1-0.6,0.1-1.3,0.2-1.9c0.5-0.6,1.2-0.8,2-0.8c1.3,0.2,2.4,0.8,3.2,1.9c0.5,1,0.5,2,0,2.9
		c-0.6,0.6-1.3,0.8-2.1,0.8C280.4,383.7,279.8,382.3,279,381z"/>
	<path fill="#C5AE93" d="M281.1,378.9c-0.6,0-1.3,0.1-1.9,0.1c-0.4-0.7-0.8-1.4-1.1-2c0-0.4,0-0.7,0.1-1c0.2-0.3,0.4-0.6,0.6-0.8
		c0.1-0.4,0.1-0.8,0.2-1.2c0,0,0,0.1,0,0.1c0.3-0.3,0.6-0.4,1-0.4c0.6,0.1,1.1,0.2,1.7,0.3c0.4,0,0.8,0.1,1.2,0.2
		c0.6,0.2,1.2,0.4,1.5,1c0.1,0.4,0,0.8-0.2,1.2C283.2,377.3,282.2,378.2,281.1,378.9z"/>
	<path fill="#402815" d="M279,381c1,0.7,2,1.4,3,2.1c1.2,0.7,1.9,1.5,1.3,2.9c-0.4,0.3-0.8,0.5-1.3,0.6c-2-0.2-3-1.5-3.5-3.3
		c0-0.5,0.2-0.9,0.5-1.3C279,381.6,279,381.3,279,381z"/>
	<path fill="#382919" d="M279,382c0,0.3,0,0.7,0,1c-0.3,0.4-0.4,1-1,1c-0.7-0.3-1.3-0.6-2-0.9c-1.3-0.6-1.9-1.7-2-3.1
		C275.7,380.6,277.3,381.3,279,382z"/>
	<path fill="#AA8D71" d="M278.8,375.9c-0.3,0.4-0.5,0.7-0.8,1.1c-0.4,0-0.8,0-1.1,0c-0.2-0.4-0.1-0.8,0.2-1.1
		C277.7,375.5,278.2,375.4,278.8,375.9z"/>
	<path fill="#6C553A" d="M275.9,377c0-0.3,0.1-0.7,0.1-1c0,0,0.3-0.4,0.3-0.4c0,0,0.4,0,0.4,0c0,0,0.2,0.4,0.2,0.4c0,0.3,0,0.6,0,1
		C276.6,377,276.3,377,275.9,377z"/>
	<path fill="#6D492F" d="M276,376c-0.3,0-0.7,0-1,0c0-0.3,0-0.7,0-1c0.3,0,0.7,0,1,0c0,0,0,0,0,0c0.3,0.2,0.5,0.4,0.3,0.6
		C276.2,375.9,276.1,376,276,376L276,376z"/>
	<path fill="#4D3429" d="M274.1,375c0-0.3-0.1-0.7-0.1-1c0.3,0,0.7,0,1,0c0,0.3,0.1,0.7,0.1,1C274.7,375,274.4,375,274.1,375z"/>
	<path fill="#534030" d="M274,374.1c-0.3-0.1-0.6-0.1-1-0.2c0-0.3,0-0.6,0.2-0.8c0.2-0.1,0.5-0.1,0.7,0
		C274,373.4,274,373.8,274,374.1z"/>
	<path fill="#3C2313" d="M293,421c0,0.8-0.2,1.6-1,2c-0.8,0-1.6-0.2-2.1-1c0.7-1,1.4-2,2.1-3C293.7,419,293.7,419.8,293,421z"/>
	<path fill="#634D38" d="M285.1,406c-0.4,0-0.7,0-1.1,0c-0.3,0.4-0.7,0.3-1,0c0-0.3,0-0.7,0-1c0,0,0,0,0,0c0.6-0.6,1.2-0.6,1.9-0.3
		c0.3,0.3,0.4,0.5,0.3,0.8C285.2,405.8,285.1,406,285.1,406z"/>
	<path fill="#725842" d="M283,406c0.3,0,0.7,0,1,0c-0.3,0.3-0.7,0.7-1,1C283,406.7,283,406.3,283,406z"/>
	<path fill="#503829" d="M291,411.9c-0.3-0.6-0.7-1.3-1-1.9c0-0.4-0.1-0.8-0.2-1.1c-0.1-0.4-0.1-0.8-0.1-1.2
		c0.1-0.2,0.1-0.4,0.2-0.6c0.3-0.3,0.6-0.6,1-0.8c0.8-0.3,1.7-0.3,2.6-0.2c1.9,0.6,3.9,1,5.5,2.3c0.3,0.3,0.5,0.7,0.7,1.2
		c0,0.5,0,0.9-0.2,1.3c-0.3,0.3-0.7,0.6-1.1,0.8c-0.8,0.4-1.7,0.7-2.6,0.9c-1.2,0.3-2.3,0.4-3.5,0
		C291.7,412.6,291.3,412.3,291,411.9z"/>
	<path fill="#583F31" d="M291,411.9c0.3,0,0.7,0,1,0.1c0.5,0.5,0.6,1.2,0.4,1.9c-0.3,0.7-0.8,1.1-1.5,1.3c-0.5,0.1-0.9-0.1-1.2-0.4
		c-0.3-0.7-0.3-1.3,0.4-1.9C290.4,412.6,290.7,412.3,291,411.9z"/>
	<path fill="#4A3122" d="M291,409c-0.3,0.3-0.7,0.7-1,1c-0.3,0-0.6,0-0.9,0c-0.6-0.5-0.6-1.1-0.2-1.8c0.4-0.3,0.8-0.4,1.2-0.2l0,0.1
		C290.3,408.4,290.7,408.7,291,409z"/>
	<path fill="#654C3E" d="M290,413c0,0.7,0,1.3-0.1,2c-0.3,0.2-0.6,0.3-1,0.2c-0.5-0.2-0.7-0.7-1-1.2c0,0,0,0,0,0
		C288.5,413.1,289.2,413,290,413z"/>
	<path fill="#B69E8B" d="M289,408c0,0.7,0,1.4,0,2c0,0-0.5,0-0.5,0s-0.5-0.1-0.5-0.1c0,0,0,0.1,0,0.1c-0.5-0.4-0.6-1-0.6-1.7
		c0.2-0.4,0.5-0.6,1-0.6C288.7,407.8,288.9,407.9,289,408z"/>
	<path fill="#503726" d="M293,421c0-0.8-0.2-1.6-1-2c-0.3-0.7-0.7-1.4-1-2c-0.1-0.2-0.2-0.4-0.3-0.7c0.1-0.2,0.2-0.4,0.4-0.6
		c0.4-0.3,0.8-0.5,1.3-0.6c1.2-0.3,2.4-0.2,3.5,0.5c0.3,0.4,0.5,0.8,0.6,1.3c-0.2,1.7-0.6,3.3-2.4,4.1C293.7,421,293.4,421,293,421z
		"/>
	<path fill="#61473C" d="M291,416c0,0.3,0,0.6,0,1c-1.3,0.7-0.8,3.2-3,3c-0.3-1-0.7-2-1-3c0.2-0.6,0.6-1.1,1.1-1.4
		c0.4-0.1,0.8-0.2,1.2-0.1C289.9,415.5,290.6,415.4,291,416z"/>
	<path fill="#3A230C" d="M285.1,406c-0.1-0.3-0.1-0.6-0.1-0.9c-0.2-0.3-0.3-0.5-0.3-0.8c0.1-0.3,0.1-0.4,0.2-0.4
		c0.4-0.3,0.8-0.4,1.3-0.4c1.3,0.4,2.2,1,1.8,2.5c-0.6,0.5-1.2,0.7-1.9,0.2C285.7,406.1,285.4,406,285.1,406z"/>
	<path fill="#341E07" d="M287,409c-0.7-0.1-1.9,0-2.1-0.4c-0.5-0.8,0.4-1.3,1.2-1.6c0.2,0,0.4,0.1,0.6,0.1c0.3,0.2,0.6,0.5,0.8,0.8
		C287.4,408.4,287.3,408.7,287,409z"/>
	<path fill="#49301E" d="M287,409c0-0.3,0-0.6,0-0.9c0.3-0.3,0.6-0.3,1-0.1c0,0.7,0.1,1.3,0.1,2C287.7,409.7,287.4,409.3,287,409z"
		/>
	<path fill="#927860" d="M286.1,406.1c0.6,0,1.3-0.1,1.9-0.1c0.1,0.2,0.2,0.3,0.3,0.5c0,0.4-0.2,0.7-0.6,0.9
		c-0.6,0.1-1.2,0.1-1.6-0.5c0,0,0,0,0,0C286,406.7,286,406.4,286.1,406.1z"/>
	<path fill="#3F2619" d="M288,416c-0.3,0.3-0.7,0.7-1,1c-0.3,0-0.7,0-1,0c0.7-0.7,1.3-1.3,2-2c0.1,0.2,0.3,0.3,0.4,0.5
		C288.3,415.7,288.1,415.8,288,416z"/>
	<path fill="#3F2618" d="M288,414c0.3,0.3,0.6,0.7,1,1c-0.2,0.1-0.3,0.3-0.5,0.4c-0.2-0.1-0.3-0.3-0.5-0.4c0,0,0,0,0,0
		C288,414.7,288,414.3,288,414z"/>
	<path fill="#49352C" d="M280.1,392c0-0.7,0-1.4-0.1-2c0,0,0,0,0,0c0.8-1.4,1.9-2.1,3.6-1.7c0.7,0.2,1.2,0.7,1.6,1.3
		c0.3,0.7,0.1,1.3-0.3,1.9c-0.5,0.7-1.1,1.4-1.9,1.8C281.6,393.5,280.8,392.8,280.1,392z"/>
	<path fill="#4F3C34" d="M280.1,392c1,0.3,2,0.6,2.9,1c0.7-0.5,1.1,0,1.5,0.6c0.1,0.4,0.1,0.8,0,1.3c-0.2,0.6-0.7,1.1-1.2,1.5
		c-0.4,0.2-0.8,0.3-1.2,0.3c-0.4-0.1-0.8-0.3-1.1-0.6c0-0.3,0-0.7,0-1C280.7,394,280.4,393,280.1,392z"/>
	<path fill="#3F3122" d="M281,396c0.3,0,0.7,0,1,0c1.3,1.3,2.2,2.7,0,4c-1.5,1.2-1.5-0.4-2-1C280.3,398,280.7,397,281,396z"/>
	<path fill="#4F3A2C" d="M278,383.9c0.3-0.3,0.7-0.7,1-1c0.6,1.4,1.7,2.4,3,3.1c0.4,1.7-0.9,1.8-2,2c-1.4,0-2.4-0.7-3-2
		C277.3,385.3,277.7,384.6,278,383.9z"/>
	<path fill="#4D3528" d="M280,388c0.7-0.7,1.3-1.3,2-2c0.3,0,0.7,0,1-0.1c0.8-0.1,1.6-0.6,2.4,0.2c0.3,0.6,0.3,1.2,0.1,1.9
		c-0.4,0.6-0.9,0.9-1.6,1c-1.4-0.2-2.6,0.4-3.8,1C280,389.3,280,388.7,280,388z"/>
	<path fill="#41301E" d="M284,401.9c0-0.3,0-0.6,0-0.9c-1-1.8-0.1-2.4,1.5-2.7c0.8,0.1,1.5,0.4,2,1.1c0.5,1,0.5,2,0.2,3
		c-0.2,0.5-0.5,0.8-1,1c-0.5,0-1,0.1-1.4,0C284.6,403.2,284.1,402.7,284,401.9z"/>
	<path fill="#3B2C1F" d="M286,399c-1.3,0-2,0.7-2,2c-0.7-0.3-1.3-0.7-2-1c0.9-1.4,0-2.7,0-4c0.3,0,0.7,0,1,0
		c1.1,0.2,1.8,0.8,2.6,1.4C286.1,397.9,286.4,398.4,286,399z"/>
	<path fill="#8B7A66" d="M284,401.9c0.3,0.4,0.7,0.7,1,1.1c-0.3,0.3-0.6,0.5-1,0.6c-0.4-0.1-0.7-0.3-0.9-0.7
		C283.4,402.5,283.7,402.2,284,401.9z"/>
	<path fill="#432C17" d="M285,404c0,0.4,0,0.7-0.1,1.1c-0.6,0-1.3-0.1-1.9-0.1c0-0.3,0-0.7,0-1c0.3-0.3,0.6-0.4,1-0.5
		C284.4,403.5,284.8,403.7,285,404z"/>
	<path fill="#5D4B39" d="M284,404c-0.3,0-0.7,0-1,0c0-0.4,0.1-0.8,0.1-1.2c0.3,0.1,0.6,0.1,0.9,0.2c0.3,0.2,0.4,0.4,0.3,0.6
		C284.2,403.9,284.1,404,284,404z"/>
	<path fill="#705642" d="M327.1,410.9c-0.4,2.7-2.4,1.9-4.1,2.1c-1.4,0.3-1.5-0.6-1.5-1.6c0.3-0.9,1.1-1.3,1.9-1.7
		c0.8-0.3,1.6-0.2,2.4-0.2c0.4,0,0.8,0.2,1,0.5C327,410.3,327,410.6,327.1,410.9z"/>
	<path fill="#563D2B" d="M326.9,410l-0.5,0l-0.5,0c-0.9-1-0.8-2.1,0-3.2c1.4-1,2.7-1,4,0.2c0,0.6,0,1.3,0,1.9
		C328.9,409.1,327.6,408.8,326.9,410z"/>
	<path fill="#7E6753" d="M322,411.2c0,0.8,0.2,1.5,1,1.8c1.4,1.7,3.4,0.7,5.1,1c-0.1,0.3-0.1,0.6,0,0.9c-1.8,0-3.5,0.1-5.1,1.1
		c-0.7,0.3-1.3,0.7-2,1c-1.3,0-2.1-0.6-2.7-1.8c-0.2-0.4-0.3-0.9-0.3-1.3c-0.1-0.9,0-1.9,0.5-2.7c0.3-0.4,0.7-0.7,1.1-0.8
		c0.5-0.1,0.9-0.1,1.4,0C321.4,410.5,321.8,410.8,322,411.2z"/>
	<path fill="#A38C79" d="M327.1,420c0-0.3,0-0.6,0-0.9c0.6,0,1.2,0,1.9,0C328.6,419.8,327.9,419.9,327.1,420z"/>
	<path fill="#6B4B38" d="M303,428c-0.4,0-0.7,0-1.1-0.1c-0.6-1-2.1-1.4-2-2.9c-0.2-0.2-0.3-0.4-0.3-0.7c0-0.3,0.1-0.4,0.1-0.4
		c1.1-0.9,2.4-0.3,3.6-0.5c1.2,0,2.5-0.5,3.6,0.6c0.3,0.3,0.7,0.7,1,1c0.2,0.2,0.3,0.4,0.3,0.7c0,0.3,0,0.4-0.1,0.4
		c-0.6,0.7-1.6,0.3-2.2,0.9c-0.3,0.3-0.6,0.7-0.9,1C304.4,428.6,303.7,428.6,303,428z"/>
	<path fill="#5A3F29" d="M308,426c0-0.3,0-0.7,0-1c2-1.2,3.4,0.4,5,1c-0.4,0.9-0.7,1.8-1.1,2.7c-0.3-0.2-0.6-0.5-0.9-0.7
		C310.1,427.2,308.3,427.7,308,426z"/>
	<path fill="#564238" d="M307,424c-1.3,0-2.7,0.9-4,0c-0.6-0.6-0.6-1.4-0.2-2.1c1.1-0.9,2.4-1,3.7-0.4c0.2,0.2,0.4,0.4,0.5,0.6
		C307,422.7,307,423.4,307,424z"/>
	<path fill="#695044" d="M312,420.1c-0.7,0-1.4,0-2.1-0.1c-1.1,0.8-1.8,0.4-2.4-0.6c-0.2-1.1,0.2-1.9,1.1-2.5
		c1.7-0.4,3.1,0.5,4.6,1.1c0.4,0.7,0.4,1.3,0,2C312.9,420.3,312.5,420.3,312,420.1z"/>
	<path fill="#422F19" d="M312,420.1c0.3-0.1,0.7-0.1,1-0.2c0.9-0.7,1.8-0.8,2.9-0.6c1.1,0.6,2.4,1,2.1,2.7c0,0-0.2,0-0.2,0
		c-0.6,0.3-1.2,0.7-1.9,1c-1.1-1.2-3-0.7-4-2C312,420.7,312,420.4,312,420.1z"/>
	<path fill="#7A6650" d="M312,421c1.7-0.1,3.2,0.2,4,2C314.4,422.8,312.3,423.7,312,421z"/>
	<path fill="#7B6852" d="M308,419c0.4,0.8,1.2,0.9,2,0.9c0.1,2.2-1.6,2-3,2.1c0,0,0-0.1,0-0.1c-0.8-0.8-0.9-1.8-0.4-2.8
		C307.1,418.7,307.5,418.7,308,419z"/>
	<path fill="#826D5F" d="M318,422c-0.7-0.6-1.4-1.3-2-1.9c-0.5-0.6-0.6-1.3-0.3-2c1.7-1.1,3.5-1.4,5.3-0.2c0,1,0,2.1,0,3.1
		C320,421.3,319,421.7,318,422z"/>
	<path fill="#543A30" d="M321,417.9c-1.7-0.2-3.3,1.1-5,0.2c-1,0.7-2,0.8-2.9,0c-1.8,1.1-3,0.1-4.1-1.1c-1,0.2-1.3-0.3-1.1-1.2
		c0.4-0.3,0.8-0.6,1.2-0.8c1.6-0.4,3.2-0.4,4.8-0.8c1.7,0.2,3.5-0.3,5,0.7c0.7,0.7,1.3,1.3,2,2C321,417.3,321,417.6,321,417.9z"/>
	<path fill="#5A3E2C" d="M300,424c0,0.3,0,0.7,0,1c-0.8,0-1.5,0.2-2,0.9c-0.8,0-1.6-0.2-2-0.9c0-1,0-2,0-3c0.6-0.6,1.2-0.7,2-0.6
		C299.1,422,300.4,422.3,300,424z"/>
	<path fill="#6D5134" d="M308,426c1,0.7,2,1.3,3,2c-1.8,0.1-3.5,0-5-1C306.4,426.2,307.2,426,308,426z"/>
	<path fill="#675136" d="M303,428c0.7,0,1.4,0,2.1,0c0.8,1.5-0.6,0.8-1.1,1C303.7,428.7,303.3,428.3,303,428z"/>
	<path fill="#624A35" d="M298,422c-0.7,0-1.4,0-2.1,0c-0.6-0.4-1.3-0.7-1.9-1.1c0.6-1.3,1.3-2.7,1.9-4c1.7-0.7,2.5,0.6,3.3,1.7
		c0.2,0.4,0.3,0.9,0.3,1.3C299.5,421,299,421.7,298,422z"/>
	<path fill="#9E8772" d="M331,400c0.7,0.3,1.3,0.7,2,1c-0.7,1.1-1.4,2.1-2.1,3.2c-0.5,0.7-1.1,1.4-2.1,1.2c-0.9-0.3-1.6-0.7-2.1-1.5
		c-0.2-1.2,0.3-2.2,1.1-3C328.8,400.3,329.9,400.2,331,400z"/>
	<path fill="#876F5D" d="M329,405c0.6-0.3,1.3-0.5,1.9-0.8c0,0.6,0.1,1.2,0.1,1.8c-0.3,0.3-0.6,0.6-1,0.9c-1.3,0-2.6,0-4,0
		c-0.1-0.2-0.1-0.4-0.2-0.6C326.5,405.1,327.5,404.5,329,405z"/>
	<path fill="#5A4939" d="M311,366.9c0-0.3,0-0.5-0.1-0.8c0.4,0,0.7-0.1,1.1-0.1c0.8,1,1.9,1.3,3.1,1.5c0.7,0.1,1.1,0.5,1.4,1.1
		c0.4,1.3,2,2.8-0.3,3.9c-2.1,0.1-4.2-0.1-5.7-1.7C309.8,369.4,310,368.1,311,366.9z"/>
	<path fill="#483124" d="M324,368c1,1,2,2,3,3c-0.1,0.7-0.5,1.1-1.1,1.4c-0.6,0.2-1.2,0.3-1.8,0.1c-1-0.4-1.7-1.1-2.6-1.7
		c-0.3-0.3-0.6-0.6-0.8-1c0-0.9,0.4-1.6,1.3-1.9C322.7,368,323.3,368,324,368z"/>
	<path fill="#513828" d="M322,368c-0.3,0.6-0.7,1.3-1,1.9c-1.3,1.1-2.2,0.5-3.1-0.5c-0.5-1.2,0.3-1.8,1.1-2.4
		C320.1,367,321.3,366.8,322,368z"/>
	<path fill="#413625" d="M315,368c-2.2,1.1-2.9-0.1-3-2c1.1,0,2.3-0.2,3,1c0.3,0.2,0.5,0.5,0.4,0.7C315.2,367.9,315.1,368,315,368z"
		/>
	<path fill="#574E3D" d="M315,368c0-0.3,0-0.7,0-1c1.3,0,2.7,0,4,0c-0.3,0.7-0.6,1.3-1,1.9c-0.7,0.7-1.4,0.6-2,0
		C315.7,368.6,315.3,368.3,315,368z"/>
	<path fill="#6B5347" d="M326.1,371.9c0.3-0.3,0.6-0.7,0.9-1c0.7,0,1.4-0.1,2-0.1c1.2,0.1,2,0.7,1.9,2.1c-0.3,0.3-0.7,0.4-1.1,0.4
		c-0.8-0.1-1.6-0.3-2.3-0.4c-0.4-0.1-0.8-0.3-1.1-0.5C326.3,372.3,326.2,372.1,326.1,371.9z"/>
	<path fill="#281A0F" d="M330,372.9c0.3,0.1,0.6,0.1,0.9,0.1c0.7,0,1.4-1.1,2.1,0.1c0.4,0.7,0.8,1.5,1.2,2.2
		c-0.1,0.2-0.2,0.5-0.2,0.8c-0.6,0-1.2,0.1-1.8,0.1c-1.7,0.5-3.2,0.7-3.8-1.5C328.5,373.6,328.6,372.6,330,372.9z"/>
	<path fill="#826759" d="M295.9,368.2c0.3,0.3,0.6,0.6,0.9,1c0.5,1.3-0.5,1.4-1.3,1.7c-0.4,0-0.8,0.1-1.3,0c-0.8,0-1.6,0.3-2.3,0.7
		c-0.4,0.2-0.8,0.3-1.3,0.3c-0.7,0-1.3-0.2-1.8-0.8c-0.5-1.4,0.3-2.2,1.2-3.1c0.3-0.4,0.7-0.7,1-1.1
		C292.6,367.4,294.3,367.8,295.9,368.2z"/>
	<path fill="#705A46" d="M290,368c-0.3,1-0.7,2-1,2.9c-0.9,0.9-1.9,0.9-3,0.3c-0.6-0.8-0.5-1.5,0.1-2.3c-0.3-0.7-0.7-1.3-1-2
		C286.7,367.4,288.3,367.7,290,368z"/>
	<path fill="#4C3A24" d="M280,371.8c-0.3,0.1-0.5,0.1-0.8,0.1c-0.1-0.8-0.3-1.6,0.8-1.8c0,0,0,0.1,0,0.1
		C280.6,370.7,280.5,371.2,280,371.8z"/>
	<path fill="#957356" d="M278.8,375.9c-0.6,0-1.2,0.1-1.9,0.1c0,0,0.1,0,0.1,0c-0.3-0.2-0.3-0.5-0.3-0.7c0.1-0.2,0.2-0.3,0.3-0.3
		c0,0,0,0,0,0c0.6,0.1,1.2,0.1,1.8,0.2C278.8,375.4,278.8,375.6,278.8,375.9z"/>
	<path fill="#AA8D71" d="M279.7,374.1c-0.3,0-0.5,0-0.8-0.1c0-0.3,0-0.7,0.1-1c0.2,0,0.4,0,0.6,0c0.2,0.1,0.4,0.1,0.6,0.2
		C280.3,373.6,280.1,373.9,279.7,374.1z"/>
	<path fill="#AB876E" d="M277,375c0,0.3,0,0.7,0,1c-0.3,0-0.7,0-1,0c0-0.3,0-0.7,0-1C276.3,375,276.7,375,277,375z"/>
	<path fill="#7C6A56" d="M280,371.8c0-0.6,0-1.1-0.1-1.7c0.7,0,1.4-0.1,2.1-0.1c0.2,0.3,0.3,0.6,0.3,1c-0.1,0.5-0.4,1-0.6,1.5
		c-0.2,0.3-0.4,0.6-0.7,0.8c-0.4,0.1-0.7,0-0.9-0.3c0,0-0.4,0-0.4,0C279.8,372.6,279.9,372.2,280,371.8z"/>
	<path fill="#836553" d="M286,369c0,0.7,0,1.4,0,2.1c0.3,0.7-0.2,1.1-0.8,1.4c-0.4,0.1-0.8,0-1.2-0.2c-0.3-0.3-0.4-0.7-0.4-1.1
		c0.3-0.6,0.9-0.8,1.3-1.2C285.3,369.7,285.7,369.3,286,369z"/>
	<path fill="#685041" d="M284,370.9c0,0.4,0,0.7,0,1.1c0.3,0.2,0.4,0.4,0.4,0.6c0,0.3-0.1,0.4-0.1,0.4c-0.3,0.3-0.7,0.3-1.2,0.2
		c-0.3-0.2-0.6-0.6-0.7-1c-0.1-0.4-0.1-0.8,0-1.2c0.1-0.4,0.3-0.8,0.6-1.1c0.4,0,0.7,0.1,1.1,0.1c0.2,0.2,0.3,0.4,0.2,0.5
		C284.2,370.8,284.1,370.9,284,370.9z"/>
	<path fill="#5A4232" d="M284,370.9c0-0.3,0-0.5,0.1-0.8c0.3-0.1,0.6-0.1,0.9-0.1C284.7,370.3,284.3,370.6,284,370.9z"/>
	<path fill="#BEAD9D" d="M283,370c0.1,0.3,0.1,0.6,0,1c-0.2,0.1-0.3,0.3-0.5,0.4c-0.2-0.1-0.3-0.2-0.5-0.4c0-0.3,0-0.7,0-1
		C282.4,370,282.7,370,283,370z"/>
	<path fill="#897563" d="M330.2,395c0.6,0,1.2,0,1.8,0c0.3,1,0.6,2,0.8,2.9c-0.6,0.4-1.2,0.7-1.8,1.1c-1.2,0.3-2.2,1.2-3.5,1.3
		c-0.4,0-0.8-0.2-1.1-0.6c-0.6-1-1.1-1.9-0.4-3.1C327.2,395.8,328.6,395.1,330.2,395z"/>
	<path fill="#947F6A" d="M327,400c1.4-0.1,2.1-3.1,4-1c0,0.3,0,0.6,0,1c-0.2,2.5-1.7,1.6-3,1.1C327.1,401.3,326.8,400.9,327,400z"/>
	<path fill="#BC9F82" d="M333.1,382c0.3,0,0.6,0,0.9,0c0.2,0.2,0.3,0.4,0.3,0.6c-0.1,0.2-0.1,0.3-0.2,0.3c-1.5,1.4-2.8,3.1-5.1,3.1
		c-0.5,0.3-0.9,0.2-1.2-0.2c-0.3-1.3,0.3-2.4,1.2-3.3C330.3,381.8,331.6,381.4,333.1,382z"/>
	<path fill="#3F2507" d="M331,387.9c0,0.4,0,0.8,0,1.2c-0.3,0.3-0.7,0.5-1.1,0.5c-0.4,0-0.8-0.2-1.2-0.5c-0.4-0.6-0.4-1.2-0.2-1.8
		c0.1-0.2,0.3-0.3,0.4-0.5C329.7,387.1,330.3,387.5,331,387.9z"/>
	<path fill="#85694F" d="M328,385.9c0.3,0,0.7,0.1,1,0.1c0.1,0.3,0,0.5,0,0.8c0,0,0.1,0.4,0.1,0.4c-0.3,0.2-0.6,0.4-1,0.4
		c-0.4-0.1-0.7-0.2-1-0.5c-0.2-0.3-0.2-0.7-0.1-1C327.3,385.8,327.6,385.7,328,385.9z"/>
	<path fill="#9E8471" d="M334.1,382.9c-0.1-0.3-0.1-0.6-0.1-0.9c0.3-0.1,0.6-0.1,0.8-0.2c0.1,0.4,0.2,0.7,0.2,1.1c0,0-0.5,0-0.5,0
		L334.1,382.9z"/>
	<path fill="#CEB496" d="M330.1,389.1c0.3-0.1,0.6-0.2,0.9-0.1c0,0.3,0,0.6,0,0.8c-0.3,0.1-0.6,0.1-1,0.2c-0.1-0.2-0.2-0.3-0.3-0.5
		C329.8,389.4,329.9,389.3,330.1,389.1z"/>
	<path fill="#AF966F" d="M330,390.1c-0.1,0.6-0.2,1.1-0.3,1.7c-0.6,1.1-1.7,1.3-2.8,1.2c-1.2-0.2-2.1-0.7-2.3-2
		c0.1-0.9,0.7-1.5,1.5-1.8C327.6,388.8,328.8,389.3,330,390.1L330,390.1z"/>
	<path fill="#68533D" d="M327,392.1c0.9-0.1,1.8-0.2,2.7-0.3c0.4,0.4,0.9,0.8,1.3,1.3c-0.3,0.3-0.7,0.6-1,1c-1.1,1-2.2,2.1-3.9,1.3
		C325.1,393.9,326.2,393,327,392.1z"/>
	<path fill="#58422C" d="M326,395c1.3-0.3,2.7-0.7,4-1c0.1,0.3,0.1,0.7,0.2,1c-0.9,1.6-2.3,2.2-4.1,2c-0.8,0.6-1.5,0.4-2.2-0.2
		C323.4,394.9,324,394.2,326,395z"/>
	<path fill="#46352C" d="M311,366.9c0,1.4,0,2.7,0,4.1c0.3,0.2,0.4,0.4,0.3,0.7c0,0.3-0.1,0.4-0.1,0.4c-0.4,0.2-0.8,0.4-1.2,0.3
		c-0.9-0.2-1.6-0.6-2.3-1.1c-0.6-0.7-0.8-1.5-0.8-2.3c0-0.3,0-0.6,0-0.9c0-0.3,0-0.6,0-0.9C308.3,367,309.7,367,311,366.9z"/>
	<path fill="#756055" d="M307,368.9c0.7,0.5,1,1.2,0.9,2c-1,1.2-2.4,1.3-3.7,1.4c-1.4,0-2.8,0-4-0.9c-0.4-0.4-0.5-0.9-0.2-1.5
		C302.1,368.1,304.9,371.3,307,368.9z"/>
	<path fill="#634B3C" d="M300,369.9c0,0.3,0,0.7,0,1c-0.4,1.1-1.1,1.8-2,2.4c-0.4,0.1-0.9,0.1-1.3,0c-1.1-0.8-2.4-1.5-1.6-3.2
		c0.6-0.3,1.2-0.6,1.7-0.9c1,0,2.1-0.1,3.1-0.1C300,369.3,300,369.6,300,369.9z"/>
	<path fill="#DAB8A0" d="M284,382.7c0-0.8,0-1.7,0-2.5c0.1-0.2,0.2-0.4,0.3-0.5c0.4-0.2,0.8-0.3,1.2-0.4c1.4,0,2.5,0.6,3.5,1.5
		c0.3,0.4,0.4,0.8,0.5,1.2c0,0.5-0.1,0.9-0.3,1.3c-0.5,0.8-1.3,1.3-2.2,1.4c-0.5,0-0.9,0-1.3-0.2C285,384.1,284.2,383.7,284,382.7z"
		/>
	<path fill="#A9907A" d="M281.1,378.9c-0.2-2.1,1-2.8,2.8-3c0.7,0.5,0.9,1.1,1,1.9c0,0.8-0.3,1.4-0.8,2c0,0,0,0.4,0,0.4
		C283.1,379.8,282.1,379.3,281.1,378.9z"/>
	<path fill="#4E301B" d="M284,382.7c0.9,0.2,1.9,0.1,2.3,1.2c-0.1,0.9-0.4,1.7-1.3,2.1c-0.7,0.1-1.4,1.1-2,0c-0.3-1-0.6-1.9-1-2.9
		C282.7,382.9,283.3,382.8,284,382.7z"/>
	<path fill="#967A66" d="M284.1,378.1c-0.1-0.7-0.1-1.5-0.2-2.2c-0.1-0.3-0.1-0.6-0.2-0.8c-0.2-0.5-0.1-1,0.2-1.4
		c0.4-0.3,0.9-0.4,1.4-0.6c2.1-0.2,3.4,0.7,4,2.7c0.1,0.8-0.3,1.4-1,1.8C287,378.2,285.6,378.7,284.1,378.1z"/>
	<path fill="#B19E8D" d="M284.1,374c-0.1,0.4-0.2,0.7-0.3,1.1c-0.5,0-1.1,0-1.6,0c-0.4-0.3-0.7-0.6-0.7-1.1c0.2-0.8,0.6-1.3,1.5-1.1
		c0.3,0,0.7,0,1,0c0.3,0.2,0.3,0.5,0.3,0.8C284.2,373.9,284.1,374,284.1,374z"/>
	<path fill="#412D18" d="M280,373c0.3,0,0.6,0,1,0c0.3,0.2,0.5,0.6,0.5,1c0,0.4-0.2,0.7-0.5,1c-0.4-0.3-0.9-0.6-1.3-0.9
		C279.8,373.7,279.9,373.4,280,373z"/>
	<path fill="#7D6B58" d="M281,375c0-0.3,0.1-0.5,0.1-0.8c0.1-0.5,0.4-0.6,0.8-0.3c0.1,0.4,0.2,0.8,0.3,1.1
		C281.8,375,281.4,375,281,375z"/>
	<path fill="#3F2B27" d="M331.8,378.1c0.1,1,0.2,1.9,0.3,2.9c-1,1.2-2.4,1.4-3.8,1.7c-1.1-2.4-2.7,0.3-4-0.3
		c-0.4-0.3-0.7-0.6-0.8-1.1c-0.2-1.2,0.3-2.2,1-3.1c1.1-0.9,2.5-0.5,3.7-0.7C329.4,377.5,330.7,377.4,331.8,378.1z"/>
	<path fill="#342419" d="M329,375.1c1,0.3,2.1,0.7,3.1,1c-0.1,0.3-0.1,0.6-0.3,0.9c-1.1,1.1-2.5,0.8-3.8,0.6
		c-1.6,0.2-2.7-0.2-2.4-2.1c0.3-0.5,0.7-0.8,1.2-1C327.7,374.3,328.4,374.4,329,375.1z"/>
	<path fill="#7C6047" d="M328,382c1.4-0.3,2.7-0.7,4.1-1c0.3,0.3,0.7,0.7,1,1c-1.3,0.8-2.7,1.2-4.2,1.2
		C328.1,383.2,327.7,382.9,328,382z"/>
	<path fill="#5C4D41" d="M328,377c1.3,0,2.6,0,3.9,0c0,0.4-0.1,0.7-0.1,1.1c-1.3,1.1-2.5,0.6-3.8,0c-0.2-0.2-0.3-0.5-0.2-0.7
		C327.8,377.1,327.9,377,328,377z"/>
	<path fill="#614935" d="M298,411c0.4,0,0.7,0,1.1-0.1c0.6-0.6,1.3-1.1,2.2-1.3c0.4-0.1,0.8-0.2,1.3-0.3c0.9,0,1.7,0.4,2.3,1.1
		c0.7,0.9,1.4,1.7,1.6,2.8c-0.1,1.3-0.9,2-2,2.5c-0.8,0.4-1.7,0.6-2.6,0.7c-0.4,0-0.9-0.1-1.3-0.2c-1.2-0.8-2.6-1.3-2.8-3.1
		C298.2,412.5,297.6,411.7,298,411z"/>
	<path fill="#907C66" d="M286,403c0.3,0,0.6-0.1,1-0.2c1-0.8,2.2-1.1,3.5-1.1c0.7,0,1.5,0.1,2.2,0.2c0.9,0.2,1.8,0.7,2.4,1.4
		c0.2,0.4,0.4,0.8,0.4,1.3c-0.3,1.3-1.3,1.8-2.5,2.1c-1,0-2,0.1-2.9,0.1c-0.2,0-0.4,0-0.6,0c-0.6-0.1-1.1-0.5-1.5-1c0,0,0,0,0,0
		c-0.7-0.7-1.3-1.4-2-2c-0.3-0.2-0.5-0.4-0.3-0.6C285.8,403.1,285.9,403,286,403z"/>
	<path fill="#78634B" d="M293,406.8c0.7-0.6,1.3-1.2,2-1.8c1.1-1.1,2.5-1.2,3.9-0.8c0.4,0.2,0.8,0.4,1.1,0.8c0.4,0.8,0.2,1.7,0,2.5
		c-0.1,0.4-0.3,0.8-0.5,1.1c-0.2,0.1-0.3,0.3-0.5,0.4C297,408.3,295,407.6,293,406.8z"/>
	<path fill="#4F3628" d="M296,416c-1.3,0-2.7,0-4,0c-0.3-0.2-0.5-0.6-0.5-1c0-0.4,0.2-0.7,0.5-1c0-0.7,0-1.4,0-2c1.3,0,2.7,0,4,0
		c0.3,0.3,0.5,0.6,0.5,1.1C296.4,414.1,296.5,415.1,296,416z"/>
	<path fill="#4C3423" d="M296,413c0-0.3,0-0.7,0-1c0.4-0.8,1.2-1,2-1c-0.5,0.7,3.3,1.3,0,2.1c-0.3,0.3-0.6,0.5-1,0.5
		C296.6,413.5,296.2,413.3,296,413z"/>
	<path fill="#412913" d="M302,410c-0.7,1.2-1.9,0.9-2.9,0.9c0-0.3,0-0.7,0-1C300,409.2,301,409.1,302,410z"/>
	<path fill="#674F38" d="M302,410c-1,0-2-0.1-3-0.1c0-0.3,0-0.6,0-0.9c0,0,0.1-0.3,0.1-0.3c0.9-0.6,1.7-0.6,2.6-0.1
		C302.1,409.1,302.2,409.5,302,410L302,410z"/>
	<path fill="#3A2112" d="M291,409c-0.3-0.3-0.6-0.6-1-0.9C290.4,408.4,290.7,408.7,291,409z"/>
	<path fill="#5F4931" d="M290,408l-0.5,0c0,0-0.5,0-0.5,0c0,0-0.1,0.1-0.1,0.1c-0.2-0.3-0.3-0.5-0.3-0.8c0.1-0.3,0.1-0.4,0.2-0.4
		c0.4-0.3,0.8-0.2,1.2,0.1c0,0,0,0,0,0C290,407.3,290,407.6,290,408z"/>
	<path fill="#3F2618" d="M291,416c-0.7,0-1.3,0-2,0c-0.3-0.2-0.3-0.4-0.3-0.7c0.1-0.2,0.2-0.3,0.3-0.3c0,0,0,0,0,0
		c0.3,0,0.7,0,1-0.1c0.3,0,0.7,0,1,0c0.1,0.2,0.3,0.3,0.4,0.5C291.3,415.7,291.1,415.8,291,416L291,416z"/>
	<path fill="#492F22" d="M292,414c0,0.3,0,0.6,0,1c-0.3,0.3-0.7,0.4-1,0c0,0,0,0,0,0C291.3,414.7,291.7,414.4,292,414z"/>
	<path fill="#776048" d="M289,407c0,0.4-0.1,0.7-0.1,1.1c-0.3-0.1-0.6-0.1-0.9-0.1c-0.3,0-0.7,0-1,0.1c-0.3-0.4-0.6-0.7-0.9-1.1
		c0.7,0,1.3,0,2,0C288.4,406.6,288.7,406.6,289,407z"/>
	<path fill="#543B28" d="M296,413c0.3,0,0.7,0,1,0c0.6,1.7,2.5,2.3,3.3,3.9c0.1,1-0.3,1.7-1.3,2.1c-1-0.7-2-1.3-3-2c0-0.3,0-0.6,0-1
		C295.4,415,295.4,414,296,413z"/>
	<path fill="#5F4638" d="M291,415c0.3,0,0.7,0,1,0c0,0.3,0,0.7,0,1c-0.3,0-0.7,0-1,0C291,415.7,291,415.3,291,415z"/>
	<path fill="#7B6254" d="M289,415c0,0.3,0,0.7,0,1c-0.3,0-0.7,0-1,0c0-0.3,0-0.7,0-1C288.3,415,288.7,415,289,415z"/>
	<path fill="#7B6853" d="M286,403c0,0.3,0,0.6,0,0.9c-0.3,0-0.7,0-1,0c-0.3,0-0.7,0-1,0c0-0.3,0-0.7,0-1c0.3,0,0.7,0,1,0
		C285.3,403,285.7,403,286,403z"/>
	<path fill="#523C24" d="M289,407l-0.5,0c0,0-0.5,0-0.5,0c0-0.3-0.1-0.7-0.1-1c0.8,0.2,1.7,0.1,2.1,1C289.7,407,289.3,407,289,407z"
		/>
	<path fill="#735844" d="M283.8,389c0.4-0.3,0.8-0.7,1.2-1c0.7-0.6,1.5-0.9,2.4-0.8c1.7,0.4,2.6,1.3,1.7,3.1c-1.4,0.9-2.7,0.9-4-0.2
		C284.6,389.7,284.2,389.4,283.8,389z"/>
	<path fill="#432B15" d="M285,390.1c1.3,0,2.7,0.1,4,0.1c0.5,0.2,0.9,0.5,1.1,1c0.1,0.6,0,1-0.5,1.3c-0.9,0.6-2,0.7-3,0.7
		c-1.2-0.3-2.8-0.2-2.6-2.2C284.3,390.7,284.7,390.4,285,390.1z"/>
	<path fill="#5C463F" d="M284,391c0.7,1.2,1.9,1,3,1.1c0.6,0.7,0.6,1.5,0,2.2c-1.1,0.6-2.1,0.5-3-0.3c-0.3-0.3-0.7-0.7-1-1
		C283,392.2,283.2,391.4,284,391z"/>
	<path fill="#564436" d="M284.9,398c-0.6-0.7-1.3-1.3-1.9-2c0.3-0.3,0.7-0.6,1-1c2.3-0.9,4.5-0.5,6.7,0.4c0.4,0.3,0.7,0.8,0.8,1.3
		c0,0.8-0.4,1.4-1.1,1.9C288.4,399.9,286.8,397.4,284.9,398z"/>
	<path fill="#301B12" d="M291,395.9c-2.3-0.3-4.7-0.6-7-0.9c0-0.3,0-0.7,0-1c1,0,2,0,3,0c1.5-1.2,2.8-0.9,3.9,0.5
		C291.2,395,291.2,395.4,291,395.9z"/>
	<path fill="#624028" d="M287,388c-0.7,0-1.4,0-2,0c0-0.7,0-1.3,0-2c0.1-0.9,0.4-1.7,1.3-2.1c0.3,0,0.5,0,0.7,0.2
		c0.6,0.5,0.9,1.2,0.9,1.9C287.9,386.8,287.5,387.4,287,388z"/>
	<path fill="#4B3A29" d="M291,402.8c-1.3,0-2.7,0-4,0c0-0.9,0-1.9,0-2.8c0.9-0.9,2-1,3.2-0.7C291.7,400.2,292.1,401.3,291,402.8z"/>
	<path fill="#372618" d="M290,400c-1,0-2,0-3,0c-0.3-0.3-0.7-0.7-1-1c-0.4-0.3-0.7-0.7-1.1-1c1.7-1.7,3.3,0.7,5,0.1
		C290.6,398.7,290.6,399.3,290,400z"/>
	<path fill="#8B705E" d="M326,407c0,1,0,2,0,3c-0.7,1.1-1.4,0.1-2.1,0c-0.6,0.6-1.3,0.5-2,0.3c-0.6-0.5-0.8-1.2-0.8-1.9
		c0-0.5,0.2-0.9,0.4-1.3c0.3-0.3,0.7-0.5,1.2-0.6C323.9,406.6,325,406.5,326,407L326,407z"/>
	<path fill="#B59A85" d="M321.9,409.9c0.7,0,1.3,0.1,2,0.1c-0.3,1-1.1,1-1.9,1.2c-0.3-0.1-0.6-0.2-0.9-0.3c-0.3-0.2-0.4-0.4-0.4-0.6
		c0-0.2,0.1-0.4,0.1-0.4C321.2,409.6,321.6,409.6,321.9,409.9z"/>
	<path fill="#796352" d="M319,411c0,1,0,2,0,3c-2.8,0-5.7,0.4-8.5-0.3c-0.5-0.3-0.8-0.7-1-1.2c-0.2-1.1,0.2-2,1.1-2.7
		c0.4-0.2,0.9-0.4,1.4-0.4c1.9,0.3,3.9,0.2,5.8,0.7C318.3,410.3,318.7,410.6,319,411z"/>
	<path fill="#4F3721" d="M310,413c3,0.3,6.1-0.8,9,1c0,0.3,0,0.7,0,1c-1.7,0.5-3.3,0.4-5,0c-1.5,0.9-2.8,0.5-4-0.6
		C309.7,413.9,309.7,413.5,310,413z"/>
	<path fill="#604736" d="M319,411c-0.4-0.1-0.8-0.1-1.1-0.2c-0.2-0.4-0.2-0.8,0.1-1.1c0.4-0.2,0.7-0.3,1.2-0.4
		c0.4,0.1,0.8,0.2,1.1,0.5c0.2,0.4,0.2,0.8-0.1,1.1C319.8,411,319.4,411,319,411z"/>
	<path fill="#A1846F" d="M320.1,411c0-0.3,0-0.6,0-0.9c0.3-0.3,0.7-0.3,0.9,0.1c0,0.2,0,0.4,0,0.6C320.8,410.9,320.5,411,320.1,411z
		"/>
	<path fill="#5E4536" d="M298,422c0.3-0.7,0.7-1.4,1-2.1c0.8-0.6,1.6-0.1,2.4,0.2c0.8,0.4,1.4,0.9,1.6,1.9c0,0.7,0,1.3,0,2
		c-1,1.2-2-0.3-3,0C299.3,423.3,298.7,422.7,298,422z"/>
	<path fill="#6D5843" d="M303,422c-0.7-0.4-1.3-0.7-2-1.1c-0.4-1.7,0.9-2.3,1.9-3.2c1.6-0.2,3.2-0.6,4.1,1.2c0,1,0,2,0,2.9
		C305.7,422,304.3,422,303,422z"/>
	<path fill="#62483D" d="M307,419c-1.3-0.3-2.7-0.7-4-1c-2.1,0.7-2.8,0.1-2-2c1-0.3,2-0.7,3-1c1.3,0.7,3.1-0.6,4,1.1
		c0.3,0.3,0.6,0.6,1,0.9c-0.3,0.7-0.7,1.4-1,2c0,0-0.5,0-0.5,0L307,419z"/>
	<path fill="#7A6255" d="M313.1,418.1c1,0,2,0,2.9,0c0,0.7,0,1.3-0.1,2c-1-0.1-1.9-0.1-2.9-0.2C313.1,419.3,313.1,418.7,313.1,418.1
		z"/>
	<path fill="#977E67" d="M308,416.1c-1.4-0.4-3,0.5-4-1.1c0.6-0.7,1.3-1.3,1.9-2c0.7-1,1.8-1.2,2.9-1.5c0.5,0,0.9,0.1,1.2,0.5
		c0,0.3,0,0.6,0,1c0,0.3,0,0.6,0,1c0.5,1.2-0.4,1.5-1.1,1.9C308.6,415.9,308.3,416,308,416.1z"/>
	<path fill="#725942" d="M308.9,415.9c0.4-0.6,0.8-1.3,1.1-1.9c1.2,0.7,2.5,1.2,3.9,1C312.5,416.7,310.6,415.8,308.9,415.9z"/>
	<path fill="#745C4B" d="M301,416c0,1.3,0.7,2,2,2c0.2,1.5-1.4,1.9-2,2.9c-0.7-0.3-1.3-0.6-2-1c0-0.3,0-0.7,0-1
		c0.3-0.6,0.7-1.3,1-1.9C299.6,416.1,300.1,415.8,301,416L301,416z"/>
	<path fill="#73604B" d="M326,407c-1,0.6-2,0.6-3,0c-0.3-0.2-0.4-0.6-0.3-1c0.7-0.5,0.5-0.9,0-1.3c0-0.4,0-0.8,0.2-1.2
		c0.4-0.5,0.9-0.9,1.5-1.1c1.3-0.2,2.1,0.4,2.7,1.5c0.8,0.1,1.6,0.2,1.9,1.1C328,405.7,327,406.3,326,407z"/>
	<path fill="#97826E" d="M327.1,403.9c-1-0.3-2-0.6-3.1-0.9c-0.6-0.7-0.6-1.4-0.3-2.2c0.9-1.2,1.9-1.8,3.3-0.9c0,0,0,0.1,0,0.1
		c0.3,0.3,0.7,0.7,1,1C327.7,402,327.4,403,327.1,403.9z"/>
	<path fill="#70584C" d="M311,371.9c0-0.3,0-0.6,0-0.9c2,0.3,4,0.7,6,1c0.1,0.2,0.2,0.4,0.3,0.5c-0.1,0.4-0.3,0.8-0.6,1
		c-0.4,0.2-0.8,0.3-1.2,0.4c-0.6,0.1-1.3,0.1-1.9,0.1c-0.4,0-0.9-0.1-1.3-0.2C311.4,373.5,310.4,373.2,311,371.9z"/>
	<path fill="#7B6D5B" d="M316,368.9c0.7,0,1.4,0,2,0c0.9,0.5,1.8,1.2,3,0.9c0.3,0.1,0.6,0.1,0.9,0.1c0.4,0.9-0.2,1.3-0.8,1.7
		c-1.4,0.5-2.7,1-4.1,0.2c0,0,0,0,0,0C317.5,370.7,315.3,370.3,316,368.9z"/>
	<path fill="#5B493C" d="M320.9,371.1c0.3-0.4,0.7-0.7,1-1.1c1.1,0.3,1.7,1,2.1,2c-0.2,0.3-0.6,0.5-0.9,0.7c-0.4,0.1-0.8,0.1-1.2,0
		c-0.4-0.1-0.7-0.3-1.1-0.5C320.6,371.8,320.6,371.5,320.9,371.1z"/>
	<path fill="#46372B" d="M323,372c0.3,0,0.7,0,1,0c0.7,0,1.4,0,2-0.1c0,0-0.1,0-0.1,0c0.3,0.3,0.5,0.6,0.6,1c0,0.2,0,0.4,0,0.6
		c-0.1,0.2-0.2,0.4-0.2,0.5c-0.3,0.3-0.7,0.4-1.1,0.4c-0.6-0.1-1.1-0.4-1.6-0.7c-0.3-0.2-0.6-0.5-0.8-0.8
		C322.7,372.6,322.7,372.3,323,372z"/>
	<path fill="#4C3B30" d="M329,375.1c-0.7,0-1.4,0-2.1-0.1c-0.3-0.2-0.5-0.6-0.4-0.9c0-0.4,0-0.7,0-1.1c0-0.4,0.2-0.7,0.5-1
		c1.1,0,2.2-0.2,3,0.9C329.1,373.4,329.1,374.2,329,375.1z"/>
	<path fill="#291A0E" d="M327,372c0,0.3,0,0.7,0,1c-0.3,0.4-0.6,0.4-1,0.1c0-0.4,0-0.7,0-1.1C326.3,372,326.7,372,327,372z"/>
	<path fill="#B8A795" d="M289.1,376.2c-1.1-1.2-2.2-2.6-4.2-2.2c-0.6-0.7-0.6-1.3,0-2c0.3-0.3,0.7-0.6,1-0.9c1-0.1,2-0.1,3-0.2
		c0.6,0,1.1,0.1,1.7,0.1c1.2,1.8,1.5,3.5-0.3,5.1C290,376.3,289.6,376.3,289.1,376.2z"/>
	<path fill="#725C51" d="M289.9,375.9c1.5-1.4-0.2-3.3,0.7-4.8c0.4,0,0.8,0,1.3-0.1c1.1,0.5,1.8,1.6,3,1.9c0.6,0.3,1.2,0.6,1.5,1.2
		c0.2,0.7,0.2,1.4-0.2,2.1c-0.6,0.9-1.4,1.4-2.4,1.6C292.2,377.9,290.8,377.4,289.9,375.9z"/>
	<path fill="#AC9787" d="M294,374c-1.3-0.6-1.9-1.6-2-2.9c0.3-1.3,0.5-2.7,2.2-1C294.8,371.3,295.1,372.7,294,374z"/>
	<path fill="#887262" d="M294,374c0-1.3,0.1-2.7,0.1-4c0.3,0,0.7,0,1,0c0.7,1,1.3,2,2,3.1c0.1,0.8-0.2,1.1-1,1
		C295.4,374,294.7,374,294,374z"/>
	<path fill="#4B3A2A" d="M281.9,373.9c-0.3,0.1-0.5,0.2-0.8,0.3c0-0.4-0.1-0.8-0.1-1.2c0-0.3,0-0.6,0-0.9c0.3-0.3,0.6-0.5,1-0.6
		c0.4,0,0.7,0.2,1,0.5c0,0.3,0,0.5-0.1,0.8C282.6,373.2,282.2,373.5,281.9,373.9z"/>
	<path fill="#907969" d="M285,372c0,0.7,0,1.3,0,2c-0.3,0-0.6,0-0.9,0c0-0.4,0-0.8-0.1-1.2c0-0.3,0-0.6,0-0.8
		C284.3,372,284.7,372,285,372z"/>
	<path fill="#766556" d="M281.9,372c0.1-0.3,0.1-0.6,0-1c0.3,0,0.7,0,1,0c0,0.3,0,0.7,0,1C282.6,372,282.3,372,281.9,372z"/>
	<path fill="#6B5542" d="M327,399.9c-1,0.4-2,0.8-2.9,1.1c-1.1-0.3-1.5-1.1-1.6-2.1c0.1-0.8,0.4-1.4,1-1.8c0.2-0.1,0.5-0.1,0.7-0.2
		c0.6,0,1.3,0.1,1.9,0.1C326.4,398,326.7,399,327,399.9z"/>
	<path fill="#DAC0A5" d="M328,382c0.3,0.4,0.6,0.8,0.9,1.2c-0.3,0.9-0.6,1.8-1,2.7c-0.3,0.1-0.7,0.1-1,0.1c-0.2,0-0.4,0-0.6,0.1
		c-0.8,0-1.6-0.2-2.3-0.7c-0.5-0.4-0.7-1-0.8-1.6c0-0.4,0.1-0.8,0.3-1.2c0.2-0.1,0.3-0.3,0.5-0.4C325.4,382,326.6,379.1,328,382z"/>
	<path fill="#91765A" d="M330.1,390c-1.4,0-2.8,0-4.2-0.1c-0.1-0.4,0-0.8,0.3-1.2c0.5-0.4,1.1-0.5,1.8-0.5c0.4,0.1,0.8,0.4,1.1,0.6
		c0.3,0.1,0.7,0.1,1,0.2C330,389.4,330,389.7,330.1,390z"/>
	<path fill="#5B3F24" d="M329,388.9c-0.3,0-0.7,0-1,0c-0.3-0.2-0.5-0.5-0.6-0.9c0-0.4,0.2-0.7,0.5-0.9c0.4,0,0.7,0.1,1.1,0.1
		C329.1,387.8,329.1,388.3,329,388.9z"/>
	<path fill="#4F3218" d="M328,387.1c0,0.3,0,0.6,0,0.9c-0.5,0.2-0.9,0.1-1.2-0.3c0-0.2,0.1-0.5,0.1-0.7
		C327.3,387,327.6,387,328,387.1z"/>
	<path fill="#D3B69D" d="M327,386c0,0.3,0,0.7,0,1c0,0,0.1,0.1,0.1,0.1c-0.4,0.3-0.8,0.3-1.2-0.1C325.9,386.1,326.1,385.5,327,386
		L327,386z"/>
	<path fill="#755E44" d="M326,395c-1.2,0.1-2,0.6-1.8,2c0,0-0.2,0.1-0.2,0.1c-0.8,0.3-1.2-0.2-1.6-0.9c-0.1-0.4-0.2-0.9-0.1-1.4
		c0.3-1.4,0.6-2.7,1.6-3.7c0.4-0.3,0.8-0.3,1.2,0c0.7,0.4,1.3,0.7,2,1.1C326.7,393.1,326.3,394,326,395z"/>
	<path fill="#664A30" d="M325.1,391c-0.3,0-0.7,0-1,0c-0.2-0.1-0.3-0.3-0.5-0.4c-0.4-0.9-0.4-1.7,0.1-2.5c0.3-0.3,0.7-0.4,1.2-0.4
		c0.4,0.2,0.8,0.4,1,0.8c0.1,0.2,0.1,0.4,0.2,0.6c-0.1,0.3-0.1,0.6-0.2,0.9C325.6,390.3,325.3,390.7,325.1,391z"/>
	<path fill="#3F291F" d="M304,371.1c1.3-0.1,2.6-0.1,3.9-0.2c0.9,0.1,1.7,0.2,2.1,1.1c-0.1,2-1.6,1.9-2.9,2.1
		c-1.1,0-2.2-0.2-3.1-0.9C303.5,372.6,303.4,371.8,304,371.1z"/>
	<path fill="#755D53" d="M307,373.1c1.1-0.2,2.3,0.2,3-1c0.3-0.1,0.6-0.1,0.9-0.1c0.4,0.8,1.2,1,2,1.1c0.3,1-0.3,1.4-1.1,1.8
		c-1.6,0.5-3.2,0.5-4.6-0.3C306.8,374.1,306.7,373.6,307,373.1z"/>
	<path fill="#382616" d="M304,371.1c0,0.6,0,1.1,0,1.7c-1.4,1.8-3.2,0.9-4.9,0.9c-0.4-0.1-0.8-0.4-1.1-0.7c0-1.4,0.8-2,2.1-2.1
		C301.4,371,302.7,371,304,371.1z"/>
	<path fill="#3D2720" d="M298,373c0.3,0,0.6,0,0.9,0c1,0.5,1.7,1.1,1.6,2.3c-0.8,1.8-2.3,1.8-3.9,1.2c-0.2-0.2-0.4-0.4-0.6-0.5
		c0-0.6,0.1-1.3,0.1-1.9c0.3-0.3,0.7-0.7,1-1C297.4,373,297.7,373,298,373z"/>
	<path fill="#856849" d="M287,386c0-0.6,0-1.3,0-1.9c0.7-0.4,1.4-0.8,2.1-1.3c0.8-0.7,1.8-0.7,2.8-0.6c1.4,0.4,2.9,0.6,4.3,1
		c1.4,0.6,3.2,0.5,4.1,2.1c0,0.6-0.3,1.1-0.8,1.4c-3,1.2-6.2,0.6-9.3,0.6C289,387.1,287.9,386.8,287,386z"/>
	<path fill="#533420" d="M284.1,378.1c1.2-1,2.5-1.3,4-0.9c1,0.3,2.5,0.2,1.9,2c-1.6,1.5-3.6-0.6-5.2,0.7l-0.4,0
		c0,0-0.4-0.1-0.4-0.1C284.1,379.3,284.1,378.7,284.1,378.1z"/>
	<path fill="#A38875" d="M284.9,379.9c1.3-2.2,3.4-0.6,5.1-1.1c0.4-0.2,0.8-0.2,1.1,0.1c0.2,0.4,0.2,0.8,0,1.2
		c-0.3,0.5-0.8,0.9-1.4,1.1c-0.2,0-0.4,0.1-0.6,0.1C287.7,380.8,286.3,380.3,284.9,379.9z"/>
	<path fill="#422D1E" d="M291,379c-0.3-0.1-0.7-0.2-1-0.3c-0.6-0.5-1.2-1-1.9-1.5c0.4-0.4,0.7-0.7,1.1-1.1c0.3-0.1,0.5-0.1,0.8-0.2
		c1.4,0.4,2.7,0.8,4.1,1.2c0.2,0.4,0.1,0.7-0.1,1c-0.3,0.3-0.5,0.5-0.9,0.7C292.4,379.2,291.7,379.6,291,379z"/>
	<path fill="#3D2F23" d="M325,378.1c-0.3,1-0.7,1.9-1,2.9c-0.5,0.6-1,0.6-1.7,0.4c-0.4-0.2-0.7-0.5-1-0.8c-0.4-0.5-0.6-1.1-0.8-1.7
		c0-0.4,0.1-0.8,0.4-1.2c0.9-0.7,1.8-1.1,3-1C324.5,377,324.9,377.4,325,378.1z"/>
	<path fill="#504038" d="M325,378.1c-0.3-0.4-0.7-0.7-1-1.1c-0.4-0.7-0.1-1.3,0.3-1.9c0.2-0.1,0.4-0.3,0.5-0.4
		c0.2,0,0.5-0.1,0.7-0.1c0.2,0.1,0.4,0.3,0.6,0.4c-0.1,1.4,0.6,2,1.9,2c0,0.4,0,0.7,0,1.1C327,379.5,326,378.3,325,378.1z"/>
	<path fill="#503E2E" d="M322,381c0.7,0,1.3,0,2,0c0,0.4,0,0.7,0,1.1c0,0,0,0,0,0c-0.6,0.6-1.2,0.5-1.8,0.2
		c-0.1-0.2-0.3-0.4-0.4-0.6C321.9,381.4,321.9,381.2,322,381z"/>
	<path fill="#312619" d="M327,374.1c-0.1,0.3-0.1,0.6-0.1,0.9c-0.3,0-0.6,0-0.9,0c0,0-0.1,0-0.1,0c-0.3-0.2-0.4-0.4-0.3-0.7
		c0.1-0.2,0.2-0.3,0.3-0.3l0,0C326.4,373.6,326.7,373.7,327,374.1z"/>
	<path fill="#7A6558" d="M309,412.1c-0.8,1.1-2,0.8-3.1,0.9c-0.6-0.7-1.3-1.3-1.9-2c0.6-0.7,0.2-1.8,0.9-2.5c0.8-0.7,1.6-1,2.6-0.5
		C308.6,409.1,310.3,410,309,412.1z"/>
	<path fill="#705745" d="M301,416c-0.3,0.3-0.7,0.7-1,1c-1.7-0.8-3.4-1.6-2.9-4c0.3,0,0.6,0,1,0C298.8,414.3,300.6,414.4,301,416z"
		/>
	<path fill="#6B5840" d="M304.9,409c0,0.8-0.2,1.5-1,2c-0.4-0.8-1.2-1-2-1c0-0.3,0-0.6,0-0.9c0.2-0.2,0.3-0.3,0.5-0.5
		C303.4,408.2,304.3,408.2,304.9,409z"/>
	<path fill="#4B3A2A" d="M290,400c0-0.7,0-1.3,0-2c0.4-0.4,0.8-0.8,1.1-1.1c1.1-0.9,2.3-1.1,3.6-0.5c0.7,0.5,0.9,1.1,0.9,1.9
		c-0.1,0.7-0.4,1.3-0.9,1.8c-0.7,0.8-1.1,1.8-1.7,2.6c-0.7,0-1.3,0-2,0C291,401.8,291.1,400.7,290,400z"/>
	<path fill="#614F3A" d="M300,405c-1.7,0-3.4,0-5.1,0c0-0.3,0-0.6,0-0.9c-0.5-0.7-0.1-1.1,0.3-1.6c0.5-0.4,1-0.7,1.7-0.8
		c1-0.1,2-0.1,3,0.2c0.5,0.4,0.7,1,0.8,1.6c0,0.4-0.1,0.8-0.3,1.2C300.3,404.7,300.2,404.9,300,405z"/>
	<path fill="#352615" d="M296,403c-0.3,0.4-0.7,0.7-1,1.1c-0.7-0.4-1.3-0.8-2-1.2c-0.7-1.3-1.5-2.7,1-2.9
		C295.7,400.3,297.2,400.8,296,403z"/>
	<path fill="#927B64" d="M302,409c-1-0.1-2-0.2-2.9-0.3c0-0.2,0-0.5-0.1-0.7c0.3-0.3,0.7-0.6,1.1-0.7c0.7-0.1,1.4,0,2,0.5
		C302.4,408.2,302.3,408.6,302,409L302,409z"/>
	<path fill="#503829" d="M300,407.8c-0.3,0.1-0.7,0.1-1,0.2c0-0.9,0.2-1.7,1.1-2.2c0,0,0.3,0.3,0.3,0.3c0.2,0.3,0.2,0.6,0.2,0.9
		C300.5,407.5,300.3,407.7,300,407.8z"/>
	<path fill="#8A7760" d="M300.1,405.8c0-0.3-0.1-0.5-0.1-0.8c0,0,0,0,0,0c0.5-0.2,0.8-0.1,1.1,0.3c0,0.2,0,0.5,0,0.7
		c-0.4,0.3-0.8,0.4-1.2,0.1L300.1,405.8z"/>
	<path fill="#503319" d="M287,386c1,0,1.9,0.1,2.9,0.1c1,0.5,1.8,1.1,1.7,2.4c-0.1,0.6-0.4,1.2-0.7,1.8c-0.1,0.2-0.3,0.3-0.4,0.5
		c-0.2,0.1-0.4,0.2-0.6,0.3c-0.3-0.3-0.6-0.6-0.9-0.9c0-1.4-0.6-2.2-2-2.2C287,387.3,287,386.6,287,386z"/>
	<path fill="#4C3524" d="M290,392c0-0.3,0-0.6-0.1-0.9c0,0,0.2-0.1,0.2-0.1c3.1-1.7,6.4-1,9.6-0.4c1.1,1,0.4,1.8-0.2,2.7
		c-0.7,0.7-1.7,1.2-2.6,1.5c-2.1,0.6-4,0.2-5.7-0.9C290.5,393.4,290.1,392.8,290,392z"/>
	<path fill="#594331" d="M290,392c0.3,0.3,0.7,0.7,1,1c0.5,0.5,0.6,1,0.4,1.7c-0.1,0.2-0.3,0.3-0.4,0.5c-1.2-0.8-2.5-1.2-4-1.1
		c0-0.6,0-1.3,0-1.9C288,392,289,392,290,392z"/>
	<path fill="#3D291A" d="M295,397c-1.3,0-2.6,0-3.9-0.1c0-0.3-0.1-0.7-0.1-1c0-0.3,0-0.6,0-0.8c0,0,0-0.1,0-0.1
		c1.6-1.2,2.8-0.5,4,0.6C295.3,396.1,295.3,396.5,295,397z"/>
	<path fill="#908168" d="M322,407c0,0.3,0,0.7,0,1c-0.3,0.3-0.7,0.5-1.1,0.5c-0.4,0-0.8-0.2-1.2-0.4c-0.7-0.5-1.1-1.2-1-2.1
		c0.3-0.3,0.6-0.6,1-0.7c0.4,0,0.8,0,1.2,0.2C321.5,405.9,321.9,406.4,322,407z"/>
	<path fill="#5A3924" d="M321,408.2c0.3-0.1,0.6-0.1,0.9-0.2c0,0.6,0,1.3-0.1,1.9c-0.3,0.1-0.6,0.2-0.9,0.3
		c-0.3-0.1-0.6-0.1-0.9-0.1c-0.4,0-0.8-0.1-1.2-0.1c-0.2-0.3-0.2-0.7,0-1c0.3-0.3,0.6-0.5,1-0.5C320.3,408.4,320.7,408.4,321,408.2z
		"/>
	<path fill="#7D6D55" d="M322,407c-0.3-0.4-0.7-0.7-1-1.1c-0.3-0.8,0.2-1.1,0.8-1.2c0.6,0.3,1,0.7,1.2,1.3c0,0.3,0,0.6,0,1
		C322.7,407,322.3,407,322,407z"/>
	<path fill="#756449" d="M312,410c-0.3,0-0.6,0-0.9,0c-1.4-0.3-2.6-0.9-3.5-2.1c-0.6-2.2,0.8-2.9,2.5-3.4c0.9-0.1,1.7,0.2,2.4,0.8
		c0.3,0.3,0.5,0.6,0.7,1c0.1,0.6,0.1,1.1,0,1.7c0,0.6,0.1,1.1,0,1.7C312.9,410.2,312.6,410.6,312,410z"/>
	<path fill="#5E4D34" d="M308,408c1.5,0,2.4,0.8,3,2c-0.4,0.7-0.7,1.4-1.1,2c-0.3,0-0.7,0-1,0.1c-0.7-1.4-1.3-2.8-2-4.1
		c0.2-0.1,0.3-0.3,0.5-0.4C307.7,407.7,307.9,407.8,308,408z"/>
	<path fill="#362113" d="M312,410c0.4-0.3,0.7-0.6,1.1-0.9c0.2-0.1,0.3-0.2,0.5-0.4c0.4,0,0.8,0,1.2,0.1c0.6,0.1,1.2,0.2,1.8,0.4
		c0.6,0.2,1.1,0.4,1.5,1c0,0.3,0,0.5-0.1,0.8C315.9,410.7,313.7,412,312,410z"/>
	<path fill="#7D6C51" d="M317.9,410.1c-0.6-0.1-1.3-0.1-1.9-0.2c-0.6-0.4-0.6-1-0.5-1.6c0.2-0.4,0.5-0.6,1-0.7c0.9,0,1.6,0.4,2.2,1
		c0.1,0.2,0.2,0.4,0.3,0.5c0,0.3,0,0.6,0,0.9C318.6,410,318.3,410.1,317.9,410.1z"/>
	<path fill="#6D5946" d="M323,398.9c0.4,0.7,0.7,1.5,1.1,2.2c0,0.6,0,1.3-0.1,1.9c-0.3,0.3-0.6,0.6-0.9,1c-0.4,0.6-1,0.5-1.5,0.5
		c-0.5,0.1-0.7-0.9-1.3-0.3c-0.4,0.1-0.8,0.1-1.1-0.1c-0.5-0.4-0.7-1-0.8-1.6c0-1.1,0.5-2,1.4-2.7c0.7-0.3,1.5-0.6,2.2-1.1
		C322.2,398.6,322.6,398.7,323,398.9z"/>
	<path fill="#C0B099" d="M320.9,403.8c0.7,0,1.4,0.1,2.1,0.1c0,0.3,0,0.7-0.1,1c-0.2,0.4-0.5,0.5-0.9,0.2c-0.4,0.3-0.8,0.5-1.2,0.8
		c-0.4,0-0.8,0-1.1,0.1c-0.4-0.7-0.4-1.4,0.3-1.9l-0.1,0C320.3,403.7,320.6,403.7,320.9,403.8z"/>
	<path fill="#4F3E27" d="M322.1,405.2c0.3-0.1,0.6-0.2,0.9-0.2c0.1,0.2,0.3,0.5,0.4,0.7c0,0.1-0.2,0.2-0.4,0.3
		C322.7,405.7,322.4,405.5,322.1,405.2z"/>
	<path fill="#52403A" d="M312,374c0.3-0.3,0.7-0.7,1-1c0.3,0,0.7,0,1,0c0.2,0.2,0.5,0.5,0.7,0.7c0.3,0.4,0.7,0.8,1,1.2
		c0.4,0.4,0.7,0.9,0.8,1.5c0.1,0.4,0,0.8-0.1,1.2c-0.2,0.4-0.5,0.7-0.9,0.9c-0.7,0.2-1.3,0.2-2-0.1c-1.1-0.5-2-1.2-2.3-2.5
		C311.2,375.2,311.5,374.6,312,374z"/>
	<path fill="#362616" d="M320.9,371.1c0,0.3,0,0.5,0,0.8c-0.1,0.8-0.6,1.3-1.3,1.7c-1,0.3-1.9,0.3-2.6-0.5c0-0.3,0-0.7,0-1
		C318.2,371.3,319.5,370.8,320.9,371.1z"/>
	<path fill="#69594A" d="M317,373c1,0,2,0,3,0c0.1,0.2,0.2,0.3,0.3,0.5c0,0.4-0.2,0.7-0.5,0.9c-0.3,0.2-0.7,0.3-1,0.4
		c-0.4,0.1-0.7,0.1-1.1,0.1c-0.4,0-0.8-0.1-1.1-0.2c-0.4-0.1-0.7-0.4-0.9-0.7c-0.1-0.4,0-0.7,0.3-1C316.3,373,316.7,373,317,373z"/>
	<path fill="#463123" d="M315.9,373c0,0.3,0.1,0.6,0.1,0.9c-0.7,0.7-1.4,0.6-2.1,0c0-0.3,0-0.6,0-1C314.7,373,315.3,373,315.9,373z"
		/>
	<path fill="#85786A" d="M320.1,373c0.3-0.4,0.6-0.7,0.9-1.1c0.3,0,0.7,0.1,1,0.1c0.3,0.3,0.5,0.6,0.6,1c0,0.4-0.1,0.8-0.3,1.1
		c-0.3,0.2-0.7,0.3-1.1,0.2C320.5,374,320.4,373.4,320.1,373L320.1,373z"/>
	<path fill="#332618" d="M322,373c0-0.3,0-0.6-0.1-1c0.3,0,0.7,0,1,0c0,0.3,0,0.5-0.1,0.8c-0.1,0.2-0.3,0.4-0.4,0.5
		C322.4,373.2,322.2,373.1,322,373z"/>
	<path fill="#322518" d="M323.9,373c0.4,0.3,0.7,0.7,1.1,1c0.3,0.2,0.4,0.4,0.3,0.7c-0.1,0.2-0.2,0.3-0.3,0.3l-0.1,0
		c-0.8,0.4-1.2-0.1-1.4-0.8C323.5,373.7,323.6,373.4,323.9,373z"/>
	<path fill="#5D5245" d="M325,375c0-0.3,0-0.7,0-1c0.3,0,0.7,0,1,0c0,0.3,0,0.7,0,1c0,0-0.5,0-0.5,0L325,375z"/>
	<path fill="#86796C" d="M323.9,373c0,0.3,0.1,0.6,0,0.9c-0.2,0.1-0.4,0.2-0.7,0.3c-0.2-0.2-0.4-0.3-0.6-0.5
		c0.1-0.2,0.2-0.5,0.3-0.7c0,0-0.1-0.3-0.1-0.3C323.3,372.9,323.6,372.9,323.9,373z"/>
	<path fill="#453020" d="M294.1,377.9c0-0.2,0-0.5-0.1-0.7c0.7-0.4,1.4-0.8,2-1.2c0,0,0,0,0,0c0.3,0.3,0.5,0.7,0.5,1.2
		c-0.3,1-0.9,1.5-2,1.2C294.4,378.2,294.2,378,294.1,377.9z"/>
	<path fill="#96806D" d="M323,398.9c-0.3,0.1-0.6,0.1-0.9,0.1c-1.6,0.8-3,1-3.5-1.2c0.1-0.5,0.3-0.9,0.7-1.2
		c1.4,0.5,2.5-0.7,3.7-0.6c0.3,0.3,0.7,0.7,1,1C323.6,397.6,323.3,398.3,323,398.9z"/>
	<path fill="#8B6F55" d="M325.1,388.1c-0.3,0-0.7,0-1,0c-0.5,0.4-0.7,1.1-1.4,1.2c-0.4,0-0.8-0.2-1.1-0.5c-0.4-0.8-0.5-1.6-0.2-2.5
		c0.4-0.8,1.1-1.2,1.9-1.5c0.2,0,0.4,0,0.6,0c1.1,0.3,2.5-0.4,3.1,1.1c-0.4,0.4-0.7,0.7-1.1,1.1c0.3,0.2,0.4,0.4,0.4,0.6
		c0,0.3-0.1,0.4-0.2,0.4C325.8,388.4,325.4,388.4,325.1,388.1z"/>
	<path fill="#3F2812" d="M324,382.9c-0.7,0-1.3,0.1-2,0.1c0,0-0.3-0.3-0.3-0.3c0,0,0-0.4,0-0.4c0,0,0.3-0.3,0.3-0.3
		c0.7,0,1.4,0,2.1,0C324,382.3,324,382.6,324,382.9z"/>
	<path fill="#6B4F34" d="M326,388c0-0.3,0-0.6,0-0.9c0.3,0,0.7-0.1,1-0.1c0.3,0.3,0.7,0.7,1,1c0,0.3,0,0.6,0,0.9
		c-0.7,0-1.3,0.1-2,0.1c0,0-0.2-0.1-0.2-0.1c-0.2-0.2-0.3-0.4-0.2-0.6C325.8,388.1,325.9,388,326,388z"/>
	<path fill="#5C4427" d="M324,391c0.2,1.5-0.3,2.7-1,3.9c-0.8,0.7-1.7,0.9-2.7,0.5c-0.7-0.4-0.9-1-0.9-1.8c0.4-1.5,1.7-2,2.8-2.8
		c0.2-0.1,0.4-0.2,0.6-0.3C323.3,390.5,323.7,390.7,324,391L324,391z"/>
	<path fill="#957D63" d="M320,394.9c1,0,2,0,3,0.1c0,0.4,0,0.7,0,1.1c-0.9,0.7-1.6,2-3,1c-0.7-0.5-1.5-0.9-1.1-2
		C319.2,394.7,319.6,394.7,320,394.9z"/>
	<path fill="#705438" d="M324,391c-0.3,0-0.6,0-1,0c-0.6-0.7-0.6-1.3,0-2c0.4-0.3,0.7-0.6,1.1-0.9C324,389.1,324,390,324,391z"/>
	<path fill="#54381E" d="M326,388c0,0.3,0,0.6-0.1,0.9c-0.3-0.3-0.6-0.5-0.8-0.8C325.4,388,325.7,388,326,388z"/>
	<path fill="#726559" d="M300,375c-0.4-0.7-0.7-1.3-1.1-2c1.7-1.3,3.4,0.5,5.1-0.2c1,0.1,2,0.2,3,0.3c0,0.3,0,0.6,0,0.9
		c-0.3,0.4-0.6,0.7-1.1,0.9c-1.3,0.4-2.7,0.6-4,0.9C301.2,375.7,300.5,375.6,300,375z"/>
	<path fill="#51433F" d="M305.9,374.1c0.3-0.1,0.7-0.1,1-0.2c1.7,0,3.3,0.1,5,0.1c0,0.7,0,1.3,0,2c-0.7,0.9-1.7,1.3-2.8,1.6
		c-0.7,0.2-1.3,0.1-2-0.1c-0.4-0.2-0.7-0.5-1-0.9C305.9,375.8,305.5,375,305.9,374.1z"/>
	<path fill="#6A5647" d="M300,375c0.7,0,1.5,0,2.2,0c1,0,1.2,0.6,1.3,1.4c-0.1,0.5-0.4,0.9-0.8,1.2c-1.5,0.7-3,0.7-4.5,0.5
		c-0.8-0.1-1.5-0.5-2-1.1c0-0.4-0.1-0.7-0.1-1.1C297.4,375.8,299,376.5,300,375z"/>
	<path fill="#8E7053" d="M300,385.9c0-0.3,0-0.6,0-0.8c2.9-2.5,6.3-1.1,9.5-1.4c1.8,0.2,3.5,0.4,4.1,2.5c0.1,0.5,0,1.1-0.2,1.6
		c-3.4,1.9-6.9,0.8-10.4,0.3C301.8,387.7,300.7,387.2,300,385.9z"/>
	<path fill="#E6CAA5" d="M309.9,384.9c-3.3,0.1-6.6,0.1-9.9,0.2c-1.4-0.2-3,0.4-4-1.1c-0.3-0.4-0.3-0.8,0-1.3
		c4.2-1.4,8.5,0.6,12.6-0.4c0.8,0.1,1.4,0.5,1.7,1.2C310.5,384.1,310.3,384.5,309.9,384.9z"/>
	<path fill="#72543B" d="M300,385.9c1,0.4,2,0.8,3,1.2c0.2,1.3-0.8,1.5-1.7,1.8c-0.5,0-0.9,0-1.4-0.1c-2.7-1.1-5.2,0.3-7.8,0.7
		c-0.5,0-0.9-0.2-1.2-0.6c-0.3-0.9-0.7-1.8-1-2.8C293.3,386,296.7,386,300,385.9z"/>
	<path fill="#856D61" d="M291,379c0.7-0.3,1.4-0.6,2.1-0.9c0.3,0.2,0.7,0.4,1,0.6c0.1,0.2,0.1,0.4,0.2,0.6c-0.2,1-0.9,1.3-1.8,1.4
		c-0.4,0-0.8-0.1-1.2-0.3c-0.1-0.2-0.2-0.3-0.3-0.5C291,379.6,291,379.3,291,379z"/>
	<path fill="#593E2B" d="M290.1,382c-0.4-0.4-0.7-0.7-1.1-1.1c0.7-0.3,1.3-0.7,2-1c0,0,0,0.4,0,0.4c0.3,0.2,0.5,0.5,0.5,0.8
		c-0.1,0.4-0.2,0.6-0.6,0.8C290.7,382,290.4,382,290.1,382z"/>
	<path fill="#6E5341" d="M291,381.8c0-0.3,0-0.5,0-0.8c0.3-0.4,0.7-0.5,1.2-0.5c0.9,0.1,1.8-0.3,2.7,0.1c0.3,0.2,0.4,0.5,0.3,0.8
		c0,0.3-0.1,0.4-0.1,0.4c-1,0.1-2,0.2-3,0.3C291.7,382,291.3,381.9,291,381.8z"/>
	<path fill="#998176" d="M293.9,378.9c-0.3-0.3-0.5-0.5-0.8-0.8c0.3-0.1,0.7-0.2,1-0.3c0,0-0.1,0.2-0.1,0.2c0.3,0.2,0.3,0.4,0.2,0.6
		C294.1,378.8,294,378.9,293.9,378.9z"/>
	<path fill="#372C21" d="M322.8,374.5c0.4-0.2,0.8-0.4,1.2-0.6c0.3,0.3,0.7,0.7,1,1c-0.3,0.7-0.6,1.4-1,2c-1,0.3-2,0.7-2.9,1
		c-0.7-0.1-1.2-0.5-1.5-1.1c-0.2-0.7-0.2-1.3,0.2-1.9C320.6,374.2,321.7,374.6,322.8,374.5z"/>
	<path fill="#251507" d="M320,377c0.3,0.3,0.7,0.7,1,1c0,0.3-0.1,0.6-0.1,0.8c-0.1,0.4-0.4,0.7-0.7,1c-0.5,0.4-1.1,0.7-1.8,0.8
		c-0.7,0-1.3-0.1-1.8-0.6c-0.4-0.6-0.5-1.3-0.3-2c0.1-0.5,0.3-0.9,0.5-1.3c0.6-0.5,1.2-0.6,2-0.5C319.3,376.4,319.7,376.6,320,377z"
		/>
	<path fill="#54472E" d="M319,379.9c0.4-0.3,0.8-0.5,1.2-0.8c0.5,0.4,1.2,0.4,1.8,0.8c0,0.4,0,0.7,0.1,1.1c0,0,0,0,0,0
		c-0.9,0.8-1.9,0.9-2.9,0.3C318.6,380.9,318.6,380.4,319,379.9z"/>
	<path fill="#B1A893" d="M321.9,379.9c-0.7,0.1-1.5,0.3-1.8-0.8c0.3-0.1,0.5-0.2,0.8-0.3C321.3,379.2,321.6,379.5,321.9,379.9z"/>
	<path fill="#3A2A15" d="M319.1,381.1c1,0,1.9-0.1,2.9-0.1c0,0.3,0,0.7,0,1c0,0,0,0,0,0c-0.3,0.3-0.6,0.5-1,0.7
		c-0.4,0.1-0.8,0-1.2-0.1C319.2,382.2,318.7,381.8,319.1,381.1z"/>
	<path fill="#736049" d="M300.9,405.9c-0.3-0.3-0.6-0.6-0.9-0.8c0-0.3,0-0.7,0-1c0.3-0.3,0.5-0.5,0.7-0.8c0.4-0.7,0.9-1.2,1.6-1.6
		c0.4-0.1,0.8-0.2,1.2-0.2c1.1,0.2,2.1,0.6,2.8,1.5c0.3,0.4,0.4,0.8,0.6,1.2c0.2,1.3,0.4,2.6,0.1,3.9c0,0-0.1,0-0.1,0
		c-0.7,0.3-1.4,0.7-2.1,1c-1,0-2,0-3,0c0-0.4,0-0.7,0-1.1C301.3,407.4,301,406.7,300.9,405.9z"/>
	<path fill="#423122" d="M295,397c0-0.3,0-0.6,0-1c0.5-0.6,1.2-0.8,2-0.8c1,0.1,1.9,0.6,2.8,1.2c1.5,1.2,2.6,2.5,1.6,4.5
		c-1.4,1.1-2.8,0.3-4.2-0.1c-0.8-0.5-1.7-0.9-2.2-1.8C295,398.3,295,397.7,295,397z"/>
	<path fill="#5C4C3C" d="M295,399c0.8,0,1.6,0.1,2,0.9c0.6,0.6,0.6,1.3,0.1,2c-0.4,0.4-0.7,0.7-1.1,1.1c0.2-1.6-1.4-2-2-3
		C294.3,399.7,294.7,399.3,295,399z"/>
	<path fill="#746554" d="M297.1,401.9c0-0.7,0-1.3-0.1-2c1.3,0.4,2.6,0.8,4,1.3c0.1,0.2,0.2,0.4,0.3,0.6c-0.2,0.2-0.3,0.3-0.5,0.5
		c-0.2-0.1-0.4-0.2-0.7-0.2C299.1,402.5,298,402.8,297.1,401.9z"/>
	<path fill="#2E1C09" d="M300.1,402.1c0.3,0,0.6-0.1,0.9-0.1c0.6,0.7,0.6,1.4,0,2c-0.3,0-0.6,0.1-1,0.1
		C300,403.4,300.1,402.7,300.1,402.1z"/>
	<path fill="#4A341C" d="M300.9,405.9c0.8,0.4,1,1.2,1,2c-0.7,0-1.3,0-2-0.1c0-0.3,0-0.6,0-0.9c0.3-0.3,0.6-0.6,1-0.9L300.9,405.9z"
		/>
	<path fill="#3A240C" d="M301,406.1c-0.3,0.3-0.7,0.6-1,0.9c0-0.3,0-0.6,0-0.9C300.3,406.1,300.7,406.1,301,406.1z"/>
	<path fill="#8D745A" d="M300.1,388c0.3,0,0.6,0,0.9,0c1.3,0.8,3.4,0.6,3.6,2.8c0,1-0.4,1.8-1.2,2.4c-0.4,0.2-0.9,0.3-1.4,0.3
		c-1.5-0.1-1.4-1.6-2.1-2.4c-3.3-0.1-6.5-0.2-9.8-0.2c-0.1-0.3-0.1-0.7,0-1c2.1-0.9,4.3-0.9,6.5-1.3
		C297.8,388.6,298.9,388.1,300.1,388z"/>
	<path fill="#B39781" d="M298.1,390c-2.7,0-5.3,0-8,0c0.3-0.4,0.5-0.7,0.8-1.1c0.4,0,0.8,0,1.2,0C294.2,388.9,296.7,386.6,298.1,390
		z"/>
	<path fill="#574231" d="M297,396c-0.7,0-1.3,0-2,0c-1.2-0.7-2.5-1.2-4-1.1c0-0.7,0-1.3,0-2c2,0.4,3.9,1.4,6,1
		c0.1,0.2,0.3,0.3,0.4,0.5C297.6,395,297.6,395.6,297,396z"/>
	<path fill="#786352" d="M297.1,394c0.4-0.9,1.2-0.9,1.9-1c1.4-0.4,2.3,0.4,3.3,1.2c0.1,0.6-0.2,1-0.6,1.3
		C299.6,396.4,298.1,395.8,297.1,394L297.1,394z"/>
	<path fill="#654E39" d="M302,394.1c-1-0.4-2-0.7-3-1.1c0.3-0.6,0.6-1.3,0.9-1.9c0.7,0.6,1.4,1.2,2.1,1.8c0.3,0.3,0.3,0.5,0.2,0.8
		C302.2,393.9,302.1,394.1,302,394.1z"/>
	<path fill="#514335" d="M320.1,404.1c-0.1,0.6-0.2,1.3-0.3,1.9c0,0-0.5,0-0.5,0l-0.5,0c-0.3,0.4-0.6,0.6-1.1,0.7
		c-1.6,0-3.1-0.1-4.2-1.4c-0.4-0.6-0.6-1.2-0.7-1.8c-0.2-0.9-0.4-1.7,0-2.6c1-1,2.2-1.5,3.6-1.4c0.4,0.1,0.8,0.4,1.1,0.7
		c0.6,0.9,0.5,2.1,1.4,2.8C319.3,403.3,319.7,403.7,320.1,404.1z"/>
	<path fill="#4E3B20" d="M318,406c0.3,0,0.5,0,0.8-0.1c0.4,0.7,0.7,1.3,1.1,2c-0.1,0.1-0.3,0.3-0.4,0.4c-0.4,0.1-0.8,0.1-1.2,0
		c-0.4-0.2-0.7-0.4-0.8-0.8C317.3,407,317.5,406.4,318,406z"/>
	<path fill="#70503C" d="M321,408.2c-0.4,0.2-0.7,0.5-1.1,0.7c-0.3-0.2-0.4-0.5-0.3-0.7c0.1-0.2,0.2-0.3,0.3-0.3c0,0-0.1,0-0.1,0
		C320.3,408.1,320.7,408.1,321,408.2z"/>
	<path fill="#AE8D78" d="M320,407.9c0,0.3,0,0.7-0.1,1c-0.3,0-0.6,0.1-0.9,0.1c0,0,0.1-0.3,0.1-0.3c-0.4-0.1-0.5-0.3-0.4-0.5
		c0.1-0.2,0.2-0.3,0.3-0.3C319.4,408.1,319.7,408,320,407.9z"/>
	<path fill="#63503E" d="M307.1,408c-0.8-1.2-1.2-2.6-1-4c0.6-0.5,1.3-0.9,2.2-1c1.3,0.2,2.9,0,2.7,2.1c-1.2,0.7-2.9,1-2.9,2.9
		C307.7,408,307.4,408,307.1,408z"/>
	<path fill="#4D3A2D" d="M310.9,405c-0.6-1.2-1.8-1-2.9-1.1c1.5-3.4,3.7-2,6-0.9c0,0.7,0,1.3,0,2c-0.1,0.4-0.2,0.7-0.5,0.9
		c-0.2,0.1-0.3,0.1-0.5,0.2C312.2,406,311.4,405.8,310.9,405z"/>
	<path fill="#6C5B40" d="M313.1,409.1c-0.4-0.3-0.7-0.7-1.1-1c0.3-0.3,0.7-0.3,1,0C313.3,408.3,313.3,408.7,313.1,409.1L313.1,409.1
		z"/>
	<path fill="#987C61" d="M313,408c-0.3,0-0.7,0-1,0c0.3-0.3,0.7-0.7,1-1c0,0,0.3,0.3,0.3,0.3c0,0,0,0.4,0,0.4
		C313.3,407.7,313,408,313,408z"/>
	<path fill="#725C44" d="M313,407c0-0.3,0-0.6,0-1c0,0,0-0.1,0-0.1c1-0.3,1.2,0.2,1.2,1C313.8,407.3,313.4,407.3,313,407L313,407z"
		/>
	<path fill="#6A593E" d="M316.1,408.1c0,0.6,0,1.2,0,1.8c-0.8,0.1-1.6,0-2.2-0.8c0.1-0.7,0.5-1.1,1.1-1.4
		C315.4,407.6,315.7,407.8,316.1,408.1z"/>
	<path fill="#88775C" d="M314.9,408.1c-0.3,0.4-0.7,0.7-1,1.1c-0.3-0.1-0.6-0.1-0.9-0.1c0-0.3,0-0.7,0-1c0,0,0,0,0,0
		c0.3-0.3,0.6-0.5,1-0.5C314.4,407.5,314.7,407.7,314.9,408.1z"/>
	<path fill="#5C4127" d="M314.9,408.1c-0.3,0-0.6-0.1-0.9-0.1c-0.3-0.2-0.4-0.4-0.3-0.7c0.1-0.2,0.2-0.3,0.3-0.3
		c-0.3-0.4-0.7-0.7-1-1.1c0.3-0.3,0.7-0.6,1-1c1.3,0.3,2.7,0.7,4,1c0,0.6,0,1.2,0,1.9c-0.2,0.5-0.5,0.6-0.9,0.2
		c-0.4,0-0.7,0-1.1-0.1C315.7,408.1,315.3,408.1,314.9,408.1z"/>
	<path fill="#98876D" d="M317.1,408.1c0.3-0.1,0.6-0.2,0.9-0.2c0.3,0.1,0.7,0.1,1,0.2c0,0.2,0,0.5,0,0.7
		C318.3,409,317.6,408.9,317.1,408.1z"/>
	<path fill="#786452" d="M319,397c0.1,2,1.5,2,3,2c0,1.9-1.2,1.3-2.2,1.1c-0.9,0.6-1.9,0.8-2.8,0l0-0.2c-0.6-0.5-0.7-1.2-0.4-2
		C317.2,397.1,317.9,396.5,319,397z"/>
	<path fill="#312418" d="M317,400.1c0.9,0,1.9,0,2.8,0c-0.3,0.9-0.6,1.9-0.9,2.8C316.9,403,317,401.5,317,400.1z"/>
	<path fill="#43311D" d="M320.9,403.8c-0.3,0.1-0.6,0.2-0.9,0.2C320.2,403.6,320.5,403.2,320.9,403.8z"/>
	<path fill="#523C32" d="M309,377.1c0.7-1.2,1.9-1.1,3-1.1c0.7,0.6,1.3,1.2,2,1.8c-0.2,0.8-0.8,1.3-1.3,1.9c-0.3,0.3-0.6,0.5-1,0.6
		c-1.1,0.1-2-0.3-2.8-1c-0.3-0.3-0.4-0.7-0.5-1.2C308.5,377.7,308.7,377.4,309,377.1z"/>
	<path fill="#A79388" d="M312.1,378.6c0.6-0.3,1.2-0.5,1.8-0.8c0.7,0.1,1.3,0.1,2,0.2c0.1,0.2,0.1,0.5,0.2,0.7
		c-0.5,1-1.5,1.2-2.5,1.2C312.9,379.7,312.3,379.5,312.1,378.6z"/>
	<path fill="#5E4B42" d="M318.9,377c-0.6,0-1.2,0.1-1.8,0.1c-0.4,0.5-0.8,0.5-1.1-0.1c0-0.3,0-0.6,0-0.9c0.1-0.4,0.2-0.8,0.5-1.1
		c0.2-0.1,0.4-0.2,0.6-0.3c0.4-0.1,0.8,0,1.2,0.2C318.9,375.4,319.6,376,318.9,377z"/>
	<path fill="#2F231E" d="M314,374c0.7,0,1.4,0,2.1,0c0.3,0.1,0.6,0.1,1,0.2l0,0.5l-0.1,0.5c-0.5,0.4-1.1,0.4-1.6,0.1
		C314.9,374.8,314.4,374.4,314,374z"/>
	<path fill="#523D32" d="M316,377c0.4,0,0.7,0.1,1.1,0.1c-0.1,0.4-0.2,0.7-0.3,1.1c-0.3,0.3-0.7,0.4-1,0.1c0,0,0.2-0.2,0.2-0.2
		C316,377.7,316,377.3,316,377z"/>
	<path fill="#4F443B" d="M322.8,374.5c-0.9,0.2-1.9,0.4-2.8,0.5c-0.9,0.3-1.3,0-1-1c0.4,0,0.7,0,1.1-0.1c0.3-0.4,0.6-0.4,0.8,0
		c0.4,0,0.8,0,1.1,0c0.3-0.4,0.6-0.4,1,0C322.9,374.1,322.9,374.3,322.8,374.5z"/>
	<path fill="#2D241B" d="M318.9,374.1c0.3,0.3,0.7,0.7,1,1c0,0.6,0,1.3,0,1.9c-0.4,0-0.7,0-1.1,0c-0.3-0.6-0.6-1.3-0.9-1.9
		c-0.3-0.2-0.4-0.4-0.3-0.6c0.1-0.2,0.2-0.3,0.3-0.3C318.3,374.1,318.6,374.1,318.9,374.1z"/>
	<path fill="#261E18" d="M318,374.2c0,0.3,0,0.6,0,0.9c-0.3-0.1-0.7-0.3-1-0.4c0,0,0-0.5,0-0.5C317.3,374.1,317.7,374.1,318,374.2z"
		/>
	<path fill="#4E4133" d="M320.9,374l-0.4,0c0,0-0.4,0-0.4,0c0-0.3,0-0.7,0-1C320.3,373.3,320.6,373.7,320.9,374z"/>
	<path fill="#BFB2A4" d="M323,373.9l-0.5,0.1c0,0-0.5-0.1-0.5-0.1c0-0.3,0-0.7,0-1c0.3,0.1,0.7,0.1,1,0.2
		C323,373.4,323,373.7,323,373.9z"/>
	<path fill="#7C6458" d="M293.9,378.9c0.1-0.3,0.1-0.5,0.1-0.8c0.8-0.2,1.7-0.2,2.2-1.1c0.6,0,1.3,0,1.9,0c0.8,0.8,0.9,1.6,0.5,2.6
		c-1,1.3-2.1,0.6-3.2,0.3c-0.4-0.2-0.8-0.5-1.1-0.8L293.9,378.9z"/>
	<path fill="#78644F" d="M319,397c-0.7,0.3-1.4,0.7-2,1c-0.8,0.4-1.3-0.1-1.7-0.6c-0.5-0.8-0.8-1.6-0.4-2.5c1.4-0.7,2.8-0.5,4.2,0.2
		c0.3,0.6,0.6,1.3,0.9,1.9C319.6,397,319.3,397,319,397z"/>
	<path fill="#705439" d="M321.9,386.2c0,0.9,0.1,1.9,0.1,2.8c0.4,0.4,0.4,0.9,0,1.3c-0.9,0.6-1.9,0.6-2.9,0.4
		c-1.5-0.7-3-1.4-4.3-2.5c-0.3-0.8,0.1-1.3,0.7-1.8c1-0.5,2.2-0.8,3.3-1.1c0.7-0.2,1.4-0.2,2,0C321.3,385.5,321.7,385.7,321.9,386.2
		z"/>
	<path fill="#B79C86" d="M321.9,386.2c-0.4-0.1-0.7-0.2-1.1-0.4c-0.5-0.5-0.4-1.1-0.1-1.6c0.3-0.3,0.7-0.3,1.1-0.2l0.4,0
		c0.2,0.4,0.4,0.7,0.8,0.9c0.3,0,0.6,0.1,1,0.2C323.3,385.4,322.6,385.8,321.9,386.2z"/>
	<path fill="#806450" d="M322,390.1c0-0.4,0-0.7,0-1.1c0.3,0,0.6,0,1,0c0,0.7,0,1.4,0,2c0,0-0.2,0-0.2,0
		C322.1,391.1,321.8,390.9,322,390.1z"/>
	<path fill="#DAC0A5" d="M323,384.8c-0.3-0.3-0.6-0.6-0.8-0.9C322.5,384.3,322.8,384.5,323,384.8z"/>
	<path fill="#78624F" d="M321.8,384c-0.3,0-0.6,0-0.9,0.1c-0.1-0.2-0.2-0.3-0.3-0.5c0-0.2,0-0.4,0-0.5c0.1-0.1,0.2-0.3,0.4-0.4
		c0.4-0.1,0.7,0,1,0.3c0,0-0.1,0-0.1,0C322,383.3,321.9,383.6,321.8,384z"/>
	<path fill="#937D6A" d="M322.1,383c-0.4,0-0.8,0-1.1,0l-0.3-0.4l0.3-0.4c0.4,0,0.7-0.1,1.1-0.1C322,382.3,322,382.6,322.1,383z"/>
	<path fill="#3F3019" d="M319,395.1c-1.4,1.1-2.7-0.2-4.1-0.2c-0.4-0.3-0.6-0.7-0.8-1.2c-0.2-0.7-0.1-1.5,0.2-2.2
		c0.5-1,1.4-1.3,2.5-1.3c1.6,0.3,2.8,1.1,3,2.9c0,0.6,0,1.2,0,1.8C319.7,395,319.4,395,319,395.1z"/>
	<path fill="#A68E6F" d="M320,393.1c-1-0.7-2-1.4-3-2.1c-0.1-1.7,0.8-1.6,2-1c1,0,2,0.1,3,0.1c0.3,0.3,0.6,0.6,0.8,0.9
		C322.4,392.4,321.4,393,320,393.1z"/>
	<path fill="#2E2B24" d="M303.1,375.9c-0.3-0.3-0.6-0.6-0.9-0.9c1-1.5,2.5-0.6,3.7-0.9c0.3,0.6,0.7,1.2,1,1.8
		C305.7,377.2,304.4,376.6,303.1,375.9z"/>
	<path fill="#4D362C" d="M303.1,375.9c1.3-0.8,2.6,0,3.8,0c0,0.4,0,0.7,0.1,1.1c0.4,0.5,0.4,0.9,0.1,1.4c-1.5,1.5-3,2.1-4.5,0
		c-0.1-0.5,0-1,0.4-1.4C303,376.7,303.1,376.3,303.1,375.9z"/>
	<path fill="#422D23" d="M307,378.1c0-0.4,0-0.7,0-1.1c0.7,0,1.3,0,2,0.1c0,0.3,0,0.5,0,0.8C308.4,378.3,307.9,380.4,307,378.1z"/>
	<path fill="#3E281A" d="M303,377c0,0.3,0,0.7,0,1c-0.7,0.9-1.5,1.5-2.5,1.9c-0.8,0.3-1.6,0.6-2.4,0.1c0-1,0-2-0.1-3
		C299.7,377,301.3,377,303,377z"/>
	<path fill="#533924" d="M304,391c-0.4-1.7-2.4-1.6-3-3c0.7-0.3,1.4-0.6,2.1-0.9c3.3,0.3,6.6,0.6,10,0.9c-0.5,4.5-4.4,2.8-6.8,3.7
		C305.4,391.8,304.6,391.6,304,391z"/>
	<path fill="#3B2616" d="M306,390.9c1.9-2.1,5.7,0.6,7-2.9c0-0.3,0-0.5,0-0.8c1.1-0.9,1.5,0.1,2,0.8c1.6,0.1,3.3,0.1,4,2
		c-0.8,0.1-1.6,0.1-2,1c-0.8,0-1.6,0.2-2.1,0.9c-0.4,0.4-0.9,0.6-1.4,0.6C311,392,308.2,393.1,306,390.9z"/>
	<path fill="#C1A386" d="M315,388c-0.7-0.3-1.3-0.5-2-0.8c0-2.2-1.7-2.1-3.1-2.3c0-0.3,0.1-0.6,0.1-0.9c0.8-1.8,2.4-2.1,4.1-2
		c0.9,0.1,1.6,0.4,2.2,1.1c0.8,1.4,0.7,2.7-0.4,3.9C315.7,387.2,315.3,387.6,315,388z"/>
	<path fill="#937C68" d="M296.1,382.9c0-0.3,0-0.6-0.1-0.8c2.9-2.3,6.4-1.8,9.7-1.8c0.7-0.1,1.5,0,2.2,0.2c0.9,0.6,1.5,1.3,1.2,2.5
		C304.7,385.3,300.4,383.1,296.1,382.9z"/>
	<path fill="#675243" d="M309,382.9c-0.4-0.6-0.7-1.3-1.1-1.9c-0.5-1.2,0.3-1.7,1.2-2.1c0.9,0.4,1.9,0.8,2.8,1.2
		c0.4,0,0.8,0,1.1,0.1c0.4,0.1,0.7,0.4,1,0.6c0.2,0.3,0.4,0.7,0.4,1.1c0,0.4-0.2,0.7-0.6,0.9c-1.3,0.4-2.6,0.7-3.9,1.1
		C309.7,383.6,309.4,383.3,309,382.9z"/>
	<path fill="#42250D" d="M298.1,390c-1.7-1.9-4-0.6-6-1.1c2.6-1.1,5-3.3,8-0.8C299.4,388.7,298.8,389.3,298.1,390z"/>
	<path fill="#554031" d="M306.1,381c-3.4,0.3-6.8,0.7-10.2,1c-0.3-0.1-0.6-0.1-0.9-0.2c0-0.3,0-0.6,0-0.8c-0.6-0.6-0.5-1.2,0-1.8
		c1,0.3,2.1,0.5,3.1,0.8c0.7-0.3,1.4-0.6,2.1-0.9C302.1,379.7,304.8,378.2,306.1,381z"/>
	<path fill="#4F3524" d="M295,379.2c0,0.6,0,1.2,0,1.8c-1,0-2,0-3-0.1c-0.2-0.2-0.3-0.3-0.2-0.5c0.1-0.2,0.1-0.3,0.2-0.3
		c0.7-0.4,1.4-0.7,2.2-1.1C294.4,379.1,294.7,379.1,295,379.2z"/>
	<path fill="#3C210F" d="M292,380.1c0,0.3,0,0.5,0,0.8c-0.3,0-0.6,0.1-1,0.1c0-0.3,0-0.5,0-0.8C291.3,380.1,291.6,380.1,292,380.1z"
		/>
	<path fill="#59422F" d="M319.1,381.1c0.3,0.3,0.7,0.6,1,0.9c0.2,0.2,0.3,0.5,0.3,0.8c0,0.3-0.1,0.4-0.2,0.4
		c-0.3,0.3-0.7,0.5-1.2,0.6c-0.7,0.1-1.3,0-1.9-0.3c-0.5-0.4-0.9-0.9-1.4-1.3c-0.2-0.4-0.3-0.8-0.3-1.3c0.1-0.4,0.3-0.8,0.6-1.2
		c0.4-0.2,0.8-0.1,1.1,0.3c0.6,0,1.3-0.1,1.9-0.1C319,380.3,319,380.7,319.1,381.1z"/>
	<path fill="#958176" d="M317,380c-0.3,0-0.7,0-1,0c-0.3,0.3-0.7,0.5-1.2,0.5c-0.2-0.1-0.4-0.1-0.7-0.2c-0.2-0.2-0.3-0.3-0.5-0.5
		c0-0.2,0-0.5,0.1-0.7c0.7-0.3,1.4-0.6,2.1-0.9c0.3,0,0.7,0,1-0.1C316.9,378.8,317,379.4,317,380z"/>
	<path fill="#4E3D33" d="M314,403c-2,0.3-4.2-0.8-6,1c-0.7,0-1.3,0-2,0c0-0.3-0.1-0.7-0.1-1c-0.3-2.4,1.5-2.6,3-3.1
		c0.7-0.2,1.4-0.3,2.1-0.3c1,0.1,1.7,0.5,2,1.6C313.3,401.7,313.7,402.4,314,403z"/>
	<path fill="#6F6157" d="M309.9,401c-1.7-0.1-3.2,0.4-4,2c-1-0.4-2-0.7-3-1.1c-0.3-0.4-0.4-0.8-0.4-1.3c0.4-1.2,1.3-1.8,2.4-2.3
		c0.9-0.3,1.7-0.4,2.7-0.4c0.4,0.1,0.9,0.2,1.3,0.3c0.6,0.3,1.1,0.8,1.4,1.4C310.4,400.2,310.3,400.6,309.9,401z"/>
	<path fill="#4B3A26" d="M301,404c0-0.7,0-1.4,0-2c0,0,0-0.1,0-0.1c0.2-0.3,0.5-0.4,0.9-0.3c0.1,0.1,0.3,0.2,0.4,0.3
		C302.1,402.8,301.9,403.6,301,404z"/>
	<path fill="#958676" d="M303,400.9c0,0.3-0.1,0.7-0.1,1c-0.2,0-0.5,0-0.7-0.1c0,0-0.1,0-0.1,0C301.6,400.9,302.2,400.8,303,400.9z"
		/>
	<path fill="#564536" d="M303,400.9c-0.3,0.3-0.6,0.7-0.9,1c-0.4,0-0.8,0-1.2-0.1c0-0.2,0-0.4,0-0.7c0.5-1.9-0.8-3-2-4.2
		c1.4-1.3,2.9-0.8,4.4-0.3c0.9,0.5,2,0.9,1.7,2.3C304.4,399.7,303.7,400.3,303,400.9z"/>
	<path fill="#453121" d="M302.9,398c-1.2-0.8-2.5-1.1-3.9-1c-0.7-0.3-1.3-0.7-2-1c0-0.7,0-1.4,0-2c1.5,0.9,3.2,1.2,4.9,0.9
		c0.4-0.3,0.7-0.4,1.2-0.2c0.8,0.5,1.2,1.2,1.2,2.1C304.1,397.4,303.4,397.6,302.9,398z"/>
	<path fill="#85715E" d="M306,390.9c2.7,0.6,5.7-0.9,8.2,1.1c-0.2,2-1.7,2-3.1,2.3c-1.7,0.1-3.4,0.1-5.2,0c-1.2-0.1-2.3-0.4-3-1.5
		c0.3-0.6,0.7-1.2,1-1.9C304.7,390.9,305.4,390.9,306,390.9z"/>
	<path fill="#66533E" d="M303,392.8c1,0.1,2,0.1,3,0.2c0.8,0.6,1.9,1.2,0.7,2.4c-1.3,0.7-2.5,0.3-3.7-0.4c-0.4-0.1-0.7-0.1-1.1-0.2
		c0-0.3,0-0.5,0-0.8c0-0.4,0-0.7,0-1.1C302.3,392.9,302.7,392.9,303,392.8z"/>
	<path fill="#6E5B4D" d="M313,401.1c-0.7-0.4-1.3-0.7-2-1.1c-0.5-0.4-0.6-1-0.5-1.7c0.2-0.4,0.4-0.7,0.8-0.9
		c0.6-0.3,1.2-0.4,1.8-0.5c1-0.2,2-0.5,2.9,0.1c0.3,0.3,0.7,0.7,1,1c0,0.6,0,1.3,0,1.9C315.7,400.3,314.3,400.7,313,401.1z"/>
	<path fill="#80654B" d="M314,407c0,0.3,0,0.7,0,1c-0.3,0-0.7,0-1,0c0-0.3,0-0.7,0-1C313.3,407,313.7,407,314,407z"/>
	<path fill="#7F6A5E" d="M306.1,381c-1.5-2.1-4.5,0.1-6-2c0.9-0.5,1.7-1.2,2.9-1c1.3,1.9,2.6,0.5,4,0.1c0.8,1.1,1.4-0.2,2.1-0.3
		c0.1,0.4,0.1,0.7,0.2,1.1c-0.4,0.7-0.8,1.4-1.2,2.1C307.3,381,306.7,381,306.1,381z"/>
	<path fill="#523E32" d="M313.7,379.2c0.1,0.2,0.2,0.5,0.3,0.8c-0.2,0.4-0.5,0.8-0.9,1c-0.4-0.3-0.8-0.6-1.1-0.8
		c0.1-0.5,0.1-1,0.2-1.5C312.7,378.8,313.2,379,313.7,379.2z"/>
	<path fill="#5F4834" d="M316,397c-1,0.3-2,0.7-3,1c-0.6-0.9-0.3-1.8,0-2.7c0.4-0.8,0.8-1.7,2-1.4c0,0.4,0,0.7,0,1.1
		C315.3,395.6,315.7,396.3,316,397z"/>
	<path fill="#CBAD92" d="M317,382.8c0.6,0.1,1.3,0.2,1.9,0.3c0.3,0.3,0.6,0.7,0.7,1.2c0.1,0.7-0.2,1.4-0.7,1.9
		c-0.7,1.2-1.9,0.9-3,0.8c0-1.2,0-2.5,0-3.7C316.2,382.6,316.5,382.5,317,382.8z"/>
	<path fill="#806B5B" d="M321,384c-0.7,0-1.3,0-2,0c0-0.3,0-0.6,0-0.9c0.3,0,0.7,0,1,0c0.3,0,0.6,0,1,0C321,383.3,321,383.6,321,384
		z"/>
	<path fill="#48311D" d="M315,393.9c-0.8,0.5-1,1.3-1,2.1c-2.1,0.2-4,0.2-2.9-2.9c1.1-0.2,2.5,0.1,3.2-1.1c0.2,0,0.4,0,0.7,0
		C315,392.6,315,393.2,315,393.9z"/>
	<path fill="#755D47" d="M317,382.8c-0.3,0.1-0.7,0.3-1,0.4c-0.7-0.1-1.4-0.2-2-0.3c0-0.3,0-0.6,0-0.8c0.2-0.3,0.6-0.5,1-0.6
		c0.4,0.1,0.7,0.2,1,0.6C316.3,382.2,316.7,382.5,317,382.8z"/>
	<path fill="#372314" d="M313.1,380.9c0.3-0.3,0.6-0.6,0.9-1c0,0,0,0,0,0c0.1,0.2,0.3,0.3,0.4,0.5c-0.1,0.2-0.2,0.4-0.3,0.5
		C313.7,381,313.4,380.9,313.1,380.9z"/>
	<path fill="#B6A293" d="M315.1,381.9c-0.4,0-0.7,0.1-1.1,0.1c0-0.3,0-0.6,0.1-0.9c0,0-0.1-0.1-0.1-0.1c0.2-0.1,0.5-0.2,0.7-0.4
		c0.2,0.2,0.4,0.3,0.6,0.5C315.2,381.4,315.1,381.6,315.1,381.9z"/>
	<path fill="#523D32" d="M315,380c0.3,0,0.7,0,1,0c0,0.4,0,0.7,0,1.1c-0.3,0.3-0.6,0.3-1,0.1l0.1-0.4c-0.3-0.2-0.4-0.3-0.3-0.5
		C314.8,380.1,314.9,380,315,380z"/>
	<path fill="#483425" d="M315,380c0,0.3,0,0.5,0,0.8c-0.4,0.1-0.7,0.1-1.1,0.2c0-0.3,0-0.7,0-1C314.3,380,314.7,380,315,380z"/>
	<path fill="#5A453A" d="M311,398c0,0.7,0,1.4,0,2c-0.4,0.3-0.7,0.6-1.1,0.9c0-0.3,0.1-0.6,0.1-0.9c-0.5-0.6-0.6-1.2-0.3-1.9
		C310.1,397.8,310.5,397.7,311,398z"/>
	<path fill="#412C18" d="M311,398c-0.3,0-0.6,0-1,0c-0.3,0.3-0.5,0.9-1,1c-0.3,0-0.6,0-0.9-0.1c-1-1.3-3-0.8-4-2.1
		c-0.3-0.6-0.7-1.2-1-1.8c1.3,0,2.6-0.1,3.9-0.1C309.9,393.8,311.6,394.4,311,398L311,398z"/>
	<path fill="#6F5A46" d="M304,396.9c1.5,0.4,3.7-0.6,4,2.1c-1,0-2,0-3,0c-0.5-0.8-1.3-1-2.1-1C303.3,397.6,303.7,397.3,304,396.9z"
		/>
	<path fill="#533C30" d="M309,399.1c0.3-0.3,0.7-0.7,1-1c0,0.7,0,1.3,0,2C309.7,399.7,309.3,399.4,309,399.1z"/>
	<path fill="#5F4834" d="M311,398c-0.1-2.6-1.9-3-4-3.1c-0.3-0.6-0.6-1.3-0.9-1.9c1.7,0,3.4,0.1,5,0.1c0,1.9,1.7,2.1,2.9,2.9
		c-0.3,0.7-0.7,1.3-1,2C312.3,398,311.7,398,311,398z"/>
</g>
</svg>
