<?xml version="1.0" encoding="utf-8"?>
<!-- Generator: Adobe Illustrator 18.0.0, SVG Export Plug-In . SVG Version: 6.00 Build 0)  -->
<!DOCTYPE svg PUBLIC "-//W3C//DTD SVG 1.1//EN" "http://www.w3.org/Graphics/SVG/1.1/DTD/svg11.dtd">
<svg version="1.1" id="Layer_1" xmlns="http://www.w3.org/2000/svg" xmlns:xlink="http://www.w3.org/1999/xlink" x="0px" y="0px"
	 viewBox="0 0 612 792" enable-background="new 0 0 612 792" xml:space="preserve">
<path fill="#88875A" d="M278.7,370.7c2.3,0,1.5,2.6,2.9,3.3c0.7,0.5,1.5,1,1.9,1.9c1.5,3.7,20.4-3.5,25.2-0.4
	c0.5,1.8-1.3,2.5-1.9,4.2c2.9-0.1,5.6-0.9,8.4-0.9c4.1-0.1,7.9,0.3,10.9,3.5c1.5,1.6,3.4,1.9,5.4,0.9c1.2-0.6,2.5-0.9,3.8-0.4
	c1.5,1.2,0.3,2.3-0.2,3.3c-2.9,2.7-6.3,3-9.9,1.9c-1.5-0.4-2-1.6-2.4-2.9c-1.7-2.4-4.3-1.8-6.6-1.7c-2.1,0.1-4.3,0-6.4,0
	c-2.1,0-4.2-0.2-6.3,0.5c-3.1,0.7-6.2,0.1-9.3,0.7c-0.5,0.1-1,0.1-1.5,0.1c-4.3-1.1-8.5-1.1-12.5,1.3c-1.8,1.6-3.3,4.5-6.4,2.4
	c-3.1-2.2-2.1-4.9-0.6-7.6c0.3-0.6,0.4-1.2,0.6-1.8c-2.1-1.9-2.8-4.1-1.3-6.7C274,370.1,275.9,368.6,278.7,370.7z"/>
<path fill="#88885C" d="M335.1,382.8c-1.1,0.6-2.3,1.3-3.5,1.8c-2.3,1-4.2,1.7-6.3-1c-3.8-4.9-9.4-3.7-14.5-3.1
	c-2.2,0.3-4.4,0.9-6.7,0.3c0.2-2.8,3.5-2.9,4.1-5.2c0-1.3,0.8-1.7,1.9-1.9c4.5,0.1,9,0,13-2.5c3.4-2.5,6.7-5.5,10.8-1.1
	c1.1,3.2,0.3,6.1-1,9C333.7,380.3,334.4,381.6,335.1,382.8z"/>
<path fill="#83857D" d="M292.7,384c0,0.6-8.9,1.7-12.6,2.1c0.1-0.6,0.2-1.8,0.3-1.8C284.5,384.1,288.5,381.9,292.7,384z"/>
<path fill="#525343" d="M317.1,384.1c-1.9-1.1-4-0.2-6-0.5c-0.8-0.1-2.1,0.2-1.8-1.4c3.4,0,6.9,0.1,10.3,0c2.2-0.1,2.8,1.2,3,3
	C320.5,383.7,317,384.4,317.1,384.1z"/>
<path fill="#51533B" d="M313.5,373.3c-18.3,1.6,7.2,2,8.6-3.1c0.4,0.3,0.7,0.7,1.1,1c-0.3,0.9,0.3,2.5-0.8,2.5
	c-4.2,0.2,3.7-1.3-12.6,0.5C293.5,376.1,331.7,371.7,313.5,373.3z"/>
<path fill="#52534D" d="M333,379.1c0.3-3,0.7-6,1-9C336.4,373.4,335.6,376.4,333,379.1z"/>
<path fill="#707269" d="M272.6,373.2c-1.1,2.2,0.9,3.9,1.1,5.8c-3.7-1.4-3.4-3.9-1.9-6.8C272.1,372.4,272.4,372.7,272.6,373.2z"/>
<path fill="#3E4032" d="M325,388c3.4,0.1,6.8-0.2,9.9-1.9C332.3,390.3,328.8,390.1,325,388z"/>
<path fill="#666664" d="M272.6,373.2c-0.3-0.3-0.6-0.6-0.9-1c3.3-3.8,4.5-4.1,7-1.5C275.8,369.3,274,370.8,272.6,373.2z"/>
<path fill="#6B664F" d="M309.3,382.2c2.4,1.9,8,1.3,8,1.5c0,0.1-0.1,0.3-0.2,0.4c-4-0.1-8-0.1-12-0.2c-0.6-0.5-1.6,0-2-1
	C305.1,381.8,307.2,382.1,309.3,382.2z"/>
<path fill="#6B664F" d="M292.7,384"/>
</svg>
